<?xml version="1.0" encoding="UTF-8" standalone="no"?>
<!DOCTYPE svg PUBLIC "-//W3C//DTD SVG 1.1//EN"
 "http://www.w3.org/Graphics/SVG/1.1/DTD/svg11.dtd">
<!-- Generated by graphviz version 2.38.0 (20140413.2041)
 -->
<!-- Title: G Pages: 1 -->
<svg width="137pt" height="175pt"
 viewBox="0.00 0.00 136.95 175.00" xmlns="http://www.w3.org/2000/svg" xmlns:xlink="http://www.w3.org/1999/xlink">
<g id="graph0" class="graph" transform="scale(1 1) rotate(0) translate(4 171)">
<title>G</title>
<polygon fill="white" stroke="none" points="-4,4 -4,-171 132.953,-171 132.953,4 -4,4"/>
<!-- Addressee -->
<g id="node1" class="node"><title>Addressee</title>
<polygon fill="none" stroke="black" points="15.3418,-102.5 15.3418,-166.5 113.611,-166.5 113.611,-102.5 15.3418,-102.5"/>
<text text-anchor="start" x="23.3418" y="-156.1" font-family="Bitstream Vera Sans" font-size="8.00">Onix::V3_0::Addressee</text>
<polyline fill="none" stroke="black" points="15.3418,-150.5 113.611,-150.5 "/>
<text text-anchor="start" x="23.3418" y="-140.1" font-family="Bitstream Vera Sans" font-size="8.00">addressee_name</text>
<text text-anchor="start" x="23.3418" y="-132.1" font-family="Bitstream Vera Sans" font-size="8.00">contact_name</text>
<text text-anchor="start" x="23.3418" y="-124.1" font-family="Bitstream Vera Sans" font-size="8.00">email_address</text>
<polyline fill="none" stroke="black" points="15.3418,-118.5 113.611,-118.5 "/>
<text text-anchor="start" x="23.3418" y="-108.1" font-family="Bitstream Vera Sans" font-size="8.00">addressee_identifiers[]</text>
</g>
<!-- AddresseeIdentifier -->
<g id="node2" class="node"><title>AddresseeIdentifier</title>
<polygon fill="none" stroke="black" points="0,-0.5 0,-65.5 128.953,-65.5 128.953,-0.5 0,-0.5"/>
<text text-anchor="start" x="8" y="-55.1" font-family="Bitstream Vera Sans" font-size="8.00">Onix::V3_0::AddresseeIdentifier</text>
<polyline fill="none" stroke="black" points="0,-49.5 128.953,-49.5 "/>
<text text-anchor="start" x="8" y="-39.1" font-family="Bitstream Vera Sans" font-size="8.00">addressee_id_type</text>
<text text-anchor="start" x="8" y="-31.1" font-family="Bitstream Vera Sans" font-size="8.00">id_type_name</text>
<text text-anchor="start" x="8" y="-23.1" font-family="Bitstream Vera Sans" font-size="8.00">id_value</text>
<polyline fill="none" stroke="black" points="0,-17.5 128.953,-17.5 "/>
</g>
<!-- Addressee&#45;&gt;AddresseeIdentifier -->
<g id="edge1" class="edge"><title>Addressee&#45;&gt;AddresseeIdentifier</title>
<path fill="none" stroke="black" d="M64.4766,-102.291C64.4766,-93.9341 64.4766,-84.7632 64.4766,-75.9296"/>
<polygon fill="black" stroke="black" points="67.9767,-75.7838 64.4766,-65.7838 60.9767,-75.7838 67.9767,-75.7838"/>
</g>
</g>
</svg>
