<?xml version="1.0" encoding="UTF-8" standalone="no"?>
<!DOCTYPE svg PUBLIC "-//W3C//DTD SVG 1.1//EN"
 "http://www.w3.org/Graphics/SVG/1.1/DTD/svg11.dtd">
<!-- Generated by graphviz version 2.38.0 (20140413.2041)
 -->
<!-- Title: G Pages: 1 -->
<svg width="127pt" height="263pt"
 viewBox="0.00 0.00 127.16 263.00" xmlns="http://www.w3.org/2000/svg" xmlns:xlink="http://www.w3.org/1999/xlink">
<g id="graph0" class="graph" transform="scale(1 1) rotate(0) translate(4 259)">
<title>G</title>
<polygon fill="white" stroke="none" points="-4,4 -4,-259 123.16,-259 123.16,4 -4,4"/>
<!-- AlternativeName -->
<g id="node1" class="node"><title>AlternativeName</title>
<polygon fill="none" stroke="black" points="0,-102.5 0,-254.5 119.16,-254.5 119.16,-102.5 0,-102.5"/>
<text text-anchor="start" x="8" y="-244.1" font-family="Bitstream Vera Sans" font-size="8.00">Onix::V3_0::AlternativeName</text>
<polyline fill="none" stroke="black" points="0,-238.5 119.16,-238.5 "/>
<text text-anchor="start" x="8" y="-228.1" font-family="Bitstream Vera Sans" font-size="8.00">name_type</text>
<text text-anchor="start" x="8" y="-220.1" font-family="Bitstream Vera Sans" font-size="8.00">person_name</text>
<text text-anchor="start" x="8" y="-212.1" font-family="Bitstream Vera Sans" font-size="8.00">person_name_inverted</text>
<text text-anchor="start" x="8" y="-204.1" font-family="Bitstream Vera Sans" font-size="8.00">titles_before_names</text>
<text text-anchor="start" x="8" y="-196.1" font-family="Bitstream Vera Sans" font-size="8.00">names_before_key</text>
<text text-anchor="start" x="8" y="-188.1" font-family="Bitstream Vera Sans" font-size="8.00">prefix_to_key</text>
<text text-anchor="start" x="8" y="-180.1" font-family="Bitstream Vera Sans" font-size="8.00">key_names</text>
<text text-anchor="start" x="8" y="-172.1" font-family="Bitstream Vera Sans" font-size="8.00">names_after_key</text>
<text text-anchor="start" x="8" y="-164.1" font-family="Bitstream Vera Sans" font-size="8.00">suffix_to_key</text>
<text text-anchor="start" x="8" y="-156.1" font-family="Bitstream Vera Sans" font-size="8.00">letters_after_names</text>
<text text-anchor="start" x="8" y="-148.1" font-family="Bitstream Vera Sans" font-size="8.00">titles_after_names</text>
<text text-anchor="start" x="8" y="-140.1" font-family="Bitstream Vera Sans" font-size="8.00">gender</text>
<text text-anchor="start" x="8" y="-132.1" font-family="Bitstream Vera Sans" font-size="8.00">corporate_name</text>
<text text-anchor="start" x="8" y="-124.1" font-family="Bitstream Vera Sans" font-size="8.00">corporate_name_inverted</text>
<polyline fill="none" stroke="black" points="0,-118.5 119.16,-118.5 "/>
<text text-anchor="start" x="8" y="-108.1" font-family="Bitstream Vera Sans" font-size="8.00">name_identifiers[]</text>
</g>
<!-- NameIdentifier -->
<g id="node2" class="node"><title>NameIdentifier</title>
<polygon fill="none" stroke="black" points="3.55664,-0.5 3.55664,-65.5 115.604,-65.5 115.604,-0.5 3.55664,-0.5"/>
<text text-anchor="start" x="11.5566" y="-55.1" font-family="Bitstream Vera Sans" font-size="8.00">Onix::V3_0::NameIdentifier</text>
<polyline fill="none" stroke="black" points="3.55664,-49.5 115.604,-49.5 "/>
<text text-anchor="start" x="11.5566" y="-39.1" font-family="Bitstream Vera Sans" font-size="8.00">name_id_type</text>
<text text-anchor="start" x="11.5566" y="-31.1" font-family="Bitstream Vera Sans" font-size="8.00">id_type_name</text>
<text text-anchor="start" x="11.5566" y="-23.1" font-family="Bitstream Vera Sans" font-size="8.00">id_value</text>
<polyline fill="none" stroke="black" points="3.55664,-17.5 115.604,-17.5 "/>
</g>
<!-- AlternativeName&#45;&gt;NameIdentifier -->
<g id="edge1" class="edge"><title>AlternativeName&#45;&gt;NameIdentifier</title>
<path fill="none" stroke="black" d="M59.5801,-102.388C59.5801,-93.3285 59.5801,-84.3408 59.5801,-76.0041"/>
<polygon fill="black" stroke="black" points="63.0802,-75.8361 59.5801,-65.8362 56.0802,-75.8362 63.0802,-75.8361"/>
</g>
</g>
</svg>
