<?xml version="1.0" encoding="UTF-8" standalone="no"?>
<!DOCTYPE svg PUBLIC "-//W3C//DTD SVG 1.1//EN"
 "http://www.w3.org/Graphics/SVG/1.1/DTD/svg11.dtd">
<!-- Generated by graphviz version 2.38.0 (20140413.2041)
 -->
<!-- Title: G Pages: 1 -->
<svg width="185pt" height="137pt"
 viewBox="0.00 0.00 184.70 137.00" xmlns="http://www.w3.org/2000/svg" xmlns:xlink="http://www.w3.org/1999/xlink">
<g id="graph0" class="graph" transform="scale(1 1) rotate(0) translate(4 133)">
<title>G</title>
<polygon fill="white" stroke="none" points="-4,4 -4,-133 180.7,-133 180.7,4 -4,4"/>
<!-- AncillaryContent -->
<g id="node1" class="node"><title>AncillaryContent</title>
<polygon fill="none" stroke="black" points="24.5414,-72.5 24.5414,-128.5 152.159,-128.5 152.159,-72.5 24.5414,-72.5"/>
<text text-anchor="start" x="32.5414" y="-118.1" font-family="Bitstream Vera Sans" font-size="8.00">Onix::V3_0::AncillaryContent</text>
<polyline fill="none" stroke="black" points="24.5414,-112.5 152.159,-112.5 "/>
<text text-anchor="start" x="32.5414" y="-102.1" font-family="Bitstream Vera Sans" font-size="8.00">ancillary_content_type</text>
<text text-anchor="start" x="32.5414" y="-94.1" font-family="Bitstream Vera Sans" font-size="8.00">number</text>
<polyline fill="none" stroke="black" points="24.5414,-88.5 152.159,-88.5 "/>
<text text-anchor="start" x="32.5414" y="-78.1" font-family="Bitstream Vera Sans" font-size="8.00">ancillary_content_descriptions[]</text>
</g>
<!-- AncillaryContentDescription -->
<g id="node2" class="node"><title>AncillaryContentDescription</title>
<ellipse fill="none" stroke="black" cx="88.35" cy="-18" rx="88.2003" ry="18"/>
<text text-anchor="middle" x="88.35" y="-15.6" font-family="Bitstream Vera Sans" font-size="8.00">Onix::V3_0::AncillaryContentDescription</text>
</g>
<!-- AncillaryContent&#45;&gt;AncillaryContentDescription -->
<g id="edge1" class="edge"><title>AncillaryContent&#45;&gt;AncillaryContentDescription</title>
<path fill="none" stroke="black" d="M88.35,-72.2464C88.35,-63.9078 88.35,-54.7356 88.35,-46.3881"/>
<polygon fill="black" stroke="black" points="91.8501,-46.3805 88.35,-36.3806 84.8501,-46.3806 91.8501,-46.3805"/>
</g>
</g>
</svg>
