<?xml version="1.0" encoding="UTF-8" standalone="no"?>
<!DOCTYPE svg PUBLIC "-//W3C//DTD SVG 1.1//EN"
 "http://www.w3.org/Graphics/SVG/1.1/DTD/svg11.dtd">
<!-- Generated by graphviz version 2.38.0 (20140413.2041)
 -->
<!-- Title: G Pages: 1 -->
<svg width="234pt" height="175pt"
 viewBox="0.00 0.00 234.27 175.00" xmlns="http://www.w3.org/2000/svg" xmlns:xlink="http://www.w3.org/1999/xlink">
<g id="graph0" class="graph" transform="scale(1 1) rotate(0) translate(4 171)">
<title>G</title>
<polygon fill="white" stroke="none" points="-4,4 -4,-171 230.266,-171 230.266,4 -4,4"/>
<!-- AVItem -->
<g id="node1" class="node"><title>AVItem</title>
<polygon fill="none" stroke="black" points="75.6016,-102.5 75.6016,-166.5 162.746,-166.5 162.746,-102.5 75.6016,-102.5"/>
<text text-anchor="start" x="83.6016" y="-156.1" font-family="Bitstream Vera Sans" font-size="8.00">Onix::V3_0::AVItem</text>
<polyline fill="none" stroke="black" points="75.6016,-150.5 162.746,-150.5 "/>
<text text-anchor="start" x="83.6016" y="-140.1" font-family="Bitstream Vera Sans" font-size="8.00">av_item_type</text>
<text text-anchor="start" x="83.6016" y="-132.1" font-family="Bitstream Vera Sans" font-size="8.00">av_duration</text>
<polyline fill="none" stroke="black" points="75.6016,-126.5 162.746,-126.5 "/>
<text text-anchor="start" x="83.6016" y="-116.1" font-family="Bitstream Vera Sans" font-size="8.00">av_item_identifiers[]</text>
<text text-anchor="start" x="83.6016" y="-108.1" font-family="Bitstream Vera Sans" font-size="8.00">time_runs[]</text>
</g>
<!-- AVItemIdentifier -->
<g id="node2" class="node"><title>AVItemIdentifier</title>
<polygon fill="none" stroke="black" points="0,-0.5 0,-65.5 116.348,-65.5 116.348,-0.5 0,-0.5"/>
<text text-anchor="start" x="8" y="-55.1" font-family="Bitstream Vera Sans" font-size="8.00">Onix::V3_0::AVItemIdentifier</text>
<polyline fill="none" stroke="black" points="0,-49.5 116.348,-49.5 "/>
<text text-anchor="start" x="8" y="-39.1" font-family="Bitstream Vera Sans" font-size="8.00">av_item_id_type</text>
<text text-anchor="start" x="8" y="-31.1" font-family="Bitstream Vera Sans" font-size="8.00">id_type_name</text>
<text text-anchor="start" x="8" y="-23.1" font-family="Bitstream Vera Sans" font-size="8.00">id_value</text>
<polyline fill="none" stroke="black" points="0,-17.5 116.348,-17.5 "/>
</g>
<!-- AVItem&#45;&gt;AVItemIdentifier -->
<g id="edge1" class="edge"><title>AVItem&#45;&gt;AVItemIdentifier</title>
<path fill="none" stroke="black" d="M100.04,-102.291C94.6389,-93.4799 88.6824,-83.7639 82.9984,-74.4925"/>
<polygon fill="black" stroke="black" points="85.8699,-72.4799 77.6594,-65.7838 79.9022,-76.1386 85.8699,-72.4799"/>
</g>
<!-- TimeRun -->
<g id="node3" class="node"><title>TimeRun</title>
<polygon fill="none" stroke="black" points="134.082,-4.5 134.082,-61.5 226.266,-61.5 226.266,-4.5 134.082,-4.5"/>
<text text-anchor="start" x="142.082" y="-51.1" font-family="Bitstream Vera Sans" font-size="8.00">Onix::V3_0::TimeRun</text>
<polyline fill="none" stroke="black" points="134.082,-45.5 226.266,-45.5 "/>
<text text-anchor="start" x="142.082" y="-35.1" font-family="Bitstream Vera Sans" font-size="8.00">start_time</text>
<text text-anchor="start" x="142.082" y="-27.1" font-family="Bitstream Vera Sans" font-size="8.00">end_time</text>
<polyline fill="none" stroke="black" points="134.082,-21.5 226.266,-21.5 "/>
</g>
<!-- AVItem&#45;&gt;TimeRun -->
<g id="edge2" class="edge"><title>AVItem&#45;&gt;TimeRun</title>
<path fill="none" stroke="black" d="M138.307,-102.291C144.531,-92.1388 151.491,-80.7851 157.923,-70.2945"/>
<polygon fill="black" stroke="black" points="160.93,-72.0855 163.173,-61.7308 154.962,-68.4268 160.93,-72.0855"/>
</g>
</g>
</svg>
