<?xml version="1.0" encoding="UTF-8" standalone="no"?>
<!DOCTYPE svg PUBLIC "-//W3C//DTD SVG 1.1//EN"
 "http://www.w3.org/Graphics/SVG/1.1/DTD/svg11.dtd">
<!-- Generated by graphviz version 2.38.0 (20140413.2041)
 -->
<!-- Title: G Pages: 1 -->
<svg width="555pt" height="169pt"
 viewBox="0.00 0.00 555.31 169.00" xmlns="http://www.w3.org/2000/svg" xmlns:xlink="http://www.w3.org/1999/xlink">
<g id="graph0" class="graph" transform="scale(1 1) rotate(0) translate(4 165)">
<title>G</title>
<polygon fill="white" stroke="none" points="-4,4 -4,-165 551.313,-165 551.313,4 -4,4"/>
<!-- Bible -->
<g id="node1" class="node"><title>Bible</title>
<polygon fill="none" stroke="black" points="215.718,-72.5 215.718,-160.5 318.889,-160.5 318.889,-72.5 215.718,-72.5"/>
<text text-anchor="start" x="223.718" y="-150.1" font-family="Bitstream Vera Sans" font-size="8.00">Onix::V3_0::Bible</text>
<polyline fill="none" stroke="black" points="215.718,-144.5 318.889,-144.5 "/>
<text text-anchor="start" x="223.718" y="-134.1" font-family="Bitstream Vera Sans" font-size="8.00">study_bible_type</text>
<text text-anchor="start" x="223.718" y="-126.1" font-family="Bitstream Vera Sans" font-size="8.00">bible_text_organization</text>
<text text-anchor="start" x="223.718" y="-118.1" font-family="Bitstream Vera Sans" font-size="8.00">bible_reference_location</text>
<polyline fill="none" stroke="black" points="215.718,-112.5 318.889,-112.5 "/>
<text text-anchor="start" x="223.718" y="-102.1" font-family="Bitstream Vera Sans" font-size="8.00">bible_contents[]</text>
<text text-anchor="start" x="223.718" y="-94.1" font-family="Bitstream Vera Sans" font-size="8.00">bible_versions[]</text>
<text text-anchor="start" x="223.718" y="-86.1" font-family="Bitstream Vera Sans" font-size="8.00">bible_purposes[]</text>
<text text-anchor="start" x="223.718" y="-78.1" font-family="Bitstream Vera Sans" font-size="8.00">bible_text_features[]</text>
</g>
<!-- BibleContents -->
<g id="node2" class="node"><title>BibleContents</title>
<ellipse fill="none" stroke="black" cx="61.3034" cy="-18" rx="61.1075" ry="18"/>
<text text-anchor="middle" x="61.3034" y="-15.6" font-family="Bitstream Vera Sans" font-size="8.00">Onix::V3_0::BibleContents</text>
</g>
<!-- Bible&#45;&gt;BibleContents -->
<g id="edge1" class="edge"><title>Bible&#45;&gt;BibleContents</title>
<path fill="none" stroke="black" d="M215.587,-91.2735C180.333,-74.7589 134.317,-53.2031 101.742,-37.9433"/>
<polygon fill="black" stroke="black" points="103.052,-34.6919 92.5113,-33.6192 100.082,-41.0308 103.052,-34.6919"/>
</g>
<!-- BibleVersion -->
<g id="node3" class="node"><title>BibleVersion</title>
<ellipse fill="none" stroke="black" cx="199.303" cy="-18" rx="58.1552" ry="18"/>
<text text-anchor="middle" x="199.303" y="-15.6" font-family="Bitstream Vera Sans" font-size="8.00">Onix::V3_0::BibleVersion</text>
</g>
<!-- Bible&#45;&gt;BibleVersion -->
<g id="edge2" class="edge"><title>Bible&#45;&gt;BibleVersion</title>
<path fill="none" stroke="black" d="M236.883,-72.3305C230.165,-62.7957 223.257,-52.9934 217.227,-44.4351"/>
<polygon fill="black" stroke="black" points="219.925,-42.1884 211.304,-36.0301 214.203,-46.2206 219.925,-42.1884"/>
</g>
<!-- BiblePurpose -->
<g id="node4" class="node"><title>BiblePurpose</title>
<ellipse fill="none" stroke="black" cx="335.303" cy="-18" rx="60.1258" ry="18"/>
<text text-anchor="middle" x="335.303" y="-15.6" font-family="Bitstream Vera Sans" font-size="8.00">Onix::V3_0::BiblePurpose</text>
</g>
<!-- Bible&#45;&gt;BiblePurpose -->
<g id="edge3" class="edge"><title>Bible&#45;&gt;BiblePurpose</title>
<path fill="none" stroke="black" d="M297.723,-72.3305C304.442,-62.7957 311.35,-52.9934 317.38,-44.4351"/>
<polygon fill="black" stroke="black" points="320.404,-46.2206 323.303,-36.0301 314.682,-42.1884 320.404,-46.2206"/>
</g>
<!-- BibleTextFeature -->
<g id="node5" class="node"><title>BibleTextFeature</title>
<ellipse fill="none" stroke="black" cx="480.303" cy="-18" rx="67.0186" ry="18"/>
<text text-anchor="middle" x="480.303" y="-15.6" font-family="Bitstream Vera Sans" font-size="8.00">Onix::V3_0::BibleTextFeature</text>
</g>
<!-- Bible&#45;&gt;BibleTextFeature -->
<g id="edge4" class="edge"><title>Bible&#45;&gt;BibleTextFeature</title>
<path fill="none" stroke="black" d="M319.137,-92.0168C355.718,-75.4434 404.106,-53.5212 438.285,-38.0365"/>
<polygon fill="black" stroke="black" points="439.862,-41.1644 447.527,-33.8495 436.974,-34.7883 439.862,-41.1644"/>
</g>
</g>
</svg>
