<?xml version="1.0" encoding="UTF-8" standalone="no"?>
<!DOCTYPE svg PUBLIC "-//W3C//DTD SVG 1.1//EN"
 "http://www.w3.org/Graphics/SVG/1.1/DTD/svg11.dtd">
<!-- Generated by graphviz version 2.38.0 (20140413.2041)
 -->
<!-- Title: G Pages: 1 -->
<svg width="1026pt" height="311pt"
 viewBox="0.00 0.00 1025.93 311.00" xmlns="http://www.w3.org/2000/svg" xmlns:xlink="http://www.w3.org/1999/xlink">
<g id="graph0" class="graph" transform="scale(1 1) rotate(0) translate(4 307)">
<title>G</title>
<polygon fill="white" stroke="none" points="-4,4 -4,-307 1021.93,-307 1021.93,4 -4,4"/>
<!-- CitedContent -->
<g id="node1" class="node"><title>CitedContent</title>
<polygon fill="none" stroke="black" points="453.098,-182.5 453.098,-302.5 559.816,-302.5 559.816,-182.5 453.098,-182.5"/>
<text text-anchor="start" x="461.098" y="-292.1" font-family="Bitstream Vera Sans" font-size="8.00">Onix::V3_0::CitedContent</text>
<polyline fill="none" stroke="black" points="453.098,-286.5 559.816,-286.5 "/>
<text text-anchor="start" x="461.098" y="-276.1" font-family="Bitstream Vera Sans" font-size="8.00">cited_content_type</text>
<text text-anchor="start" x="461.098" y="-268.1" font-family="Bitstream Vera Sans" font-size="8.00">source_type</text>
<text text-anchor="start" x="461.098" y="-260.1" font-family="Bitstream Vera Sans" font-size="8.00">position_on_list</text>
<polyline fill="none" stroke="black" points="453.098,-254.5 559.816,-254.5 "/>
<text text-anchor="start" x="461.098" y="-244.1" font-family="Bitstream Vera Sans" font-size="8.00">territory</text>
<text text-anchor="start" x="461.098" y="-236.1" font-family="Bitstream Vera Sans" font-size="8.00">review_rating</text>
<text text-anchor="start" x="461.098" y="-228.1" font-family="Bitstream Vera Sans" font-size="8.00">content_audiences[]</text>
<text text-anchor="start" x="461.098" y="-220.1" font-family="Bitstream Vera Sans" font-size="8.00">source_titles[]</text>
<text text-anchor="start" x="461.098" y="-212.1" font-family="Bitstream Vera Sans" font-size="8.00">list_names[]</text>
<text text-anchor="start" x="461.098" y="-204.1" font-family="Bitstream Vera Sans" font-size="8.00">citation_notes[]</text>
<text text-anchor="start" x="461.098" y="-196.1" font-family="Bitstream Vera Sans" font-size="8.00">resource_links[]</text>
<text text-anchor="start" x="461.098" y="-188.1" font-family="Bitstream Vera Sans" font-size="8.00">content_dates[]</text>
</g>
<!-- Territory -->
<g id="node2" class="node"><title>Territory</title>
<polygon fill="none" stroke="black" points="0,-72.5 0,-145.5 88.9141,-145.5 88.9141,-72.5 0,-72.5"/>
<text text-anchor="start" x="8" y="-135.1" font-family="Bitstream Vera Sans" font-size="8.00">Onix::V3_0::Territory</text>
<polyline fill="none" stroke="black" points="0,-129.5 88.9141,-129.5 "/>
<text text-anchor="start" x="8" y="-119.1" font-family="Bitstream Vera Sans" font-size="8.00">countries_included</text>
<text text-anchor="start" x="8" y="-111.1" font-family="Bitstream Vera Sans" font-size="8.00">regions_included</text>
<text text-anchor="start" x="8" y="-103.1" font-family="Bitstream Vera Sans" font-size="8.00">regions_excluded</text>
<text text-anchor="start" x="8" y="-95.1" font-family="Bitstream Vera Sans" font-size="8.00">countries_excluded</text>
<polyline fill="none" stroke="black" points="0,-89.5 88.9141,-89.5 "/>
</g>
<!-- CitedContent&#45;&gt;Territory -->
<g id="edge1" class="edge"><title>CitedContent&#45;&gt;Territory</title>
<path fill="none" stroke="black" d="M452.838,-235.353C372.742,-224.779 218.339,-198.974 97.457,-146 94.7063,-144.795 91.9462,-143.443 89.2094,-141.989"/>
</g>
<!-- ReviewRating -->
<g id="node3" class="node"><title>ReviewRating</title>
<polygon fill="none" stroke="black" points="106.768,-81 106.768,-137 216.146,-137 216.146,-81 106.768,-81"/>
<text text-anchor="start" x="114.768" y="-126.6" font-family="Bitstream Vera Sans" font-size="8.00">Onix::V3_0::ReviewRating</text>
<polyline fill="none" stroke="black" points="106.768,-121 216.146,-121 "/>
<text text-anchor="start" x="114.768" y="-110.6" font-family="Bitstream Vera Sans" font-size="8.00">rating</text>
<text text-anchor="start" x="114.768" y="-102.6" font-family="Bitstream Vera Sans" font-size="8.00">rating_limit</text>
<polyline fill="none" stroke="black" points="106.768,-97 216.146,-97 "/>
<text text-anchor="start" x="114.768" y="-86.6" font-family="Bitstream Vera Sans" font-size="8.00">rating_units[]</text>
</g>
<!-- CitedContent&#45;&gt;ReviewRating -->
<g id="edge2" class="edge"><title>CitedContent&#45;&gt;ReviewRating</title>
<path fill="none" stroke="black" d="M453.061,-226.765C395.466,-210.106 301.644,-180.733 224.457,-146 218.483,-143.312 212.337,-140.231 206.335,-137.027"/>
</g>
<!-- ContentAudience -->
<g id="node4" class="node"><title>ContentAudience</title>
<ellipse fill="none" stroke="black" cx="301.457" cy="-109" rx="67.5238" ry="18"/>
<text text-anchor="middle" x="301.457" y="-106.6" font-family="Bitstream Vera Sans" font-size="8.00">Onix::V3_0::ContentAudience</text>
</g>
<!-- CitedContent&#45;&gt;ContentAudience -->
<g id="edge3" class="edge"><title>CitedContent&#45;&gt;ContentAudience</title>
<path fill="none" stroke="black" d="M452.863,-207.122C415.453,-183.124 366.689,-151.844 334.749,-131.356"/>
<polygon fill="black" stroke="black" points="336.517,-128.331 326.21,-125.878 332.737,-134.223 336.517,-128.331"/>
</g>
<!-- SourceTitle -->
<g id="node5" class="node"><title>SourceTitle</title>
<ellipse fill="none" stroke="black" cx="443.457" cy="-109" rx="55.845" ry="18"/>
<text text-anchor="middle" x="443.457" y="-106.6" font-family="Bitstream Vera Sans" font-size="8.00">Onix::V3_0::SourceTitle</text>
</g>
<!-- CitedContent&#45;&gt;SourceTitle -->
<g id="edge4" class="edge"><title>CitedContent&#45;&gt;SourceTitle</title>
<path fill="none" stroke="black" d="M478.09,-182.29C470.386,-166.21 462.43,-149.603 456.089,-136.368"/>
<polygon fill="black" stroke="black" points="459.063,-134.474 451.586,-126.968 452.751,-137.499 459.063,-134.474"/>
</g>
<!-- ListName -->
<g id="node6" class="node"><title>ListName</title>
<ellipse fill="none" stroke="black" cx="569.457" cy="-109" rx="52.2244" ry="18"/>
<text text-anchor="middle" x="569.457" y="-106.6" font-family="Bitstream Vera Sans" font-size="8.00">Onix::V3_0::ListName</text>
</g>
<!-- CitedContent&#45;&gt;ListName -->
<g id="edge5" class="edge"><title>CitedContent&#45;&gt;ListName</title>
<path fill="none" stroke="black" d="M534.824,-182.29C542.528,-166.21 550.484,-149.603 556.825,-136.368"/>
<polygon fill="black" stroke="black" points="560.164,-137.499 561.328,-126.968 553.851,-134.474 560.164,-137.499"/>
</g>
<!-- CitationNote -->
<g id="node7" class="node"><title>CitationNote</title>
<ellipse fill="none" stroke="black" cx="697.457" cy="-109" rx="58.1489" ry="18"/>
<text text-anchor="middle" x="697.457" y="-106.6" font-family="Bitstream Vera Sans" font-size="8.00">Onix::V3_0::CitationNote</text>
</g>
<!-- CitedContent&#45;&gt;CitationNote -->
<g id="edge6" class="edge"><title>CitedContent&#45;&gt;CitationNote</title>
<path fill="none" stroke="black" d="M559.915,-204.695C594.12,-181.146 637.315,-151.407 666.081,-131.602"/>
<polygon fill="black" stroke="black" points="668.268,-134.346 674.52,-125.792 664.298,-128.58 668.268,-134.346"/>
</g>
<!-- ResourceLink -->
<g id="node8" class="node"><title>ResourceLink</title>
<ellipse fill="none" stroke="black" cx="834.457" cy="-109" rx="60.6089" ry="18"/>
<text text-anchor="middle" x="834.457" y="-106.6" font-family="Bitstream Vera Sans" font-size="8.00">Onix::V3_0::ResourceLink</text>
</g>
<!-- CitedContent&#45;&gt;ResourceLink -->
<g id="edge7" class="edge"><title>CitedContent&#45;&gt;ResourceLink</title>
<path fill="none" stroke="black" d="M560.073,-223.769C612.782,-205.846 695.173,-176.506 764.457,-146 775.485,-141.144 787.22,-135.363 797.867,-129.87"/>
<polygon fill="black" stroke="black" points="799.659,-132.882 806.898,-125.147 796.415,-126.679 799.659,-132.882"/>
</g>
<!-- ContentDate -->
<g id="node9" class="node"><title>ContentDate</title>
<polygon fill="none" stroke="black" points="912.986,-76.5 912.986,-141.5 1017.93,-141.5 1017.93,-76.5 912.986,-76.5"/>
<text text-anchor="start" x="920.986" y="-131.1" font-family="Bitstream Vera Sans" font-size="8.00">Onix::V3_0::ContentDate</text>
<polyline fill="none" stroke="black" points="912.986,-125.5 1017.93,-125.5 "/>
<text text-anchor="start" x="920.986" y="-115.1" font-family="Bitstream Vera Sans" font-size="8.00">content_date_role</text>
<text text-anchor="start" x="920.986" y="-107.1" font-family="Bitstream Vera Sans" font-size="8.00">date_format</text>
<text text-anchor="start" x="920.986" y="-99.1" font-family="Bitstream Vera Sans" font-size="8.00">date</text>
<polyline fill="none" stroke="black" points="912.986,-93.5 1017.93,-93.5 "/>
</g>
<!-- CitedContent&#45;&gt;ContentDate -->
<g id="edge8" class="edge"><title>CitedContent&#45;&gt;ContentDate</title>
<path fill="none" stroke="black" d="M559.835,-233.876C637.701,-221.611 786.047,-193.89 904.457,-146 904.664,-145.916 904.87,-145.832 905.077,-145.747"/>
<polygon fill="black" stroke="black" points="906.727,-148.844 914.426,-141.565 903.869,-142.454 906.727,-148.844"/>
</g>
<!-- RatingUnits -->
<g id="node10" class="node"><title>RatingUnits</title>
<ellipse fill="none" stroke="black" cx="161.457" cy="-18" rx="56.6663" ry="18"/>
<text text-anchor="middle" x="161.457" y="-15.6" font-family="Bitstream Vera Sans" font-size="8.00">Onix::V3_0::RatingUnits</text>
</g>
<!-- ReviewRating&#45;&gt;RatingUnits -->
<g id="edge9" class="edge"><title>ReviewRating&#45;&gt;RatingUnits</title>
<path fill="none" stroke="black" d="M161.457,-80.8135C161.457,-69.925 161.457,-57.3981 161.457,-46.4804"/>
<polygon fill="black" stroke="black" points="164.957,-46.2194 161.457,-36.2194 157.957,-46.2195 164.957,-46.2194"/>
</g>
</g>
</svg>
