<?xml version="1.0" encoding="UTF-8" standalone="no"?>
<!DOCTYPE svg PUBLIC "-//W3C//DTD SVG 1.1//EN"
 "http://www.w3.org/Graphics/SVG/1.1/DTD/svg11.dtd">
<!-- Generated by graphviz version 2.38.0 (20140413.2041)
 -->
<!-- Title: G Pages: 1 -->
<svg width="1684pt" height="689pt"
 viewBox="0.00 0.00 1684.39 689.00" xmlns="http://www.w3.org/2000/svg" xmlns:xlink="http://www.w3.org/1999/xlink">
<g id="graph0" class="graph" transform="scale(1 1) rotate(0) translate(4 685)">
<title>G</title>
<polygon fill="white" stroke="none" points="-4,4 -4,-685 1680.39,-685 1680.39,4 -4,4"/>
<!-- Collection -->
<g id="node1" class="node"><title>Collection</title>
<polygon fill="none" stroke="black" points="614.186,-584.5 614.186,-680.5 716.006,-680.5 716.006,-584.5 614.186,-584.5"/>
<text text-anchor="start" x="622.186" y="-670.1" font-family="Bitstream Vera Sans" font-size="8.00">Onix::V3_0::Collection</text>
<polyline fill="none" stroke="black" points="614.186,-664.5 716.006,-664.5 "/>
<text text-anchor="start" x="622.186" y="-654.1" font-family="Bitstream Vera Sans" font-size="8.00">collection_type</text>
<text text-anchor="start" x="622.186" y="-646.1" font-family="Bitstream Vera Sans" font-size="8.00">source_name</text>
<text text-anchor="start" x="622.186" y="-638.1" font-family="Bitstream Vera Sans" font-size="8.00">no_contributor</text>
<polyline fill="none" stroke="black" points="614.186,-632.5 716.006,-632.5 "/>
<text text-anchor="start" x="622.186" y="-622.1" font-family="Bitstream Vera Sans" font-size="8.00">collection_identifiers[]</text>
<text text-anchor="start" x="622.186" y="-614.1" font-family="Bitstream Vera Sans" font-size="8.00">collection_sequences[]</text>
<text text-anchor="start" x="622.186" y="-606.1" font-family="Bitstream Vera Sans" font-size="8.00">title_details[]</text>
<text text-anchor="start" x="622.186" y="-598.1" font-family="Bitstream Vera Sans" font-size="8.00">contributors[]</text>
<text text-anchor="start" x="622.186" y="-590.1" font-family="Bitstream Vera Sans" font-size="8.00">contributor_statements[]</text>
</g>
<!-- CollectionIdentifier -->
<g id="node2" class="node"><title>CollectionIdentifier</title>
<polygon fill="none" stroke="black" points="323.178,-387 323.178,-452 449.014,-452 449.014,-387 323.178,-387"/>
<text text-anchor="start" x="331.178" y="-441.6" font-family="Bitstream Vera Sans" font-size="8.00">Onix::V3_0::CollectionIdentifier</text>
<polyline fill="none" stroke="black" points="323.178,-436 449.014,-436 "/>
<text text-anchor="start" x="331.178" y="-425.6" font-family="Bitstream Vera Sans" font-size="8.00">collection_id_type</text>
<text text-anchor="start" x="331.178" y="-417.6" font-family="Bitstream Vera Sans" font-size="8.00">id_type_name</text>
<text text-anchor="start" x="331.178" y="-409.6" font-family="Bitstream Vera Sans" font-size="8.00">id_value</text>
<polyline fill="none" stroke="black" points="323.178,-404 449.014,-404 "/>
</g>
<!-- Collection&#45;&gt;CollectionIdentifier -->
<g id="edge1" class="edge"><title>Collection&#45;&gt;CollectionIdentifier</title>
<path fill="none" stroke="black" d="M614.063,-621.038C568.754,-609.576 502.958,-587.353 458.096,-548 431.599,-524.757 412.683,-489.29 400.909,-461.659"/>
<polygon fill="black" stroke="black" points="404.08,-460.165 397.042,-452.245 397.605,-462.825 404.08,-460.165"/>
</g>
<!-- CollectionSequence -->
<g id="node3" class="node"><title>CollectionSequence</title>
<polygon fill="none" stroke="black" points="466.832,-387 466.832,-452 599.359,-452 599.359,-387 466.832,-387"/>
<text text-anchor="start" x="474.832" y="-441.6" font-family="Bitstream Vera Sans" font-size="8.00">Onix::V3_0::CollectionSequence</text>
<polyline fill="none" stroke="black" points="466.832,-436 599.359,-436 "/>
<text text-anchor="start" x="474.832" y="-425.6" font-family="Bitstream Vera Sans" font-size="8.00">collection_sequence_type</text>
<text text-anchor="start" x="474.832" y="-417.6" font-family="Bitstream Vera Sans" font-size="8.00">collection_sequence_type_name</text>
<text text-anchor="start" x="474.832" y="-409.6" font-family="Bitstream Vera Sans" font-size="8.00">collection_sequence_number</text>
<polyline fill="none" stroke="black" points="466.832,-404 599.359,-404 "/>
</g>
<!-- Collection&#45;&gt;CollectionSequence -->
<g id="edge2" class="edge"><title>Collection&#45;&gt;CollectionSequence</title>
<path fill="none" stroke="black" d="M631.982,-584.179C624.005,-572.457 615.618,-559.857 608.096,-548 589.9,-519.32 570.487,-486.243 555.971,-460.967"/>
<polygon fill="black" stroke="black" points="558.862,-458.971 550.856,-452.031 552.786,-462.448 558.862,-458.971"/>
</g>
<!-- TitleDetail -->
<g id="node4" class="node"><title>TitleDetail</title>
<polygon fill="none" stroke="black" points="617.447,-391.5 617.447,-447.5 712.744,-447.5 712.744,-391.5 617.447,-391.5"/>
<text text-anchor="start" x="625.447" y="-437.1" font-family="Bitstream Vera Sans" font-size="8.00">Onix::V3_0::TitleDetail</text>
<polyline fill="none" stroke="black" points="617.447,-431.5 712.744,-431.5 "/>
<text text-anchor="start" x="625.447" y="-421.1" font-family="Bitstream Vera Sans" font-size="8.00">title_type</text>
<text text-anchor="start" x="625.447" y="-413.1" font-family="Bitstream Vera Sans" font-size="8.00">title_statement</text>
<polyline fill="none" stroke="black" points="617.447,-407.5 712.744,-407.5 "/>
<text text-anchor="start" x="625.447" y="-397.1" font-family="Bitstream Vera Sans" font-size="8.00">title_elements[]</text>
</g>
<!-- Collection&#45;&gt;TitleDetail -->
<g id="edge3" class="edge"><title>Collection&#45;&gt;TitleDetail</title>
<path fill="none" stroke="black" d="M665.096,-584.41C665.096,-546.325 665.096,-493.412 665.096,-458.117"/>
<polygon fill="black" stroke="black" points="668.596,-457.765 665.096,-447.765 661.596,-457.765 668.596,-457.765"/>
</g>
<!-- Contributor -->
<g id="node5" class="node"><title>Contributor</title>
<polygon fill="none" stroke="black" points="730.512,-291.5 730.512,-547.5 837.68,-547.5 837.68,-291.5 730.512,-291.5"/>
<text text-anchor="start" x="738.512" y="-537.1" font-family="Bitstream Vera Sans" font-size="8.00">Onix::V3_0::Contributor</text>
<polyline fill="none" stroke="black" points="730.512,-531.5 837.68,-531.5 "/>
<text text-anchor="start" x="738.512" y="-521.1" font-family="Bitstream Vera Sans" font-size="8.00">sequence_number</text>
<text text-anchor="start" x="738.512" y="-513.1" font-family="Bitstream Vera Sans" font-size="8.00">name_type</text>
<text text-anchor="start" x="738.512" y="-505.1" font-family="Bitstream Vera Sans" font-size="8.00">person_name</text>
<text text-anchor="start" x="738.512" y="-497.1" font-family="Bitstream Vera Sans" font-size="8.00">person_name_inverted</text>
<text text-anchor="start" x="738.512" y="-489.1" font-family="Bitstream Vera Sans" font-size="8.00">titles_before_names</text>
<text text-anchor="start" x="738.512" y="-481.1" font-family="Bitstream Vera Sans" font-size="8.00">names_before_key</text>
<text text-anchor="start" x="738.512" y="-473.1" font-family="Bitstream Vera Sans" font-size="8.00">prefix_to_key</text>
<text text-anchor="start" x="738.512" y="-465.1" font-family="Bitstream Vera Sans" font-size="8.00">key_names</text>
<text text-anchor="start" x="738.512" y="-457.1" font-family="Bitstream Vera Sans" font-size="8.00">names_after_key</text>
<text text-anchor="start" x="738.512" y="-449.1" font-family="Bitstream Vera Sans" font-size="8.00">suffix_to_key</text>
<text text-anchor="start" x="738.512" y="-441.1" font-family="Bitstream Vera Sans" font-size="8.00">letters_after_names</text>
<text text-anchor="start" x="738.512" y="-433.1" font-family="Bitstream Vera Sans" font-size="8.00">titles_after_names</text>
<text text-anchor="start" x="738.512" y="-425.1" font-family="Bitstream Vera Sans" font-size="8.00">gender</text>
<text text-anchor="start" x="738.512" y="-417.1" font-family="Bitstream Vera Sans" font-size="8.00">corporate_name</text>
<text text-anchor="start" x="738.512" y="-409.1" font-family="Bitstream Vera Sans" font-size="8.00">corporate_name_inverted</text>
<text text-anchor="start" x="738.512" y="-401.1" font-family="Bitstream Vera Sans" font-size="8.00">unnamed_persons</text>
<polyline fill="none" stroke="black" points="730.512,-395.5 837.68,-395.5 "/>
<text text-anchor="start" x="738.512" y="-385.1" font-family="Bitstream Vera Sans" font-size="8.00">contributor_roles[]</text>
<text text-anchor="start" x="738.512" y="-377.1" font-family="Bitstream Vera Sans" font-size="8.00">from_languages[]</text>
<text text-anchor="start" x="738.512" y="-369.1" font-family="Bitstream Vera Sans" font-size="8.00">to_languages[]</text>
<text text-anchor="start" x="738.512" y="-361.1" font-family="Bitstream Vera Sans" font-size="8.00">name_identifiers[]</text>
<text text-anchor="start" x="738.512" y="-353.1" font-family="Bitstream Vera Sans" font-size="8.00">alternative_names[]</text>
<text text-anchor="start" x="738.512" y="-345.1" font-family="Bitstream Vera Sans" font-size="8.00">contributor_dates[]</text>
<text text-anchor="start" x="738.512" y="-337.1" font-family="Bitstream Vera Sans" font-size="8.00">professional_affiliations[]</text>
<text text-anchor="start" x="738.512" y="-329.1" font-family="Bitstream Vera Sans" font-size="8.00">prizes[]</text>
<text text-anchor="start" x="738.512" y="-321.1" font-family="Bitstream Vera Sans" font-size="8.00">biographical_notes[]</text>
<text text-anchor="start" x="738.512" y="-313.1" font-family="Bitstream Vera Sans" font-size="8.00">websites[]</text>
<text text-anchor="start" x="738.512" y="-305.1" font-family="Bitstream Vera Sans" font-size="8.00">contributor_descriptions[]</text>
<text text-anchor="start" x="738.512" y="-297.1" font-family="Bitstream Vera Sans" font-size="8.00">contributor_places[]</text>
</g>
<!-- Collection&#45;&gt;Contributor -->
<g id="edge4" class="edge"><title>Collection&#45;&gt;Contributor</title>
<path fill="none" stroke="black" d="M699.181,-584.147C707.044,-572.536 715.136,-559.993 722.096,-548 723.225,-546.054 724.353,-544.084 725.477,-542.096"/>
<polygon fill="black" stroke="black" points="728.587,-543.704 730.386,-533.263 722.469,-540.304 728.587,-543.704"/>
</g>
<!-- ContributorStatement -->
<g id="node6" class="node"><title>ContributorStatement</title>
<ellipse fill="none" stroke="black" cx="932.096" cy="-419.5" rx="75.8883" ry="18"/>
<text text-anchor="middle" x="932.096" y="-417.1" font-family="Bitstream Vera Sans" font-size="8.00">Onix::V3_0::ContributorStatement</text>
</g>
<!-- Collection&#45;&gt;ContributorStatement -->
<g id="edge5" class="edge"><title>Collection&#45;&gt;ContributorStatement</title>
<path fill="none" stroke="black" d="M716.044,-616.612C755.089,-603.319 808.62,-580.835 847.096,-548 880.403,-519.575 906.018,-474.996 920.064,-446.785"/>
<polygon fill="black" stroke="black" points="923.331,-448.068 924.543,-437.543 917.032,-445.015 923.331,-448.068"/>
</g>
<!-- TitleElement -->
<g id="node7" class="node"><title>TitleElement</title>
<polygon fill="none" stroke="black" points="0,-122 0,-235 104.191,-235 104.191,-122 0,-122"/>
<text text-anchor="start" x="8" y="-224.6" font-family="Bitstream Vera Sans" font-size="8.00">Onix::V3_0::TitleElement</text>
<polyline fill="none" stroke="black" points="0,-219 104.191,-219 "/>
<text text-anchor="start" x="8" y="-208.6" font-family="Bitstream Vera Sans" font-size="8.00">sequence_number</text>
<text text-anchor="start" x="8" y="-200.6" font-family="Bitstream Vera Sans" font-size="8.00">title_element_level</text>
<text text-anchor="start" x="8" y="-192.6" font-family="Bitstream Vera Sans" font-size="8.00">part_number</text>
<text text-anchor="start" x="8" y="-184.6" font-family="Bitstream Vera Sans" font-size="8.00">year_of_annual</text>
<text text-anchor="start" x="8" y="-176.6" font-family="Bitstream Vera Sans" font-size="8.00">title_prefix</text>
<text text-anchor="start" x="8" y="-168.6" font-family="Bitstream Vera Sans" font-size="8.00">no_prefix</text>
<text text-anchor="start" x="8" y="-160.6" font-family="Bitstream Vera Sans" font-size="8.00">title_without_prefix</text>
<text text-anchor="start" x="8" y="-152.6" font-family="Bitstream Vera Sans" font-size="8.00">title_text</text>
<text text-anchor="start" x="8" y="-144.6" font-family="Bitstream Vera Sans" font-size="8.00">subtitle</text>
<polyline fill="none" stroke="black" points="0,-139 104.191,-139 "/>
</g>
<!-- TitleDetail&#45;&gt;TitleElement -->
<g id="edge6" class="edge"><title>TitleDetail&#45;&gt;TitleElement</title>
<path fill="none" stroke="black" d="M661.24,-391.413C655.405,-361.421 641.25,-314.246 608.096,-291 517.791,-227.683 210.825,-306.117 113.096,-255 106.628,-251.617 100.603,-247.218 95.0558,-242.243"/>
<polygon fill="black" stroke="black" points="97.389,-239.629 87.7907,-235.143 92.4966,-244.636 97.389,-239.629"/>
</g>
<!-- ContributorRole -->
<g id="node8" class="node"><title>ContributorRole</title>
<ellipse fill="none" stroke="black" cx="187.096" cy="-178.5" rx="64.5497" ry="18"/>
<text text-anchor="middle" x="187.096" y="-176.1" font-family="Bitstream Vera Sans" font-size="8.00">Onix::V3_0::ContributorRole</text>
</g>
<!-- Contributor&#45;&gt;ContributorRole -->
<g id="edge7" class="edge"><title>Contributor&#45;&gt;ContributorRole</title>
<path fill="none" stroke="black" d="M730.266,-297.304C727.665,-295.05 724.944,-292.94 722.096,-291 637.175,-233.144 354.209,-298.459 261.096,-255 237.513,-243.993 217.352,-222.016 204.057,-204.599"/>
<polygon fill="black" stroke="black" points="206.837,-202.471 198.097,-196.483 201.195,-206.614 206.837,-202.471"/>
</g>
<!-- FromLanguage -->
<g id="node9" class="node"><title>FromLanguage</title>
<ellipse fill="none" stroke="black" cx="334.096" cy="-178.5" rx="63.5743" ry="18"/>
<text text-anchor="middle" x="334.096" y="-176.1" font-family="Bitstream Vera Sans" font-size="8.00">Onix::V3_0::FromLanguage</text>
</g>
<!-- Contributor&#45;&gt;FromLanguage -->
<g id="edge8" class="edge"><title>Contributor&#45;&gt;FromLanguage</title>
<path fill="none" stroke="black" d="M730.447,-297.686C727.791,-295.3 725.009,-293.062 722.096,-291 607.084,-209.586 533.484,-317.306 407.096,-255 384.118,-243.672 364.372,-222.035 351.233,-204.818"/>
<polygon fill="black" stroke="black" points="353.718,-202.289 344.982,-196.295 348.074,-206.429 353.718,-202.289"/>
</g>
<!-- ToLanguage -->
<g id="node10" class="node"><title>ToLanguage</title>
<ellipse fill="none" stroke="black" cx="474.096" cy="-178.5" rx="58.1708" ry="18"/>
<text text-anchor="middle" x="474.096" y="-176.1" font-family="Bitstream Vera Sans" font-size="8.00">Onix::V3_0::ToLanguage</text>
</g>
<!-- Contributor&#45;&gt;ToLanguage -->
<g id="edge9" class="edge"><title>Contributor&#45;&gt;ToLanguage</title>
<path fill="none" stroke="black" d="M730.464,-298.28C727.8,-295.7 725.012,-293.264 722.096,-291 659.02,-242.049 615.954,-293.659 546.096,-255 523.963,-242.752 504.551,-221.398 491.478,-204.519"/>
<polygon fill="black" stroke="black" points="494.029,-202.086 485.239,-196.172 488.423,-206.277 494.029,-202.086"/>
</g>
<!-- NameIdentifier -->
<g id="node11" class="node"><title>NameIdentifier</title>
<polygon fill="none" stroke="black" points="535.072,-0.5 535.072,-65.5 647.119,-65.5 647.119,-0.5 535.072,-0.5"/>
<text text-anchor="start" x="543.072" y="-55.1" font-family="Bitstream Vera Sans" font-size="8.00">Onix::V3_0::NameIdentifier</text>
<polyline fill="none" stroke="black" points="535.072,-49.5 647.119,-49.5 "/>
<text text-anchor="start" x="543.072" y="-39.1" font-family="Bitstream Vera Sans" font-size="8.00">name_id_type</text>
<text text-anchor="start" x="543.072" y="-31.1" font-family="Bitstream Vera Sans" font-size="8.00">id_type_name</text>
<text text-anchor="start" x="543.072" y="-23.1" font-family="Bitstream Vera Sans" font-size="8.00">id_value</text>
<polyline fill="none" stroke="black" points="535.072,-17.5 647.119,-17.5 "/>
</g>
<!-- Contributor&#45;&gt;NameIdentifier -->
<g id="edge10" class="edge"><title>Contributor&#45;&gt;NameIdentifier</title>
<path fill="none" stroke="black" d="M730.327,-298.453C727.703,-295.822 724.961,-293.328 722.096,-291 671.234,-249.667 619.386,-306.691 579.096,-255 539.096,-203.682 557.263,-123.559 574.148,-75.1917"/>
<polygon fill="black" stroke="black" points="577.483,-76.2612 577.6,-65.667 570.902,-73.8759 577.483,-76.2612"/>
</g>
<!-- AlternativeName -->
<g id="node12" class="node"><title>AlternativeName</title>
<polygon fill="none" stroke="black" points="588.516,-102.5 588.516,-254.5 707.676,-254.5 707.676,-102.5 588.516,-102.5"/>
<text text-anchor="start" x="596.516" y="-244.1" font-family="Bitstream Vera Sans" font-size="8.00">Onix::V3_0::AlternativeName</text>
<polyline fill="none" stroke="black" points="588.516,-238.5 707.676,-238.5 "/>
<text text-anchor="start" x="596.516" y="-228.1" font-family="Bitstream Vera Sans" font-size="8.00">name_type</text>
<text text-anchor="start" x="596.516" y="-220.1" font-family="Bitstream Vera Sans" font-size="8.00">person_name</text>
<text text-anchor="start" x="596.516" y="-212.1" font-family="Bitstream Vera Sans" font-size="8.00">person_name_inverted</text>
<text text-anchor="start" x="596.516" y="-204.1" font-family="Bitstream Vera Sans" font-size="8.00">titles_before_names</text>
<text text-anchor="start" x="596.516" y="-196.1" font-family="Bitstream Vera Sans" font-size="8.00">names_before_key</text>
<text text-anchor="start" x="596.516" y="-188.1" font-family="Bitstream Vera Sans" font-size="8.00">prefix_to_key</text>
<text text-anchor="start" x="596.516" y="-180.1" font-family="Bitstream Vera Sans" font-size="8.00">key_names</text>
<text text-anchor="start" x="596.516" y="-172.1" font-family="Bitstream Vera Sans" font-size="8.00">names_after_key</text>
<text text-anchor="start" x="596.516" y="-164.1" font-family="Bitstream Vera Sans" font-size="8.00">suffix_to_key</text>
<text text-anchor="start" x="596.516" y="-156.1" font-family="Bitstream Vera Sans" font-size="8.00">letters_after_names</text>
<text text-anchor="start" x="596.516" y="-148.1" font-family="Bitstream Vera Sans" font-size="8.00">titles_after_names</text>
<text text-anchor="start" x="596.516" y="-140.1" font-family="Bitstream Vera Sans" font-size="8.00">gender</text>
<text text-anchor="start" x="596.516" y="-132.1" font-family="Bitstream Vera Sans" font-size="8.00">corporate_name</text>
<text text-anchor="start" x="596.516" y="-124.1" font-family="Bitstream Vera Sans" font-size="8.00">corporate_name_inverted</text>
<polyline fill="none" stroke="black" points="588.516,-118.5 707.676,-118.5 "/>
<text text-anchor="start" x="596.516" y="-108.1" font-family="Bitstream Vera Sans" font-size="8.00">name_identifiers[]</text>
</g>
<!-- Contributor&#45;&gt;AlternativeName -->
<g id="edge11" class="edge"><title>Contributor&#45;&gt;AlternativeName</title>
<path fill="none" stroke="black" d="M730.489,-306.117C727.71,-300.976 724.905,-295.915 722.096,-291 716.844,-281.811 711.117,-272.362 705.252,-263.036"/>
<polygon fill="black" stroke="black" points="708.155,-261.079 699.836,-254.517 702.248,-264.834 708.155,-261.079"/>
</g>
<!-- ContributorDate -->
<g id="node13" class="node"><title>ContributorDate</title>
<polygon fill="none" stroke="black" points="725.848,-146 725.848,-211 842.344,-211 842.344,-146 725.848,-146"/>
<text text-anchor="start" x="733.848" y="-200.6" font-family="Bitstream Vera Sans" font-size="8.00">Onix::V3_0::ContributorDate</text>
<polyline fill="none" stroke="black" points="725.848,-195 842.344,-195 "/>
<text text-anchor="start" x="733.848" y="-184.6" font-family="Bitstream Vera Sans" font-size="8.00">contributor_date_role</text>
<text text-anchor="start" x="733.848" y="-176.6" font-family="Bitstream Vera Sans" font-size="8.00">date_format</text>
<text text-anchor="start" x="733.848" y="-168.6" font-family="Bitstream Vera Sans" font-size="8.00">date</text>
<polyline fill="none" stroke="black" points="725.848,-163 842.344,-163 "/>
</g>
<!-- Contributor&#45;&gt;ContributorDate -->
<g id="edge12" class="edge"><title>Contributor&#45;&gt;ContributorDate</title>
<path fill="none" stroke="black" d="M784.096,-291.303C784.096,-265.978 784.096,-241.116 784.096,-221.292"/>
<polygon fill="black" stroke="black" points="787.596,-221.118 784.096,-211.118 780.596,-221.118 787.596,-221.118"/>
</g>
<!-- ProfessionalAffiliation -->
<g id="node14" class="node"><title>ProfessionalAffiliation</title>
<polygon fill="none" stroke="black" points="860.842,-154.5 860.842,-202.5 997.35,-202.5 997.35,-154.5 860.842,-154.5"/>
<text text-anchor="start" x="868.842" y="-192.1" font-family="Bitstream Vera Sans" font-size="8.00">Onix::V3_0::ProfessionalAffiliation</text>
<polyline fill="none" stroke="black" points="860.842,-186.5 997.35,-186.5 "/>
<text text-anchor="start" x="868.842" y="-176.1" font-family="Bitstream Vera Sans" font-size="8.00">affiliation</text>
<polyline fill="none" stroke="black" points="860.842,-170.5 997.35,-170.5 "/>
<text text-anchor="start" x="868.842" y="-160.1" font-family="Bitstream Vera Sans" font-size="8.00">professional_positions[]</text>
</g>
<!-- Contributor&#45;&gt;ProfessionalAffiliation -->
<g id="edge13" class="edge"><title>Contributor&#45;&gt;ProfessionalAffiliation</title>
<path fill="none" stroke="black" d="M837.762,-306.958C840.833,-301.515 843.952,-296.168 847.096,-291 864.37,-262.603 886.918,-232.339 903.997,-210.518"/>
<polygon fill="black" stroke="black" points="906.806,-212.608 910.252,-202.589 901.31,-208.272 906.806,-212.608"/>
</g>
<!-- Prize -->
<g id="node15" class="node"><title>Prize</title>
<polygon fill="none" stroke="black" points="1015.41,-138.5 1015.41,-218.5 1096.78,-218.5 1096.78,-138.5 1015.41,-138.5"/>
<text text-anchor="start" x="1023.41" y="-208.1" font-family="Bitstream Vera Sans" font-size="8.00">Onix::V3_0::Prize</text>
<polyline fill="none" stroke="black" points="1015.41,-202.5 1096.78,-202.5 "/>
<text text-anchor="start" x="1023.41" y="-192.1" font-family="Bitstream Vera Sans" font-size="8.00">prize_year</text>
<text text-anchor="start" x="1023.41" y="-184.1" font-family="Bitstream Vera Sans" font-size="8.00">prize_country</text>
<text text-anchor="start" x="1023.41" y="-176.1" font-family="Bitstream Vera Sans" font-size="8.00">prize_code</text>
<polyline fill="none" stroke="black" points="1015.41,-170.5 1096.78,-170.5 "/>
<text text-anchor="start" x="1023.41" y="-160.1" font-family="Bitstream Vera Sans" font-size="8.00">prize_names[]</text>
<text text-anchor="start" x="1023.41" y="-152.1" font-family="Bitstream Vera Sans" font-size="8.00">prize_statements[]</text>
<text text-anchor="start" x="1023.41" y="-144.1" font-family="Bitstream Vera Sans" font-size="8.00">prize_juries[]</text>
</g>
<!-- Contributor&#45;&gt;Prize -->
<g id="edge14" class="edge"><title>Contributor&#45;&gt;Prize</title>
<path fill="none" stroke="black" d="M837.942,-299.14C840.846,-296.247 843.896,-293.521 847.096,-291 904.011,-246.162 946.47,-296.166 1006.1,-255 1016.51,-247.811 1025.32,-237.68 1032.5,-227.167"/>
<polygon fill="black" stroke="black" points="1035.47,-229.013 1037.91,-218.703 1029.57,-225.243 1035.47,-229.013"/>
</g>
<!-- BiographicalNote -->
<g id="node16" class="node"><title>BiographicalNote</title>
<ellipse fill="none" stroke="black" cx="1182.1" cy="-178.5" rx="67.5171" ry="18"/>
<text text-anchor="middle" x="1182.1" y="-176.1" font-family="Bitstream Vera Sans" font-size="8.00">Onix::V3_0::BiographicalNote</text>
</g>
<!-- Contributor&#45;&gt;BiographicalNote -->
<g id="edge15" class="edge"><title>Contributor&#45;&gt;BiographicalNote</title>
<path fill="none" stroke="black" d="M837.941,-298.526C840.843,-295.832 843.892,-293.311 847.096,-291 941.345,-223.002 1001.96,-306.606 1106.1,-255 1129.58,-243.361 1150.24,-221.654 1164.07,-204.492"/>
<polygon fill="black" stroke="black" points="1166.91,-206.538 1170.29,-196.497 1161.39,-202.239 1166.91,-206.538"/>
</g>
<!-- Website -->
<g id="node17" class="node"><title>Website</title>
<polygon fill="none" stroke="black" points="1267.74,-150.5 1267.74,-206.5 1362.45,-206.5 1362.45,-150.5 1267.74,-150.5"/>
<text text-anchor="start" x="1275.74" y="-196.1" font-family="Bitstream Vera Sans" font-size="8.00">Onix::V3_0::Website</text>
<polyline fill="none" stroke="black" points="1267.74,-190.5 1362.45,-190.5 "/>
<text text-anchor="start" x="1275.74" y="-180.1" font-family="Bitstream Vera Sans" font-size="8.00">website_role</text>
<text text-anchor="start" x="1275.74" y="-172.1" font-family="Bitstream Vera Sans" font-size="8.00">website_link</text>
<polyline fill="none" stroke="black" points="1267.74,-166.5 1362.45,-166.5 "/>
<text text-anchor="start" x="1275.74" y="-156.1" font-family="Bitstream Vera Sans" font-size="8.00">website_descriptions[]</text>
</g>
<!-- Contributor&#45;&gt;Website -->
<g id="edge16" class="edge"><title>Contributor&#45;&gt;Website</title>
<path fill="none" stroke="black" d="M837.788,-298.309C840.734,-295.677 843.834,-293.229 847.096,-291 922.973,-239.144 1178.88,-299.856 1259.1,-255 1275.14,-246.029 1287.9,-230.339 1297.17,-215.577"/>
<polygon fill="black" stroke="black" points="1300.42,-216.965 1302.49,-206.575 1294.39,-213.406 1300.42,-216.965"/>
</g>
<!-- ContributorDescription -->
<g id="node18" class="node"><title>ContributorDescription</title>
<ellipse fill="none" stroke="black" cx="1458.1" cy="-178.5" rx="77.8521" ry="18"/>
<text text-anchor="middle" x="1458.1" y="-176.1" font-family="Bitstream Vera Sans" font-size="8.00">Onix::V3_0::ContributorDescription</text>
</g>
<!-- Contributor&#45;&gt;ContributorDescription -->
<g id="edge17" class="edge"><title>Contributor&#45;&gt;ContributorDescription</title>
<path fill="none" stroke="black" d="M837.734,-298.229C840.696,-295.62 843.814,-293.199 847.096,-291 944.067,-226.04 1263.22,-299.555 1371.1,-255 1397.54,-244.077 1421.61,-221.778 1437.69,-204.232"/>
<polygon fill="black" stroke="black" points="1440.47,-206.365 1444.49,-196.563 1435.24,-201.719 1440.47,-206.365"/>
</g>
<!-- ContributorPlace -->
<g id="node19" class="node"><title>ContributorPlace</title>
<polygon fill="none" stroke="black" points="1554.29,-146.5 1554.29,-210.5 1673.9,-210.5 1673.9,-146.5 1554.29,-146.5"/>
<text text-anchor="start" x="1562.29" y="-200.1" font-family="Bitstream Vera Sans" font-size="8.00">Onix::V3_0::ContributorPlace</text>
<polyline fill="none" stroke="black" points="1554.29,-194.5 1673.9,-194.5 "/>
<text text-anchor="start" x="1562.29" y="-184.1" font-family="Bitstream Vera Sans" font-size="8.00">contributor_place_relator</text>
<text text-anchor="start" x="1562.29" y="-176.1" font-family="Bitstream Vera Sans" font-size="8.00">country_code</text>
<text text-anchor="start" x="1562.29" y="-168.1" font-family="Bitstream Vera Sans" font-size="8.00">region_code</text>
<polyline fill="none" stroke="black" points="1554.29,-162.5 1673.9,-162.5 "/>
<text text-anchor="start" x="1562.29" y="-152.1" font-family="Bitstream Vera Sans" font-size="8.00">location_names[]</text>
</g>
<!-- Contributor&#45;&gt;ContributorPlace -->
<g id="edge18" class="edge"><title>Contributor&#45;&gt;ContributorPlace</title>
<path fill="none" stroke="black" d="M837.685,-298.155C840.661,-295.568 843.795,-293.171 847.096,-291 976.868,-205.662 1404.63,-321.288 1545.1,-255 1562.01,-247.018 1576.69,-232.823 1588.1,-218.879"/>
<polygon fill="black" stroke="black" points="1591.05,-220.787 1594.44,-210.747 1585.53,-216.484 1591.05,-220.787"/>
</g>
<!-- AlternativeName&#45;&gt;NameIdentifier -->
<g id="edge19" class="edge"><title>AlternativeName&#45;&gt;NameIdentifier</title>
<path fill="none" stroke="black" d="M618.26,-102.388C614.542,-93.0265 610.854,-83.7417 607.45,-75.1727"/>
<polygon fill="black" stroke="black" points="610.686,-73.8378 603.741,-65.8362 604.18,-76.4219 610.686,-73.8378"/>
</g>
<!-- ProfessionalPosition -->
<g id="node20" class="node"><title>ProfessionalPosition</title>
<ellipse fill="none" stroke="black" cx="770.096" cy="-33" rx="73.9202" ry="18"/>
<text text-anchor="middle" x="770.096" y="-30.6" font-family="Bitstream Vera Sans" font-size="8.00">Onix::V3_0::ProfessionalPosition</text>
</g>
<!-- ProfessionalAffiliation&#45;&gt;ProfessionalPosition -->
<g id="edge20" class="edge"><title>ProfessionalAffiliation&#45;&gt;ProfessionalPosition</title>
<path fill="none" stroke="black" d="M905.956,-154.262C890.649,-139.102 869.991,-119.038 851.096,-102 833.91,-86.5039 814.014,-69.7844 798.241,-56.802"/>
<polygon fill="black" stroke="black" points="800.358,-54.0117 790.405,-50.3799 795.921,-59.4258 800.358,-54.0117"/>
</g>
<!-- PrizeName -->
<g id="node21" class="node"><title>PrizeName</title>
<ellipse fill="none" stroke="black" cx="918.096" cy="-33" rx="55.6735" ry="18"/>
<text text-anchor="middle" x="918.096" y="-30.6" font-family="Bitstream Vera Sans" font-size="8.00">Onix::V3_0::PrizeName</text>
</g>
<!-- Prize&#45;&gt;PrizeName -->
<g id="edge21" class="edge"><title>Prize&#45;&gt;PrizeName</title>
<path fill="none" stroke="black" d="M1033.71,-138.455C1025.77,-126.156 1016.26,-112.939 1006.1,-102 989.602,-84.2571 968.137,-67.572 950.536,-55.1697"/>
<polygon fill="black" stroke="black" points="952.461,-52.2457 942.245,-49.4396 948.482,-58.0043 952.461,-52.2457"/>
</g>
<!-- PrizeStatement -->
<g id="node22" class="node"><title>PrizeStatement</title>
<ellipse fill="none" stroke="black" cx="1056.1" cy="-33" rx="64.0576" ry="18"/>
<text text-anchor="middle" x="1056.1" y="-30.6" font-family="Bitstream Vera Sans" font-size="8.00">Onix::V3_0::PrizeStatement</text>
</g>
<!-- Prize&#45;&gt;PrizeStatement -->
<g id="edge22" class="edge"><title>Prize&#45;&gt;PrizeStatement</title>
<path fill="none" stroke="black" d="M1056.1,-138.288C1056.1,-113.867 1056.1,-83.0668 1056.1,-61.2877"/>
<polygon fill="black" stroke="black" points="1059.6,-61.0958 1056.1,-51.0958 1052.6,-61.0959 1059.6,-61.0958"/>
</g>
<!-- PrizeJury -->
<g id="node23" class="node"><title>PrizeJury</title>
<ellipse fill="none" stroke="black" cx="1190.1" cy="-33" rx="52.2228" ry="18"/>
<text text-anchor="middle" x="1190.1" y="-30.6" font-family="Bitstream Vera Sans" font-size="8.00">Onix::V3_0::PrizeJury</text>
</g>
<!-- Prize&#45;&gt;PrizeJury -->
<g id="edge23" class="edge"><title>Prize&#45;&gt;PrizeJury</title>
<path fill="none" stroke="black" d="M1078.28,-138.143C1086.01,-125.959 1095.24,-112.888 1105.1,-102 1120.97,-84.4646 1141.65,-67.8191 1158.63,-55.386"/>
<polygon fill="black" stroke="black" points="1161.05,-57.9602 1167.13,-49.2859 1156.97,-52.2732 1161.05,-57.9602"/>
</g>
<!-- WebsiteDescription -->
<g id="node24" class="node"><title>WebsiteDescription</title>
<ellipse fill="none" stroke="black" cx="1332.1" cy="-33" rx="71.7777" ry="18"/>
<text text-anchor="middle" x="1332.1" y="-30.6" font-family="Bitstream Vera Sans" font-size="8.00">Onix::V3_0::WebsiteDescription</text>
</g>
<!-- Website&#45;&gt;WebsiteDescription -->
<g id="edge24" class="edge"><title>Website&#45;&gt;WebsiteDescription</title>
<path fill="none" stroke="black" d="M1318.33,-150.171C1321.35,-124.698 1325.83,-86.9095 1328.85,-61.4102"/>
<polygon fill="black" stroke="black" points="1332.34,-61.6485 1330.05,-51.3061 1325.39,-60.8249 1332.34,-61.6485"/>
</g>
<!-- LocationName -->
<g id="node25" class="node"><title>LocationName</title>
<ellipse fill="none" stroke="black" cx="1614.1" cy="-33" rx="62.0916" ry="18"/>
<text text-anchor="middle" x="1614.1" y="-30.6" font-family="Bitstream Vera Sans" font-size="8.00">Onix::V3_0::LocationName</text>
</g>
<!-- ContributorPlace&#45;&gt;LocationName -->
<g id="edge25" class="edge"><title>ContributorPlace&#45;&gt;LocationName</title>
<path fill="none" stroke="black" d="M1614.1,-146.363C1614.1,-121.058 1614.1,-85.7036 1614.1,-61.4478"/>
<polygon fill="black" stroke="black" points="1617.6,-61.1602 1614.1,-51.1602 1610.6,-61.1603 1617.6,-61.1602"/>
</g>
</g>
</svg>
