<?xml version="1.0" encoding="UTF-8" standalone="no"?>
<!DOCTYPE svg PUBLIC "-//W3C//DTD SVG 1.1//EN"
 "http://www.w3.org/Graphics/SVG/1.1/DTD/svg11.dtd">
<!-- Generated by graphviz version 2.38.0 (20140413.2041)
 -->
<!-- Title: G Pages: 1 -->
<svg width="1781pt" height="523pt"
 viewBox="0.00 0.00 1781.03 523.00" xmlns="http://www.w3.org/2000/svg" xmlns:xlink="http://www.w3.org/1999/xlink">
<g id="graph0" class="graph" transform="scale(1 1) rotate(0) translate(4 519)">
<title>G</title>
<polygon fill="white" stroke="none" points="-4,4 -4,-519 1777.03,-519 1777.03,4 -4,4"/>
<!-- CollateralDetail -->
<g id="node1" class="node"><title>CollateralDetail</title>
<polygon fill="none" stroke="black" points="787.781,-441.5 787.781,-514.5 902.051,-514.5 902.051,-441.5 787.781,-441.5"/>
<text text-anchor="start" x="795.781" y="-504.1" font-family="Bitstream Vera Sans" font-size="8.00">Onix::V3_0::CollateralDetail</text>
<polyline fill="none" stroke="black" points="787.781,-498.5 902.051,-498.5 "/>
<polyline fill="none" stroke="black" points="787.781,-481.5 902.051,-481.5 "/>
<text text-anchor="start" x="795.781" y="-471.1" font-family="Bitstream Vera Sans" font-size="8.00">text_contents[]</text>
<text text-anchor="start" x="795.781" y="-463.1" font-family="Bitstream Vera Sans" font-size="8.00">cited_contents[]</text>
<text text-anchor="start" x="795.781" y="-455.1" font-family="Bitstream Vera Sans" font-size="8.00">supporting_resources[]</text>
<text text-anchor="start" x="795.781" y="-447.1" font-family="Bitstream Vera Sans" font-size="8.00">prizes[]</text>
</g>
<!-- TextContent -->
<g id="node2" class="node"><title>TextContent</title>
<polygon fill="none" stroke="black" points="935.559,-292.5 935.559,-396.5 1038.27,-396.5 1038.27,-292.5 935.559,-292.5"/>
<text text-anchor="start" x="943.559" y="-386.1" font-family="Bitstream Vera Sans" font-size="8.00">Onix::V3_0::TextContent</text>
<polyline fill="none" stroke="black" points="935.559,-380.5 1038.27,-380.5 "/>
<text text-anchor="start" x="943.559" y="-370.1" font-family="Bitstream Vera Sans" font-size="8.00">text_type</text>
<text text-anchor="start" x="943.559" y="-362.1" font-family="Bitstream Vera Sans" font-size="8.00">text_source_corporate</text>
<polyline fill="none" stroke="black" points="935.559,-356.5 1038.27,-356.5 "/>
<text text-anchor="start" x="943.559" y="-346.1" font-family="Bitstream Vera Sans" font-size="8.00">territory</text>
<text text-anchor="start" x="943.559" y="-338.1" font-family="Bitstream Vera Sans" font-size="8.00">review_rating</text>
<text text-anchor="start" x="943.559" y="-330.1" font-family="Bitstream Vera Sans" font-size="8.00">content_audiences[]</text>
<text text-anchor="start" x="943.559" y="-322.1" font-family="Bitstream Vera Sans" font-size="8.00">texts[]</text>
<text text-anchor="start" x="943.559" y="-314.1" font-family="Bitstream Vera Sans" font-size="8.00">text_authors[]</text>
<text text-anchor="start" x="943.559" y="-306.1" font-family="Bitstream Vera Sans" font-size="8.00">source_titles[]</text>
<text text-anchor="start" x="943.559" y="-298.1" font-family="Bitstream Vera Sans" font-size="8.00">content_dates[]</text>
</g>
<!-- CollateralDetail&#45;&gt;TextContent -->
<g id="edge1" class="edge"><title>CollateralDetail&#45;&gt;TextContent</title>
<path fill="none" stroke="black" d="M883.343,-441.414C897.108,-428.668 912.957,-413.99 928.052,-400.011"/>
<polygon fill="black" stroke="black" points="930.431,-402.579 935.39,-393.216 925.674,-397.443 930.431,-402.579"/>
</g>
<!-- CitedContent -->
<g id="node3" class="node"><title>CitedContent</title>
<polygon fill="none" stroke="black" points="714.557,-284.5 714.557,-404.5 821.275,-404.5 821.275,-284.5 714.557,-284.5"/>
<text text-anchor="start" x="722.557" y="-394.1" font-family="Bitstream Vera Sans" font-size="8.00">Onix::V3_0::CitedContent</text>
<polyline fill="none" stroke="black" points="714.557,-388.5 821.275,-388.5 "/>
<text text-anchor="start" x="722.557" y="-378.1" font-family="Bitstream Vera Sans" font-size="8.00">cited_content_type</text>
<text text-anchor="start" x="722.557" y="-370.1" font-family="Bitstream Vera Sans" font-size="8.00">source_type</text>
<text text-anchor="start" x="722.557" y="-362.1" font-family="Bitstream Vera Sans" font-size="8.00">position_on_list</text>
<polyline fill="none" stroke="black" points="714.557,-356.5 821.275,-356.5 "/>
<text text-anchor="start" x="722.557" y="-346.1" font-family="Bitstream Vera Sans" font-size="8.00">territory</text>
<text text-anchor="start" x="722.557" y="-338.1" font-family="Bitstream Vera Sans" font-size="8.00">review_rating</text>
<text text-anchor="start" x="722.557" y="-330.1" font-family="Bitstream Vera Sans" font-size="8.00">content_audiences[]</text>
<text text-anchor="start" x="722.557" y="-322.1" font-family="Bitstream Vera Sans" font-size="8.00">source_titles[]</text>
<text text-anchor="start" x="722.557" y="-314.1" font-family="Bitstream Vera Sans" font-size="8.00">list_names[]</text>
<text text-anchor="start" x="722.557" y="-306.1" font-family="Bitstream Vera Sans" font-size="8.00">citation_notes[]</text>
<text text-anchor="start" x="722.557" y="-298.1" font-family="Bitstream Vera Sans" font-size="8.00">resource_links[]</text>
<text text-anchor="start" x="722.557" y="-290.1" font-family="Bitstream Vera Sans" font-size="8.00">content_dates[]</text>
</g>
<!-- CollateralDetail&#45;&gt;CitedContent -->
<g id="edge2" class="edge"><title>CollateralDetail&#45;&gt;CitedContent</title>
<path fill="none" stroke="black" d="M824.079,-441.414C818.998,-432.737 813.393,-423.165 807.75,-413.528"/>
<polygon fill="black" stroke="black" points="810.644,-411.543 802.57,-404.683 804.603,-415.081 810.644,-411.543"/>
</g>
<!-- SupportingResource -->
<g id="node4" class="node"><title>SupportingResource</title>
<polygon fill="none" stroke="black" points="276.438,-304.5 276.438,-384.5 409.395,-384.5 409.395,-304.5 276.438,-304.5"/>
<text text-anchor="start" x="284.438" y="-374.1" font-family="Bitstream Vera Sans" font-size="8.00">Onix::V3_0::SupportingResource</text>
<polyline fill="none" stroke="black" points="276.438,-368.5 409.395,-368.5 "/>
<text text-anchor="start" x="284.438" y="-358.1" font-family="Bitstream Vera Sans" font-size="8.00">resource_content_type</text>
<text text-anchor="start" x="284.438" y="-350.1" font-family="Bitstream Vera Sans" font-size="8.00">resource_mode</text>
<polyline fill="none" stroke="black" points="276.438,-344.5 409.395,-344.5 "/>
<text text-anchor="start" x="284.438" y="-334.1" font-family="Bitstream Vera Sans" font-size="8.00">territory</text>
<text text-anchor="start" x="284.438" y="-326.1" font-family="Bitstream Vera Sans" font-size="8.00">content_audiences[]</text>
<text text-anchor="start" x="284.438" y="-318.1" font-family="Bitstream Vera Sans" font-size="8.00">resource_features[]</text>
<text text-anchor="start" x="284.438" y="-310.1" font-family="Bitstream Vera Sans" font-size="8.00">resource_versions[]</text>
</g>
<!-- CollateralDetail&#45;&gt;SupportingResource -->
<g id="edge3" class="edge"><title>CollateralDetail&#45;&gt;SupportingResource</title>
<path fill="none" stroke="black" d="M787.33,-461.915C696.732,-438.183 520.831,-392.105 419.617,-365.592"/>
<polygon fill="black" stroke="black" points="420.321,-362.158 409.76,-363.01 418.547,-368.93 420.321,-362.158"/>
</g>
<!-- Prize -->
<g id="node5" class="node"><title>Prize</title>
<polygon fill="none" stroke="black" points="1477.23,-304.5 1477.23,-384.5 1558.6,-384.5 1558.6,-304.5 1477.23,-304.5"/>
<text text-anchor="start" x="1485.23" y="-374.1" font-family="Bitstream Vera Sans" font-size="8.00">Onix::V3_0::Prize</text>
<polyline fill="none" stroke="black" points="1477.23,-368.5 1558.6,-368.5 "/>
<text text-anchor="start" x="1485.23" y="-358.1" font-family="Bitstream Vera Sans" font-size="8.00">prize_year</text>
<text text-anchor="start" x="1485.23" y="-350.1" font-family="Bitstream Vera Sans" font-size="8.00">prize_country</text>
<text text-anchor="start" x="1485.23" y="-342.1" font-family="Bitstream Vera Sans" font-size="8.00">prize_code</text>
<polyline fill="none" stroke="black" points="1477.23,-336.5 1558.6,-336.5 "/>
<text text-anchor="start" x="1485.23" y="-326.1" font-family="Bitstream Vera Sans" font-size="8.00">prize_names[]</text>
<text text-anchor="start" x="1485.23" y="-318.1" font-family="Bitstream Vera Sans" font-size="8.00">prize_statements[]</text>
<text text-anchor="start" x="1485.23" y="-310.1" font-family="Bitstream Vera Sans" font-size="8.00">prize_juries[]</text>
</g>
<!-- CollateralDetail&#45;&gt;Prize -->
<g id="edge4" class="edge"><title>CollateralDetail&#45;&gt;Prize</title>
<path fill="none" stroke="black" d="M902.296,-465.788C1031.69,-440.506 1344.46,-379.393 1467.24,-355.402"/>
<polygon fill="black" stroke="black" points="1467.99,-358.822 1477.13,-353.469 1466.65,-351.952 1467.99,-358.822"/>
</g>
<!-- Territory -->
<g id="node6" class="node"><title>Territory</title>
<polygon fill="none" stroke="black" points="723.459,-174.5 723.459,-247.5 812.373,-247.5 812.373,-174.5 723.459,-174.5"/>
<text text-anchor="start" x="731.459" y="-237.1" font-family="Bitstream Vera Sans" font-size="8.00">Onix::V3_0::Territory</text>
<polyline fill="none" stroke="black" points="723.459,-231.5 812.373,-231.5 "/>
<text text-anchor="start" x="731.459" y="-221.1" font-family="Bitstream Vera Sans" font-size="8.00">countries_included</text>
<text text-anchor="start" x="731.459" y="-213.1" font-family="Bitstream Vera Sans" font-size="8.00">regions_included</text>
<text text-anchor="start" x="731.459" y="-205.1" font-family="Bitstream Vera Sans" font-size="8.00">regions_excluded</text>
<text text-anchor="start" x="731.459" y="-197.1" font-family="Bitstream Vera Sans" font-size="8.00">countries_excluded</text>
<polyline fill="none" stroke="black" points="723.459,-191.5 812.373,-191.5 "/>
</g>
<!-- TextContent&#45;&gt;Territory -->
<g id="edge5" class="edge"><title>TextContent&#45;&gt;Territory</title>
<path fill="none" stroke="black" d="M935.293,-312.503C897.989,-290.103 848.107,-260.151 812.525,-238.786"/>
</g>
<!-- ReviewRating -->
<g id="node7" class="node"><title>ReviewRating</title>
<polygon fill="none" stroke="black" points="868.227,-183 868.227,-239 977.605,-239 977.605,-183 868.227,-183"/>
<text text-anchor="start" x="876.227" y="-228.6" font-family="Bitstream Vera Sans" font-size="8.00">Onix::V3_0::ReviewRating</text>
<polyline fill="none" stroke="black" points="868.227,-223 977.605,-223 "/>
<text text-anchor="start" x="876.227" y="-212.6" font-family="Bitstream Vera Sans" font-size="8.00">rating</text>
<text text-anchor="start" x="876.227" y="-204.6" font-family="Bitstream Vera Sans" font-size="8.00">rating_limit</text>
<polyline fill="none" stroke="black" points="868.227,-199 977.605,-199 "/>
<text text-anchor="start" x="876.227" y="-188.6" font-family="Bitstream Vera Sans" font-size="8.00">rating_units[]</text>
</g>
<!-- TextContent&#45;&gt;ReviewRating -->
<g id="edge6" class="edge"><title>TextContent&#45;&gt;ReviewRating</title>
<path fill="none" stroke="black" d="M961.989,-292.282C953.144,-274.109 943.541,-254.377 936.068,-239.023"/>
</g>
<!-- ContentAudience -->
<g id="node8" class="node"><title>ContentAudience</title>
<ellipse fill="none" stroke="black" cx="342.916" cy="-211" rx="67.5238" ry="18"/>
<text text-anchor="middle" x="342.916" y="-208.6" font-family="Bitstream Vera Sans" font-size="8.00">Onix::V3_0::ContentAudience</text>
</g>
<!-- TextContent&#45;&gt;ContentAudience -->
<g id="edge7" class="edge"><title>TextContent&#45;&gt;ContentAudience</title>
<path fill="none" stroke="black" d="M935.312,-319.963C905.193,-307.242 866.107,-292.45 829.916,-284 668.16,-246.234 620.713,-280.988 457.916,-248 435.362,-243.43 410.957,-236.14 390.457,-229.312"/>
<polygon fill="black" stroke="black" points="391.327,-225.911 380.732,-226.011 389.077,-232.54 391.327,-225.911"/>
</g>
<!-- Text -->
<g id="node9" class="node"><title>Text</title>
<ellipse fill="none" stroke="black" cx="1205.92" cy="-211" rx="41.8842" ry="18"/>
<text text-anchor="middle" x="1205.92" y="-208.6" font-family="Bitstream Vera Sans" font-size="8.00">Onix::V3_0::Text</text>
</g>
<!-- TextContent&#45;&gt;Text -->
<g id="edge8" class="edge"><title>TextContent&#45;&gt;Text</title>
<path fill="none" stroke="black" d="M1038.63,-313.932C1070.84,-295.336 1113.02,-270.653 1149.92,-248 1158.23,-242.893 1167.16,-237.237 1175.38,-231.951"/>
<polygon fill="black" stroke="black" points="1177.47,-234.769 1183.97,-226.403 1173.67,-228.889 1177.47,-234.769"/>
</g>
<!-- TextAuthor -->
<g id="node10" class="node"><title>TextAuthor</title>
<ellipse fill="none" stroke="black" cx="1320.92" cy="-211" rx="54.6956" ry="18"/>
<text text-anchor="middle" x="1320.92" y="-208.6" font-family="Bitstream Vera Sans" font-size="8.00">Onix::V3_0::TextAuthor</text>
</g>
<!-- TextContent&#45;&gt;TextAuthor -->
<g id="edge9" class="edge"><title>TextContent&#45;&gt;TextAuthor</title>
<path fill="none" stroke="black" d="M1038.45,-328.19C1093.56,-311.15 1183.01,-281.555 1256.92,-248 1267.03,-243.407 1277.68,-237.769 1287.32,-232.33"/>
<polygon fill="black" stroke="black" points="1289.28,-235.238 1296.21,-227.217 1285.79,-229.171 1289.28,-235.238"/>
</g>
<!-- SourceTitle -->
<g id="node11" class="node"><title>SourceTitle</title>
<ellipse fill="none" stroke="black" cx="1051.92" cy="-211" rx="55.845" ry="18"/>
<text text-anchor="middle" x="1051.92" y="-208.6" font-family="Bitstream Vera Sans" font-size="8.00">Onix::V3_0::SourceTitle</text>
</g>
<!-- TextContent&#45;&gt;SourceTitle -->
<g id="edge10" class="edge"><title>TextContent&#45;&gt;SourceTitle</title>
<path fill="none" stroke="black" d="M1012.23,-292.282C1021.44,-273.649 1031.46,-253.378 1039.13,-237.866"/>
<polygon fill="black" stroke="black" points="1042.28,-239.396 1043.57,-228.88 1036,-236.294 1042.28,-239.396"/>
</g>
<!-- ContentDate -->
<g id="node12" class="node"><title>ContentDate</title>
<polygon fill="none" stroke="black" points="765.445,-72.5 765.445,-137.5 870.387,-137.5 870.387,-72.5 765.445,-72.5"/>
<text text-anchor="start" x="773.445" y="-127.1" font-family="Bitstream Vera Sans" font-size="8.00">Onix::V3_0::ContentDate</text>
<polyline fill="none" stroke="black" points="765.445,-121.5 870.387,-121.5 "/>
<text text-anchor="start" x="773.445" y="-111.1" font-family="Bitstream Vera Sans" font-size="8.00">content_date_role</text>
<text text-anchor="start" x="773.445" y="-103.1" font-family="Bitstream Vera Sans" font-size="8.00">date_format</text>
<text text-anchor="start" x="773.445" y="-95.1" font-family="Bitstream Vera Sans" font-size="8.00">date</text>
<polyline fill="none" stroke="black" points="765.445,-89.5 870.387,-89.5 "/>
</g>
<!-- TextContent&#45;&gt;ContentDate -->
<g id="edge11" class="edge"><title>TextContent&#45;&gt;ContentDate</title>
<path fill="none" stroke="black" d="M1038.44,-320.475C1067.21,-304.601 1100.47,-280.482 1116.92,-248 1131.77,-218.657 1138.36,-198.934 1116.92,-174 1083.81,-135.506 944.912,-152.66 880.379,-137.698"/>
<polygon fill="black" stroke="black" points="881.26,-134.31 870.688,-135.007 879.387,-141.055 881.26,-134.31"/>
</g>
<!-- CitedContent&#45;&gt;Territory -->
<g id="edge13" class="edge"><title>CitedContent&#45;&gt;Territory</title>
<path fill="none" stroke="black" d="M767.916,-284.29C767.916,-271.746 767.916,-258.882 767.916,-247.548"/>
</g>
<!-- CitedContent&#45;&gt;ReviewRating -->
<g id="edge14" class="edge"><title>CitedContent&#45;&gt;ReviewRating</title>
<path fill="none" stroke="black" d="M821.692,-297.877C844.776,-278.293 870.967,-256.073 890.923,-239.142"/>
</g>
<!-- CitedContent&#45;&gt;ContentAudience -->
<g id="edge15" class="edge"><title>CitedContent&#45;&gt;ContentAudience</title>
<path fill="none" stroke="black" d="M714.301,-331.081C646.169,-314.73 525.347,-283.822 424.916,-248 411.247,-243.124 396.644,-237.018 383.605,-231.227"/>
<polygon fill="black" stroke="black" points="384.979,-228.007 374.424,-227.088 382.102,-234.388 384.979,-228.007"/>
</g>
<!-- CitedContent&#45;&gt;SourceTitle -->
<g id="edge16" class="edge"><title>CitedContent&#45;&gt;SourceTitle</title>
<path fill="none" stroke="black" d="M821.665,-321.732C866.4,-303.218 931.496,-275.354 986.916,-248 996.822,-243.111 1007.37,-237.464 1017.03,-232.114"/>
<polygon fill="black" stroke="black" points="1018.95,-235.05 1025.97,-227.11 1015.53,-228.943 1018.95,-235.05"/>
</g>
<!-- CitedContent&#45;&gt;ContentDate -->
<g id="edge20" class="edge"><title>CitedContent&#45;&gt;ContentDate</title>
<path fill="none" stroke="black" d="M806.719,-284.311C812.584,-272.702 817.732,-260.299 820.916,-248 829.447,-215.046 827.905,-176.341 824.673,-147.67"/>
<polygon fill="black" stroke="black" points="828.127,-147.083 823.422,-137.59 821.181,-147.946 828.127,-147.083"/>
</g>
<!-- ListName -->
<g id="node14" class="node"><title>ListName</title>
<ellipse fill="none" stroke="black" cx="652.916" cy="-211" rx="52.2244" ry="18"/>
<text text-anchor="middle" x="652.916" y="-208.6" font-family="Bitstream Vera Sans" font-size="8.00">Onix::V3_0::ListName</text>
</g>
<!-- CitedContent&#45;&gt;ListName -->
<g id="edge17" class="edge"><title>CitedContent&#45;&gt;ListName</title>
<path fill="none" stroke="black" d="M716.135,-284.29C701.324,-267.353 686.002,-249.833 674.151,-236.282"/>
<polygon fill="black" stroke="black" points="676.475,-233.623 667.257,-228.399 671.206,-238.231 676.475,-233.623"/>
</g>
<!-- CitationNote -->
<g id="node15" class="node"><title>CitationNote</title>
<ellipse fill="none" stroke="black" cx="524.916" cy="-211" rx="58.1489" ry="18"/>
<text text-anchor="middle" x="524.916" y="-208.6" font-family="Bitstream Vera Sans" font-size="8.00">Onix::V3_0::CitationNote</text>
</g>
<!-- CitedContent&#45;&gt;CitationNote -->
<g id="edge18" class="edge"><title>CitedContent&#45;&gt;CitationNote</title>
<path fill="none" stroke="black" d="M714.288,-314.479C667.867,-289.358 601.984,-253.706 561.423,-231.756"/>
<polygon fill="black" stroke="black" points="562.887,-228.569 552.427,-226.887 559.556,-234.725 562.887,-228.569"/>
</g>
<!-- ResourceLink -->
<g id="node16" class="node"><title>ResourceLink</title>
<ellipse fill="none" stroke="black" cx="402.916" cy="-105" rx="60.6089" ry="18"/>
<text text-anchor="middle" x="402.916" y="-102.6" font-family="Bitstream Vera Sans" font-size="8.00">Onix::V3_0::ResourceLink</text>
</g>
<!-- CitedContent&#45;&gt;ResourceLink -->
<g id="edge19" class="edge"><title>CitedContent&#45;&gt;ResourceLink</title>
<path fill="none" stroke="black" d="M714.355,-340.89C646.383,-334.794 529.404,-314.605 457.916,-248 440.707,-231.966 420.85,-169.62 410.339,-133.087"/>
<polygon fill="black" stroke="black" points="413.602,-131.762 407.511,-123.092 406.866,-133.667 413.602,-131.762"/>
</g>
<!-- SupportingResource&#45;&gt;Territory -->
<g id="edge21" class="edge"><title>SupportingResource&#45;&gt;Territory</title>
<path fill="none" stroke="black" d="M409.486,-333.319C485.518,-320.129 612.497,-293.287 713.916,-248 717.002,-246.622 720.107,-245.072 723.183,-243.41"/>
</g>
<!-- SupportingResource&#45;&gt;ContentAudience -->
<g id="edge22" class="edge"><title>SupportingResource&#45;&gt;ContentAudience</title>
<path fill="none" stroke="black" d="M342.916,-304.402C342.916,-283.517 342.916,-258.314 342.916,-239.508"/>
<polygon fill="black" stroke="black" points="346.416,-239.256 342.916,-229.256 339.416,-239.256 346.416,-239.256"/>
</g>
<!-- ResourceFeature -->
<g id="node17" class="node"><title>ResourceFeature</title>
<polygon fill="none" stroke="black" points="0,-77 0,-133 121.832,-133 121.832,-77 0,-77"/>
<text text-anchor="start" x="8" y="-122.6" font-family="Bitstream Vera Sans" font-size="8.00">Onix::V3_0::ResourceFeature</text>
<polyline fill="none" stroke="black" points="0,-117 121.832,-117 "/>
<text text-anchor="start" x="8" y="-106.6" font-family="Bitstream Vera Sans" font-size="8.00">resource_feature_type</text>
<text text-anchor="start" x="8" y="-98.6" font-family="Bitstream Vera Sans" font-size="8.00">feature_value</text>
<polyline fill="none" stroke="black" points="0,-93 121.832,-93 "/>
<text text-anchor="start" x="8" y="-82.6" font-family="Bitstream Vera Sans" font-size="8.00">feature_notes[]</text>
</g>
<!-- SupportingResource&#45;&gt;ResourceFeature -->
<g id="edge23" class="edge"><title>SupportingResource&#45;&gt;ResourceFeature</title>
<path fill="none" stroke="black" d="M276.174,-327.217C229.707,-312.959 168.954,-288.111 127.916,-248 98.2762,-219.03 80.21,-174.382 70.425,-142.898"/>
<polygon fill="black" stroke="black" points="73.7392,-141.763 67.5349,-133.175 67.0293,-143.758 73.7392,-141.763"/>
</g>
<!-- ResourceVersion -->
<g id="node18" class="node"><title>ResourceVersion</title>
<polygon fill="none" stroke="black" points="136.441,-179 136.441,-243 257.391,-243 257.391,-179 136.441,-179"/>
<text text-anchor="start" x="144.441" y="-232.6" font-family="Bitstream Vera Sans" font-size="8.00">Onix::V3_0::ResourceVersion</text>
<polyline fill="none" stroke="black" points="136.441,-227 257.391,-227 "/>
<text text-anchor="start" x="144.441" y="-216.6" font-family="Bitstream Vera Sans" font-size="8.00">resource_form</text>
<polyline fill="none" stroke="black" points="136.441,-211 257.391,-211 "/>
<text text-anchor="start" x="144.441" y="-200.6" font-family="Bitstream Vera Sans" font-size="8.00">resource_version_features[]</text>
<text text-anchor="start" x="144.441" y="-192.6" font-family="Bitstream Vera Sans" font-size="8.00">resource_links[]</text>
<text text-anchor="start" x="144.441" y="-184.6" font-family="Bitstream Vera Sans" font-size="8.00">content_dates[]</text>
</g>
<!-- SupportingResource&#45;&gt;ResourceVersion -->
<g id="edge24" class="edge"><title>SupportingResource&#45;&gt;ResourceVersion</title>
<path fill="none" stroke="black" d="M299.506,-304.402C280.446,-287.234 258.146,-267.149 239.214,-250.097"/>
<polygon fill="black" stroke="black" points="241.371,-247.33 231.598,-243.238 236.686,-252.531 241.371,-247.33"/>
</g>
<!-- PrizeName -->
<g id="node21" class="node"><title>PrizeName</title>
<ellipse fill="none" stroke="black" cx="1448.92" cy="-211" rx="55.6735" ry="18"/>
<text text-anchor="middle" x="1448.92" y="-208.6" font-family="Bitstream Vera Sans" font-size="8.00">Onix::V3_0::PrizeName</text>
</g>
<!-- Prize&#45;&gt;PrizeName -->
<g id="edge30" class="edge"><title>Prize&#45;&gt;PrizeName</title>
<path fill="none" stroke="black" d="M1497.4,-304.402C1486.12,-282.899 1472.43,-256.819 1462.48,-237.857"/>
<polygon fill="black" stroke="black" points="1465.54,-236.14 1457.79,-228.912 1459.34,-239.393 1465.54,-236.14"/>
</g>
<!-- PrizeStatement -->
<g id="node22" class="node"><title>PrizeStatement</title>
<ellipse fill="none" stroke="black" cx="1586.92" cy="-211" rx="64.0576" ry="18"/>
<text text-anchor="middle" x="1586.92" y="-208.6" font-family="Bitstream Vera Sans" font-size="8.00">Onix::V3_0::PrizeStatement</text>
</g>
<!-- Prize&#45;&gt;PrizeStatement -->
<g id="edge31" class="edge"><title>Prize&#45;&gt;PrizeStatement</title>
<path fill="none" stroke="black" d="M1538.43,-304.402C1549.71,-282.899 1563.4,-256.819 1573.35,-237.857"/>
<polygon fill="black" stroke="black" points="1576.5,-239.393 1578.04,-228.912 1570.3,-236.14 1576.5,-239.393"/>
</g>
<!-- PrizeJury -->
<g id="node23" class="node"><title>PrizeJury</title>
<ellipse fill="none" stroke="black" cx="1720.92" cy="-211" rx="52.2228" ry="18"/>
<text text-anchor="middle" x="1720.92" y="-208.6" font-family="Bitstream Vera Sans" font-size="8.00">Onix::V3_0::PrizeJury</text>
</g>
<!-- Prize&#45;&gt;PrizeJury -->
<g id="edge32" class="edge"><title>Prize&#45;&gt;PrizeJury</title>
<path fill="none" stroke="black" d="M1559,-316.889C1597.45,-291.982 1654.08,-255.295 1689.17,-232.564"/>
<polygon fill="black" stroke="black" points="1691.11,-235.475 1697.6,-227.101 1687.31,-229.6 1691.11,-235.475"/>
</g>
<!-- RatingUnits -->
<g id="node13" class="node"><title>RatingUnits</title>
<ellipse fill="none" stroke="black" cx="944.916" cy="-105" rx="56.6663" ry="18"/>
<text text-anchor="middle" x="944.916" y="-102.6" font-family="Bitstream Vera Sans" font-size="8.00">Onix::V3_0::RatingUnits</text>
</g>
<!-- ReviewRating&#45;&gt;RatingUnits -->
<g id="edge12" class="edge"><title>ReviewRating&#45;&gt;RatingUnits</title>
<path fill="none" stroke="black" d="M928.639,-182.947C931.887,-167.592 935.94,-148.434 939.188,-133.076"/>
<polygon fill="black" stroke="black" points="942.644,-133.651 941.29,-123.143 935.796,-132.203 942.644,-133.651"/>
</g>
<!-- FeatureNote -->
<g id="node19" class="node"><title>FeatureNote</title>
<ellipse fill="none" stroke="black" cx="136.916" cy="-18" rx="58.1465" ry="18"/>
<text text-anchor="middle" x="136.916" y="-15.6" font-family="Bitstream Vera Sans" font-size="8.00">Onix::V3_0::FeatureNote</text>
</g>
<!-- ResourceFeature&#45;&gt;FeatureNote -->
<g id="edge25" class="edge"><title>ResourceFeature&#45;&gt;FeatureNote</title>
<path fill="none" stroke="black" d="M85.3812,-76.6376C94.9941,-65.8863 105.936,-53.6484 115.258,-43.223"/>
<polygon fill="black" stroke="black" points="117.965,-45.4462 122.021,-35.6586 112.747,-40.7804 117.965,-45.4462"/>
</g>
<!-- ResourceVersion&#45;&gt;ContentDate -->
<g id="edge28" class="edge"><title>ResourceVersion&#45;&gt;ContentDate</title>
<path fill="none" stroke="black" d="M252.304,-178.977C256.83,-177.099 261.401,-175.405 265.916,-174 356.039,-145.951 630.447,-121.084 755.106,-110.898"/>
<polygon fill="black" stroke="black" points="755.573,-114.372 765.257,-110.074 755.007,-107.395 755.573,-114.372"/>
</g>
<!-- ResourceVersion&#45;&gt;ResourceLink -->
<g id="edge27" class="edge"><title>ResourceVersion&#45;&gt;ResourceLink</title>
<path fill="none" stroke="black" d="M256.344,-178.897C259.579,-177.235 262.785,-175.594 265.916,-174 298.727,-157.3 336.185,-138.742 363.63,-125.238"/>
<polygon fill="black" stroke="black" points="365.466,-128.236 372.897,-120.684 362.378,-121.954 365.466,-128.236"/>
</g>
<!-- ResourceVersionFeature -->
<g id="node20" class="node"><title>ResourceVersionFeature</title>
<polygon fill="none" stroke="black" points="139.656,-77 139.656,-133 288.176,-133 288.176,-77 139.656,-77"/>
<text text-anchor="start" x="147.656" y="-122.6" font-family="Bitstream Vera Sans" font-size="8.00">Onix::V3_0::ResourceVersionFeature</text>
<polyline fill="none" stroke="black" points="139.656,-117 288.176,-117 "/>
<text text-anchor="start" x="147.656" y="-106.6" font-family="Bitstream Vera Sans" font-size="8.00">resource_version_feature_type</text>
<text text-anchor="start" x="147.656" y="-98.6" font-family="Bitstream Vera Sans" font-size="8.00">feature_value</text>
<polyline fill="none" stroke="black" points="139.656,-93 288.176,-93 "/>
<text text-anchor="start" x="147.656" y="-82.6" font-family="Bitstream Vera Sans" font-size="8.00">feature_notes[]</text>
</g>
<!-- ResourceVersion&#45;&gt;ResourceVersionFeature -->
<g id="edge26" class="edge"><title>ResourceVersion&#45;&gt;ResourceVersionFeature</title>
<path fill="none" stroke="black" d="M202.017,-178.797C203.847,-167.598 205.93,-154.858 207.835,-143.201"/>
<polygon fill="black" stroke="black" points="211.294,-143.735 209.453,-133.301 204.386,-142.606 211.294,-143.735"/>
</g>
<!-- ResourceVersionFeature&#45;&gt;FeatureNote -->
<g id="edge29" class="edge"><title>ResourceVersionFeature&#45;&gt;FeatureNote</title>
<path fill="none" stroke="black" d="M189.129,-76.6376C179.319,-65.809 168.144,-53.4722 158.656,-42.9983"/>
<polygon fill="black" stroke="black" points="161.087,-40.4692 151.779,-35.4077 155.899,-45.1688 161.087,-40.4692"/>
</g>
</g>
</svg>
