<?xml version="1.0" encoding="UTF-8" standalone="no"?>
<!DOCTYPE svg PUBLIC "-//W3C//DTD SVG 1.1//EN"
 "http://www.w3.org/Graphics/SVG/1.1/DTD/svg11.dtd">
<!-- Generated by graphviz version 2.38.0 (20140413.2041)
 -->
<!-- Title: G Pages: 1 -->
<svg width="157pt" height="175pt"
 viewBox="0.00 0.00 156.95 175.00" xmlns="http://www.w3.org/2000/svg" xmlns:xlink="http://www.w3.org/1999/xlink">
<g id="graph0" class="graph" transform="scale(1 1) rotate(0) translate(4 171)">
<title>G</title>
<polygon fill="white" stroke="none" points="-4,4 -4,-171 152.949,-171 152.949,4 -4,4"/>
<!-- ComparisonProductPrice -->
<g id="node1" class="node"><title>ComparisonProductPrice</title>
<polygon fill="none" stroke="black" points="0,-102.5 0,-166.5 148.949,-166.5 148.949,-102.5 0,-102.5"/>
<text text-anchor="start" x="8" y="-156.1" font-family="Bitstream Vera Sans" font-size="8.00">Onix::V3_0::ComparisonProductPrice</text>
<polyline fill="none" stroke="black" points="0,-150.5 148.949,-150.5 "/>
<text text-anchor="start" x="8" y="-140.1" font-family="Bitstream Vera Sans" font-size="8.00">price_type</text>
<text text-anchor="start" x="8" y="-132.1" font-family="Bitstream Vera Sans" font-size="8.00">price_amount</text>
<text text-anchor="start" x="8" y="-124.1" font-family="Bitstream Vera Sans" font-size="8.00">currency_code</text>
<polyline fill="none" stroke="black" points="0,-118.5 148.949,-118.5 "/>
<text text-anchor="start" x="8" y="-108.1" font-family="Bitstream Vera Sans" font-size="8.00">product_identifiers[]</text>
</g>
<!-- ProductIdentifier -->
<g id="node2" class="node"><title>ProductIdentifier</title>
<polygon fill="none" stroke="black" points="15.3359,-0.5 15.3359,-65.5 133.613,-65.5 133.613,-0.5 15.3359,-0.5"/>
<text text-anchor="start" x="23.3359" y="-55.1" font-family="Bitstream Vera Sans" font-size="8.00">Onix::V3_0::ProductIdentifier</text>
<polyline fill="none" stroke="black" points="15.3359,-49.5 133.613,-49.5 "/>
<text text-anchor="start" x="23.3359" y="-39.1" font-family="Bitstream Vera Sans" font-size="8.00">product_id_type</text>
<text text-anchor="start" x="23.3359" y="-31.1" font-family="Bitstream Vera Sans" font-size="8.00">id_type_name</text>
<text text-anchor="start" x="23.3359" y="-23.1" font-family="Bitstream Vera Sans" font-size="8.00">id_value</text>
<polyline fill="none" stroke="black" points="15.3359,-17.5 133.613,-17.5 "/>
</g>
<!-- ComparisonProductPrice&#45;&gt;ProductIdentifier -->
<g id="edge1" class="edge"><title>ComparisonProductPrice&#45;&gt;ProductIdentifier</title>
<path fill="none" stroke="black" d="M74.4746,-102.291C74.4746,-93.9341 74.4746,-84.7632 74.4746,-75.9296"/>
<polygon fill="black" stroke="black" points="77.9747,-75.7838 74.4746,-65.7838 70.9747,-75.7838 77.9747,-75.7838"/>
</g>
</g>
</svg>
