<?xml version="1.0" encoding="UTF-8" standalone="no"?>
<!DOCTYPE svg PUBLIC "-//W3C//DTD SVG 1.1//EN"
 "http://www.w3.org/Graphics/SVG/1.1/DTD/svg11.dtd">
<!-- Generated by graphviz version 2.38.0 (20140413.2041)
 -->
<!-- Title: G Pages: 1 -->
<svg width="332pt" height="308pt"
 viewBox="0.00 0.00 331.82 308.00" xmlns="http://www.w3.org/2000/svg" xmlns:xlink="http://www.w3.org/1999/xlink">
<g id="graph0" class="graph" transform="scale(1 1) rotate(0) translate(4 304)">
<title>G</title>
<polygon fill="white" stroke="none" points="-4,4 -4,-304 327.82,-304 327.82,4 -4,4"/>
<!-- Conference -->
<g id="node1" class="node"><title>Conference</title>
<polygon fill="none" stroke="black" points="115.24,-195.5 115.24,-299.5 216.623,-299.5 216.623,-195.5 115.24,-195.5"/>
<text text-anchor="start" x="123.24" y="-289.1" font-family="Bitstream Vera Sans" font-size="8.00">Onix::V3_0::Conference</text>
<polyline fill="none" stroke="black" points="115.24,-283.5 216.623,-283.5 "/>
<text text-anchor="start" x="123.24" y="-273.1" font-family="Bitstream Vera Sans" font-size="8.00">conference_role</text>
<text text-anchor="start" x="123.24" y="-265.1" font-family="Bitstream Vera Sans" font-size="8.00">conference_name</text>
<text text-anchor="start" x="123.24" y="-257.1" font-family="Bitstream Vera Sans" font-size="8.00">conference_acronym</text>
<text text-anchor="start" x="123.24" y="-249.1" font-family="Bitstream Vera Sans" font-size="8.00">conference_number</text>
<text text-anchor="start" x="123.24" y="-241.1" font-family="Bitstream Vera Sans" font-size="8.00">conference_theme</text>
<text text-anchor="start" x="123.24" y="-233.1" font-family="Bitstream Vera Sans" font-size="8.00">conference_date</text>
<text text-anchor="start" x="123.24" y="-225.1" font-family="Bitstream Vera Sans" font-size="8.00">conference_place</text>
<polyline fill="none" stroke="black" points="115.24,-219.5 216.623,-219.5 "/>
<text text-anchor="start" x="123.24" y="-209.1" font-family="Bitstream Vera Sans" font-size="8.00">conference_sponsors[]</text>
<text text-anchor="start" x="123.24" y="-201.1" font-family="Bitstream Vera Sans" font-size="8.00">websites[]</text>
</g>
<!-- ConferenceSponsor -->
<g id="node2" class="node"><title>ConferenceSponsor</title>
<polygon fill="none" stroke="black" points="25.1191,-102.5 25.1191,-158.5 156.744,-158.5 156.744,-102.5 25.1191,-102.5"/>
<text text-anchor="start" x="33.1191" y="-148.1" font-family="Bitstream Vera Sans" font-size="8.00">Onix::V3_0::ConferenceSponsor</text>
<polyline fill="none" stroke="black" points="25.1191,-142.5 156.744,-142.5 "/>
<text text-anchor="start" x="33.1191" y="-132.1" font-family="Bitstream Vera Sans" font-size="8.00">person_name</text>
<text text-anchor="start" x="33.1191" y="-124.1" font-family="Bitstream Vera Sans" font-size="8.00">corporate_name</text>
<polyline fill="none" stroke="black" points="25.1191,-118.5 156.744,-118.5 "/>
<text text-anchor="start" x="33.1191" y="-108.1" font-family="Bitstream Vera Sans" font-size="8.00">conference_sponsor_identifiers[]</text>
</g>
<!-- Conference&#45;&gt;ConferenceSponsor -->
<g id="edge1" class="edge"><title>Conference&#45;&gt;ConferenceSponsor</title>
<path fill="none" stroke="black" d="M132.599,-195.39C126.378,-185.852 120.003,-176.076 114.169,-167.13"/>
<polygon fill="black" stroke="black" points="116.935,-164.965 108.541,-158.501 111.072,-168.789 116.935,-164.965"/>
</g>
<!-- Website -->
<g id="node3" class="node"><title>Website</title>
<polygon fill="none" stroke="black" points="194.578,-102.5 194.578,-158.5 289.285,-158.5 289.285,-102.5 194.578,-102.5"/>
<text text-anchor="start" x="202.578" y="-148.1" font-family="Bitstream Vera Sans" font-size="8.00">Onix::V3_0::Website</text>
<polyline fill="none" stroke="black" points="194.578,-142.5 289.285,-142.5 "/>
<text text-anchor="start" x="202.578" y="-132.1" font-family="Bitstream Vera Sans" font-size="8.00">website_role</text>
<text text-anchor="start" x="202.578" y="-124.1" font-family="Bitstream Vera Sans" font-size="8.00">website_link</text>
<polyline fill="none" stroke="black" points="194.578,-118.5 289.285,-118.5 "/>
<text text-anchor="start" x="202.578" y="-108.1" font-family="Bitstream Vera Sans" font-size="8.00">website_descriptions[]</text>
</g>
<!-- Conference&#45;&gt;Website -->
<g id="edge2" class="edge"><title>Conference&#45;&gt;Website</title>
<path fill="none" stroke="black" d="M199.709,-195.39C206.078,-185.752 212.607,-175.872 218.569,-166.851"/>
<polygon fill="black" stroke="black" points="221.494,-168.773 224.088,-158.501 215.654,-164.914 221.494,-168.773"/>
</g>
<!-- ConferenceSponsorIdentifier -->
<g id="node4" class="node"><title>ConferenceSponsorIdentifier</title>
<polygon fill="none" stroke="black" points="0,-0.5 0,-65.5 161.863,-65.5 161.863,-0.5 0,-0.5"/>
<text text-anchor="start" x="8" y="-55.1" font-family="Bitstream Vera Sans" font-size="8.00">Onix::V3_0::ConferenceSponsorIdentifier</text>
<polyline fill="none" stroke="black" points="0,-49.5 161.863,-49.5 "/>
<text text-anchor="start" x="8" y="-39.1" font-family="Bitstream Vera Sans" font-size="8.00">conference_sponsor_id_type</text>
<text text-anchor="start" x="8" y="-31.1" font-family="Bitstream Vera Sans" font-size="8.00">id_type_name</text>
<text text-anchor="start" x="8" y="-23.1" font-family="Bitstream Vera Sans" font-size="8.00">id_value</text>
<polyline fill="none" stroke="black" points="0,-17.5 161.863,-17.5 "/>
</g>
<!-- ConferenceSponsor&#45;&gt;ConferenceSponsorIdentifier -->
<g id="edge3" class="edge"><title>ConferenceSponsor&#45;&gt;ConferenceSponsorIdentifier</title>
<path fill="none" stroke="black" d="M88.0928,-102.389C87.2202,-94.0553 86.2388,-84.683 85.2888,-75.6112"/>
<polygon fill="black" stroke="black" points="88.7597,-75.1492 84.2372,-65.5681 81.7977,-75.8782 88.7597,-75.1492"/>
</g>
<!-- WebsiteDescription -->
<g id="node5" class="node"><title>WebsiteDescription</title>
<ellipse fill="none" stroke="black" cx="251.932" cy="-33" rx="71.7777" ry="18"/>
<text text-anchor="middle" x="251.932" y="-30.6" font-family="Bitstream Vera Sans" font-size="8.00">Onix::V3_0::WebsiteDescription</text>
</g>
<!-- Website&#45;&gt;WebsiteDescription -->
<g id="edge4" class="edge"><title>Website&#45;&gt;WebsiteDescription</title>
<path fill="none" stroke="black" d="M244.77,-102.389C246.115,-89.5507 247.717,-74.2475 249.065,-61.3756"/>
<polygon fill="black" stroke="black" points="252.566,-61.5526 250.126,-51.2425 245.604,-60.8236 252.566,-61.5526"/>
</g>
</g>
</svg>
