<?xml version="1.0" encoding="UTF-8" standalone="no"?>
<!DOCTYPE svg PUBLIC "-//W3C//DTD SVG 1.1//EN"
 "http://www.w3.org/Graphics/SVG/1.1/DTD/svg11.dtd">
<!-- Generated by graphviz version 2.38.0 (20140413.2041)
 -->
<!-- Title: G Pages: 1 -->
<svg width="133pt" height="145pt"
 viewBox="0.00 0.00 132.59 145.00" xmlns="http://www.w3.org/2000/svg" xmlns:xlink="http://www.w3.org/1999/xlink">
<g id="graph0" class="graph" transform="scale(1 1) rotate(0) translate(4 141)">
<title>G</title>
<polygon fill="white" stroke="none" points="-4,4 -4,-141 128.591,-141 128.591,4 -4,4"/>
<!-- ContributorPlace -->
<g id="node1" class="node"><title>ContributorPlace</title>
<polygon fill="none" stroke="black" points="2.49079,-72.5 2.49079,-136.5 122.1,-136.5 122.1,-72.5 2.49079,-72.5"/>
<text text-anchor="start" x="10.4908" y="-126.1" font-family="Bitstream Vera Sans" font-size="8.00">Onix::V3_0::ContributorPlace</text>
<polyline fill="none" stroke="black" points="2.49079,-120.5 122.1,-120.5 "/>
<text text-anchor="start" x="10.4908" y="-110.1" font-family="Bitstream Vera Sans" font-size="8.00">contributor_place_relator</text>
<text text-anchor="start" x="10.4908" y="-102.1" font-family="Bitstream Vera Sans" font-size="8.00">country_code</text>
<text text-anchor="start" x="10.4908" y="-94.1" font-family="Bitstream Vera Sans" font-size="8.00">region_code</text>
<polyline fill="none" stroke="black" points="2.49079,-88.5 122.1,-88.5 "/>
<text text-anchor="start" x="10.4908" y="-78.1" font-family="Bitstream Vera Sans" font-size="8.00">location_names[]</text>
</g>
<!-- LocationName -->
<g id="node2" class="node"><title>LocationName</title>
<ellipse fill="none" stroke="black" cx="62.2955" cy="-18" rx="62.0916" ry="18"/>
<text text-anchor="middle" x="62.2955" y="-15.6" font-family="Bitstream Vera Sans" font-size="8.00">Onix::V3_0::LocationName</text>
</g>
<!-- ContributorPlace&#45;&gt;LocationName -->
<g id="edge1" class="edge"><title>ContributorPlace&#45;&gt;LocationName</title>
<path fill="none" stroke="black" d="M62.2955,-72.0353C62.2955,-63.5525 62.2955,-54.4481 62.2955,-46.2186"/>
<polygon fill="black" stroke="black" points="65.7956,-46.0299 62.2955,-36.0299 58.7956,-46.03 65.7956,-46.0299"/>
</g>
</g>
</svg>
