<?xml version="1.0" encoding="UTF-8" standalone="no"?>
<!DOCTYPE svg PUBLIC "-//W3C//DTD SVG 1.1//EN"
 "http://www.w3.org/Graphics/SVG/1.1/DTD/svg11.dtd">
<!-- Generated by graphviz version 2.38.0 (20140413.2041)
 -->
<!-- Title: G Pages: 1 -->
<svg width="1562pt" height="556pt"
 viewBox="0.00 0.00 1562.07 556.00" xmlns="http://www.w3.org/2000/svg" xmlns:xlink="http://www.w3.org/1999/xlink">
<g id="graph0" class="graph" transform="scale(1 1) rotate(0) translate(4 552)">
<title>G</title>
<polygon fill="white" stroke="none" points="-4,4 -4,-552 1558.07,-552 1558.07,4 -4,4"/>
<!-- Contributor -->
<g id="node1" class="node"><title>Contributor</title>
<polygon fill="none" stroke="black" points="680.19,-291.5 680.19,-547.5 787.358,-547.5 787.358,-291.5 680.19,-291.5"/>
<text text-anchor="start" x="688.19" y="-537.1" font-family="Bitstream Vera Sans" font-size="8.00">Onix::V3_0::Contributor</text>
<polyline fill="none" stroke="black" points="680.19,-531.5 787.358,-531.5 "/>
<text text-anchor="start" x="688.19" y="-521.1" font-family="Bitstream Vera Sans" font-size="8.00">sequence_number</text>
<text text-anchor="start" x="688.19" y="-513.1" font-family="Bitstream Vera Sans" font-size="8.00">name_type</text>
<text text-anchor="start" x="688.19" y="-505.1" font-family="Bitstream Vera Sans" font-size="8.00">person_name</text>
<text text-anchor="start" x="688.19" y="-497.1" font-family="Bitstream Vera Sans" font-size="8.00">person_name_inverted</text>
<text text-anchor="start" x="688.19" y="-489.1" font-family="Bitstream Vera Sans" font-size="8.00">titles_before_names</text>
<text text-anchor="start" x="688.19" y="-481.1" font-family="Bitstream Vera Sans" font-size="8.00">names_before_key</text>
<text text-anchor="start" x="688.19" y="-473.1" font-family="Bitstream Vera Sans" font-size="8.00">prefix_to_key</text>
<text text-anchor="start" x="688.19" y="-465.1" font-family="Bitstream Vera Sans" font-size="8.00">key_names</text>
<text text-anchor="start" x="688.19" y="-457.1" font-family="Bitstream Vera Sans" font-size="8.00">names_after_key</text>
<text text-anchor="start" x="688.19" y="-449.1" font-family="Bitstream Vera Sans" font-size="8.00">suffix_to_key</text>
<text text-anchor="start" x="688.19" y="-441.1" font-family="Bitstream Vera Sans" font-size="8.00">letters_after_names</text>
<text text-anchor="start" x="688.19" y="-433.1" font-family="Bitstream Vera Sans" font-size="8.00">titles_after_names</text>
<text text-anchor="start" x="688.19" y="-425.1" font-family="Bitstream Vera Sans" font-size="8.00">gender</text>
<text text-anchor="start" x="688.19" y="-417.1" font-family="Bitstream Vera Sans" font-size="8.00">corporate_name</text>
<text text-anchor="start" x="688.19" y="-409.1" font-family="Bitstream Vera Sans" font-size="8.00">corporate_name_inverted</text>
<text text-anchor="start" x="688.19" y="-401.1" font-family="Bitstream Vera Sans" font-size="8.00">unnamed_persons</text>
<polyline fill="none" stroke="black" points="680.19,-395.5 787.358,-395.5 "/>
<text text-anchor="start" x="688.19" y="-385.1" font-family="Bitstream Vera Sans" font-size="8.00">contributor_roles[]</text>
<text text-anchor="start" x="688.19" y="-377.1" font-family="Bitstream Vera Sans" font-size="8.00">from_languages[]</text>
<text text-anchor="start" x="688.19" y="-369.1" font-family="Bitstream Vera Sans" font-size="8.00">to_languages[]</text>
<text text-anchor="start" x="688.19" y="-361.1" font-family="Bitstream Vera Sans" font-size="8.00">name_identifiers[]</text>
<text text-anchor="start" x="688.19" y="-353.1" font-family="Bitstream Vera Sans" font-size="8.00">alternative_names[]</text>
<text text-anchor="start" x="688.19" y="-345.1" font-family="Bitstream Vera Sans" font-size="8.00">contributor_dates[]</text>
<text text-anchor="start" x="688.19" y="-337.1" font-family="Bitstream Vera Sans" font-size="8.00">professional_affiliations[]</text>
<text text-anchor="start" x="688.19" y="-329.1" font-family="Bitstream Vera Sans" font-size="8.00">prizes[]</text>
<text text-anchor="start" x="688.19" y="-321.1" font-family="Bitstream Vera Sans" font-size="8.00">biographical_notes[]</text>
<text text-anchor="start" x="688.19" y="-313.1" font-family="Bitstream Vera Sans" font-size="8.00">websites[]</text>
<text text-anchor="start" x="688.19" y="-305.1" font-family="Bitstream Vera Sans" font-size="8.00">contributor_descriptions[]</text>
<text text-anchor="start" x="688.19" y="-297.1" font-family="Bitstream Vera Sans" font-size="8.00">contributor_places[]</text>
</g>
<!-- ContributorRole -->
<g id="node2" class="node"><title>ContributorRole</title>
<ellipse fill="none" stroke="black" cx="64.7745" cy="-178.5" rx="64.5497" ry="18"/>
<text text-anchor="middle" x="64.7745" y="-176.1" font-family="Bitstream Vera Sans" font-size="8.00">Onix::V3_0::ContributorRole</text>
</g>
<!-- Contributor&#45;&gt;ContributorRole -->
<g id="edge1" class="edge"><title>Contributor&#45;&gt;ContributorRole</title>
<path fill="none" stroke="black" d="M680.033,-413.216C571.095,-400.549 319.285,-361.201 138.774,-255 116.952,-242.161 97.1596,-221.235 83.5468,-204.666"/>
<polygon fill="black" stroke="black" points="85.9819,-202.105 77.0135,-196.464 80.5067,-206.467 85.9819,-202.105"/>
</g>
<!-- FromLanguage -->
<g id="node3" class="node"><title>FromLanguage</title>
<ellipse fill="none" stroke="black" cx="211.774" cy="-178.5" rx="63.5743" ry="18"/>
<text text-anchor="middle" x="211.774" y="-176.1" font-family="Bitstream Vera Sans" font-size="8.00">Onix::V3_0::FromLanguage</text>
</g>
<!-- Contributor&#45;&gt;FromLanguage -->
<g id="edge2" class="edge"><title>Contributor&#45;&gt;FromLanguage</title>
<path fill="none" stroke="black" d="M680.098,-407.274C592.101,-387.123 414.03,-338.896 284.774,-255 263.807,-241.39 244.36,-220.703 230.819,-204.423"/>
<polygon fill="black" stroke="black" points="233.313,-201.941 224.3,-196.372 227.873,-206.346 233.313,-201.941"/>
</g>
<!-- ToLanguage -->
<g id="node4" class="node"><title>ToLanguage</title>
<ellipse fill="none" stroke="black" cx="351.774" cy="-178.5" rx="58.1708" ry="18"/>
<text text-anchor="middle" x="351.774" y="-176.1" font-family="Bitstream Vera Sans" font-size="8.00">Onix::V3_0::ToLanguage</text>
</g>
<!-- Contributor&#45;&gt;ToLanguage -->
<g id="edge3" class="edge"><title>Contributor&#45;&gt;ToLanguage</title>
<path fill="none" stroke="black" d="M679.979,-396.537C615.598,-368.854 506.172,-317.28 423.774,-255 404.21,-240.213 385.2,-219.947 371.631,-204.135"/>
<polygon fill="black" stroke="black" points="374.174,-201.722 365.057,-196.325 368.819,-206.229 374.174,-201.722"/>
</g>
<!-- NameIdentifier -->
<g id="node5" class="node"><title>NameIdentifier</title>
<polygon fill="none" stroke="black" points="412.751,-0.5 412.751,-65.5 524.798,-65.5 524.798,-0.5 412.751,-0.5"/>
<text text-anchor="start" x="420.751" y="-55.1" font-family="Bitstream Vera Sans" font-size="8.00">Onix::V3_0::NameIdentifier</text>
<polyline fill="none" stroke="black" points="412.751,-49.5 524.798,-49.5 "/>
<text text-anchor="start" x="420.751" y="-39.1" font-family="Bitstream Vera Sans" font-size="8.00">name_id_type</text>
<text text-anchor="start" x="420.751" y="-31.1" font-family="Bitstream Vera Sans" font-size="8.00">id_type_name</text>
<text text-anchor="start" x="420.751" y="-23.1" font-family="Bitstream Vera Sans" font-size="8.00">id_value</text>
<polyline fill="none" stroke="black" points="412.751,-17.5 524.798,-17.5 "/>
</g>
<!-- Contributor&#45;&gt;NameIdentifier -->
<g id="edge4" class="edge"><title>Contributor&#45;&gt;NameIdentifier</title>
<path fill="none" stroke="black" d="M680.122,-404.452C614.019,-383.938 504.606,-338.775 456.774,-255 425.003,-199.353 439.717,-122.424 453.835,-75.5541"/>
<polygon fill="black" stroke="black" points="457.259,-76.3317 456.915,-65.7425 450.581,-74.2354 457.259,-76.3317"/>
</g>
<!-- AlternativeName -->
<g id="node6" class="node"><title>AlternativeName</title>
<polygon fill="none" stroke="black" points="466.194,-102.5 466.194,-254.5 585.355,-254.5 585.355,-102.5 466.194,-102.5"/>
<text text-anchor="start" x="474.194" y="-244.1" font-family="Bitstream Vera Sans" font-size="8.00">Onix::V3_0::AlternativeName</text>
<polyline fill="none" stroke="black" points="466.194,-238.5 585.355,-238.5 "/>
<text text-anchor="start" x="474.194" y="-228.1" font-family="Bitstream Vera Sans" font-size="8.00">name_type</text>
<text text-anchor="start" x="474.194" y="-220.1" font-family="Bitstream Vera Sans" font-size="8.00">person_name</text>
<text text-anchor="start" x="474.194" y="-212.1" font-family="Bitstream Vera Sans" font-size="8.00">person_name_inverted</text>
<text text-anchor="start" x="474.194" y="-204.1" font-family="Bitstream Vera Sans" font-size="8.00">titles_before_names</text>
<text text-anchor="start" x="474.194" y="-196.1" font-family="Bitstream Vera Sans" font-size="8.00">names_before_key</text>
<text text-anchor="start" x="474.194" y="-188.1" font-family="Bitstream Vera Sans" font-size="8.00">prefix_to_key</text>
<text text-anchor="start" x="474.194" y="-180.1" font-family="Bitstream Vera Sans" font-size="8.00">key_names</text>
<text text-anchor="start" x="474.194" y="-172.1" font-family="Bitstream Vera Sans" font-size="8.00">names_after_key</text>
<text text-anchor="start" x="474.194" y="-164.1" font-family="Bitstream Vera Sans" font-size="8.00">suffix_to_key</text>
<text text-anchor="start" x="474.194" y="-156.1" font-family="Bitstream Vera Sans" font-size="8.00">letters_after_names</text>
<text text-anchor="start" x="474.194" y="-148.1" font-family="Bitstream Vera Sans" font-size="8.00">titles_after_names</text>
<text text-anchor="start" x="474.194" y="-140.1" font-family="Bitstream Vera Sans" font-size="8.00">gender</text>
<text text-anchor="start" x="474.194" y="-132.1" font-family="Bitstream Vera Sans" font-size="8.00">corporate_name</text>
<text text-anchor="start" x="474.194" y="-124.1" font-family="Bitstream Vera Sans" font-size="8.00">corporate_name_inverted</text>
<polyline fill="none" stroke="black" points="466.194,-118.5 585.355,-118.5 "/>
<text text-anchor="start" x="474.194" y="-108.1" font-family="Bitstream Vera Sans" font-size="8.00">name_identifiers[]</text>
</g>
<!-- Contributor&#45;&gt;AlternativeName -->
<g id="edge5" class="edge"><title>Contributor&#45;&gt;AlternativeName</title>
<path fill="none" stroke="black" d="M679.939,-356.641C653.194,-325.91 620.629,-288.492 592.332,-255.977"/>
<polygon fill="black" stroke="black" points="594.819,-253.504 585.614,-248.258 589.539,-258.099 594.819,-253.504"/>
</g>
<!-- ContributorDate -->
<g id="node7" class="node"><title>ContributorDate</title>
<polygon fill="none" stroke="black" points="603.526,-146 603.526,-211 720.023,-211 720.023,-146 603.526,-146"/>
<text text-anchor="start" x="611.526" y="-200.6" font-family="Bitstream Vera Sans" font-size="8.00">Onix::V3_0::ContributorDate</text>
<polyline fill="none" stroke="black" points="603.526,-195 720.023,-195 "/>
<text text-anchor="start" x="611.526" y="-184.6" font-family="Bitstream Vera Sans" font-size="8.00">contributor_date_role</text>
<text text-anchor="start" x="611.526" y="-176.6" font-family="Bitstream Vera Sans" font-size="8.00">date_format</text>
<text text-anchor="start" x="611.526" y="-168.6" font-family="Bitstream Vera Sans" font-size="8.00">date</text>
<polyline fill="none" stroke="black" points="603.526,-163 720.023,-163 "/>
</g>
<!-- Contributor&#45;&gt;ContributorDate -->
<g id="edge6" class="edge"><title>Contributor&#45;&gt;ContributorDate</title>
<path fill="none" stroke="black" d="M695.456,-291.303C687.756,-265.744 680.199,-240.658 674.2,-220.745"/>
<polygon fill="black" stroke="black" points="677.535,-219.683 671.3,-211.118 670.833,-221.702 677.535,-219.683"/>
</g>
<!-- ProfessionalAffiliation -->
<g id="node8" class="node"><title>ProfessionalAffiliation</title>
<polygon fill="none" stroke="black" points="738.521,-154.5 738.521,-202.5 875.028,-202.5 875.028,-154.5 738.521,-154.5"/>
<text text-anchor="start" x="746.521" y="-192.1" font-family="Bitstream Vera Sans" font-size="8.00">Onix::V3_0::ProfessionalAffiliation</text>
<polyline fill="none" stroke="black" points="738.521,-186.5 875.028,-186.5 "/>
<text text-anchor="start" x="746.521" y="-176.1" font-family="Bitstream Vera Sans" font-size="8.00">affiliation</text>
<polyline fill="none" stroke="black" points="738.521,-170.5 875.028,-170.5 "/>
<text text-anchor="start" x="746.521" y="-160.1" font-family="Bitstream Vera Sans" font-size="8.00">professional_positions[]</text>
</g>
<!-- Contributor&#45;&gt;ProfessionalAffiliation -->
<g id="edge7" class="edge"><title>Contributor&#45;&gt;ProfessionalAffiliation</title>
<path fill="none" stroke="black" d="M772.626,-291.303C781.58,-261.987 790.344,-233.292 796.752,-212.313"/>
<polygon fill="black" stroke="black" points="800.125,-213.252 799.699,-202.666 793.43,-211.207 800.125,-213.252"/>
</g>
<!-- Prize -->
<g id="node9" class="node"><title>Prize</title>
<polygon fill="none" stroke="black" points="893.093,-138.5 893.093,-218.5 974.456,-218.5 974.456,-138.5 893.093,-138.5"/>
<text text-anchor="start" x="901.093" y="-208.1" font-family="Bitstream Vera Sans" font-size="8.00">Onix::V3_0::Prize</text>
<polyline fill="none" stroke="black" points="893.093,-202.5 974.456,-202.5 "/>
<text text-anchor="start" x="901.093" y="-192.1" font-family="Bitstream Vera Sans" font-size="8.00">prize_year</text>
<text text-anchor="start" x="901.093" y="-184.1" font-family="Bitstream Vera Sans" font-size="8.00">prize_country</text>
<text text-anchor="start" x="901.093" y="-176.1" font-family="Bitstream Vera Sans" font-size="8.00">prize_code</text>
<polyline fill="none" stroke="black" points="893.093,-170.5 974.456,-170.5 "/>
<text text-anchor="start" x="901.093" y="-160.1" font-family="Bitstream Vera Sans" font-size="8.00">prize_names[]</text>
<text text-anchor="start" x="901.093" y="-152.1" font-family="Bitstream Vera Sans" font-size="8.00">prize_statements[]</text>
<text text-anchor="start" x="901.093" y="-144.1" font-family="Bitstream Vera Sans" font-size="8.00">prize_juries[]</text>
</g>
<!-- Contributor&#45;&gt;Prize -->
<g id="edge8" class="edge"><title>Contributor&#45;&gt;Prize</title>
<path fill="none" stroke="black" d="M787.402,-364.413C817.071,-333.44 853.876,-293.235 883.774,-255 890.596,-246.277 897.449,-236.638 903.799,-227.248"/>
<polygon fill="black" stroke="black" points="906.844,-228.991 909.475,-218.728 901.018,-225.11 906.844,-228.991"/>
</g>
<!-- BiographicalNote -->
<g id="node10" class="node"><title>BiographicalNote</title>
<ellipse fill="none" stroke="black" cx="1059.77" cy="-178.5" rx="67.5171" ry="18"/>
<text text-anchor="middle" x="1059.77" y="-176.1" font-family="Bitstream Vera Sans" font-size="8.00">Onix::V3_0::BiographicalNote</text>
</g>
<!-- Contributor&#45;&gt;BiographicalNote -->
<g id="edge9" class="edge"><title>Contributor&#45;&gt;BiographicalNote</title>
<path fill="none" stroke="black" d="M787.637,-387.633C839.788,-356.759 920.093,-306.564 983.774,-255 1003.22,-239.253 1023.22,-219.203 1037.82,-203.723"/>
<polygon fill="black" stroke="black" points="1040.67,-205.794 1044.93,-196.092 1035.55,-201.022 1040.67,-205.794"/>
</g>
<!-- Website -->
<g id="node11" class="node"><title>Website</title>
<polygon fill="none" stroke="black" points="1145.42,-150.5 1145.42,-206.5 1240.13,-206.5 1240.13,-150.5 1145.42,-150.5"/>
<text text-anchor="start" x="1153.42" y="-196.1" font-family="Bitstream Vera Sans" font-size="8.00">Onix::V3_0::Website</text>
<polyline fill="none" stroke="black" points="1145.42,-190.5 1240.13,-190.5 "/>
<text text-anchor="start" x="1153.42" y="-180.1" font-family="Bitstream Vera Sans" font-size="8.00">website_role</text>
<text text-anchor="start" x="1153.42" y="-172.1" font-family="Bitstream Vera Sans" font-size="8.00">website_link</text>
<polyline fill="none" stroke="black" points="1145.42,-166.5 1240.13,-166.5 "/>
<text text-anchor="start" x="1153.42" y="-156.1" font-family="Bitstream Vera Sans" font-size="8.00">website_descriptions[]</text>
</g>
<!-- Contributor&#45;&gt;Website -->
<g id="edge10" class="edge"><title>Contributor&#45;&gt;Website</title>
<path fill="none" stroke="black" d="M787.419,-406.672C869.409,-386.544 1027.83,-339.377 1136.77,-255 1150.77,-244.159 1162.96,-228.948 1172.36,-215.017"/>
<polygon fill="black" stroke="black" points="1175.34,-216.854 1177.85,-206.56 1169.47,-213.046 1175.34,-216.854"/>
</g>
<!-- ContributorDescription -->
<g id="node12" class="node"><title>ContributorDescription</title>
<ellipse fill="none" stroke="black" cx="1335.77" cy="-178.5" rx="77.8521" ry="18"/>
<text text-anchor="middle" x="1335.77" y="-176.1" font-family="Bitstream Vera Sans" font-size="8.00">Onix::V3_0::ContributorDescription</text>
</g>
<!-- Contributor&#45;&gt;ContributorDescription -->
<g id="edge11" class="edge"><title>Contributor&#45;&gt;ContributorDescription</title>
<path fill="none" stroke="black" d="M787.435,-408.959C884.384,-390.139 1093.11,-342.292 1248.77,-255 1273.13,-241.343 1296.8,-220.126 1313.28,-203.657"/>
<polygon fill="black" stroke="black" points="1315.83,-206.06 1320.33,-196.469 1310.83,-201.16 1315.83,-206.06"/>
</g>
<!-- ContributorPlace -->
<g id="node13" class="node"><title>ContributorPlace</title>
<polygon fill="none" stroke="black" points="1431.97,-146.5 1431.97,-210.5 1551.58,-210.5 1551.58,-146.5 1431.97,-146.5"/>
<text text-anchor="start" x="1439.97" y="-200.1" font-family="Bitstream Vera Sans" font-size="8.00">Onix::V3_0::ContributorPlace</text>
<polyline fill="none" stroke="black" points="1431.97,-194.5 1551.58,-194.5 "/>
<text text-anchor="start" x="1439.97" y="-184.1" font-family="Bitstream Vera Sans" font-size="8.00">contributor_place_relator</text>
<text text-anchor="start" x="1439.97" y="-176.1" font-family="Bitstream Vera Sans" font-size="8.00">country_code</text>
<text text-anchor="start" x="1439.97" y="-168.1" font-family="Bitstream Vera Sans" font-size="8.00">region_code</text>
<polyline fill="none" stroke="black" points="1431.97,-162.5 1551.58,-162.5 "/>
<text text-anchor="start" x="1439.97" y="-152.1" font-family="Bitstream Vera Sans" font-size="8.00">location_names[]</text>
</g>
<!-- Contributor&#45;&gt;ContributorPlace -->
<g id="edge12" class="edge"><title>Contributor&#45;&gt;ContributorPlace</title>
<path fill="none" stroke="black" d="M787.379,-416.373C908.766,-409.403 1210.57,-379.81 1422.77,-255 1438.38,-245.819 1452.51,-231.971 1463.85,-218.631"/>
<polygon fill="black" stroke="black" points="1466.57,-220.83 1470.2,-210.875 1461.16,-216.397 1466.57,-220.83"/>
</g>
<!-- AlternativeName&#45;&gt;NameIdentifier -->
<g id="edge13" class="edge"><title>AlternativeName&#45;&gt;NameIdentifier</title>
<path fill="none" stroke="black" d="M495.939,-102.388C492.221,-93.0265 488.533,-83.7417 485.129,-75.1727"/>
<polygon fill="black" stroke="black" points="488.365,-73.8378 481.42,-65.8362 481.859,-76.4219 488.365,-73.8378"/>
</g>
<!-- ProfessionalPosition -->
<g id="node14" class="node"><title>ProfessionalPosition</title>
<ellipse fill="none" stroke="black" cx="647.774" cy="-33" rx="73.9202" ry="18"/>
<text text-anchor="middle" x="647.774" y="-30.6" font-family="Bitstream Vera Sans" font-size="8.00">Onix::V3_0::ProfessionalPosition</text>
</g>
<!-- ProfessionalAffiliation&#45;&gt;ProfessionalPosition -->
<g id="edge14" class="edge"><title>ProfessionalAffiliation&#45;&gt;ProfessionalPosition</title>
<path fill="none" stroke="black" d="M783.635,-154.262C768.328,-139.102 747.67,-119.038 728.774,-102 711.589,-86.5039 691.692,-69.7844 675.92,-56.802"/>
<polygon fill="black" stroke="black" points="678.037,-54.0117 668.084,-50.3799 673.6,-59.4258 678.037,-54.0117"/>
</g>
<!-- PrizeName -->
<g id="node15" class="node"><title>PrizeName</title>
<ellipse fill="none" stroke="black" cx="795.774" cy="-33" rx="55.6735" ry="18"/>
<text text-anchor="middle" x="795.774" y="-30.6" font-family="Bitstream Vera Sans" font-size="8.00">Onix::V3_0::PrizeName</text>
</g>
<!-- Prize&#45;&gt;PrizeName -->
<g id="edge15" class="edge"><title>Prize&#45;&gt;PrizeName</title>
<path fill="none" stroke="black" d="M911.387,-138.455C903.45,-126.156 893.943,-112.939 883.774,-102 867.281,-84.2571 845.816,-67.572 828.215,-55.1697"/>
<polygon fill="black" stroke="black" points="830.14,-52.2457 819.924,-49.4396 826.16,-58.0043 830.14,-52.2457"/>
</g>
<!-- PrizeStatement -->
<g id="node16" class="node"><title>PrizeStatement</title>
<ellipse fill="none" stroke="black" cx="933.774" cy="-33" rx="64.0576" ry="18"/>
<text text-anchor="middle" x="933.774" y="-30.6" font-family="Bitstream Vera Sans" font-size="8.00">Onix::V3_0::PrizeStatement</text>
</g>
<!-- Prize&#45;&gt;PrizeStatement -->
<g id="edge16" class="edge"><title>Prize&#45;&gt;PrizeStatement</title>
<path fill="none" stroke="black" d="M933.774,-138.288C933.774,-113.867 933.774,-83.0668 933.774,-61.2877"/>
<polygon fill="black" stroke="black" points="937.275,-61.0958 933.774,-51.0958 930.275,-61.0959 937.275,-61.0958"/>
</g>
<!-- PrizeJury -->
<g id="node17" class="node"><title>PrizeJury</title>
<ellipse fill="none" stroke="black" cx="1067.77" cy="-33" rx="52.2228" ry="18"/>
<text text-anchor="middle" x="1067.77" y="-30.6" font-family="Bitstream Vera Sans" font-size="8.00">Onix::V3_0::PrizeJury</text>
</g>
<!-- Prize&#45;&gt;PrizeJury -->
<g id="edge17" class="edge"><title>Prize&#45;&gt;PrizeJury</title>
<path fill="none" stroke="black" d="M955.962,-138.143C963.69,-125.959 972.915,-112.888 982.774,-102 998.653,-84.4646 1019.33,-67.8191 1036.31,-55.386"/>
<polygon fill="black" stroke="black" points="1038.73,-57.9602 1044.81,-49.2859 1034.64,-52.2732 1038.73,-57.9602"/>
</g>
<!-- WebsiteDescription -->
<g id="node18" class="node"><title>WebsiteDescription</title>
<ellipse fill="none" stroke="black" cx="1209.77" cy="-33" rx="71.7777" ry="18"/>
<text text-anchor="middle" x="1209.77" y="-30.6" font-family="Bitstream Vera Sans" font-size="8.00">Onix::V3_0::WebsiteDescription</text>
</g>
<!-- Website&#45;&gt;WebsiteDescription -->
<g id="edge18" class="edge"><title>Website&#45;&gt;WebsiteDescription</title>
<path fill="none" stroke="black" d="M1196.01,-150.171C1199.03,-124.698 1203.51,-86.9095 1206.53,-61.4102"/>
<polygon fill="black" stroke="black" points="1210.02,-61.6485 1207.72,-51.3061 1203.07,-60.8249 1210.02,-61.6485"/>
</g>
<!-- LocationName -->
<g id="node19" class="node"><title>LocationName</title>
<ellipse fill="none" stroke="black" cx="1491.77" cy="-33" rx="62.0916" ry="18"/>
<text text-anchor="middle" x="1491.77" y="-30.6" font-family="Bitstream Vera Sans" font-size="8.00">Onix::V3_0::LocationName</text>
</g>
<!-- ContributorPlace&#45;&gt;LocationName -->
<g id="edge19" class="edge"><title>ContributorPlace&#45;&gt;LocationName</title>
<path fill="none" stroke="black" d="M1491.77,-146.363C1491.77,-121.058 1491.77,-85.7036 1491.77,-61.4478"/>
<polygon fill="black" stroke="black" points="1495.27,-61.1602 1491.77,-51.1602 1488.27,-61.1603 1495.27,-61.1602"/>
</g>
</g>
</svg>
