<?xml version="1.0" encoding="UTF-8" standalone="no"?>
<!DOCTYPE svg PUBLIC "-//W3C//DTD SVG 1.1//EN"
 "http://www.w3.org/Graphics/SVG/1.1/DTD/svg11.dtd">
<!-- Generated by graphviz version 2.38.0 (20140413.2041)
 -->
<!-- Title: G Pages: 1 -->
<svg width="283pt" height="260pt"
 viewBox="0.00 0.00 282.89 260.00" xmlns="http://www.w3.org/2000/svg" xmlns:xlink="http://www.w3.org/1999/xlink">
<g id="graph0" class="graph" transform="scale(1 1) rotate(0) translate(4 256)">
<title>G</title>
<polygon fill="white" stroke="none" points="-4,4 -4,-256 278.889,-256 278.889,4 -4,4"/>
<!-- CopyrightStatement -->
<g id="node1" class="node"><title>CopyrightStatement</title>
<polygon fill="none" stroke="black" points="65.2716,-195.5 65.2716,-251.5 195.998,-251.5 195.998,-195.5 65.2716,-195.5"/>
<text text-anchor="start" x="73.2716" y="-241.1" font-family="Bitstream Vera Sans" font-size="8.00">Onix::V3_0::CopyrightStatement</text>
<polyline fill="none" stroke="black" points="65.2716,-235.5 195.998,-235.5 "/>
<text text-anchor="start" x="73.2716" y="-225.1" font-family="Bitstream Vera Sans" font-size="8.00">copyright_type</text>
<polyline fill="none" stroke="black" points="65.2716,-219.5 195.998,-219.5 "/>
<text text-anchor="start" x="73.2716" y="-209.1" font-family="Bitstream Vera Sans" font-size="8.00">copyright_years[]</text>
<text text-anchor="start" x="73.2716" y="-201.1" font-family="Bitstream Vera Sans" font-size="8.00">copyright_owners[]</text>
</g>
<!-- CopyrightYear -->
<g id="node2" class="node"><title>CopyrightYear</title>
<ellipse fill="none" stroke="black" cx="61.6348" cy="-130.5" rx="61.77" ry="18"/>
<text text-anchor="middle" x="61.6348" y="-128.1" font-family="Bitstream Vera Sans" font-size="8.00">Onix::V3_0::CopyrightYear</text>
</g>
<!-- CopyrightStatement&#45;&gt;CopyrightYear -->
<g id="edge1" class="edge"><title>CopyrightStatement&#45;&gt;CopyrightYear</title>
<path fill="none" stroke="black" d="M109.933,-195.197C100.605,-182.896 89.667,-168.47 80.5608,-156.46"/>
<polygon fill="black" stroke="black" points="83.134,-154.061 74.3031,-148.207 77.5561,-158.29 83.134,-154.061"/>
</g>
<!-- CopyrightOwner -->
<g id="node3" class="node"><title>CopyrightOwner</title>
<polygon fill="none" stroke="black" points="141.719,-102.5 141.719,-158.5 259.551,-158.5 259.551,-102.5 141.719,-102.5"/>
<text text-anchor="start" x="149.719" y="-148.1" font-family="Bitstream Vera Sans" font-size="8.00">Onix::V3_0::CopyrightOwner</text>
<polyline fill="none" stroke="black" points="141.719,-142.5 259.551,-142.5 "/>
<text text-anchor="start" x="149.719" y="-132.1" font-family="Bitstream Vera Sans" font-size="8.00">person_name</text>
<text text-anchor="start" x="149.719" y="-124.1" font-family="Bitstream Vera Sans" font-size="8.00">corporate_name</text>
<polyline fill="none" stroke="black" points="141.719,-118.5 259.551,-118.5 "/>
<text text-anchor="start" x="149.719" y="-108.1" font-family="Bitstream Vera Sans" font-size="8.00">copyright_owner_identifiers[]</text>
</g>
<!-- CopyrightStatement&#45;&gt;CopyrightOwner -->
<g id="edge2" class="edge"><title>CopyrightStatement&#45;&gt;CopyrightOwner</title>
<path fill="none" stroke="black" d="M151.637,-195.197C158.49,-186.289 166.199,-176.267 173.439,-166.854"/>
<polygon fill="black" stroke="black" points="176.324,-168.844 179.647,-158.784 170.776,-164.576 176.324,-168.844"/>
</g>
<!-- CopyrightOwnerIdentifier -->
<g id="node4" class="node"><title>CopyrightOwnerIdentifier</title>
<polygon fill="none" stroke="black" points="126.381,-0.5 126.381,-65.5 274.889,-65.5 274.889,-0.5 126.381,-0.5"/>
<text text-anchor="start" x="134.381" y="-55.1" font-family="Bitstream Vera Sans" font-size="8.00">Onix::V3_0::CopyrightOwnerIdentifier</text>
<polyline fill="none" stroke="black" points="126.381,-49.5 274.889,-49.5 "/>
<text text-anchor="start" x="134.381" y="-39.1" font-family="Bitstream Vera Sans" font-size="8.00">copyright_owner_id_type</text>
<text text-anchor="start" x="134.381" y="-31.1" font-family="Bitstream Vera Sans" font-size="8.00">id_type_name</text>
<text text-anchor="start" x="134.381" y="-23.1" font-family="Bitstream Vera Sans" font-size="8.00">id_value</text>
<polyline fill="none" stroke="black" points="126.381,-17.5 274.889,-17.5 "/>
</g>
<!-- CopyrightOwner&#45;&gt;CopyrightOwnerIdentifier -->
<g id="edge3" class="edge"><title>CopyrightOwner&#45;&gt;CopyrightOwnerIdentifier</title>
<path fill="none" stroke="black" d="M200.635,-102.389C200.635,-94.0553 200.635,-84.683 200.635,-75.6112"/>
<polygon fill="black" stroke="black" points="204.135,-75.568 200.635,-65.5681 197.135,-75.5681 204.135,-75.568"/>
</g>
</g>
</svg>
