<?xml version="1.0" encoding="UTF-8" standalone="no"?>
<!DOCTYPE svg PUBLIC "-//W3C//DTD SVG 1.1//EN"
 "http://www.w3.org/Graphics/SVG/1.1/DTD/svg11.dtd">
<!-- Generated by graphviz version 2.38.0 (20140413.2041)
 -->
<!-- Title: G Pages: 1 -->
<svg width="157pt" height="167pt"
 viewBox="0.00 0.00 156.51 167.00" xmlns="http://www.w3.org/2000/svg" xmlns:xlink="http://www.w3.org/1999/xlink">
<g id="graph0" class="graph" transform="scale(1 1) rotate(0) translate(4 163)">
<title>G</title>
<polygon fill="white" stroke="none" points="-4,4 -4,-163 152.508,-163 152.508,4 -4,4"/>
<!-- CopyrightOwner -->
<g id="node1" class="node"><title>CopyrightOwner</title>
<polygon fill="none" stroke="black" points="15.3379,-102.5 15.3379,-158.5 133.17,-158.5 133.17,-102.5 15.3379,-102.5"/>
<text text-anchor="start" x="23.3379" y="-148.1" font-family="Bitstream Vera Sans" font-size="8.00">Onix::V3_0::CopyrightOwner</text>
<polyline fill="none" stroke="black" points="15.3379,-142.5 133.17,-142.5 "/>
<text text-anchor="start" x="23.3379" y="-132.1" font-family="Bitstream Vera Sans" font-size="8.00">person_name</text>
<text text-anchor="start" x="23.3379" y="-124.1" font-family="Bitstream Vera Sans" font-size="8.00">corporate_name</text>
<polyline fill="none" stroke="black" points="15.3379,-118.5 133.17,-118.5 "/>
<text text-anchor="start" x="23.3379" y="-108.1" font-family="Bitstream Vera Sans" font-size="8.00">copyright_owner_identifiers[]</text>
</g>
<!-- CopyrightOwnerIdentifier -->
<g id="node2" class="node"><title>CopyrightOwnerIdentifier</title>
<polygon fill="none" stroke="black" points="0,-0.5 0,-65.5 148.508,-65.5 148.508,-0.5 0,-0.5"/>
<text text-anchor="start" x="8" y="-55.1" font-family="Bitstream Vera Sans" font-size="8.00">Onix::V3_0::CopyrightOwnerIdentifier</text>
<polyline fill="none" stroke="black" points="0,-49.5 148.508,-49.5 "/>
<text text-anchor="start" x="8" y="-39.1" font-family="Bitstream Vera Sans" font-size="8.00">copyright_owner_id_type</text>
<text text-anchor="start" x="8" y="-31.1" font-family="Bitstream Vera Sans" font-size="8.00">id_type_name</text>
<text text-anchor="start" x="8" y="-23.1" font-family="Bitstream Vera Sans" font-size="8.00">id_value</text>
<polyline fill="none" stroke="black" points="0,-17.5 148.508,-17.5 "/>
</g>
<!-- CopyrightOwner&#45;&gt;CopyrightOwnerIdentifier -->
<g id="edge1" class="edge"><title>CopyrightOwner&#45;&gt;CopyrightOwnerIdentifier</title>
<path fill="none" stroke="black" d="M74.2539,-102.389C74.2539,-94.0553 74.2539,-84.683 74.2539,-75.6112"/>
<polygon fill="black" stroke="black" points="77.754,-75.568 74.2539,-65.5681 70.754,-75.5681 77.754,-75.568"/>
</g>
</g>
</svg>
