<?xml version="1.0" encoding="UTF-8" standalone="no"?>
<!DOCTYPE svg PUBLIC "-//W3C//DTD SVG 1.1//EN"
 "http://www.w3.org/Graphics/SVG/1.1/DTD/svg11.dtd">
<!-- Generated by graphviz version 2.38.0 (20140413.2041)
 -->
<!-- Title: G Pages: 1 -->
<svg width="146pt" height="159pt"
 viewBox="0.00 0.00 146.29 159.00" xmlns="http://www.w3.org/2000/svg" xmlns:xlink="http://www.w3.org/1999/xlink">
<g id="graph0" class="graph" transform="scale(1 1) rotate(0) translate(4 155)">
<title>G</title>
<polygon fill="white" stroke="none" points="-4,4 -4,-155 142.293,-155 142.293,4 -4,4"/>
<!-- EpubUsageConstraint -->
<g id="node1" class="node"><title>EpubUsageConstraint</title>
<polygon fill="none" stroke="black" points="0,-94.5 0,-150.5 138.293,-150.5 138.293,-94.5 0,-94.5"/>
<text text-anchor="start" x="8" y="-140.1" font-family="Bitstream Vera Sans" font-size="8.00">Onix::V3_0::EpubUsageConstraint</text>
<polyline fill="none" stroke="black" points="0,-134.5 138.293,-134.5 "/>
<text text-anchor="start" x="8" y="-124.1" font-family="Bitstream Vera Sans" font-size="8.00">epub_usage_type</text>
<text text-anchor="start" x="8" y="-116.1" font-family="Bitstream Vera Sans" font-size="8.00">epub_usage_status</text>
<polyline fill="none" stroke="black" points="0,-110.5 138.293,-110.5 "/>
<text text-anchor="start" x="8" y="-100.1" font-family="Bitstream Vera Sans" font-size="8.00">epub_usage_limits[]</text>
</g>
<!-- EpubUsageLimit -->
<g id="node2" class="node"><title>EpubUsageLimit</title>
<polygon fill="none" stroke="black" points="9.78516,-0.5 9.78516,-57.5 128.508,-57.5 128.508,-0.5 9.78516,-0.5"/>
<text text-anchor="start" x="17.7852" y="-47.1" font-family="Bitstream Vera Sans" font-size="8.00">Onix::V3_0::EpubUsageLimit</text>
<polyline fill="none" stroke="black" points="9.78516,-41.5 128.508,-41.5 "/>
<text text-anchor="start" x="17.7852" y="-31.1" font-family="Bitstream Vera Sans" font-size="8.00">quantity</text>
<text text-anchor="start" x="17.7852" y="-23.1" font-family="Bitstream Vera Sans" font-size="8.00">epub_usage_unit</text>
<polyline fill="none" stroke="black" points="9.78516,-17.5 128.508,-17.5 "/>
</g>
<!-- EpubUsageConstraint&#45;&gt;EpubUsageLimit -->
<g id="edge1" class="edge"><title>EpubUsageConstraint&#45;&gt;EpubUsageLimit</title>
<path fill="none" stroke="black" d="M69.1465,-94.047C69.1465,-85.7989 69.1465,-76.6008 69.1465,-67.8067"/>
<polygon fill="black" stroke="black" points="72.6466,-67.7499 69.1465,-57.7499 65.6466,-67.7499 72.6466,-67.7499"/>
</g>
</g>
</svg>
