<?xml version="1.0" encoding="UTF-8" standalone="no"?>
<!DOCTYPE svg PUBLIC "-//W3C//DTD SVG 1.1//EN"
 "http://www.w3.org/Graphics/SVG/1.1/DTD/svg11.dtd">
<!-- Generated by graphviz version 2.38.0 (20140413.2041)
 -->
<!-- Title: G Pages: 1 -->
<svg width="318pt" height="168pt"
 viewBox="0.00 0.00 318.39 168.00" xmlns="http://www.w3.org/2000/svg" xmlns:xlink="http://www.w3.org/1999/xlink">
<g id="graph0" class="graph" transform="scale(1 1) rotate(0) translate(4 164)">
<title>G</title>
<polygon fill="white" stroke="none" points="-4,4 -4,-164 314.391,-164 314.391,4 -4,4"/>
<!-- EpubLicense -->
<g id="node1" class="node"><title>EpubLicense</title>
<polygon fill="none" stroke="black" points="95.8673,-102.5 95.8673,-159.5 210.598,-159.5 210.598,-102.5 95.8673,-102.5"/>
<text text-anchor="start" x="103.867" y="-149.1" font-family="Bitstream Vera Sans" font-size="8.00">Onix::V3_0::EpubLicense</text>
<polyline fill="none" stroke="black" points="95.8673,-143.5 210.598,-143.5 "/>
<polyline fill="none" stroke="black" points="95.8673,-126.5 210.598,-126.5 "/>
<text text-anchor="start" x="103.867" y="-116.1" font-family="Bitstream Vera Sans" font-size="8.00">epub_license_names[]</text>
<text text-anchor="start" x="103.867" y="-108.1" font-family="Bitstream Vera Sans" font-size="8.00">epub_license_expressions[]</text>
</g>
<!-- EpubLicenseName -->
<g id="node2" class="node"><title>EpubLicenseName</title>
<ellipse fill="none" stroke="black" cx="71.2325" cy="-33" rx="71.4658" ry="18"/>
<text text-anchor="middle" x="71.2325" y="-30.6" font-family="Bitstream Vera Sans" font-size="8.00">Onix::V3_0::EpubLicenseName</text>
</g>
<!-- EpubLicense&#45;&gt;EpubLicenseName -->
<g id="edge1" class="edge"><title>EpubLicense&#45;&gt;EpubLicenseName</title>
<path fill="none" stroke="black" d="M129.735,-102.49C117.899,-88.6336 103.667,-71.9723 92.2044,-58.5525"/>
<polygon fill="black" stroke="black" points="94.6274,-56.0002 85.4712,-50.6697 89.3048,-60.5466 94.6274,-56.0002"/>
</g>
<!-- EpubLicenseExpression -->
<g id="node3" class="node"><title>EpubLicenseExpression</title>
<polygon fill="none" stroke="black" points="160.074,-0.5 160.074,-65.5 310.391,-65.5 310.391,-0.5 160.074,-0.5"/>
<text text-anchor="start" x="168.074" y="-55.1" font-family="Bitstream Vera Sans" font-size="8.00">Onix::V3_0::EpubLicenseExpression</text>
<polyline fill="none" stroke="black" points="160.074,-49.5 310.391,-49.5 "/>
<text text-anchor="start" x="168.074" y="-39.1" font-family="Bitstream Vera Sans" font-size="8.00">epub_license_expression_type</text>
<text text-anchor="start" x="168.074" y="-31.1" font-family="Bitstream Vera Sans" font-size="8.00">epub_license_expression_type_name</text>
<text text-anchor="start" x="168.074" y="-23.1" font-family="Bitstream Vera Sans" font-size="8.00">epub_license_expression_link</text>
<polyline fill="none" stroke="black" points="160.074,-17.5 310.391,-17.5 "/>
</g>
<!-- EpubLicense&#45;&gt;EpubLicenseExpression -->
<g id="edge2" class="edge"><title>EpubLicense&#45;&gt;EpubLicenseExpression</title>
<path fill="none" stroke="black" d="M176.73,-102.49C184.498,-93.3968 193.297,-83.0954 201.668,-73.295"/>
<polygon fill="black" stroke="black" points="204.428,-75.4522 208.262,-65.5753 199.106,-70.9058 204.428,-75.4522"/>
</g>
</g>
</svg>
