<?xml version="1.0" encoding="UTF-8" standalone="no"?>
<!DOCTYPE svg PUBLIC "-//W3C//DTD SVG 1.1//EN"
 "http://www.w3.org/Graphics/SVG/1.1/DTD/svg11.dtd">
<!-- Generated by graphviz version 2.38.0 (20140413.2041)
 -->
<!-- Title: G Pages: 1 -->
<svg width="826pt" height="308pt"
 viewBox="0.00 0.00 825.72 308.00" xmlns="http://www.w3.org/2000/svg" xmlns:xlink="http://www.w3.org/1999/xlink">
<g id="graph0" class="graph" transform="scale(1 1) rotate(0) translate(4 304)">
<title>G</title>
<polygon fill="white" stroke="none" points="-4,4 -4,-304 821.72,-304 821.72,4 -4,4"/>
<!-- Event -->
<g id="node1" class="node"><title>Event</title>
<polygon fill="none" stroke="black" points="358.591,-195.5 358.591,-299.5 439.072,-299.5 439.072,-195.5 358.591,-195.5"/>
<text text-anchor="start" x="366.591" y="-289.1" font-family="Bitstream Vera Sans" font-size="8.00">Onix::V3_0::Event</text>
<polyline fill="none" stroke="black" points="358.591,-283.5 439.072,-283.5 "/>
<text text-anchor="start" x="366.591" y="-273.1" font-family="Bitstream Vera Sans" font-size="8.00">event_role</text>
<text text-anchor="start" x="366.591" y="-265.1" font-family="Bitstream Vera Sans" font-size="8.00">event_number</text>
<text text-anchor="start" x="366.591" y="-257.1" font-family="Bitstream Vera Sans" font-size="8.00">event_date</text>
<polyline fill="none" stroke="black" points="358.591,-251.5 439.072,-251.5 "/>
<text text-anchor="start" x="366.591" y="-241.1" font-family="Bitstream Vera Sans" font-size="8.00">event_names[]</text>
<text text-anchor="start" x="366.591" y="-233.1" font-family="Bitstream Vera Sans" font-size="8.00">event_acronyms[]</text>
<text text-anchor="start" x="366.591" y="-225.1" font-family="Bitstream Vera Sans" font-size="8.00">event_themes[]</text>
<text text-anchor="start" x="366.591" y="-217.1" font-family="Bitstream Vera Sans" font-size="8.00">event_places[]</text>
<text text-anchor="start" x="366.591" y="-209.1" font-family="Bitstream Vera Sans" font-size="8.00">event_sponsors[]</text>
<text text-anchor="start" x="366.591" y="-201.1" font-family="Bitstream Vera Sans" font-size="8.00">websites[]</text>
</g>
<!-- EventName -->
<g id="node2" class="node"><title>EventName</title>
<ellipse fill="none" stroke="black" cx="56.8316" cy="-130.5" rx="56.6638" ry="18"/>
<text text-anchor="middle" x="56.8316" y="-128.1" font-family="Bitstream Vera Sans" font-size="8.00">Onix::V3_0::EventName</text>
</g>
<!-- Event&#45;&gt;EventName -->
<g id="edge1" class="edge"><title>Event&#45;&gt;EventName</title>
<path fill="none" stroke="black" d="M358.523,-235.065C304.244,-219.372 204.88,-189.607 121.832,-159 113.985,-156.108 105.702,-152.804 97.7734,-149.512"/>
<polygon fill="black" stroke="black" points="98.9053,-146.191 88.3309,-145.532 96.1864,-152.641 98.9053,-146.191"/>
</g>
<!-- EventAcronym -->
<g id="node3" class="node"><title>EventAcronym</title>
<ellipse fill="none" stroke="black" cx="193.832" cy="-130.5" rx="62.575" ry="18"/>
<text text-anchor="middle" x="193.832" y="-128.1" font-family="Bitstream Vera Sans" font-size="8.00">Onix::V3_0::EventAcronym</text>
</g>
<!-- Event&#45;&gt;EventAcronym -->
<g id="edge2" class="edge"><title>Event&#45;&gt;EventAcronym</title>
<path fill="none" stroke="black" d="M358.33,-223.78C321.055,-202.869 266.256,-172.128 230.312,-151.965"/>
<polygon fill="black" stroke="black" points="231.587,-148.667 221.153,-146.827 228.162,-154.772 231.587,-148.667"/>
</g>
<!-- EventTheme -->
<g id="node4" class="node"><title>EventTheme</title>
<ellipse fill="none" stroke="black" cx="332.832" cy="-130.5" rx="58.6364" ry="18"/>
<text text-anchor="middle" x="332.832" y="-128.1" font-family="Bitstream Vera Sans" font-size="8.00">Onix::V3_0::EventTheme</text>
</g>
<!-- Event&#45;&gt;EventTheme -->
<g id="edge3" class="edge"><title>Event&#45;&gt;EventTheme</title>
<path fill="none" stroke="black" d="M369.499,-195.39C361.914,-182.174 354.067,-168.502 347.589,-157.213"/>
<polygon fill="black" stroke="black" points="350.518,-155.285 342.504,-148.354 344.446,-158.769 350.518,-155.285"/>
</g>
<!-- EventPlace -->
<g id="node5" class="node"><title>EventPlace</title>
<ellipse fill="none" stroke="black" cx="465.832" cy="-130.5" rx="56.1808" ry="18"/>
<text text-anchor="middle" x="465.832" y="-128.1" font-family="Bitstream Vera Sans" font-size="8.00">Onix::V3_0::EventPlace</text>
</g>
<!-- Event&#45;&gt;EventPlace -->
<g id="edge4" class="edge"><title>Event&#45;&gt;EventPlace</title>
<path fill="none" stroke="black" d="M428.609,-195.39C436.309,-182.174 444.274,-168.502 450.851,-157.213"/>
<polygon fill="black" stroke="black" points="454.003,-158.756 456.012,-148.354 447.954,-155.232 454.003,-158.756"/>
</g>
<!-- EventSponsor -->
<g id="node6" class="node"><title>EventSponsor</title>
<polygon fill="none" stroke="black" points="540.025,-102.5 540.025,-158.5 651.638,-158.5 651.638,-102.5 540.025,-102.5"/>
<text text-anchor="start" x="548.025" y="-148.1" font-family="Bitstream Vera Sans" font-size="8.00">Onix::V3_0::EventSponsor</text>
<polyline fill="none" stroke="black" points="540.025,-142.5 651.638,-142.5 "/>
<text text-anchor="start" x="548.025" y="-132.1" font-family="Bitstream Vera Sans" font-size="8.00">person_name</text>
<text text-anchor="start" x="548.025" y="-124.1" font-family="Bitstream Vera Sans" font-size="8.00">corporate_name</text>
<polyline fill="none" stroke="black" points="540.025,-118.5 651.638,-118.5 "/>
<text text-anchor="start" x="548.025" y="-108.1" font-family="Bitstream Vera Sans" font-size="8.00">event_sponsor_identifiers[]</text>
</g>
<!-- Event&#45;&gt;EventSponsor -->
<g id="edge5" class="edge"><title>Event&#45;&gt;EventSponsor</title>
<path fill="none" stroke="black" d="M439.173,-222.951C468.395,-205.892 508.257,-182.622 540.457,-163.825"/>
<polygon fill="black" stroke="black" points="542.449,-166.715 549.321,-158.651 538.92,-160.67 542.449,-166.715"/>
</g>
<!-- Website -->
<g id="node7" class="node"><title>Website</title>
<polygon fill="none" stroke="black" points="688.478,-102.5 688.478,-158.5 783.185,-158.5 783.185,-102.5 688.478,-102.5"/>
<text text-anchor="start" x="696.478" y="-148.1" font-family="Bitstream Vera Sans" font-size="8.00">Onix::V3_0::Website</text>
<polyline fill="none" stroke="black" points="688.478,-142.5 783.185,-142.5 "/>
<text text-anchor="start" x="696.478" y="-132.1" font-family="Bitstream Vera Sans" font-size="8.00">website_role</text>
<text text-anchor="start" x="696.478" y="-124.1" font-family="Bitstream Vera Sans" font-size="8.00">website_link</text>
<polyline fill="none" stroke="black" points="688.478,-118.5 783.185,-118.5 "/>
<text text-anchor="start" x="696.478" y="-108.1" font-family="Bitstream Vera Sans" font-size="8.00">website_descriptions[]</text>
</g>
<!-- Event&#45;&gt;Website -->
<g id="edge6" class="edge"><title>Event&#45;&gt;Website</title>
<path fill="none" stroke="black" d="M439.351,-233.373C490.941,-216.567 582.758,-186.344 660.832,-159 666.673,-156.954 672.756,-154.786 678.82,-152.6"/>
<polygon fill="black" stroke="black" points="680.087,-155.864 688.296,-149.166 677.702,-149.283 680.087,-155.864"/>
</g>
<!-- EventSponsorIdentifier -->
<g id="node8" class="node"><title>EventSponsorIdentifier</title>
<polygon fill="none" stroke="black" points="515.351,-0.5 515.351,-65.5 656.312,-65.5 656.312,-0.5 515.351,-0.5"/>
<text text-anchor="start" x="523.351" y="-55.1" font-family="Bitstream Vera Sans" font-size="8.00">Onix::V3_0::EventSponsorIdentifier</text>
<polyline fill="none" stroke="black" points="515.351,-49.5 656.312,-49.5 "/>
<text text-anchor="start" x="523.351" y="-39.1" font-family="Bitstream Vera Sans" font-size="8.00">event_sponsor_id_type</text>
<text text-anchor="start" x="523.351" y="-31.1" font-family="Bitstream Vera Sans" font-size="8.00">id_type_name</text>
<text text-anchor="start" x="523.351" y="-23.1" font-family="Bitstream Vera Sans" font-size="8.00">id_value</text>
<polyline fill="none" stroke="black" points="515.351,-17.5 656.312,-17.5 "/>
</g>
<!-- EventSponsor&#45;&gt;EventSponsorIdentifier -->
<g id="edge7" class="edge"><title>EventSponsor&#45;&gt;EventSponsorIdentifier</title>
<path fill="none" stroke="black" d="M592.993,-102.389C592.12,-94.0553 591.139,-84.683 590.189,-75.6112"/>
<polygon fill="black" stroke="black" points="593.66,-75.1492 589.137,-65.5681 586.698,-75.8782 593.66,-75.1492"/>
</g>
<!-- WebsiteDescription -->
<g id="node9" class="node"><title>WebsiteDescription</title>
<ellipse fill="none" stroke="black" cx="745.832" cy="-33" rx="71.7777" ry="18"/>
<text text-anchor="middle" x="745.832" y="-30.6" font-family="Bitstream Vera Sans" font-size="8.00">Onix::V3_0::WebsiteDescription</text>
</g>
<!-- Website&#45;&gt;WebsiteDescription -->
<g id="edge8" class="edge"><title>Website&#45;&gt;WebsiteDescription</title>
<path fill="none" stroke="black" d="M738.67,-102.389C740.015,-89.5507 741.617,-74.2475 742.965,-61.3756"/>
<polygon fill="black" stroke="black" points="746.466,-61.5526 744.026,-51.2425 739.504,-60.8236 746.466,-61.5526"/>
</g>
</g>
</svg>
