<?xml version="1.0" encoding="UTF-8" standalone="no"?>
<!DOCTYPE svg PUBLIC "-//W3C//DTD SVG 1.1//EN"
 "http://www.w3.org/Graphics/SVG/1.1/DTD/svg11.dtd">
<!-- Generated by graphviz version 2.38.0 (20140413.2041)
 -->
<!-- Title: G Pages: 1 -->
<svg width="128pt" height="160pt"
 viewBox="0.00 0.00 127.62 160.00" xmlns="http://www.w3.org/2000/svg" xmlns:xlink="http://www.w3.org/1999/xlink">
<g id="graph0" class="graph" transform="scale(1 1) rotate(0) translate(4 156)">
<title>G</title>
<polygon fill="white" stroke="none" points="-4,4 -4,-156 123.617,-156 123.617,4 -4,4"/>
<!-- Funding -->
<g id="node1" class="node"><title>Funding</title>
<polygon fill="none" stroke="black" points="15.3418,-102.5 15.3418,-151.5 104.275,-151.5 104.275,-102.5 15.3418,-102.5"/>
<text text-anchor="start" x="23.3418" y="-141.1" font-family="Bitstream Vera Sans" font-size="8.00">Onix::V3_0::Funding</text>
<polyline fill="none" stroke="black" points="15.3418,-135.5 104.275,-135.5 "/>
<polyline fill="none" stroke="black" points="15.3418,-118.5 104.275,-118.5 "/>
<text text-anchor="start" x="23.3418" y="-108.1" font-family="Bitstream Vera Sans" font-size="8.00">funding_identifiers[]</text>
</g>
<!-- FundingIdentifier -->
<g id="node2" class="node"><title>FundingIdentifier</title>
<polygon fill="none" stroke="black" points="0,-0.5 0,-65.5 119.617,-65.5 119.617,-0.5 0,-0.5"/>
<text text-anchor="start" x="8" y="-55.1" font-family="Bitstream Vera Sans" font-size="8.00">Onix::V3_0::FundingIdentifier</text>
<polyline fill="none" stroke="black" points="0,-49.5 119.617,-49.5 "/>
<text text-anchor="start" x="8" y="-39.1" font-family="Bitstream Vera Sans" font-size="8.00">funding_id_type</text>
<text text-anchor="start" x="8" y="-31.1" font-family="Bitstream Vera Sans" font-size="8.00">id_type_name</text>
<text text-anchor="start" x="8" y="-23.1" font-family="Bitstream Vera Sans" font-size="8.00">id_value</text>
<polyline fill="none" stroke="black" points="0,-17.5 119.617,-17.5 "/>
</g>
<!-- Funding&#45;&gt;FundingIdentifier -->
<g id="edge1" class="edge"><title>Funding&#45;&gt;FundingIdentifier</title>
<path fill="none" stroke="black" d="M59.8086,-102.308C59.8086,-94.1844 59.8086,-84.8365 59.8086,-75.7153"/>
<polygon fill="black" stroke="black" points="63.3087,-75.5907 59.8086,-65.5908 56.3087,-75.5908 63.3087,-75.5907"/>
</g>
</g>
</svg>
