<?xml version="1.0" encoding="UTF-8" standalone="no"?>
<!DOCTYPE svg PUBLIC "-//W3C//DTD SVG 1.1//EN"
 "http://www.w3.org/Graphics/SVG/1.1/DTD/svg11.dtd">
<!-- Generated by graphviz version 2.38.0 (20140413.2041)
 -->
<!-- Title: G Pages: 1 -->
<svg width="388pt" height="316pt"
 viewBox="0.00 0.00 388.30 316.00" xmlns="http://www.w3.org/2000/svg" xmlns:xlink="http://www.w3.org/1999/xlink">
<g id="graph0" class="graph" transform="scale(1 1) rotate(0) translate(4 312)">
<title>G</title>
<polygon fill="white" stroke="none" points="-4,4 -4,-312 384.305,-312 384.305,4 -4,4"/>
<!-- Header -->
<g id="node1" class="node"><title>Header</title>
<polygon fill="none" stroke="black" points="138.324,-203.5 138.324,-307.5 244.18,-307.5 244.18,-203.5 138.324,-203.5"/>
<text text-anchor="start" x="146.324" y="-297.1" font-family="Bitstream Vera Sans" font-size="8.00">Onix::V3_0::Header</text>
<polyline fill="none" stroke="black" points="138.324,-291.5 244.18,-291.5 "/>
<text text-anchor="start" x="146.324" y="-281.1" font-family="Bitstream Vera Sans" font-size="8.00">message_number</text>
<text text-anchor="start" x="146.324" y="-273.1" font-family="Bitstream Vera Sans" font-size="8.00">message_repeat</text>
<text text-anchor="start" x="146.324" y="-265.1" font-family="Bitstream Vera Sans" font-size="8.00">sent_date_time</text>
<text text-anchor="start" x="146.324" y="-257.1" font-family="Bitstream Vera Sans" font-size="8.00">default_language_of_text</text>
<text text-anchor="start" x="146.324" y="-249.1" font-family="Bitstream Vera Sans" font-size="8.00">default_price_type</text>
<text text-anchor="start" x="146.324" y="-241.1" font-family="Bitstream Vera Sans" font-size="8.00">default_currency_code</text>
<polyline fill="none" stroke="black" points="138.324,-235.5 244.18,-235.5 "/>
<text text-anchor="start" x="146.324" y="-225.1" font-family="Bitstream Vera Sans" font-size="8.00">sender</text>
<text text-anchor="start" x="146.324" y="-217.1" font-family="Bitstream Vera Sans" font-size="8.00">addressees[]</text>
<text text-anchor="start" x="146.324" y="-209.1" font-family="Bitstream Vera Sans" font-size="8.00">message_notes[]</text>
</g>
<!-- Sender -->
<g id="node2" class="node"><title>Sender</title>
<polygon fill="none" stroke="black" points="23.3418,-102.5 23.3418,-166.5 109.162,-166.5 109.162,-102.5 23.3418,-102.5"/>
<text text-anchor="start" x="31.3418" y="-156.1" font-family="Bitstream Vera Sans" font-size="8.00">Onix::V3_0::Sender</text>
<polyline fill="none" stroke="black" points="23.3418,-150.5 109.162,-150.5 "/>
<text text-anchor="start" x="31.3418" y="-140.1" font-family="Bitstream Vera Sans" font-size="8.00">sender_name</text>
<text text-anchor="start" x="31.3418" y="-132.1" font-family="Bitstream Vera Sans" font-size="8.00">contact_name</text>
<text text-anchor="start" x="31.3418" y="-124.1" font-family="Bitstream Vera Sans" font-size="8.00">email_address</text>
<polyline fill="none" stroke="black" points="23.3418,-118.5 109.162,-118.5 "/>
<text text-anchor="start" x="31.3418" y="-108.1" font-family="Bitstream Vera Sans" font-size="8.00">sender_identifiers[]</text>
</g>
<!-- Header&#45;&gt;Sender -->
<g id="edge1" class="edge"><title>Header&#45;&gt;Sender</title>
<path fill="none" stroke="black" d="M138.241,-204.033C124.933,-191.364 111.037,-178.135 99.0432,-166.717"/>
</g>
<!-- Addressee -->
<g id="node3" class="node"><title>Addressee</title>
<polygon fill="none" stroke="black" points="142.117,-102.5 142.117,-166.5 240.387,-166.5 240.387,-102.5 142.117,-102.5"/>
<text text-anchor="start" x="150.117" y="-156.1" font-family="Bitstream Vera Sans" font-size="8.00">Onix::V3_0::Addressee</text>
<polyline fill="none" stroke="black" points="142.117,-150.5 240.387,-150.5 "/>
<text text-anchor="start" x="150.117" y="-140.1" font-family="Bitstream Vera Sans" font-size="8.00">addressee_name</text>
<text text-anchor="start" x="150.117" y="-132.1" font-family="Bitstream Vera Sans" font-size="8.00">contact_name</text>
<text text-anchor="start" x="150.117" y="-124.1" font-family="Bitstream Vera Sans" font-size="8.00">email_address</text>
<polyline fill="none" stroke="black" points="142.117,-118.5 240.387,-118.5 "/>
<text text-anchor="start" x="150.117" y="-108.1" font-family="Bitstream Vera Sans" font-size="8.00">addressee_identifiers[]</text>
</g>
<!-- Header&#45;&gt;Addressee -->
<g id="edge2" class="edge"><title>Header&#45;&gt;Addressee</title>
<path fill="none" stroke="black" d="M191.252,-203.343C191.252,-194.475 191.252,-185.356 191.252,-176.793"/>
<polygon fill="black" stroke="black" points="194.752,-176.678 191.252,-166.678 187.752,-176.678 194.752,-176.678"/>
</g>
<!-- MessageNote -->
<g id="node4" class="node"><title>MessageNote</title>
<ellipse fill="none" stroke="black" cx="319.252" cy="-134.5" rx="61.1055" ry="18"/>
<text text-anchor="middle" x="319.252" y="-132.1" font-family="Bitstream Vera Sans" font-size="8.00">Onix::V3_0::MessageNote</text>
</g>
<!-- Header&#45;&gt;MessageNote -->
<g id="edge3" class="edge"><title>Header&#45;&gt;MessageNote</title>
<path fill="none" stroke="black" d="M244.423,-205.067C261.694,-189.011 280.048,-171.947 294.256,-158.738"/>
<polygon fill="black" stroke="black" points="296.749,-161.199 301.69,-151.827 291.983,-156.073 296.749,-161.199"/>
</g>
<!-- SenderIdentifier -->
<g id="node5" class="node"><title>SenderIdentifier</title>
<polygon fill="none" stroke="black" points="0,-0.5 0,-65.5 116.504,-65.5 116.504,-0.5 0,-0.5"/>
<text text-anchor="start" x="8" y="-55.1" font-family="Bitstream Vera Sans" font-size="8.00">Onix::V3_0::SenderIdentifier</text>
<polyline fill="none" stroke="black" points="0,-49.5 116.504,-49.5 "/>
<text text-anchor="start" x="8" y="-39.1" font-family="Bitstream Vera Sans" font-size="8.00">sender_id_type</text>
<text text-anchor="start" x="8" y="-31.1" font-family="Bitstream Vera Sans" font-size="8.00">id_type_name</text>
<text text-anchor="start" x="8" y="-23.1" font-family="Bitstream Vera Sans" font-size="8.00">id_value</text>
<polyline fill="none" stroke="black" points="0,-17.5 116.504,-17.5 "/>
</g>
<!-- Sender&#45;&gt;SenderIdentifier -->
<g id="edge4" class="edge"><title>Sender&#45;&gt;SenderIdentifier</title>
<path fill="none" stroke="black" d="M63.7427,-102.291C63.0708,-93.9341 62.3334,-84.7632 61.6232,-75.9296"/>
<polygon fill="black" stroke="black" points="65.0977,-75.4711 60.8074,-65.7838 58.1202,-76.0322 65.0977,-75.4711"/>
</g>
<!-- AddresseeIdentifier -->
<g id="node6" class="node"><title>AddresseeIdentifier</title>
<polygon fill="none" stroke="black" points="134.775,-0.5 134.775,-65.5 263.729,-65.5 263.729,-0.5 134.775,-0.5"/>
<text text-anchor="start" x="142.775" y="-55.1" font-family="Bitstream Vera Sans" font-size="8.00">Onix::V3_0::AddresseeIdentifier</text>
<polyline fill="none" stroke="black" points="134.775,-49.5 263.729,-49.5 "/>
<text text-anchor="start" x="142.775" y="-39.1" font-family="Bitstream Vera Sans" font-size="8.00">addressee_id_type</text>
<text text-anchor="start" x="142.775" y="-31.1" font-family="Bitstream Vera Sans" font-size="8.00">id_type_name</text>
<text text-anchor="start" x="142.775" y="-23.1" font-family="Bitstream Vera Sans" font-size="8.00">id_value</text>
<polyline fill="none" stroke="black" points="134.775,-17.5 263.729,-17.5 "/>
</g>
<!-- Addressee&#45;&gt;AddresseeIdentifier -->
<g id="edge5" class="edge"><title>Addressee&#45;&gt;AddresseeIdentifier</title>
<path fill="none" stroke="black" d="M193.761,-102.291C194.433,-93.9341 195.17,-84.7632 195.881,-75.9296"/>
<polygon fill="black" stroke="black" points="199.384,-76.0322 196.696,-65.7838 192.406,-75.4711 199.384,-76.0322"/>
</g>
</g>
</svg>
