<?xml version="1.0" encoding="UTF-8" standalone="no"?>
<!DOCTYPE svg PUBLIC "-//W3C//DTD SVG 1.1//EN"
 "http://www.w3.org/Graphics/SVG/1.1/DTD/svg11.dtd">
<!-- Generated by graphviz version 2.38.0 (20140413.2041)
 -->
<!-- Title: G Pages: 1 -->
<svg width="123pt" height="159pt"
 viewBox="0.00 0.00 123.16 159.00" xmlns="http://www.w3.org/2000/svg" xmlns:xlink="http://www.w3.org/1999/xlink">
<g id="graph0" class="graph" transform="scale(1 1) rotate(0) translate(4 155)">
<title>G</title>
<polygon fill="white" stroke="none" points="-4,4 -4,-155 119.156,-155 119.156,4 -4,4"/>
<!-- Imprint -->
<g id="node1" class="node"><title>Imprint</title>
<polygon fill="none" stroke="black" points="15.3418,-102.5 15.3418,-150.5 99.8145,-150.5 99.8145,-102.5 15.3418,-102.5"/>
<text text-anchor="start" x="23.3418" y="-140.1" font-family="Bitstream Vera Sans" font-size="8.00">Onix::V3_0::Imprint</text>
<polyline fill="none" stroke="black" points="15.3418,-134.5 99.8145,-134.5 "/>
<text text-anchor="start" x="23.3418" y="-124.1" font-family="Bitstream Vera Sans" font-size="8.00">imprint_name</text>
<polyline fill="none" stroke="black" points="15.3418,-118.5 99.8145,-118.5 "/>
<text text-anchor="start" x="23.3418" y="-108.1" font-family="Bitstream Vera Sans" font-size="8.00">imprint_identifiers[]</text>
</g>
<!-- ImprintIdentifier -->
<g id="node2" class="node"><title>ImprintIdentifier</title>
<polygon fill="none" stroke="black" points="0,-0.5 0,-65.5 115.156,-65.5 115.156,-0.5 0,-0.5"/>
<text text-anchor="start" x="8" y="-55.1" font-family="Bitstream Vera Sans" font-size="8.00">Onix::V3_0::ImprintIdentifier</text>
<polyline fill="none" stroke="black" points="0,-49.5 115.156,-49.5 "/>
<text text-anchor="start" x="8" y="-39.1" font-family="Bitstream Vera Sans" font-size="8.00">imprint_id_type</text>
<text text-anchor="start" x="8" y="-31.1" font-family="Bitstream Vera Sans" font-size="8.00">id_type_name</text>
<text text-anchor="start" x="8" y="-23.1" font-family="Bitstream Vera Sans" font-size="8.00">id_value</text>
<polyline fill="none" stroke="black" points="0,-17.5 115.156,-17.5 "/>
</g>
<!-- Imprint&#45;&gt;ImprintIdentifier -->
<g id="edge1" class="edge"><title>Imprint&#45;&gt;ImprintIdentifier</title>
<path fill="none" stroke="black" d="M57.5781,-102.411C57.5781,-94.3329 57.5781,-84.9943 57.5781,-75.8636"/>
<polygon fill="black" stroke="black" points="61.0782,-75.7214 57.5781,-65.7214 54.0782,-75.7215 61.0782,-75.7214"/>
</g>
</g>
</svg>
