<?xml version="1.0" encoding="UTF-8" standalone="no"?>
<!DOCTYPE svg PUBLIC "-//W3C//DTD SVG 1.1//EN"
 "http://www.w3.org/Graphics/SVG/1.1/DTD/svg11.dtd">
<!-- Generated by graphviz version 2.38.0 (20140413.2041)
 -->
<!-- Title: G Pages: 1 -->
<svg width="1800pt" height="428pt"
 viewBox="0.00 0.00 1800.30 428.00" xmlns="http://www.w3.org/2000/svg" xmlns:xlink="http://www.w3.org/1999/xlink">
<g id="graph0" class="graph" transform="scale(1 1) rotate(0) translate(4 424)">
<title>G</title>
<polygon fill="white" stroke="none" points="-4,4 -4,-424 1796.3,-424 1796.3,4 -4,4"/>
<!-- MarketPublishingDetail -->
<g id="node1" class="node"><title>MarketPublishingDetail</title>
<polygon fill="none" stroke="black" points="1078.89,-299.5 1078.89,-419.5 1220.73,-419.5 1220.73,-299.5 1078.89,-299.5"/>
<text text-anchor="start" x="1086.89" y="-409.1" font-family="Bitstream Vera Sans" font-size="8.00">Onix::V3_0::MarketPublishingDetail</text>
<polyline fill="none" stroke="black" points="1078.89,-403.5 1220.73,-403.5 "/>
<text text-anchor="start" x="1086.89" y="-393.1" font-family="Bitstream Vera Sans" font-size="8.00">market_publishing_status</text>
<text text-anchor="start" x="1086.89" y="-385.1" font-family="Bitstream Vera Sans" font-size="8.00">promotion_contact</text>
<polyline fill="none" stroke="black" points="1078.89,-379.5 1220.73,-379.5 "/>
<text text-anchor="start" x="1086.89" y="-369.1" font-family="Bitstream Vera Sans" font-size="8.00">publisher_representatives[]</text>
<text text-anchor="start" x="1086.89" y="-361.1" font-family="Bitstream Vera Sans" font-size="8.00">product_contacts[]</text>
<text text-anchor="start" x="1086.89" y="-353.1" font-family="Bitstream Vera Sans" font-size="8.00">market_publishing_status_notes[]</text>
<text text-anchor="start" x="1086.89" y="-345.1" font-family="Bitstream Vera Sans" font-size="8.00">market_dates[]</text>
<text text-anchor="start" x="1086.89" y="-337.1" font-family="Bitstream Vera Sans" font-size="8.00">promotion_campaigns[]</text>
<text text-anchor="start" x="1086.89" y="-329.1" font-family="Bitstream Vera Sans" font-size="8.00">initial_print_runs[]</text>
<text text-anchor="start" x="1086.89" y="-321.1" font-family="Bitstream Vera Sans" font-size="8.00">reprint_details[]</text>
<text text-anchor="start" x="1086.89" y="-313.1" font-family="Bitstream Vera Sans" font-size="8.00">copies_solds[]</text>
<text text-anchor="start" x="1086.89" y="-305.1" font-family="Bitstream Vera Sans" font-size="8.00">book_club_adoptions[]</text>
</g>
<!-- PublisherRepresentative -->
<g id="node2" class="node"><title>PublisherRepresentative</title>
<polygon fill="none" stroke="black" points="333.215,-174.5 333.215,-262.5 480.398,-262.5 480.398,-174.5 333.215,-174.5"/>
<text text-anchor="start" x="341.215" y="-252.1" font-family="Bitstream Vera Sans" font-size="8.00">Onix::V3_0::PublisherRepresentative</text>
<polyline fill="none" stroke="black" points="333.215,-246.5 480.398,-246.5 "/>
<text text-anchor="start" x="341.215" y="-236.1" font-family="Bitstream Vera Sans" font-size="8.00">agent_role</text>
<text text-anchor="start" x="341.215" y="-228.1" font-family="Bitstream Vera Sans" font-size="8.00">agent_name</text>
<polyline fill="none" stroke="black" points="333.215,-222.5 480.398,-222.5 "/>
<text text-anchor="start" x="341.215" y="-212.1" font-family="Bitstream Vera Sans" font-size="8.00">agent_identifiers[]</text>
<text text-anchor="start" x="341.215" y="-204.1" font-family="Bitstream Vera Sans" font-size="8.00">telephone_numbers[]</text>
<text text-anchor="start" x="341.215" y="-196.1" font-family="Bitstream Vera Sans" font-size="8.00">fax_numbers[]</text>
<text text-anchor="start" x="341.215" y="-188.1" font-family="Bitstream Vera Sans" font-size="8.00">email_addresses[]</text>
<text text-anchor="start" x="341.215" y="-180.1" font-family="Bitstream Vera Sans" font-size="8.00">websites[]</text>
</g>
<!-- MarketPublishingDetail&#45;&gt;PublisherRepresentative -->
<g id="edge1" class="edge"><title>MarketPublishingDetail&#45;&gt;PublisherRepresentative</title>
<path fill="none" stroke="black" d="M1078.72,-346.498C976.112,-329.018 780.609,-295.129 614.807,-263 573.912,-255.076 528.629,-245.679 490.783,-237.651"/>
<polygon fill="black" stroke="black" points="491.334,-234.19 480.824,-235.534 489.878,-241.037 491.334,-234.19"/>
</g>
<!-- ProductContact -->
<g id="node3" class="node"><title>ProductContact</title>
<polygon fill="none" stroke="black" points="623.777,-182.5 623.777,-254.5 739.836,-254.5 739.836,-182.5 623.777,-182.5"/>
<text text-anchor="start" x="631.777" y="-244.1" font-family="Bitstream Vera Sans" font-size="8.00">Onix::V3_0::ProductContact</text>
<polyline fill="none" stroke="black" points="623.777,-238.5 739.836,-238.5 "/>
<text text-anchor="start" x="631.777" y="-228.1" font-family="Bitstream Vera Sans" font-size="8.00">product_contact_role</text>
<text text-anchor="start" x="631.777" y="-220.1" font-family="Bitstream Vera Sans" font-size="8.00">product_contact_name</text>
<text text-anchor="start" x="631.777" y="-212.1" font-family="Bitstream Vera Sans" font-size="8.00">contact_name</text>
<text text-anchor="start" x="631.777" y="-204.1" font-family="Bitstream Vera Sans" font-size="8.00">email_address</text>
<polyline fill="none" stroke="black" points="623.777,-198.5 739.836,-198.5 "/>
<text text-anchor="start" x="631.777" y="-188.1" font-family="Bitstream Vera Sans" font-size="8.00">product_contact_identifiers[]</text>
</g>
<!-- MarketPublishingDetail&#45;&gt;ProductContact -->
<g id="edge2" class="edge"><title>MarketPublishingDetail&#45;&gt;ProductContact</title>
<path fill="none" stroke="black" d="M1078.67,-349.079C996.657,-336.527 858.989,-310.212 748.807,-263 746.177,-261.873 743.537,-260.646 740.904,-259.341"/>
<polygon fill="black" stroke="black" points="742.486,-256.219 732.01,-254.642 739.216,-262.408 742.486,-256.219"/>
</g>
<!-- MarketPublishingStatusNote -->
<g id="node4" class="node"><title>MarketPublishingStatusNote</title>
<ellipse fill="none" stroke="black" cx="847.807" cy="-218.5" rx="89.6874" ry="18"/>
<text text-anchor="middle" x="847.807" y="-216.1" font-family="Bitstream Vera Sans" font-size="8.00">Onix::V3_0::MarketPublishingStatusNote</text>
</g>
<!-- MarketPublishingDetail&#45;&gt;MarketPublishingStatusNote -->
<g id="edge3" class="edge"><title>MarketPublishingDetail&#45;&gt;MarketPublishingStatusNote</title>
<path fill="none" stroke="black" d="M1078.62,-325.735C1020.58,-299.023 940.471,-262.15 891.505,-239.613"/>
<polygon fill="black" stroke="black" points="892.69,-236.305 882.143,-235.304 889.763,-242.664 892.69,-236.305"/>
</g>
<!-- MarketDate -->
<g id="node5" class="node"><title>MarketDate</title>
<polygon fill="none" stroke="black" points="956.121,-186 956.121,-251 1057.49,-251 1057.49,-186 956.121,-186"/>
<text text-anchor="start" x="964.121" y="-240.6" font-family="Bitstream Vera Sans" font-size="8.00">Onix::V3_0::MarketDate</text>
<polyline fill="none" stroke="black" points="956.121,-235 1057.49,-235 "/>
<text text-anchor="start" x="964.121" y="-224.6" font-family="Bitstream Vera Sans" font-size="8.00">market_date_role</text>
<text text-anchor="start" x="964.121" y="-216.6" font-family="Bitstream Vera Sans" font-size="8.00">date_format</text>
<text text-anchor="start" x="964.121" y="-208.6" font-family="Bitstream Vera Sans" font-size="8.00">date</text>
<polyline fill="none" stroke="black" points="956.121,-203 1057.49,-203 "/>
</g>
<!-- MarketPublishingDetail&#45;&gt;MarketDate -->
<g id="edge4" class="edge"><title>MarketPublishingDetail&#45;&gt;MarketDate</title>
<path fill="none" stroke="black" d="M1088.75,-299.148C1074.53,-285.331 1059.76,-270.968 1046.73,-258.305"/>
<polygon fill="black" stroke="black" points="1048.89,-255.523 1039.28,-251.063 1044.01,-260.543 1048.89,-255.523"/>
</g>
<!-- PromotionCampaign -->
<g id="node6" class="node"><title>PromotionCampaign</title>
<ellipse fill="none" stroke="black" cx="1149.81" cy="-218.5" rx="74.4135" ry="18"/>
<text text-anchor="middle" x="1149.81" y="-216.1" font-family="Bitstream Vera Sans" font-size="8.00">Onix::V3_0::PromotionCampaign</text>
</g>
<!-- MarketPublishingDetail&#45;&gt;PromotionCampaign -->
<g id="edge5" class="edge"><title>MarketPublishingDetail&#45;&gt;PromotionCampaign</title>
<path fill="none" stroke="black" d="M1149.81,-299.148C1149.81,-280.86 1149.81,-261.614 1149.81,-246.623"/>
<polygon fill="black" stroke="black" points="1153.31,-246.533 1149.81,-236.533 1146.31,-246.533 1153.31,-246.533"/>
</g>
<!-- InitialPrintRun -->
<g id="node7" class="node"><title>InitialPrintRun</title>
<ellipse fill="none" stroke="black" cx="1303.81" cy="-218.5" rx="61.0988" ry="18"/>
<text text-anchor="middle" x="1303.81" y="-216.1" font-family="Bitstream Vera Sans" font-size="8.00">Onix::V3_0::InitialPrintRun</text>
</g>
<!-- MarketPublishingDetail&#45;&gt;InitialPrintRun -->
<g id="edge6" class="edge"><title>MarketPublishingDetail&#45;&gt;InitialPrintRun</title>
<path fill="none" stroke="black" d="M1215.56,-299.148C1237.48,-279.364 1260.64,-258.458 1277.74,-243.031"/>
<polygon fill="black" stroke="black" points="1280.53,-245.225 1285.61,-235.927 1275.84,-240.029 1280.53,-245.225"/>
</g>
<!-- ReprintDetail -->
<g id="node8" class="node"><title>ReprintDetail</title>
<ellipse fill="none" stroke="black" cx="1442.81" cy="-218.5" rx="59.1262" ry="18"/>
<text text-anchor="middle" x="1442.81" y="-216.1" font-family="Bitstream Vera Sans" font-size="8.00">Onix::V3_0::ReprintDetail</text>
</g>
<!-- MarketPublishingDetail&#45;&gt;ReprintDetail -->
<g id="edge7" class="edge"><title>MarketPublishingDetail&#45;&gt;ReprintDetail</title>
<path fill="none" stroke="black" d="M1220.76,-331.623C1265.49,-313.859 1324.01,-289.101 1373.81,-263 1386.5,-256.347 1399.94,-248.156 1411.55,-240.683"/>
<polygon fill="black" stroke="black" points="1413.58,-243.543 1420.04,-235.145 1409.75,-237.681 1413.58,-243.543"/>
</g>
<!-- CopiesSold -->
<g id="node9" class="node"><title>CopiesSold</title>
<ellipse fill="none" stroke="black" cx="1576.81" cy="-218.5" rx="56.1783" ry="18"/>
<text text-anchor="middle" x="1576.81" y="-216.1" font-family="Bitstream Vera Sans" font-size="8.00">Onix::V3_0::CopiesSold</text>
</g>
<!-- MarketPublishingDetail&#45;&gt;CopiesSold -->
<g id="edge8" class="edge"><title>MarketPublishingDetail&#45;&gt;CopiesSold</title>
<path fill="none" stroke="black" d="M1220.96,-346.74C1295.47,-332.823 1414.79,-305.956 1510.81,-263 1523.66,-257.251 1536.81,-249.125 1547.95,-241.45"/>
<polygon fill="black" stroke="black" points="1550.28,-244.086 1556.41,-235.446 1546.23,-238.377 1550.28,-244.086"/>
</g>
<!-- BookClubAdoption -->
<g id="node10" class="node"><title>BookClubAdoption</title>
<ellipse fill="none" stroke="black" cx="1721.81" cy="-218.5" rx="70.4824" ry="18"/>
<text text-anchor="middle" x="1721.81" y="-216.1" font-family="Bitstream Vera Sans" font-size="8.00">Onix::V3_0::BookClubAdoption</text>
</g>
<!-- MarketPublishingDetail&#45;&gt;BookClubAdoption -->
<g id="edge9" class="edge"><title>MarketPublishingDetail&#45;&gt;BookClubAdoption</title>
<path fill="none" stroke="black" d="M1220.87,-351.612C1318.17,-340.643 1497.28,-314.921 1641.81,-263 1657.8,-257.256 1674.46,-248.67 1688.41,-240.639"/>
<polygon fill="black" stroke="black" points="1690.32,-243.575 1697.15,-235.477 1686.76,-237.547 1690.32,-243.575"/>
</g>
<!-- AgentIdentifier -->
<g id="node11" class="node"><title>AgentIdentifier</title>
<polygon fill="none" stroke="black" points="0,-72.5 0,-137.5 111.613,-137.5 111.613,-72.5 0,-72.5"/>
<text text-anchor="start" x="8" y="-127.1" font-family="Bitstream Vera Sans" font-size="8.00">Onix::V3_0::AgentIdentifier</text>
<polyline fill="none" stroke="black" points="0,-121.5 111.613,-121.5 "/>
<text text-anchor="start" x="8" y="-111.1" font-family="Bitstream Vera Sans" font-size="8.00">agent_id_type</text>
<text text-anchor="start" x="8" y="-103.1" font-family="Bitstream Vera Sans" font-size="8.00">id_type_name</text>
<text text-anchor="start" x="8" y="-95.1" font-family="Bitstream Vera Sans" font-size="8.00">id_value</text>
<polyline fill="none" stroke="black" points="0,-89.5 111.613,-89.5 "/>
</g>
<!-- PublisherRepresentative&#45;&gt;AgentIdentifier -->
<g id="edge10" class="edge"><title>PublisherRepresentative&#45;&gt;AgentIdentifier</title>
<path fill="none" stroke="black" d="M333.013,-201C276.931,-187.547 198.022,-166.655 121.672,-138.112"/>
<polygon fill="black" stroke="black" points="122.482,-134.676 111.891,-134.407 120.003,-141.222 122.482,-134.676"/>
</g>
<!-- TelephoneNumber -->
<g id="node12" class="node"><title>TelephoneNumber</title>
<ellipse fill="none" stroke="black" cx="199.807" cy="-105" rx="69.9839" ry="18"/>
<text text-anchor="middle" x="199.807" y="-102.6" font-family="Bitstream Vera Sans" font-size="8.00">Onix::V3_0::TelephoneNumber</text>
</g>
<!-- PublisherRepresentative&#45;&gt;TelephoneNumber -->
<g id="edge11" class="edge"><title>PublisherRepresentative&#45;&gt;TelephoneNumber</title>
<path fill="none" stroke="black" d="M332.952,-177.718C300.65,-160.319 264.142,-140.654 237.535,-126.322"/>
<polygon fill="black" stroke="black" points="239.024,-123.149 228.56,-121.488 235.704,-129.312 239.024,-123.149"/>
</g>
<!-- FaxNumber -->
<g id="node13" class="node"><title>FaxNumber</title>
<ellipse fill="none" stroke="black" cx="344.807" cy="-105" rx="56.6551" ry="18"/>
<text text-anchor="middle" x="344.807" y="-102.6" font-family="Bitstream Vera Sans" font-size="8.00">Onix::V3_0::FaxNumber</text>
</g>
<!-- PublisherRepresentative&#45;&gt;FaxNumber -->
<g id="edge12" class="edge"><title>PublisherRepresentative&#45;&gt;FaxNumber</title>
<path fill="none" stroke="black" d="M382.836,-174.391C374.853,-160.034 366.213,-144.496 359.189,-131.864"/>
<polygon fill="black" stroke="black" points="362.089,-129.878 354.17,-122.839 355.971,-133.28 362.089,-129.878"/>
</g>
<!-- EmailAddress -->
<g id="node14" class="node"><title>EmailAddress</title>
<ellipse fill="none" stroke="black" cx="480.807" cy="-105" rx="61.0967" ry="18"/>
<text text-anchor="middle" x="480.807" y="-102.6" font-family="Bitstream Vera Sans" font-size="8.00">Onix::V3_0::EmailAddress</text>
</g>
<!-- PublisherRepresentative&#45;&gt;EmailAddress -->
<g id="edge13" class="edge"><title>PublisherRepresentative&#45;&gt;EmailAddress</title>
<path fill="none" stroke="black" d="M435.417,-174.391C445.039,-159.893 455.46,-144.192 463.887,-131.494"/>
<polygon fill="black" stroke="black" points="467.017,-133.106 469.631,-122.839 461.185,-129.235 467.017,-133.106"/>
</g>
<!-- Website -->
<g id="node15" class="node"><title>Website</title>
<polygon fill="none" stroke="black" points="559.453,-77 559.453,-133 654.16,-133 654.16,-77 559.453,-77"/>
<text text-anchor="start" x="567.453" y="-122.6" font-family="Bitstream Vera Sans" font-size="8.00">Onix::V3_0::Website</text>
<polyline fill="none" stroke="black" points="559.453,-117 654.16,-117 "/>
<text text-anchor="start" x="567.453" y="-106.6" font-family="Bitstream Vera Sans" font-size="8.00">website_role</text>
<text text-anchor="start" x="567.453" y="-98.6" font-family="Bitstream Vera Sans" font-size="8.00">website_link</text>
<polyline fill="none" stroke="black" points="559.453,-93 654.16,-93 "/>
<text text-anchor="start" x="567.453" y="-82.6" font-family="Bitstream Vera Sans" font-size="8.00">website_descriptions[]</text>
</g>
<!-- PublisherRepresentative&#45;&gt;Website -->
<g id="edge14" class="edge"><title>PublisherRepresentative&#45;&gt;Website</title>
<path fill="none" stroke="black" d="M480.549,-177.06C500.927,-165.819 523.185,-153.48 550.447,-138.183"/>
<polygon fill="black" stroke="black" points="552.474,-141.059 559.478,-133.11 549.045,-134.956 552.474,-141.059"/>
</g>
<!-- ProductContactIdentifier -->
<g id="node17" class="node"><title>ProductContactIdentifier</title>
<polygon fill="none" stroke="black" points="671.883,-72.5 671.883,-137.5 817.73,-137.5 817.73,-72.5 671.883,-72.5"/>
<text text-anchor="start" x="679.883" y="-127.1" font-family="Bitstream Vera Sans" font-size="8.00">Onix::V3_0::ProductContactIdentifier</text>
<polyline fill="none" stroke="black" points="671.883,-121.5 817.73,-121.5 "/>
<text text-anchor="start" x="679.883" y="-111.1" font-family="Bitstream Vera Sans" font-size="8.00">product_contact_id_type</text>
<text text-anchor="start" x="679.883" y="-103.1" font-family="Bitstream Vera Sans" font-size="8.00">id_type_name</text>
<text text-anchor="start" x="679.883" y="-95.1" font-family="Bitstream Vera Sans" font-size="8.00">id_value</text>
<polyline fill="none" stroke="black" points="671.883,-89.5 817.73,-89.5 "/>
</g>
<!-- ProductContact&#45;&gt;ProductContactIdentifier -->
<g id="edge16" class="edge"><title>ProductContact&#45;&gt;ProductContactIdentifier</title>
<path fill="none" stroke="black" d="M701.74,-182.221C708.175,-170.832 715.357,-158.12 721.984,-146.392"/>
<polygon fill="black" stroke="black" points="725.05,-148.081 726.922,-137.653 718.955,-144.638 725.05,-148.081"/>
</g>
<!-- WebsiteDescription -->
<g id="node16" class="node"><title>WebsiteDescription</title>
<ellipse fill="none" stroke="black" cx="606.807" cy="-18" rx="71.7777" ry="18"/>
<text text-anchor="middle" x="606.807" y="-15.6" font-family="Bitstream Vera Sans" font-size="8.00">Onix::V3_0::WebsiteDescription</text>
</g>
<!-- Website&#45;&gt;WebsiteDescription -->
<g id="edge15" class="edge"><title>Website&#45;&gt;WebsiteDescription</title>
<path fill="none" stroke="black" d="M606.807,-76.6376C606.807,-66.976 606.807,-56.1138 606.807,-46.4454"/>
<polygon fill="black" stroke="black" points="610.307,-46.1642 606.807,-36.1642 603.307,-46.1643 610.307,-46.1642"/>
</g>
</g>
</svg>
