<?xml version="1.0" encoding="UTF-8" standalone="no"?>
<!DOCTYPE svg PUBLIC "-//W3C//DTD SVG 1.1//EN"
 "http://www.w3.org/Graphics/SVG/1.1/DTD/svg11.dtd">
<!-- Generated by graphviz version 2.38.0 (20140413.2041)
 -->
<!-- Title: G Pages: 1 -->
<svg width="449pt" height="476pt"
 viewBox="0.00 0.00 448.98 476.00" xmlns="http://www.w3.org/2000/svg" xmlns:xlink="http://www.w3.org/1999/xlink">
<g id="graph0" class="graph" transform="scale(1 1) rotate(0) translate(4 472)">
<title>G</title>
<polygon fill="white" stroke="none" points="-4,4 -4,-472 444.984,-472 444.984,4 -4,4"/>
<!-- NameAsSubject -->
<g id="node1" class="node"><title>NameAsSubject</title>
<polygon fill="none" stroke="black" points="105.332,-291.5 105.332,-467.5 222.715,-467.5 222.715,-291.5 105.332,-291.5"/>
<text text-anchor="start" x="113.332" y="-457.1" font-family="Bitstream Vera Sans" font-size="8.00">Onix::V3_0::NameAsSubject</text>
<polyline fill="none" stroke="black" points="105.332,-451.5 222.715,-451.5 "/>
<text text-anchor="start" x="113.332" y="-441.1" font-family="Bitstream Vera Sans" font-size="8.00">name_type</text>
<text text-anchor="start" x="113.332" y="-433.1" font-family="Bitstream Vera Sans" font-size="8.00">person_name</text>
<text text-anchor="start" x="113.332" y="-425.1" font-family="Bitstream Vera Sans" font-size="8.00">person_name_inverted</text>
<text text-anchor="start" x="113.332" y="-417.1" font-family="Bitstream Vera Sans" font-size="8.00">titles_before_names</text>
<text text-anchor="start" x="113.332" y="-409.1" font-family="Bitstream Vera Sans" font-size="8.00">names_before_key</text>
<text text-anchor="start" x="113.332" y="-401.1" font-family="Bitstream Vera Sans" font-size="8.00">prefix_to_key</text>
<text text-anchor="start" x="113.332" y="-393.1" font-family="Bitstream Vera Sans" font-size="8.00">key_names</text>
<text text-anchor="start" x="113.332" y="-385.1" font-family="Bitstream Vera Sans" font-size="8.00">names_after_key</text>
<text text-anchor="start" x="113.332" y="-377.1" font-family="Bitstream Vera Sans" font-size="8.00">suffix_to_key</text>
<text text-anchor="start" x="113.332" y="-369.1" font-family="Bitstream Vera Sans" font-size="8.00">letters_after_names</text>
<text text-anchor="start" x="113.332" y="-361.1" font-family="Bitstream Vera Sans" font-size="8.00">titles_after_names</text>
<text text-anchor="start" x="113.332" y="-353.1" font-family="Bitstream Vera Sans" font-size="8.00">gender</text>
<text text-anchor="start" x="113.332" y="-345.1" font-family="Bitstream Vera Sans" font-size="8.00">corporate_name</text>
<text text-anchor="start" x="113.332" y="-337.1" font-family="Bitstream Vera Sans" font-size="8.00">corporate_name_inverted</text>
<polyline fill="none" stroke="black" points="105.332,-331.5 222.715,-331.5 "/>
<text text-anchor="start" x="113.332" y="-321.1" font-family="Bitstream Vera Sans" font-size="8.00">name_identifiers[]</text>
<text text-anchor="start" x="113.332" y="-313.1" font-family="Bitstream Vera Sans" font-size="8.00">alternative_names[]</text>
<text text-anchor="start" x="113.332" y="-305.1" font-family="Bitstream Vera Sans" font-size="8.00">subject_dates[]</text>
<text text-anchor="start" x="113.332" y="-297.1" font-family="Bitstream Vera Sans" font-size="8.00">professional_affiliations[]</text>
</g>
<!-- NameIdentifier -->
<g id="node2" class="node"><title>NameIdentifier</title>
<polygon fill="none" stroke="black" points="0,-0.5 0,-65.5 112.047,-65.5 112.047,-0.5 0,-0.5"/>
<text text-anchor="start" x="8" y="-55.1" font-family="Bitstream Vera Sans" font-size="8.00">Onix::V3_0::NameIdentifier</text>
<polyline fill="none" stroke="black" points="0,-49.5 112.047,-49.5 "/>
<text text-anchor="start" x="8" y="-39.1" font-family="Bitstream Vera Sans" font-size="8.00">name_id_type</text>
<text text-anchor="start" x="8" y="-31.1" font-family="Bitstream Vera Sans" font-size="8.00">id_type_name</text>
<text text-anchor="start" x="8" y="-23.1" font-family="Bitstream Vera Sans" font-size="8.00">id_value</text>
<polyline fill="none" stroke="black" points="0,-17.5 112.047,-17.5 "/>
</g>
<!-- NameAsSubject&#45;&gt;NameIdentifier -->
<g id="edge1" class="edge"><title>NameAsSubject&#45;&gt;NameIdentifier</title>
<path fill="none" stroke="black" d="M105.135,-341.111C77.0624,-319.694 46.3265,-290.093 31.0234,-255 5.42856,-196.306 23.484,-120.917 39.3781,-75.0925"/>
<polygon fill="black" stroke="black" points="42.7367,-76.0955 42.8238,-65.501 36.1489,-73.7288 42.7367,-76.0955"/>
</g>
<!-- AlternativeName -->
<g id="node3" class="node"><title>AlternativeName</title>
<polygon fill="none" stroke="black" points="40.4434,-102.5 40.4434,-254.5 159.604,-254.5 159.604,-102.5 40.4434,-102.5"/>
<text text-anchor="start" x="48.4434" y="-244.1" font-family="Bitstream Vera Sans" font-size="8.00">Onix::V3_0::AlternativeName</text>
<polyline fill="none" stroke="black" points="40.4434,-238.5 159.604,-238.5 "/>
<text text-anchor="start" x="48.4434" y="-228.1" font-family="Bitstream Vera Sans" font-size="8.00">name_type</text>
<text text-anchor="start" x="48.4434" y="-220.1" font-family="Bitstream Vera Sans" font-size="8.00">person_name</text>
<text text-anchor="start" x="48.4434" y="-212.1" font-family="Bitstream Vera Sans" font-size="8.00">person_name_inverted</text>
<text text-anchor="start" x="48.4434" y="-204.1" font-family="Bitstream Vera Sans" font-size="8.00">titles_before_names</text>
<text text-anchor="start" x="48.4434" y="-196.1" font-family="Bitstream Vera Sans" font-size="8.00">names_before_key</text>
<text text-anchor="start" x="48.4434" y="-188.1" font-family="Bitstream Vera Sans" font-size="8.00">prefix_to_key</text>
<text text-anchor="start" x="48.4434" y="-180.1" font-family="Bitstream Vera Sans" font-size="8.00">key_names</text>
<text text-anchor="start" x="48.4434" y="-172.1" font-family="Bitstream Vera Sans" font-size="8.00">names_after_key</text>
<text text-anchor="start" x="48.4434" y="-164.1" font-family="Bitstream Vera Sans" font-size="8.00">suffix_to_key</text>
<text text-anchor="start" x="48.4434" y="-156.1" font-family="Bitstream Vera Sans" font-size="8.00">letters_after_names</text>
<text text-anchor="start" x="48.4434" y="-148.1" font-family="Bitstream Vera Sans" font-size="8.00">titles_after_names</text>
<text text-anchor="start" x="48.4434" y="-140.1" font-family="Bitstream Vera Sans" font-size="8.00">gender</text>
<text text-anchor="start" x="48.4434" y="-132.1" font-family="Bitstream Vera Sans" font-size="8.00">corporate_name</text>
<text text-anchor="start" x="48.4434" y="-124.1" font-family="Bitstream Vera Sans" font-size="8.00">corporate_name_inverted</text>
<polyline fill="none" stroke="black" points="40.4434,-118.5 159.604,-118.5 "/>
<text text-anchor="start" x="48.4434" y="-108.1" font-family="Bitstream Vera Sans" font-size="8.00">name_identifiers[]</text>
</g>
<!-- NameAsSubject&#45;&gt;AlternativeName -->
<g id="edge2" class="edge"><title>NameAsSubject&#45;&gt;AlternativeName</title>
<path fill="none" stroke="black" d="M135.952,-291.216C133.066,-282.243 130.137,-273.135 127.261,-264.191"/>
<polygon fill="black" stroke="black" points="130.558,-263.012 124.165,-254.564 123.894,-265.155 130.558,-263.012"/>
</g>
<!-- SubjectDate -->
<g id="node4" class="node"><title>SubjectDate</title>
<polygon fill="none" stroke="black" points="177.221,-146 177.221,-211 280.826,-211 280.826,-146 177.221,-146"/>
<text text-anchor="start" x="185.221" y="-200.6" font-family="Bitstream Vera Sans" font-size="8.00">Onix::V3_0::SubjectDate</text>
<polyline fill="none" stroke="black" points="177.221,-195 280.826,-195 "/>
<text text-anchor="start" x="185.221" y="-184.6" font-family="Bitstream Vera Sans" font-size="8.00">subject_date_role</text>
<text text-anchor="start" x="185.221" y="-176.6" font-family="Bitstream Vera Sans" font-size="8.00">date_format</text>
<text text-anchor="start" x="185.221" y="-168.6" font-family="Bitstream Vera Sans" font-size="8.00">date</text>
<polyline fill="none" stroke="black" points="177.221,-163 280.826,-163 "/>
</g>
<!-- NameAsSubject&#45;&gt;SubjectDate -->
<g id="edge3" class="edge"><title>NameAsSubject&#45;&gt;SubjectDate</title>
<path fill="none" stroke="black" d="M192.533,-291.216C200.507,-266.805 208.805,-241.398 215.47,-220.993"/>
<polygon fill="black" stroke="black" points="218.825,-221.996 218.603,-211.404 212.171,-219.823 218.825,-221.996"/>
</g>
<!-- ProfessionalAffiliation -->
<g id="node5" class="node"><title>ProfessionalAffiliation</title>
<polygon fill="none" stroke="black" points="298.77,-154.5 298.77,-202.5 435.277,-202.5 435.277,-154.5 298.77,-154.5"/>
<text text-anchor="start" x="306.77" y="-192.1" font-family="Bitstream Vera Sans" font-size="8.00">Onix::V3_0::ProfessionalAffiliation</text>
<polyline fill="none" stroke="black" points="298.77,-186.5 435.277,-186.5 "/>
<text text-anchor="start" x="306.77" y="-176.1" font-family="Bitstream Vera Sans" font-size="8.00">affiliation</text>
<polyline fill="none" stroke="black" points="298.77,-170.5 435.277,-170.5 "/>
<text text-anchor="start" x="306.77" y="-160.1" font-family="Bitstream Vera Sans" font-size="8.00">professional_positions[]</text>
</g>
<!-- NameAsSubject&#45;&gt;ProfessionalAffiliation -->
<g id="edge4" class="edge"><title>NameAsSubject&#45;&gt;ProfessionalAffiliation</title>
<path fill="none" stroke="black" d="M222.739,-320.941C259.766,-284.644 306.09,-239.233 336.105,-209.809"/>
<polygon fill="black" stroke="black" points="338.678,-212.188 343.369,-202.688 333.778,-207.189 338.678,-212.188"/>
</g>
<!-- AlternativeName&#45;&gt;NameIdentifier -->
<g id="edge5" class="edge"><title>AlternativeName&#45;&gt;NameIdentifier</title>
<path fill="none" stroke="black" d="M76.9925,-102.388C74.153,-93.1272 71.3365,-83.9414 68.7326,-75.4493"/>
<polygon fill="black" stroke="black" points="72.0628,-74.3708 65.7851,-65.8362 65.3704,-76.4229 72.0628,-74.3708"/>
</g>
<!-- ProfessionalPosition -->
<g id="node6" class="node"><title>ProfessionalPosition</title>
<ellipse fill="none" stroke="black" cx="367.023" cy="-33" rx="73.9202" ry="18"/>
<text text-anchor="middle" x="367.023" y="-30.6" font-family="Bitstream Vera Sans" font-size="8.00">Onix::V3_0::ProfessionalPosition</text>
</g>
<!-- ProfessionalAffiliation&#45;&gt;ProfessionalPosition -->
<g id="edge6" class="edge"><title>ProfessionalAffiliation&#45;&gt;ProfessionalPosition</title>
<path fill="none" stroke="black" d="M367.023,-154.444C367.023,-129.098 367.023,-88.4012 367.023,-61.4334"/>
<polygon fill="black" stroke="black" points="370.524,-61.1447 367.023,-51.1447 363.524,-61.1447 370.524,-61.1447"/>
</g>
</g>
</svg>
