<?xml version="1.0" encoding="UTF-8" standalone="no"?>
<!DOCTYPE svg PUBLIC "-//W3C//DTD SVG 1.1//EN"
 "http://www.w3.org/Graphics/SVG/1.1/DTD/svg11.dtd">
<!-- Generated by graphviz version 2.38.0 (20140413.2041)
 -->
<!-- Title: G Pages: 1 -->
<svg width="558pt" height="183pt"
 viewBox="0.00 0.00 558.08 183.00" xmlns="http://www.w3.org/2000/svg" xmlns:xlink="http://www.w3.org/1999/xlink">
<g id="graph0" class="graph" transform="scale(1 1) rotate(0) translate(4 179)">
<title>G</title>
<polygon fill="white" stroke="none" points="-4,4 -4,-179 554.078,-179 554.078,4 -4,4"/>
<!-- NewSupplier -->
<g id="node1" class="node"><title>NewSupplier</title>
<polygon fill="none" stroke="black" points="227.34,-102.5 227.34,-174.5 332.719,-174.5 332.719,-102.5 227.34,-102.5"/>
<text text-anchor="start" x="235.34" y="-164.1" font-family="Bitstream Vera Sans" font-size="8.00">Onix::V3_0::NewSupplier</text>
<polyline fill="none" stroke="black" points="227.34,-158.5 332.719,-158.5 "/>
<text text-anchor="start" x="235.34" y="-148.1" font-family="Bitstream Vera Sans" font-size="8.00">supplier_name</text>
<polyline fill="none" stroke="black" points="227.34,-142.5 332.719,-142.5 "/>
<text text-anchor="start" x="235.34" y="-132.1" font-family="Bitstream Vera Sans" font-size="8.00">supplier_identifiers[]</text>
<text text-anchor="start" x="235.34" y="-124.1" font-family="Bitstream Vera Sans" font-size="8.00">telephone_numbers[]</text>
<text text-anchor="start" x="235.34" y="-116.1" font-family="Bitstream Vera Sans" font-size="8.00">fax_numbers[]</text>
<text text-anchor="start" x="235.34" y="-108.1" font-family="Bitstream Vera Sans" font-size="8.00">email_addresses[]</text>
</g>
<!-- SupplierIdentifier -->
<g id="node2" class="node"><title>SupplierIdentifier</title>
<polygon fill="none" stroke="black" points="0,-0.5 0,-65.5 120.059,-65.5 120.059,-0.5 0,-0.5"/>
<text text-anchor="start" x="8" y="-55.1" font-family="Bitstream Vera Sans" font-size="8.00">Onix::V3_0::SupplierIdentifier</text>
<polyline fill="none" stroke="black" points="0,-49.5 120.059,-49.5 "/>
<text text-anchor="start" x="8" y="-39.1" font-family="Bitstream Vera Sans" font-size="8.00">supplier_id_type</text>
<text text-anchor="start" x="8" y="-31.1" font-family="Bitstream Vera Sans" font-size="8.00">id_type_name</text>
<text text-anchor="start" x="8" y="-23.1" font-family="Bitstream Vera Sans" font-size="8.00">id_value</text>
<polyline fill="none" stroke="black" points="0,-17.5 120.059,-17.5 "/>
</g>
<!-- NewSupplier&#45;&gt;SupplierIdentifier -->
<g id="edge1" class="edge"><title>NewSupplier&#45;&gt;SupplierIdentifier</title>
<path fill="none" stroke="black" d="M227.334,-112.709C197.946,-98.8837 160.988,-81.4966 129.288,-66.5829"/>
<polygon fill="black" stroke="black" points="130.604,-63.3344 120.066,-62.2444 127.624,-69.6685 130.604,-63.3344"/>
</g>
<!-- TelephoneNumber -->
<g id="node3" class="node"><title>TelephoneNumber</title>
<ellipse fill="none" stroke="black" cx="208.029" cy="-33" rx="69.9839" ry="18"/>
<text text-anchor="middle" x="208.029" y="-30.6" font-family="Bitstream Vera Sans" font-size="8.00">Onix::V3_0::TelephoneNumber</text>
</g>
<!-- NewSupplier&#45;&gt;TelephoneNumber -->
<g id="edge2" class="edge"><title>NewSupplier&#45;&gt;TelephoneNumber</title>
<path fill="none" stroke="black" d="M255.653,-102.46C245.842,-88.3555 234.74,-72.3964 225.725,-59.437"/>
<polygon fill="black" stroke="black" points="228.442,-57.2143 219.858,-51.004 222.696,-61.2118 228.442,-57.2143"/>
</g>
<!-- FaxNumber -->
<g id="node4" class="node"><title>FaxNumber</title>
<ellipse fill="none" stroke="black" cx="353.029" cy="-33" rx="56.6551" ry="18"/>
<text text-anchor="middle" x="353.029" y="-30.6" font-family="Bitstream Vera Sans" font-size="8.00">Onix::V3_0::FaxNumber</text>
</g>
<!-- NewSupplier&#45;&gt;FaxNumber -->
<g id="edge3" class="edge"><title>NewSupplier&#45;&gt;FaxNumber</title>
<path fill="none" stroke="black" d="M304.744,-102.46C314.759,-88.2602 326.1,-72.1807 335.273,-59.1747"/>
<polygon fill="black" stroke="black" points="338.331,-60.9117 341.235,-50.7225 332.611,-56.8771 338.331,-60.9117"/>
</g>
<!-- EmailAddress -->
<g id="node5" class="node"><title>EmailAddress</title>
<ellipse fill="none" stroke="black" cx="489.029" cy="-33" rx="61.0967" ry="18"/>
<text text-anchor="middle" x="489.029" y="-30.6" font-family="Bitstream Vera Sans" font-size="8.00">Onix::V3_0::EmailAddress</text>
</g>
<!-- NewSupplier&#45;&gt;EmailAddress -->
<g id="edge4" class="edge"><title>NewSupplier&#45;&gt;EmailAddress</title>
<path fill="none" stroke="black" d="M332.769,-111.383C369.199,-93.3416 416.858,-69.7402 449.919,-53.3679"/>
<polygon fill="black" stroke="black" points="451.85,-56.3175 459.258,-48.7431 448.744,-50.0445 451.85,-56.3175"/>
</g>
</g>
</svg>
