<?xml version="1.0" encoding="UTF-8" standalone="no"?>
<!DOCTYPE svg PUBLIC "-//W3C//DTD SVG 1.1//EN"
 "http://www.w3.org/Graphics/SVG/1.1/DTD/svg11.dtd">
<!-- Generated by graphviz version 2.38.0 (20140413.2041)
 -->
<!-- Title: G Pages: 1 -->
<svg width="140pt" height="159pt"
 viewBox="0.00 0.00 139.60 159.00" xmlns="http://www.w3.org/2000/svg" xmlns:xlink="http://www.w3.org/1999/xlink">
<g id="graph0" class="graph" transform="scale(1 1) rotate(0) translate(4 155)">
<title>G</title>
<polygon fill="white" stroke="none" points="-4,4 -4,-155 135.602,-155 135.602,4 -4,4"/>
<!-- PriceConstraint -->
<g id="node1" class="node"><title>PriceConstraint</title>
<polygon fill="none" stroke="black" points="8.44531,-94.5 8.44531,-150.5 123.156,-150.5 123.156,-94.5 8.44531,-94.5"/>
<text text-anchor="start" x="16.4453" y="-140.1" font-family="Bitstream Vera Sans" font-size="8.00">Onix::V3_0::PriceConstraint</text>
<polyline fill="none" stroke="black" points="8.44531,-134.5 123.156,-134.5 "/>
<text text-anchor="start" x="16.4453" y="-124.1" font-family="Bitstream Vera Sans" font-size="8.00">price_constraint_type</text>
<text text-anchor="start" x="16.4453" y="-116.1" font-family="Bitstream Vera Sans" font-size="8.00">price_constraint_status</text>
<polyline fill="none" stroke="black" points="8.44531,-110.5 123.156,-110.5 "/>
<text text-anchor="start" x="16.4453" y="-100.1" font-family="Bitstream Vera Sans" font-size="8.00">price_constraint_limits[]</text>
</g>
<!-- PriceConstraintLimit -->
<g id="node2" class="node"><title>PriceConstraintLimit</title>
<polygon fill="none" stroke="black" points="0,-0.5 0,-57.5 131.602,-57.5 131.602,-0.5 0,-0.5"/>
<text text-anchor="start" x="8" y="-47.1" font-family="Bitstream Vera Sans" font-size="8.00">Onix::V3_0::PriceConstraintLimit</text>
<polyline fill="none" stroke="black" points="0,-41.5 131.602,-41.5 "/>
<text text-anchor="start" x="8" y="-31.1" font-family="Bitstream Vera Sans" font-size="8.00">quantity</text>
<text text-anchor="start" x="8" y="-23.1" font-family="Bitstream Vera Sans" font-size="8.00">price_constraint_unit</text>
<polyline fill="none" stroke="black" points="0,-17.5 131.602,-17.5 "/>
</g>
<!-- PriceConstraint&#45;&gt;PriceConstraintLimit -->
<g id="edge1" class="edge"><title>PriceConstraint&#45;&gt;PriceConstraintLimit</title>
<path fill="none" stroke="black" d="M65.8008,-94.047C65.8008,-85.7989 65.8008,-76.6008 65.8008,-67.8067"/>
<polygon fill="black" stroke="black" points="69.3009,-67.7499 65.8008,-57.7499 62.3009,-67.7499 69.3009,-67.7499"/>
</g>
</g>
</svg>
