<?xml version="1.0" encoding="UTF-8" standalone="no"?>
<!DOCTYPE svg PUBLIC "-//W3C//DTD SVG 1.1//EN"
 "http://www.w3.org/Graphics/SVG/1.1/DTD/svg11.dtd">
<!-- Generated by graphviz version 2.38.0 (20140413.2041)
 -->
<!-- Title: G Pages: 1 -->
<svg width="286pt" height="167pt"
 viewBox="0.00 0.00 286.06 167.00" xmlns="http://www.w3.org/2000/svg" xmlns:xlink="http://www.w3.org/1999/xlink">
<g id="graph0" class="graph" transform="scale(1 1) rotate(0) translate(4 163)">
<title>G</title>
<polygon fill="white" stroke="none" points="-4,4 -4,-163 282.061,-163 282.061,4 -4,4"/>
<!-- PriceCondition -->
<g id="node1" class="node"><title>PriceCondition</title>
<polygon fill="none" stroke="black" points="88.4453,-102.5 88.4453,-158.5 201.398,-158.5 201.398,-102.5 88.4453,-102.5"/>
<text text-anchor="start" x="96.4453" y="-148.1" font-family="Bitstream Vera Sans" font-size="8.00">Onix::V3_0::PriceCondition</text>
<polyline fill="none" stroke="black" points="88.4453,-142.5 201.398,-142.5 "/>
<text text-anchor="start" x="96.4453" y="-132.1" font-family="Bitstream Vera Sans" font-size="8.00">price_condition_type</text>
<polyline fill="none" stroke="black" points="88.4453,-126.5 201.398,-126.5 "/>
<text text-anchor="start" x="96.4453" y="-116.1" font-family="Bitstream Vera Sans" font-size="8.00">price_condition_quantities[]</text>
<text text-anchor="start" x="96.4453" y="-108.1" font-family="Bitstream Vera Sans" font-size="8.00">product_identifiers[]</text>
</g>
<!-- PriceConditionQuantity -->
<g id="node2" class="node"><title>PriceConditionQuantity</title>
<polygon fill="none" stroke="black" points="0,-0.5 0,-65.5 141.844,-65.5 141.844,-0.5 0,-0.5"/>
<text text-anchor="start" x="8" y="-55.1" font-family="Bitstream Vera Sans" font-size="8.00">Onix::V3_0::PriceConditionQuantity</text>
<polyline fill="none" stroke="black" points="0,-49.5 141.844,-49.5 "/>
<text text-anchor="start" x="8" y="-39.1" font-family="Bitstream Vera Sans" font-size="8.00">price_condition_quantity_type</text>
<text text-anchor="start" x="8" y="-31.1" font-family="Bitstream Vera Sans" font-size="8.00">quantity</text>
<text text-anchor="start" x="8" y="-23.1" font-family="Bitstream Vera Sans" font-size="8.00">quantity_unit</text>
<polyline fill="none" stroke="black" points="0,-17.5 141.844,-17.5 "/>
</g>
<!-- PriceCondition&#45;&gt;PriceConditionQuantity -->
<g id="edge1" class="edge"><title>PriceCondition&#45;&gt;PriceConditionQuantity</title>
<path fill="none" stroke="black" d="M123.914,-102.389C116.971,-93.428 109.097,-83.2662 101.582,-73.5685"/>
<polygon fill="black" stroke="black" points="104.275,-71.3289 95.383,-65.5681 98.7415,-75.6165 104.275,-71.3289"/>
</g>
<!-- ProductIdentifier -->
<g id="node3" class="node"><title>ProductIdentifier</title>
<polygon fill="none" stroke="black" points="159.783,-0.5 159.783,-65.5 278.061,-65.5 278.061,-0.5 159.783,-0.5"/>
<text text-anchor="start" x="167.783" y="-55.1" font-family="Bitstream Vera Sans" font-size="8.00">Onix::V3_0::ProductIdentifier</text>
<polyline fill="none" stroke="black" points="159.783,-49.5 278.061,-49.5 "/>
<text text-anchor="start" x="167.783" y="-39.1" font-family="Bitstream Vera Sans" font-size="8.00">product_id_type</text>
<text text-anchor="start" x="167.783" y="-31.1" font-family="Bitstream Vera Sans" font-size="8.00">id_type_name</text>
<text text-anchor="start" x="167.783" y="-23.1" font-family="Bitstream Vera Sans" font-size="8.00">id_value</text>
<polyline fill="none" stroke="black" points="159.783,-17.5 278.061,-17.5 "/>
</g>
<!-- PriceCondition&#45;&gt;ProductIdentifier -->
<g id="edge2" class="edge"><title>PriceCondition&#45;&gt;ProductIdentifier</title>
<path fill="none" stroke="black" d="M165.929,-102.389C172.873,-93.428 180.747,-83.2662 188.261,-73.5685"/>
<polygon fill="black" stroke="black" points="191.102,-75.6165 194.461,-65.5681 185.569,-71.3289 191.102,-75.6165"/>
</g>
</g>
</svg>
