<?xml version="1.0" encoding="UTF-8" standalone="no"?>
<!DOCTYPE svg PUBLIC "-//W3C//DTD SVG 1.1//EN"
 "http://www.w3.org/Graphics/SVG/1.1/DTD/svg11.dtd">
<!-- Generated by graphviz version 2.38.0 (20140413.2041)
 -->
<!-- Title: G Pages: 1 -->
<svg width="1952pt" height="476pt"
 viewBox="0.00 0.00 1951.81 476.00" xmlns="http://www.w3.org/2000/svg" xmlns:xlink="http://www.w3.org/1999/xlink">
<g id="graph0" class="graph" transform="scale(1 1) rotate(0) translate(4 472)">
<title>G</title>
<polygon fill="white" stroke="none" points="-4,4 -4,-472 1947.81,-472 1947.81,4 -4,4"/>
<!-- Price -->
<g id="node1" class="node"><title>Price</title>
<polygon fill="none" stroke="black" points="988.873,-227.5 988.873,-467.5 1107.59,-467.5 1107.59,-227.5 988.873,-227.5"/>
<text text-anchor="start" x="996.873" y="-457.1" font-family="Bitstream Vera Sans" font-size="8.00">Onix::V3_0::Price</text>
<polyline fill="none" stroke="black" points="988.873,-451.5 1107.59,-451.5 "/>
<text text-anchor="start" x="996.873" y="-441.1" font-family="Bitstream Vera Sans" font-size="8.00">price_type</text>
<text text-anchor="start" x="996.873" y="-433.1" font-family="Bitstream Vera Sans" font-size="8.00">price_qualifier</text>
<text text-anchor="start" x="996.873" y="-425.1" font-family="Bitstream Vera Sans" font-size="8.00">price_per</text>
<text text-anchor="start" x="996.873" y="-417.1" font-family="Bitstream Vera Sans" font-size="8.00">minimum_order_quantity</text>
<text text-anchor="start" x="996.873" y="-409.1" font-family="Bitstream Vera Sans" font-size="8.00">price_status</text>
<text text-anchor="start" x="996.873" y="-401.1" font-family="Bitstream Vera Sans" font-size="8.00">price_amount</text>
<text text-anchor="start" x="996.873" y="-393.1" font-family="Bitstream Vera Sans" font-size="8.00">tax_exempt</text>
<text text-anchor="start" x="996.873" y="-385.1" font-family="Bitstream Vera Sans" font-size="8.00">unpriced_item_type</text>
<text text-anchor="start" x="996.873" y="-377.1" font-family="Bitstream Vera Sans" font-size="8.00">currency_code</text>
<text text-anchor="start" x="996.873" y="-369.1" font-family="Bitstream Vera Sans" font-size="8.00">currency_zone</text>
<text text-anchor="start" x="996.873" y="-361.1" font-family="Bitstream Vera Sans" font-size="8.00">printed_on_product</text>
<text text-anchor="start" x="996.873" y="-353.1" font-family="Bitstream Vera Sans" font-size="8.00">position_on_product</text>
<polyline fill="none" stroke="black" points="988.873,-347.5 1107.59,-347.5 "/>
<text text-anchor="start" x="996.873" y="-337.1" font-family="Bitstream Vera Sans" font-size="8.00">epub_license</text>
<text text-anchor="start" x="996.873" y="-329.1" font-family="Bitstream Vera Sans" font-size="8.00">price_coded</text>
<text text-anchor="start" x="996.873" y="-321.1" font-family="Bitstream Vera Sans" font-size="8.00">territory</text>
<text text-anchor="start" x="996.873" y="-313.1" font-family="Bitstream Vera Sans" font-size="8.00">price_identifiers[]</text>
<text text-anchor="start" x="996.873" y="-305.1" font-family="Bitstream Vera Sans" font-size="8.00">epub_technical_protections[]</text>
<text text-anchor="start" x="996.873" y="-297.1" font-family="Bitstream Vera Sans" font-size="8.00">price_constraints[]</text>
<text text-anchor="start" x="996.873" y="-289.1" font-family="Bitstream Vera Sans" font-size="8.00">price_type_descriptions[]</text>
<text text-anchor="start" x="996.873" y="-281.1" font-family="Bitstream Vera Sans" font-size="8.00">price_conditions[]</text>
<text text-anchor="start" x="996.873" y="-273.1" font-family="Bitstream Vera Sans" font-size="8.00">batch_bonus[]</text>
<text text-anchor="start" x="996.873" y="-265.1" font-family="Bitstream Vera Sans" font-size="8.00">discount_codeds[]</text>
<text text-anchor="start" x="996.873" y="-257.1" font-family="Bitstream Vera Sans" font-size="8.00">discounts[]</text>
<text text-anchor="start" x="996.873" y="-249.1" font-family="Bitstream Vera Sans" font-size="8.00">taxes[]</text>
<text text-anchor="start" x="996.873" y="-241.1" font-family="Bitstream Vera Sans" font-size="8.00">comparison_product_prices[]</text>
<text text-anchor="start" x="996.873" y="-233.1" font-family="Bitstream Vera Sans" font-size="8.00">price_dates[]</text>
</g>
<!-- EpubLicense -->
<g id="node2" class="node"><title>EpubLicense</title>
<polygon fill="none" stroke="black" points="95.8673,-118 95.8673,-175 210.598,-175 210.598,-118 95.8673,-118"/>
<text text-anchor="start" x="103.867" y="-164.6" font-family="Bitstream Vera Sans" font-size="8.00">Onix::V3_0::EpubLicense</text>
<polyline fill="none" stroke="black" points="95.8673,-159 210.598,-159 "/>
<polyline fill="none" stroke="black" points="95.8673,-142 210.598,-142 "/>
<text text-anchor="start" x="103.867" y="-131.6" font-family="Bitstream Vera Sans" font-size="8.00">epub_license_names[]</text>
<text text-anchor="start" x="103.867" y="-123.6" font-family="Bitstream Vera Sans" font-size="8.00">epub_license_expressions[]</text>
</g>
<!-- Price&#45;&gt;EpubLicense -->
<g id="edge1" class="edge"><title>Price&#45;&gt;EpubLicense</title>
<path fill="none" stroke="black" d="M988.709,-343.391C849.312,-334.414 492.799,-301.562 219.233,-191 209.054,-186.886 198.791,-181.096 189.492,-175.078"/>
</g>
<!-- PriceCoded -->
<g id="node3" class="node"><title>PriceCoded</title>
<polygon fill="none" stroke="black" points="228.32,-114 228.32,-179 330.145,-179 330.145,-114 228.32,-114"/>
<text text-anchor="start" x="236.32" y="-168.6" font-family="Bitstream Vera Sans" font-size="8.00">Onix::V3_0::PriceCoded</text>
<polyline fill="none" stroke="black" points="228.32,-163 330.145,-163 "/>
<text text-anchor="start" x="236.32" y="-152.6" font-family="Bitstream Vera Sans" font-size="8.00">price_code_type</text>
<text text-anchor="start" x="236.32" y="-144.6" font-family="Bitstream Vera Sans" font-size="8.00">price_code_type_name</text>
<text text-anchor="start" x="236.32" y="-136.6" font-family="Bitstream Vera Sans" font-size="8.00">price_code</text>
<polyline fill="none" stroke="black" points="228.32,-131 330.145,-131 "/>
</g>
<!-- Price&#45;&gt;PriceCoded -->
<g id="edge2" class="edge"><title>Price&#45;&gt;PriceCoded</title>
<path fill="none" stroke="black" d="M988.708,-341.717C863.495,-329.911 565.745,-292.591 339.233,-191 332.071,-187.788 324.916,-183.637 318.171,-179.177"/>
</g>
<!-- Territory -->
<g id="node4" class="node"><title>Territory</title>
<polygon fill="none" stroke="black" points="347.775,-110 347.775,-183 436.69,-183 436.69,-110 347.775,-110"/>
<text text-anchor="start" x="355.775" y="-172.6" font-family="Bitstream Vera Sans" font-size="8.00">Onix::V3_0::Territory</text>
<polyline fill="none" stroke="black" points="347.775,-167 436.69,-167 "/>
<text text-anchor="start" x="355.775" y="-156.6" font-family="Bitstream Vera Sans" font-size="8.00">countries_included</text>
<text text-anchor="start" x="355.775" y="-148.6" font-family="Bitstream Vera Sans" font-size="8.00">regions_included</text>
<text text-anchor="start" x="355.775" y="-140.6" font-family="Bitstream Vera Sans" font-size="8.00">regions_excluded</text>
<text text-anchor="start" x="355.775" y="-132.6" font-family="Bitstream Vera Sans" font-size="8.00">countries_excluded</text>
<polyline fill="none" stroke="black" points="347.775,-127 436.69,-127 "/>
</g>
<!-- Price&#45;&gt;Territory -->
<g id="edge3" class="edge"><title>Price&#45;&gt;Territory</title>
<path fill="none" stroke="black" d="M988.46,-339.587C876.82,-324.872 631.197,-283.899 446.233,-191 441.714,-188.731 437.225,-186.035 432.877,-183.114"/>
</g>
<!-- PriceIdentifier -->
<g id="node5" class="node"><title>PriceIdentifier</title>
<polygon fill="none" stroke="black" points="454.766,-114 454.766,-179 563.699,-179 563.699,-114 454.766,-114"/>
<text text-anchor="start" x="462.766" y="-168.6" font-family="Bitstream Vera Sans" font-size="8.00">Onix::V3_0::PriceIdentifier</text>
<polyline fill="none" stroke="black" points="454.766,-163 563.699,-163 "/>
<text text-anchor="start" x="462.766" y="-152.6" font-family="Bitstream Vera Sans" font-size="8.00">price_id_type</text>
<text text-anchor="start" x="462.766" y="-144.6" font-family="Bitstream Vera Sans" font-size="8.00">id_type_name</text>
<text text-anchor="start" x="462.766" y="-136.6" font-family="Bitstream Vera Sans" font-size="8.00">id_value</text>
<polyline fill="none" stroke="black" points="454.766,-131 563.699,-131 "/>
</g>
<!-- Price&#45;&gt;PriceIdentifier -->
<g id="edge4" class="edge"><title>Price&#45;&gt;PriceIdentifier</title>
<path fill="none" stroke="black" d="M988.587,-332.917C896.273,-310.61 714.593,-261.537 572.233,-191 568.239,-189.021 564.211,-186.815 560.226,-184.474"/>
<polygon fill="black" stroke="black" points="561.952,-181.426 551.6,-179.171 558.286,-187.39 561.952,-181.426"/>
</g>
<!-- EpubTechnicalProtection -->
<g id="node6" class="node"><title>EpubTechnicalProtection</title>
<ellipse fill="none" stroke="black" cx="664.233" cy="-146.5" rx="82.8018" ry="18"/>
<text text-anchor="middle" x="664.233" y="-144.1" font-family="Bitstream Vera Sans" font-size="8.00">Onix::V3_0::EpubTechnicalProtection</text>
</g>
<!-- Price&#45;&gt;EpubTechnicalProtection -->
<g id="edge5" class="edge"><title>Price&#45;&gt;EpubTechnicalProtection</title>
<path fill="none" stroke="black" d="M988.654,-315.625C909.382,-274.544 771.391,-203.033 703.814,-168.012"/>
<polygon fill="black" stroke="black" points="705.249,-164.814 694.76,-163.32 702.028,-171.029 705.249,-164.814"/>
</g>
<!-- PriceConstraint -->
<g id="node7" class="node"><title>PriceConstraint</title>
<polygon fill="none" stroke="black" points="764.877,-118.5 764.877,-174.5 879.588,-174.5 879.588,-118.5 764.877,-118.5"/>
<text text-anchor="start" x="772.877" y="-164.1" font-family="Bitstream Vera Sans" font-size="8.00">Onix::V3_0::PriceConstraint</text>
<polyline fill="none" stroke="black" points="764.877,-158.5 879.588,-158.5 "/>
<text text-anchor="start" x="772.877" y="-148.1" font-family="Bitstream Vera Sans" font-size="8.00">price_constraint_type</text>
<text text-anchor="start" x="772.877" y="-140.1" font-family="Bitstream Vera Sans" font-size="8.00">price_constraint_status</text>
<polyline fill="none" stroke="black" points="764.877,-134.5 879.588,-134.5 "/>
<text text-anchor="start" x="772.877" y="-124.1" font-family="Bitstream Vera Sans" font-size="8.00">price_constraint_limits[]</text>
</g>
<!-- Price&#45;&gt;PriceConstraint -->
<g id="edge6" class="edge"><title>Price&#45;&gt;PriceConstraint</title>
<path fill="none" stroke="black" d="M988.854,-294.215C948.366,-258.564 895.922,-212.386 860.783,-181.445"/>
<polygon fill="black" stroke="black" points="862.938,-178.679 853.12,-174.698 858.312,-183.933 862.938,-178.679"/>
</g>
<!-- PriceTypeDescription -->
<g id="node8" class="node"><title>PriceTypeDescription</title>
<ellipse fill="none" stroke="black" cx="973.233" cy="-146.5" rx="75.8873" ry="18"/>
<text text-anchor="middle" x="973.233" y="-144.1" font-family="Bitstream Vera Sans" font-size="8.00">Onix::V3_0::PriceTypeDescription</text>
</g>
<!-- Price&#45;&gt;PriceTypeDescription -->
<g id="edge7" class="edge"><title>Price&#45;&gt;PriceTypeDescription</title>
<path fill="none" stroke="black" d="M1003.31,-227.294C995.775,-207.312 988.66,-188.433 983.243,-174.061"/>
<polygon fill="black" stroke="black" points="986.419,-172.563 979.617,-164.44 979.868,-175.032 986.419,-172.563"/>
</g>
<!-- PriceCondition -->
<g id="node9" class="node"><title>PriceCondition</title>
<polygon fill="none" stroke="black" points="1066.76,-118.5 1066.76,-174.5 1179.71,-174.5 1179.71,-118.5 1066.76,-118.5"/>
<text text-anchor="start" x="1074.76" y="-164.1" font-family="Bitstream Vera Sans" font-size="8.00">Onix::V3_0::PriceCondition</text>
<polyline fill="none" stroke="black" points="1066.76,-158.5 1179.71,-158.5 "/>
<text text-anchor="start" x="1074.76" y="-148.1" font-family="Bitstream Vera Sans" font-size="8.00">price_condition_type</text>
<polyline fill="none" stroke="black" points="1066.76,-142.5 1179.71,-142.5 "/>
<text text-anchor="start" x="1074.76" y="-132.1" font-family="Bitstream Vera Sans" font-size="8.00">price_condition_quantities[]</text>
<text text-anchor="start" x="1074.76" y="-124.1" font-family="Bitstream Vera Sans" font-size="8.00">product_identifiers[]</text>
</g>
<!-- Price&#45;&gt;PriceCondition -->
<g id="edge8" class="edge"><title>Price&#45;&gt;PriceCondition</title>
<path fill="none" stroke="black" d="M1093.16,-227.294C1099.02,-211.749 1104.62,-196.872 1109.38,-184.265"/>
<polygon fill="black" stroke="black" points="1112.74,-185.263 1112.99,-174.672 1106.19,-182.795 1112.74,-185.263"/>
</g>
<!-- BatchBonus -->
<g id="node10" class="node"><title>BatchBonus</title>
<polygon fill="none" stroke="black" points="1197.65,-118 1197.65,-175 1300.81,-175 1300.81,-118 1197.65,-118"/>
<text text-anchor="start" x="1205.65" y="-164.6" font-family="Bitstream Vera Sans" font-size="8.00">Onix::V3_0::BatchBonus</text>
<polyline fill="none" stroke="black" points="1197.65,-159 1300.81,-159 "/>
<text text-anchor="start" x="1205.65" y="-148.6" font-family="Bitstream Vera Sans" font-size="8.00">batch_quantity</text>
<text text-anchor="start" x="1205.65" y="-140.6" font-family="Bitstream Vera Sans" font-size="8.00">free_quantity</text>
<polyline fill="none" stroke="black" points="1197.65,-135 1300.81,-135 "/>
</g>
<!-- Price&#45;&gt;BatchBonus -->
<g id="edge9" class="edge"><title>Price&#45;&gt;BatchBonus</title>
<path fill="none" stroke="black" d="M1107.72,-287.601C1142.41,-253.263 1184.96,-211.138 1214.29,-182.097"/>
<polygon fill="black" stroke="black" points="1216.8,-184.532 1221.45,-175.009 1211.88,-179.557 1216.8,-184.532"/>
</g>
<!-- DiscountCoded -->
<g id="node11" class="node"><title>DiscountCoded</title>
<polygon fill="none" stroke="black" points="1318.87,-114 1318.87,-179 1433.59,-179 1433.59,-114 1318.87,-114"/>
<text text-anchor="start" x="1326.87" y="-168.6" font-family="Bitstream Vera Sans" font-size="8.00">Onix::V3_0::DiscountCoded</text>
<polyline fill="none" stroke="black" points="1318.87,-163 1433.59,-163 "/>
<text text-anchor="start" x="1326.87" y="-152.6" font-family="Bitstream Vera Sans" font-size="8.00">discount_code_type</text>
<text text-anchor="start" x="1326.87" y="-144.6" font-family="Bitstream Vera Sans" font-size="8.00">discount_code_type_name</text>
<text text-anchor="start" x="1326.87" y="-136.6" font-family="Bitstream Vera Sans" font-size="8.00">discount_code</text>
<polyline fill="none" stroke="black" points="1318.87,-131 1433.59,-131 "/>
</g>
<!-- Price&#45;&gt;DiscountCoded -->
<g id="edge10" class="edge"><title>Price&#45;&gt;DiscountCoded</title>
<path fill="none" stroke="black" d="M1107.76,-312.24C1161.18,-281.245 1241.52,-234.002 1310.23,-191 1313.54,-188.93 1316.93,-186.783 1320.34,-184.601"/>
<polygon fill="black" stroke="black" points="1322.31,-187.493 1328.82,-179.133 1318.52,-181.609 1322.31,-187.493"/>
</g>
<!-- Discount -->
<g id="node12" class="node"><title>Discount</title>
<polygon fill="none" stroke="black" points="1451.66,-106 1451.66,-187 1542.81,-187 1542.81,-106 1451.66,-106"/>
<text text-anchor="start" x="1459.66" y="-176.6" font-family="Bitstream Vera Sans" font-size="8.00">Onix::V3_0::Discount</text>
<polyline fill="none" stroke="black" points="1451.66,-171 1542.81,-171 "/>
<text text-anchor="start" x="1459.66" y="-160.6" font-family="Bitstream Vera Sans" font-size="8.00">discount_type</text>
<text text-anchor="start" x="1459.66" y="-152.6" font-family="Bitstream Vera Sans" font-size="8.00">quantity</text>
<text text-anchor="start" x="1459.66" y="-144.6" font-family="Bitstream Vera Sans" font-size="8.00">to_quantity</text>
<text text-anchor="start" x="1459.66" y="-136.6" font-family="Bitstream Vera Sans" font-size="8.00">discount_percent</text>
<text text-anchor="start" x="1459.66" y="-128.6" font-family="Bitstream Vera Sans" font-size="8.00">discount_amount</text>
<polyline fill="none" stroke="black" points="1451.66,-123 1542.81,-123 "/>
</g>
<!-- Price&#45;&gt;Discount -->
<g id="edge11" class="edge"><title>Price&#45;&gt;Discount</title>
<path fill="none" stroke="black" d="M1107.77,-329.044C1187.14,-304.449 1330.56,-255.319 1442.23,-191 1442.42,-190.89 1442.61,-190.779 1442.81,-190.668"/>
<polygon fill="black" stroke="black" points="1444.78,-193.562 1451.41,-185.296 1441.07,-187.625 1444.78,-193.562"/>
</g>
<!-- Tax -->
<g id="node13" class="node"><title>Tax</title>
<polygon fill="none" stroke="black" points="1727.65,-102.5 1727.65,-190.5 1830.81,-190.5 1830.81,-102.5 1727.65,-102.5"/>
<text text-anchor="start" x="1735.65" y="-180.1" font-family="Bitstream Vera Sans" font-size="8.00">Onix::V3_0::Tax</text>
<polyline fill="none" stroke="black" points="1727.65,-174.5 1830.81,-174.5 "/>
<text text-anchor="start" x="1735.65" y="-164.1" font-family="Bitstream Vera Sans" font-size="8.00">tax_type</text>
<text text-anchor="start" x="1735.65" y="-156.1" font-family="Bitstream Vera Sans" font-size="8.00">tax_rate_code</text>
<text text-anchor="start" x="1735.65" y="-148.1" font-family="Bitstream Vera Sans" font-size="8.00">tax_rate_percent</text>
<text text-anchor="start" x="1735.65" y="-140.1" font-family="Bitstream Vera Sans" font-size="8.00">taxable_amount</text>
<text text-anchor="start" x="1735.65" y="-132.1" font-family="Bitstream Vera Sans" font-size="8.00">tax_amount</text>
<polyline fill="none" stroke="black" points="1727.65,-126.5 1830.81,-126.5 "/>
<text text-anchor="start" x="1735.65" y="-116.1" font-family="Bitstream Vera Sans" font-size="8.00">product_identifiers[]</text>
<text text-anchor="start" x="1735.65" y="-108.1" font-family="Bitstream Vera Sans" font-size="8.00">price_part_descriptions[]</text>
</g>
<!-- Price&#45;&gt;Tax -->
<g id="edge12" class="edge"><title>Price&#45;&gt;Tax</title>
<path fill="none" stroke="black" d="M1107.61,-340.582C1227.62,-326.956 1505.7,-286.87 1718.23,-191 1718.33,-190.957 1718.43,-190.913 1718.52,-190.869"/>
<polygon fill="black" stroke="black" points="1720.09,-193.996 1727.46,-186.378 1716.95,-187.741 1720.09,-193.996"/>
</g>
<!-- ComparisonProductPrice -->
<g id="node14" class="node"><title>ComparisonProductPrice</title>
<polygon fill="none" stroke="black" points="1560.76,-114.5 1560.76,-178.5 1709.71,-178.5 1709.71,-114.5 1560.76,-114.5"/>
<text text-anchor="start" x="1568.76" y="-168.1" font-family="Bitstream Vera Sans" font-size="8.00">Onix::V3_0::ComparisonProductPrice</text>
<polyline fill="none" stroke="black" points="1560.76,-162.5 1709.71,-162.5 "/>
<text text-anchor="start" x="1568.76" y="-152.1" font-family="Bitstream Vera Sans" font-size="8.00">price_type</text>
<text text-anchor="start" x="1568.76" y="-144.1" font-family="Bitstream Vera Sans" font-size="8.00">price_amount</text>
<text text-anchor="start" x="1568.76" y="-136.1" font-family="Bitstream Vera Sans" font-size="8.00">currency_code</text>
<polyline fill="none" stroke="black" points="1560.76,-130.5 1709.71,-130.5 "/>
<text text-anchor="start" x="1568.76" y="-120.1" font-family="Bitstream Vera Sans" font-size="8.00">product_identifiers[]</text>
</g>
<!-- Price&#45;&gt;ComparisonProductPrice -->
<g id="edge13" class="edge"><title>Price&#45;&gt;ComparisonProductPrice</title>
<path fill="none" stroke="black" d="M1107.66,-331.954C1203.2,-307.736 1396.04,-255.388 1552.23,-191 1558.06,-188.599 1564.02,-185.93 1569.94,-183.128"/>
<polygon fill="black" stroke="black" points="1571.73,-186.152 1579.19,-178.635 1568.67,-179.855 1571.73,-186.152"/>
</g>
<!-- PriceDate -->
<g id="node15" class="node"><title>PriceDate</title>
<polygon fill="none" stroke="black" points="1848.66,-114 1848.66,-179 1943.81,-179 1943.81,-114 1848.66,-114"/>
<text text-anchor="start" x="1856.66" y="-168.6" font-family="Bitstream Vera Sans" font-size="8.00">Onix::V3_0::PriceDate</text>
<polyline fill="none" stroke="black" points="1848.66,-163 1943.81,-163 "/>
<text text-anchor="start" x="1856.66" y="-152.6" font-family="Bitstream Vera Sans" font-size="8.00">price_date_role</text>
<text text-anchor="start" x="1856.66" y="-144.6" font-family="Bitstream Vera Sans" font-size="8.00">date_format</text>
<text text-anchor="start" x="1856.66" y="-136.6" font-family="Bitstream Vera Sans" font-size="8.00">date</text>
<polyline fill="none" stroke="black" points="1848.66,-131 1943.81,-131 "/>
</g>
<!-- Price&#45;&gt;PriceDate -->
<g id="edge14" class="edge"><title>Price&#45;&gt;PriceDate</title>
<path fill="none" stroke="black" d="M1107.71,-344.155C1243.54,-336.851 1584.52,-307.392 1840.23,-191 1844.14,-189.221 1848.02,-187.12 1851.81,-184.817"/>
<polygon fill="black" stroke="black" points="1854.03,-187.55 1860.46,-179.134 1850.18,-181.7 1854.03,-187.55"/>
</g>
<!-- EpubLicenseName -->
<g id="node16" class="node"><title>EpubLicenseName</title>
<ellipse fill="none" stroke="black" cx="71.2325" cy="-33" rx="71.4658" ry="18"/>
<text text-anchor="middle" x="71.2325" y="-30.6" font-family="Bitstream Vera Sans" font-size="8.00">Onix::V3_0::EpubLicenseName</text>
</g>
<!-- EpubLicense&#45;&gt;EpubLicenseName -->
<g id="edge15" class="edge"><title>EpubLicense&#45;&gt;EpubLicenseName</title>
<path fill="none" stroke="black" d="M132.963,-117.938C119.676,-99.8712 102.447,-76.4444 89.5687,-58.9327"/>
<polygon fill="black" stroke="black" points="92.3765,-56.843 83.6323,-50.8606 86.7373,-60.9903 92.3765,-56.843"/>
</g>
<!-- EpubLicenseExpression -->
<g id="node17" class="node"><title>EpubLicenseExpression</title>
<polygon fill="none" stroke="black" points="160.074,-0.5 160.074,-65.5 310.391,-65.5 310.391,-0.5 160.074,-0.5"/>
<text text-anchor="start" x="168.074" y="-55.1" font-family="Bitstream Vera Sans" font-size="8.00">Onix::V3_0::EpubLicenseExpression</text>
<polyline fill="none" stroke="black" points="160.074,-49.5 310.391,-49.5 "/>
<text text-anchor="start" x="168.074" y="-39.1" font-family="Bitstream Vera Sans" font-size="8.00">epub_license_expression_type</text>
<text text-anchor="start" x="168.074" y="-31.1" font-family="Bitstream Vera Sans" font-size="8.00">epub_license_expression_type_name</text>
<text text-anchor="start" x="168.074" y="-23.1" font-family="Bitstream Vera Sans" font-size="8.00">epub_license_expression_link</text>
<polyline fill="none" stroke="black" points="160.074,-17.5 310.391,-17.5 "/>
</g>
<!-- EpubLicense&#45;&gt;EpubLicenseExpression -->
<g id="edge16" class="edge"><title>EpubLicense&#45;&gt;EpubLicenseExpression</title>
<path fill="none" stroke="black" d="M173.502,-117.938C183.255,-104.677 195.132,-88.5273 205.853,-73.9492"/>
<polygon fill="black" stroke="black" points="208.902,-75.7107 212.007,-65.5811 203.263,-71.5635 208.902,-75.7107"/>
</g>
<!-- PriceConstraintLimit -->
<g id="node18" class="node"><title>PriceConstraintLimit</title>
<polygon fill="none" stroke="black" points="756.432,-4.5 756.432,-61.5 888.033,-61.5 888.033,-4.5 756.432,-4.5"/>
<text text-anchor="start" x="764.432" y="-51.1" font-family="Bitstream Vera Sans" font-size="8.00">Onix::V3_0::PriceConstraintLimit</text>
<polyline fill="none" stroke="black" points="756.432,-45.5 888.033,-45.5 "/>
<text text-anchor="start" x="764.432" y="-35.1" font-family="Bitstream Vera Sans" font-size="8.00">quantity</text>
<text text-anchor="start" x="764.432" y="-27.1" font-family="Bitstream Vera Sans" font-size="8.00">price_constraint_unit</text>
<polyline fill="none" stroke="black" points="756.432,-21.5 888.033,-21.5 "/>
</g>
<!-- PriceConstraint&#45;&gt;PriceConstraintLimit -->
<g id="edge17" class="edge"><title>PriceConstraint&#45;&gt;PriceConstraintLimit</title>
<path fill="none" stroke="black" d="M822.233,-118.224C822.233,-104.29 822.233,-87.1123 822.233,-71.9121"/>
<polygon fill="black" stroke="black" points="825.733,-71.7689 822.233,-61.7689 818.733,-71.769 825.733,-71.7689"/>
</g>
<!-- PriceConditionQuantity -->
<g id="node19" class="node"><title>PriceConditionQuantity</title>
<polygon fill="none" stroke="black" points="1052.31,-0.5 1052.31,-65.5 1194.15,-65.5 1194.15,-0.5 1052.31,-0.5"/>
<text text-anchor="start" x="1060.31" y="-55.1" font-family="Bitstream Vera Sans" font-size="8.00">Onix::V3_0::PriceConditionQuantity</text>
<polyline fill="none" stroke="black" points="1052.31,-49.5 1194.15,-49.5 "/>
<text text-anchor="start" x="1060.31" y="-39.1" font-family="Bitstream Vera Sans" font-size="8.00">price_condition_quantity_type</text>
<text text-anchor="start" x="1060.31" y="-31.1" font-family="Bitstream Vera Sans" font-size="8.00">quantity</text>
<text text-anchor="start" x="1060.31" y="-23.1" font-family="Bitstream Vera Sans" font-size="8.00">quantity_unit</text>
<polyline fill="none" stroke="black" points="1052.31,-17.5 1194.15,-17.5 "/>
</g>
<!-- PriceCondition&#45;&gt;PriceConditionQuantity -->
<g id="edge18" class="edge"><title>PriceCondition&#45;&gt;PriceConditionQuantity</title>
<path fill="none" stroke="black" d="M1123.23,-118.224C1123.23,-105.462 1123.23,-89.978 1123.23,-75.785"/>
<polygon fill="black" stroke="black" points="1126.73,-75.7358 1123.23,-65.7358 1119.73,-75.7359 1126.73,-75.7358"/>
</g>
<!-- ProductIdentifier -->
<g id="node20" class="node"><title>ProductIdentifier</title>
<polygon fill="none" stroke="black" points="1572.09,-0.5 1572.09,-65.5 1690.37,-65.5 1690.37,-0.5 1572.09,-0.5"/>
<text text-anchor="start" x="1580.09" y="-55.1" font-family="Bitstream Vera Sans" font-size="8.00">Onix::V3_0::ProductIdentifier</text>
<polyline fill="none" stroke="black" points="1572.09,-49.5 1690.37,-49.5 "/>
<text text-anchor="start" x="1580.09" y="-39.1" font-family="Bitstream Vera Sans" font-size="8.00">product_id_type</text>
<text text-anchor="start" x="1580.09" y="-31.1" font-family="Bitstream Vera Sans" font-size="8.00">id_type_name</text>
<text text-anchor="start" x="1580.09" y="-23.1" font-family="Bitstream Vera Sans" font-size="8.00">id_value</text>
<polyline fill="none" stroke="black" points="1572.09,-17.5 1690.37,-17.5 "/>
</g>
<!-- PriceCondition&#45;&gt;ProductIdentifier -->
<g id="edge19" class="edge"><title>PriceCondition&#45;&gt;ProductIdentifier</title>
<path fill="none" stroke="black" d="M1157.78,-118.351C1167.2,-112.096 1177.73,-106.086 1188.23,-102 1313.92,-53.1009 1472.48,-39.245 1561.78,-35.3956"/>
<polygon fill="black" stroke="black" points="1561.94,-38.8921 1571.8,-34.9936 1561.66,-31.8977 1561.94,-38.8921"/>
</g>
<!-- Tax&#45;&gt;ProductIdentifier -->
<g id="edge20" class="edge"><title>Tax&#45;&gt;ProductIdentifier</title>
<path fill="none" stroke="black" d="M1727.47,-106.503C1712.56,-95.2694 1696.32,-83.0358 1681.5,-71.8719"/>
<polygon fill="black" stroke="black" points="1683.53,-69.0147 1673.43,-65.7929 1679.31,-74.6056 1683.53,-69.0147"/>
</g>
<!-- PricePartDescription -->
<g id="node21" class="node"><title>PricePartDescription</title>
<ellipse fill="none" stroke="black" cx="1782.23" cy="-33" rx="74.4003" ry="18"/>
<text text-anchor="middle" x="1782.23" y="-30.6" font-family="Bitstream Vera Sans" font-size="8.00">Onix::V3_0::PricePartDescription</text>
</g>
<!-- Tax&#45;&gt;PricePartDescription -->
<g id="edge21" class="edge"><title>Tax&#45;&gt;PricePartDescription</title>
<path fill="none" stroke="black" d="M1780.39,-102.391C1780.76,-88.5512 1781.17,-73.614 1781.5,-61.2404"/>
<polygon fill="black" stroke="black" points="1785,-61.2091 1781.77,-51.1185 1778,-61.0207 1785,-61.2091"/>
</g>
<!-- ComparisonProductPrice&#45;&gt;ProductIdentifier -->
<g id="edge22" class="edge"><title>ComparisonProductPrice&#45;&gt;ProductIdentifier</title>
<path fill="none" stroke="black" d="M1634.12,-114.441C1633.69,-102.442 1633.19,-88.5297 1632.73,-75.6838"/>
<polygon fill="black" stroke="black" points="1636.22,-75.5352 1632.37,-65.6671 1629.23,-75.7862 1636.22,-75.5352"/>
</g>
</g>
</svg>
