<?xml version="1.0" encoding="UTF-8" standalone="no"?>
<!DOCTYPE svg PUBLIC "-//W3C//DTD SVG 1.1//EN"
 "http://www.w3.org/Graphics/SVG/1.1/DTD/svg11.dtd">
<!-- Generated by graphviz version 2.38.0 (20140413.2041)
 -->
<!-- Title: G Pages: 1 -->
<svg width="388pt" height="161pt"
 viewBox="0.00 0.00 387.70 161.00" xmlns="http://www.w3.org/2000/svg" xmlns:xlink="http://www.w3.org/1999/xlink">
<g id="graph0" class="graph" transform="scale(1 1) rotate(0) translate(4 157)">
<title>G</title>
<polygon fill="white" stroke="none" points="-4,4 -4,-157 383.698,-157 383.698,4 -4,4"/>
<!-- Prize -->
<g id="node1" class="node"><title>Prize</title>
<polygon fill="none" stroke="black" points="152.905,-72.5 152.905,-152.5 234.268,-152.5 234.268,-72.5 152.905,-72.5"/>
<text text-anchor="start" x="160.905" y="-142.1" font-family="Bitstream Vera Sans" font-size="8.00">Onix::V3_0::Prize</text>
<polyline fill="none" stroke="black" points="152.905,-136.5 234.268,-136.5 "/>
<text text-anchor="start" x="160.905" y="-126.1" font-family="Bitstream Vera Sans" font-size="8.00">prize_year</text>
<text text-anchor="start" x="160.905" y="-118.1" font-family="Bitstream Vera Sans" font-size="8.00">prize_country</text>
<text text-anchor="start" x="160.905" y="-110.1" font-family="Bitstream Vera Sans" font-size="8.00">prize_code</text>
<polyline fill="none" stroke="black" points="152.905,-104.5 234.268,-104.5 "/>
<text text-anchor="start" x="160.905" y="-94.1" font-family="Bitstream Vera Sans" font-size="8.00">prize_names[]</text>
<text text-anchor="start" x="160.905" y="-86.1" font-family="Bitstream Vera Sans" font-size="8.00">prize_statements[]</text>
<text text-anchor="start" x="160.905" y="-78.1" font-family="Bitstream Vera Sans" font-size="8.00">prize_juries[]</text>
</g>
<!-- PrizeName -->
<g id="node2" class="node"><title>PrizeName</title>
<ellipse fill="none" stroke="black" cx="55.5867" cy="-18" rx="55.6735" ry="18"/>
<text text-anchor="middle" x="55.5867" y="-15.6" font-family="Bitstream Vera Sans" font-size="8.00">Onix::V3_0::PrizeName</text>
</g>
<!-- Prize&#45;&gt;PrizeName -->
<g id="edge1" class="edge"><title>Prize&#45;&gt;PrizeName</title>
<path fill="none" stroke="black" d="M152.556,-83.9974C131.611,-69.9581 106.527,-53.1445 87.1187,-40.1356"/>
<polygon fill="black" stroke="black" points="88.8916,-37.1104 78.6362,-34.4499 84.9941,-42.925 88.8916,-37.1104"/>
</g>
<!-- PrizeStatement -->
<g id="node3" class="node"><title>PrizeStatement</title>
<ellipse fill="none" stroke="black" cx="193.587" cy="-18" rx="64.0576" ry="18"/>
<text text-anchor="middle" x="193.587" y="-15.6" font-family="Bitstream Vera Sans" font-size="8.00">Onix::V3_0::PrizeStatement</text>
</g>
<!-- Prize&#45;&gt;PrizeStatement -->
<g id="edge2" class="edge"><title>Prize&#45;&gt;PrizeStatement</title>
<path fill="none" stroke="black" d="M193.587,-72.2717C193.587,-63.507 193.587,-54.3978 193.587,-46.243"/>
<polygon fill="black" stroke="black" points="197.087,-46.1817 193.587,-36.1818 190.087,-46.1818 197.087,-46.1817"/>
</g>
<!-- PrizeJury -->
<g id="node4" class="node"><title>PrizeJury</title>
<ellipse fill="none" stroke="black" cx="327.587" cy="-18" rx="52.2228" ry="18"/>
<text text-anchor="middle" x="327.587" y="-15.6" font-family="Bitstream Vera Sans" font-size="8.00">Onix::V3_0::PrizeJury</text>
</g>
<!-- Prize&#45;&gt;PrizeJury -->
<g id="edge3" class="edge"><title>Prize&#45;&gt;PrizeJury</title>
<path fill="none" stroke="black" d="M234.519,-83.2443C254.585,-69.3928 278.347,-52.99 296.838,-40.2257"/>
<polygon fill="black" stroke="black" points="298.95,-43.021 305.191,-34.4596 294.973,-37.2602 298.95,-43.021"/>
</g>
</g>
</svg>
