<?xml version="1.0" encoding="UTF-8" standalone="no"?>
<!DOCTYPE svg PUBLIC "-//W3C//DTD SVG 1.1//EN"
 "http://www.w3.org/Graphics/SVG/1.1/DTD/svg11.dtd">
<!-- Generated by graphviz version 2.38.0 (20140413.2041)
 -->
<!-- Title: G Pages: 1 -->
<svg width="154pt" height="183pt"
 viewBox="0.00 0.00 153.85 183.00" xmlns="http://www.w3.org/2000/svg" xmlns:xlink="http://www.w3.org/1999/xlink">
<g id="graph0" class="graph" transform="scale(1 1) rotate(0) translate(4 179)">
<title>G</title>
<polygon fill="white" stroke="none" points="-4,4 -4,-179 149.848,-179 149.848,4 -4,4"/>
<!-- ProductContact -->
<g id="node1" class="node"><title>ProductContact</title>
<polygon fill="none" stroke="black" points="14.8945,-102.5 14.8945,-174.5 130.953,-174.5 130.953,-102.5 14.8945,-102.5"/>
<text text-anchor="start" x="22.8945" y="-164.1" font-family="Bitstream Vera Sans" font-size="8.00">Onix::V3_0::ProductContact</text>
<polyline fill="none" stroke="black" points="14.8945,-158.5 130.953,-158.5 "/>
<text text-anchor="start" x="22.8945" y="-148.1" font-family="Bitstream Vera Sans" font-size="8.00">product_contact_role</text>
<text text-anchor="start" x="22.8945" y="-140.1" font-family="Bitstream Vera Sans" font-size="8.00">product_contact_name</text>
<text text-anchor="start" x="22.8945" y="-132.1" font-family="Bitstream Vera Sans" font-size="8.00">contact_name</text>
<text text-anchor="start" x="22.8945" y="-124.1" font-family="Bitstream Vera Sans" font-size="8.00">email_address</text>
<polyline fill="none" stroke="black" points="14.8945,-118.5 130.953,-118.5 "/>
<text text-anchor="start" x="22.8945" y="-108.1" font-family="Bitstream Vera Sans" font-size="8.00">product_contact_identifiers[]</text>
</g>
<!-- ProductContactIdentifier -->
<g id="node2" class="node"><title>ProductContactIdentifier</title>
<polygon fill="none" stroke="black" points="0,-0.5 0,-65.5 145.848,-65.5 145.848,-0.5 0,-0.5"/>
<text text-anchor="start" x="8" y="-55.1" font-family="Bitstream Vera Sans" font-size="8.00">Onix::V3_0::ProductContactIdentifier</text>
<polyline fill="none" stroke="black" points="0,-49.5 145.848,-49.5 "/>
<text text-anchor="start" x="8" y="-39.1" font-family="Bitstream Vera Sans" font-size="8.00">product_contact_id_type</text>
<text text-anchor="start" x="8" y="-31.1" font-family="Bitstream Vera Sans" font-size="8.00">id_type_name</text>
<text text-anchor="start" x="8" y="-23.1" font-family="Bitstream Vera Sans" font-size="8.00">id_value</text>
<polyline fill="none" stroke="black" points="0,-17.5 145.848,-17.5 "/>
</g>
<!-- ProductContact&#45;&gt;ProductContactIdentifier -->
<g id="edge1" class="edge"><title>ProductContact&#45;&gt;ProductContactIdentifier</title>
<path fill="none" stroke="black" d="M72.9238,-102.46C72.9238,-93.8608 72.9238,-84.5725 72.9238,-75.6948"/>
<polygon fill="black" stroke="black" points="76.4239,-75.5277 72.9238,-65.5278 69.4239,-75.5278 76.4239,-75.5277"/>
</g>
</g>
</svg>
