<?xml version="1.0" encoding="UTF-8" standalone="no"?>
<!DOCTYPE svg PUBLIC "-//W3C//DTD SVG 1.1//EN"
 "http://www.w3.org/Graphics/SVG/1.1/DTD/svg11.dtd">
<!-- Generated by graphviz version 2.38.0 (20140413.2041)
 -->
<!-- Title: G Pages: 1 -->
<svg width="796pt" height="303pt"
 viewBox="0.00 0.00 796.35 303.00" xmlns="http://www.w3.org/2000/svg" xmlns:xlink="http://www.w3.org/1999/xlink">
<g id="graph0" class="graph" transform="scale(1 1) rotate(0) translate(4 299)">
<title>G</title>
<polygon fill="white" stroke="none" points="-4,4 -4,-299 792.352,-299 792.352,4 -4,4"/>
<!-- ProductPart -->
<g id="node1" class="node"><title>ProductPart</title>
<polygon fill="none" stroke="black" points="305,-174.5 305,-294.5 431.277,-294.5 431.277,-174.5 305,-174.5"/>
<text text-anchor="start" x="313" y="-284.1" font-family="Bitstream Vera Sans" font-size="8.00">Onix::V3_0::ProductPart</text>
<polyline fill="none" stroke="black" points="305,-278.5 431.277,-278.5 "/>
<text text-anchor="start" x="313" y="-268.1" font-family="Bitstream Vera Sans" font-size="8.00">primary_part</text>
<text text-anchor="start" x="313" y="-260.1" font-family="Bitstream Vera Sans" font-size="8.00">product_form</text>
<text text-anchor="start" x="313" y="-252.1" font-family="Bitstream Vera Sans" font-size="8.00">product_packaging</text>
<text text-anchor="start" x="313" y="-244.1" font-family="Bitstream Vera Sans" font-size="8.00">number_of_items_of_this_form</text>
<text text-anchor="start" x="313" y="-236.1" font-family="Bitstream Vera Sans" font-size="8.00">number_of_copies</text>
<text text-anchor="start" x="313" y="-228.1" font-family="Bitstream Vera Sans" font-size="8.00">country_of_manufacture</text>
<polyline fill="none" stroke="black" points="305,-222.5 431.277,-222.5 "/>
<text text-anchor="start" x="313" y="-212.1" font-family="Bitstream Vera Sans" font-size="8.00">product_identifiers[]</text>
<text text-anchor="start" x="313" y="-204.1" font-family="Bitstream Vera Sans" font-size="8.00">product_form_details[]</text>
<text text-anchor="start" x="313" y="-196.1" font-family="Bitstream Vera Sans" font-size="8.00">product_form_features[]</text>
<text text-anchor="start" x="313" y="-188.1" font-family="Bitstream Vera Sans" font-size="8.00">product_form_descriptions[]</text>
<text text-anchor="start" x="313" y="-180.1" font-family="Bitstream Vera Sans" font-size="8.00">product_content_types[]</text>
</g>
<!-- ProductIdentifier -->
<g id="node2" class="node"><title>ProductIdentifier</title>
<polygon fill="none" stroke="black" points="0,-72.5 0,-137.5 118.277,-137.5 118.277,-72.5 0,-72.5"/>
<text text-anchor="start" x="8" y="-127.1" font-family="Bitstream Vera Sans" font-size="8.00">Onix::V3_0::ProductIdentifier</text>
<polyline fill="none" stroke="black" points="0,-121.5 118.277,-121.5 "/>
<text text-anchor="start" x="8" y="-111.1" font-family="Bitstream Vera Sans" font-size="8.00">product_id_type</text>
<text text-anchor="start" x="8" y="-103.1" font-family="Bitstream Vera Sans" font-size="8.00">id_type_name</text>
<text text-anchor="start" x="8" y="-95.1" font-family="Bitstream Vera Sans" font-size="8.00">id_value</text>
<polyline fill="none" stroke="black" points="0,-89.5 118.277,-89.5 "/>
</g>
<!-- ProductPart&#45;&gt;ProductIdentifier -->
<g id="edge1" class="edge"><title>ProductPart&#45;&gt;ProductIdentifier</title>
<path fill="none" stroke="black" d="M304.774,-209.636C258.105,-191.774 192.986,-166.255 127.603,-138.129"/>
<polygon fill="black" stroke="black" points="128.946,-134.897 118.377,-134.144 126.17,-141.323 128.946,-134.897"/>
</g>
<!-- ProductFormDetail -->
<g id="node3" class="node"><title>ProductFormDetail</title>
<ellipse fill="none" stroke="black" cx="207.139" cy="-105" rx="70.9497" ry="18"/>
<text text-anchor="middle" x="207.139" y="-102.6" font-family="Bitstream Vera Sans" font-size="8.00">Onix::V3_0::ProductFormDetail</text>
</g>
<!-- ProductPart&#45;&gt;ProductFormDetail -->
<g id="edge2" class="edge"><title>ProductPart&#45;&gt;ProductFormDetail</title>
<path fill="none" stroke="black" d="M304.969,-183.475C281.027,-164.514 254.936,-143.852 235.725,-128.638"/>
<polygon fill="black" stroke="black" points="237.69,-125.73 227.678,-122.265 233.344,-131.217 237.69,-125.73"/>
</g>
<!-- ProductFormFeature -->
<g id="node4" class="node"><title>ProductFormFeature</title>
<polygon fill="none" stroke="black" points="296.104,-77 296.104,-133 440.174,-133 440.174,-77 296.104,-77"/>
<text text-anchor="start" x="304.104" y="-122.6" font-family="Bitstream Vera Sans" font-size="8.00">Onix::V3_0::ProductFormFeature</text>
<polyline fill="none" stroke="black" points="296.104,-117 440.174,-117 "/>
<text text-anchor="start" x="304.104" y="-106.6" font-family="Bitstream Vera Sans" font-size="8.00">product_form_feature_type</text>
<text text-anchor="start" x="304.104" y="-98.6" font-family="Bitstream Vera Sans" font-size="8.00">product_form_feature_value</text>
<polyline fill="none" stroke="black" points="296.104,-93 440.174,-93 "/>
<text text-anchor="start" x="304.104" y="-82.6" font-family="Bitstream Vera Sans" font-size="8.00">product_form_feature_descriptions[]</text>
</g>
<!-- ProductPart&#45;&gt;ProductFormFeature -->
<g id="edge3" class="edge"><title>ProductPart&#45;&gt;ProductFormFeature</title>
<path fill="none" stroke="black" d="M368.139,-174.229C368.139,-163.723 368.139,-153.053 368.139,-143.369"/>
<polygon fill="black" stroke="black" points="371.639,-143.303 368.139,-133.303 364.639,-143.303 371.639,-143.303"/>
</g>
<!-- ProductFormDescription -->
<g id="node5" class="node"><title>ProductFormDescription</title>
<ellipse fill="none" stroke="black" cx="540.139" cy="-105" rx="81.7871" ry="18"/>
<text text-anchor="middle" x="540.139" y="-102.6" font-family="Bitstream Vera Sans" font-size="8.00">Onix::V3_0::ProductFormDescription</text>
</g>
<!-- ProductPart&#45;&gt;ProductFormDescription -->
<g id="edge4" class="edge"><title>ProductPart&#45;&gt;ProductFormDescription</title>
<path fill="none" stroke="black" d="M431.696,-186.386C458.393,-166.597 488.191,-144.508 509.786,-128.5"/>
<polygon fill="black" stroke="black" points="511.976,-131.233 517.925,-122.466 507.807,-125.61 511.976,-131.233"/>
</g>
<!-- ProductContentType -->
<g id="node6" class="node"><title>ProductContentType</title>
<ellipse fill="none" stroke="black" cx="714.139" cy="-105" rx="74.4266" ry="18"/>
<text text-anchor="middle" x="714.139" y="-102.6" font-family="Bitstream Vera Sans" font-size="8.00">Onix::V3_0::ProductContentType</text>
</g>
<!-- ProductPart&#45;&gt;ProductContentType -->
<g id="edge5" class="edge"><title>ProductPart&#45;&gt;ProductContentType</title>
<path fill="none" stroke="black" d="M431.505,-210.885C484.856,-191.75 563.124,-163.457 631.139,-138 642.777,-133.644 655.3,-128.864 667.001,-124.358"/>
<polygon fill="black" stroke="black" points="668.531,-127.52 676.599,-120.653 666.009,-120.989 668.531,-127.52"/>
</g>
<!-- ProductFormFeatureDescription -->
<g id="node7" class="node"><title>ProductFormFeatureDescription</title>
<ellipse fill="none" stroke="black" cx="368.139" cy="-18" rx="97.064" ry="18"/>
<text text-anchor="middle" x="368.139" y="-15.6" font-family="Bitstream Vera Sans" font-size="8.00">Onix::V3_0::ProductFormFeatureDescription</text>
</g>
<!-- ProductFormFeature&#45;&gt;ProductFormFeatureDescription -->
<g id="edge6" class="edge"><title>ProductFormFeature&#45;&gt;ProductFormFeatureDescription</title>
<path fill="none" stroke="black" d="M368.139,-76.6376C368.139,-66.976 368.139,-56.1138 368.139,-46.4454"/>
<polygon fill="black" stroke="black" points="371.639,-46.1642 368.139,-36.1642 364.639,-46.1643 371.639,-46.1642"/>
</g>
</g>
</svg>
