<?xml version="1.0" encoding="UTF-8" standalone="no"?>
<!DOCTYPE svg PUBLIC "-//W3C//DTD SVG 1.1//EN"
 "http://www.w3.org/Graphics/SVG/1.1/DTD/svg11.dtd">
<!-- Generated by graphviz version 2.38.0 (20140413.2041)
 -->
<!-- Title: G Pages: 1 -->
<svg width="202pt" height="137pt"
 viewBox="0.00 0.00 202.06 137.00" xmlns="http://www.w3.org/2000/svg" xmlns:xlink="http://www.w3.org/1999/xlink">
<g id="graph0" class="graph" transform="scale(1 1) rotate(0) translate(4 133)">
<title>G</title>
<polygon fill="white" stroke="none" points="-4,4 -4,-133 198.064,-133 198.064,4 -4,4"/>
<!-- ProductFormFeature -->
<g id="node1" class="node"><title>ProductFormFeature</title>
<polygon fill="none" stroke="black" points="24.9968,-72.5 24.9968,-128.5 169.067,-128.5 169.067,-72.5 24.9968,-72.5"/>
<text text-anchor="start" x="32.9968" y="-118.1" font-family="Bitstream Vera Sans" font-size="8.00">Onix::V3_0::ProductFormFeature</text>
<polyline fill="none" stroke="black" points="24.9968,-112.5 169.067,-112.5 "/>
<text text-anchor="start" x="32.9968" y="-102.1" font-family="Bitstream Vera Sans" font-size="8.00">product_form_feature_type</text>
<text text-anchor="start" x="32.9968" y="-94.1" font-family="Bitstream Vera Sans" font-size="8.00">product_form_feature_value</text>
<polyline fill="none" stroke="black" points="24.9968,-88.5 169.067,-88.5 "/>
<text text-anchor="start" x="32.9968" y="-78.1" font-family="Bitstream Vera Sans" font-size="8.00">product_form_feature_descriptions[]</text>
</g>
<!-- ProductFormFeatureDescription -->
<g id="node2" class="node"><title>ProductFormFeatureDescription</title>
<ellipse fill="none" stroke="black" cx="97.032" cy="-18" rx="97.064" ry="18"/>
<text text-anchor="middle" x="97.032" y="-15.6" font-family="Bitstream Vera Sans" font-size="8.00">Onix::V3_0::ProductFormFeatureDescription</text>
</g>
<!-- ProductFormFeature&#45;&gt;ProductFormFeatureDescription -->
<g id="edge1" class="edge"><title>ProductFormFeature&#45;&gt;ProductFormFeatureDescription</title>
<path fill="none" stroke="black" d="M97.032,-72.2464C97.032,-63.9078 97.032,-54.7356 97.032,-46.3881"/>
<polygon fill="black" stroke="black" points="100.532,-46.3805 97.032,-36.3806 93.5321,-46.3806 100.532,-46.3805"/>
</g>
</g>
</svg>
