<?xml version="1.0" encoding="UTF-8" standalone="no"?>
<!DOCTYPE svg PUBLIC "-//W3C//DTD SVG 1.1//EN"
 "http://www.w3.org/Graphics/SVG/1.1/DTD/svg11.dtd">
<!-- Generated by graphviz version 2.38.0 (20140413.2041)
 -->
<!-- Title: G Pages: 1 -->
<svg width="156pt" height="129pt"
 viewBox="0.00 0.00 155.92 129.00" xmlns="http://www.w3.org/2000/svg" xmlns:xlink="http://www.w3.org/1999/xlink">
<g id="graph0" class="graph" transform="scale(1 1) rotate(0) translate(4 125)">
<title>G</title>
<polygon fill="white" stroke="none" points="-4,4 -4,-125 151.92,-125 151.92,4 -4,4"/>
<!-- ProfessionalAffiliation -->
<g id="node1" class="node"><title>ProfessionalAffiliation</title>
<polygon fill="none" stroke="black" points="5.70616,-72.5 5.70616,-120.5 142.214,-120.5 142.214,-72.5 5.70616,-72.5"/>
<text text-anchor="start" x="13.7062" y="-110.1" font-family="Bitstream Vera Sans" font-size="8.00">Onix::V3_0::ProfessionalAffiliation</text>
<polyline fill="none" stroke="black" points="5.70616,-104.5 142.214,-104.5 "/>
<text text-anchor="start" x="13.7062" y="-94.1" font-family="Bitstream Vera Sans" font-size="8.00">affiliation</text>
<polyline fill="none" stroke="black" points="5.70616,-88.5 142.214,-88.5 "/>
<text text-anchor="start" x="13.7062" y="-78.1" font-family="Bitstream Vera Sans" font-size="8.00">professional_positions[]</text>
</g>
<!-- ProfessionalPosition -->
<g id="node2" class="node"><title>ProfessionalPosition</title>
<ellipse fill="none" stroke="black" cx="73.9601" cy="-18" rx="73.9202" ry="18"/>
<text text-anchor="middle" x="73.9601" y="-15.6" font-family="Bitstream Vera Sans" font-size="8.00">Onix::V3_0::ProfessionalPosition</text>
</g>
<!-- ProfessionalAffiliation&#45;&gt;ProfessionalPosition -->
<g id="edge1" class="edge"><title>ProfessionalAffiliation&#45;&gt;ProfessionalPosition</title>
<path fill="none" stroke="black" d="M73.9601,-72.1318C73.9601,-63.9754 73.9601,-54.7495 73.9601,-46.3016"/>
<polygon fill="black" stroke="black" points="77.4602,-46.1561 73.9601,-36.1562 70.4602,-46.1562 77.4602,-46.1561"/>
</g>
</g>
</svg>
