<?xml version="1.0" encoding="UTF-8" standalone="no"?>
<!DOCTYPE svg PUBLIC "-//W3C//DTD SVG 1.1//EN"
 "http://www.w3.org/Graphics/SVG/1.1/DTD/svg11.dtd">
<!-- Generated by graphviz version 2.38.0 (20140413.2041)
 -->
<!-- Title: G Pages: 1 -->
<svg width="687pt" height="271pt"
 viewBox="0.00 0.00 686.70 271.00" xmlns="http://www.w3.org/2000/svg" xmlns:xlink="http://www.w3.org/1999/xlink">
<g id="graph0" class="graph" transform="scale(1 1) rotate(0) translate(4 267)">
<title>G</title>
<polygon fill="white" stroke="none" points="-4,4 -4,-267 682.695,-267 682.695,4 -4,4"/>
<!-- PublisherRepresentative -->
<g id="node1" class="node"><title>PublisherRepresentative</title>
<polygon fill="none" stroke="black" points="271.215,-174.5 271.215,-262.5 418.398,-262.5 418.398,-174.5 271.215,-174.5"/>
<text text-anchor="start" x="279.215" y="-252.1" font-family="Bitstream Vera Sans" font-size="8.00">Onix::V3_0::PublisherRepresentative</text>
<polyline fill="none" stroke="black" points="271.215,-246.5 418.398,-246.5 "/>
<text text-anchor="start" x="279.215" y="-236.1" font-family="Bitstream Vera Sans" font-size="8.00">agent_role</text>
<text text-anchor="start" x="279.215" y="-228.1" font-family="Bitstream Vera Sans" font-size="8.00">agent_name</text>
<polyline fill="none" stroke="black" points="271.215,-222.5 418.398,-222.5 "/>
<text text-anchor="start" x="279.215" y="-212.1" font-family="Bitstream Vera Sans" font-size="8.00">agent_identifiers[]</text>
<text text-anchor="start" x="279.215" y="-204.1" font-family="Bitstream Vera Sans" font-size="8.00">telephone_numbers[]</text>
<text text-anchor="start" x="279.215" y="-196.1" font-family="Bitstream Vera Sans" font-size="8.00">fax_numbers[]</text>
<text text-anchor="start" x="279.215" y="-188.1" font-family="Bitstream Vera Sans" font-size="8.00">email_addresses[]</text>
<text text-anchor="start" x="279.215" y="-180.1" font-family="Bitstream Vera Sans" font-size="8.00">websites[]</text>
</g>
<!-- AgentIdentifier -->
<g id="node2" class="node"><title>AgentIdentifier</title>
<polygon fill="none" stroke="black" points="0,-72.5 0,-137.5 111.613,-137.5 111.613,-72.5 0,-72.5"/>
<text text-anchor="start" x="8" y="-127.1" font-family="Bitstream Vera Sans" font-size="8.00">Onix::V3_0::AgentIdentifier</text>
<polyline fill="none" stroke="black" points="0,-121.5 111.613,-121.5 "/>
<text text-anchor="start" x="8" y="-111.1" font-family="Bitstream Vera Sans" font-size="8.00">agent_id_type</text>
<text text-anchor="start" x="8" y="-103.1" font-family="Bitstream Vera Sans" font-size="8.00">id_type_name</text>
<text text-anchor="start" x="8" y="-95.1" font-family="Bitstream Vera Sans" font-size="8.00">id_value</text>
<polyline fill="none" stroke="black" points="0,-89.5 111.613,-89.5 "/>
</g>
<!-- PublisherRepresentative&#45;&gt;AgentIdentifier -->
<g id="edge1" class="edge"><title>PublisherRepresentative&#45;&gt;AgentIdentifier</title>
<path fill="none" stroke="black" d="M271.097,-193.751C227.005,-178.951 170.138,-158.814 120.807,-138 120.712,-137.96 120.618,-137.92 120.524,-137.881"/>
<polygon fill="black" stroke="black" points="122.2,-134.793 111.635,-133.998 119.398,-141.208 122.2,-134.793"/>
</g>
<!-- TelephoneNumber -->
<g id="node3" class="node"><title>TelephoneNumber</title>
<ellipse fill="none" stroke="black" cx="199.807" cy="-105" rx="69.9839" ry="18"/>
<text text-anchor="middle" x="199.807" y="-102.6" font-family="Bitstream Vera Sans" font-size="8.00">Onix::V3_0::TelephoneNumber</text>
</g>
<!-- PublisherRepresentative&#45;&gt;TelephoneNumber -->
<g id="edge2" class="edge"><title>PublisherRepresentative&#45;&gt;TelephoneNumber</title>
<path fill="none" stroke="black" d="M288.746,-174.391C268.337,-158.697 246.093,-141.593 228.956,-128.415"/>
<polygon fill="black" stroke="black" points="231.045,-125.606 220.984,-122.285 226.778,-131.155 231.045,-125.606"/>
</g>
<!-- FaxNumber -->
<g id="node4" class="node"><title>FaxNumber</title>
<ellipse fill="none" stroke="black" cx="344.807" cy="-105" rx="56.6551" ry="18"/>
<text text-anchor="middle" x="344.807" y="-102.6" font-family="Bitstream Vera Sans" font-size="8.00">Onix::V3_0::FaxNumber</text>
</g>
<!-- PublisherRepresentative&#45;&gt;FaxNumber -->
<g id="edge3" class="edge"><title>PublisherRepresentative&#45;&gt;FaxNumber</title>
<path fill="none" stroke="black" d="M344.807,-174.391C344.807,-160.551 344.807,-145.614 344.807,-133.24"/>
<polygon fill="black" stroke="black" points="348.307,-133.118 344.807,-123.119 341.307,-133.119 348.307,-133.118"/>
</g>
<!-- EmailAddress -->
<g id="node5" class="node"><title>EmailAddress</title>
<ellipse fill="none" stroke="black" cx="480.807" cy="-105" rx="61.0967" ry="18"/>
<text text-anchor="middle" x="480.807" y="-102.6" font-family="Bitstream Vera Sans" font-size="8.00">Onix::V3_0::EmailAddress</text>
</g>
<!-- PublisherRepresentative&#45;&gt;EmailAddress -->
<g id="edge4" class="edge"><title>PublisherRepresentative&#45;&gt;EmailAddress</title>
<path fill="none" stroke="black" d="M397.388,-174.391C416.356,-158.84 437.014,-141.904 453.027,-128.775"/>
<polygon fill="black" stroke="black" points="455.429,-131.332 460.944,-122.285 450.991,-125.918 455.429,-131.332"/>
</g>
<!-- Website -->
<g id="node6" class="node"><title>Website</title>
<polygon fill="none" stroke="black" points="559.453,-77 559.453,-133 654.16,-133 654.16,-77 559.453,-77"/>
<text text-anchor="start" x="567.453" y="-122.6" font-family="Bitstream Vera Sans" font-size="8.00">Onix::V3_0::Website</text>
<polyline fill="none" stroke="black" points="559.453,-117 654.16,-117 "/>
<text text-anchor="start" x="567.453" y="-106.6" font-family="Bitstream Vera Sans" font-size="8.00">website_role</text>
<text text-anchor="start" x="567.453" y="-98.6" font-family="Bitstream Vera Sans" font-size="8.00">website_link</text>
<polyline fill="none" stroke="black" points="559.453,-93 654.16,-93 "/>
<text text-anchor="start" x="567.453" y="-82.6" font-family="Bitstream Vera Sans" font-size="8.00">website_descriptions[]</text>
</g>
<!-- PublisherRepresentative&#45;&gt;Website -->
<g id="edge5" class="edge"><title>PublisherRepresentative&#45;&gt;Website</title>
<path fill="none" stroke="black" d="M418.873,-191.989C458.602,-177.542 508.048,-158.325 550.807,-138 551.009,-137.904 551.211,-137.807 551.414,-137.71"/>
<polygon fill="black" stroke="black" points="553.269,-140.696 560.646,-133.092 550.137,-134.436 553.269,-140.696"/>
</g>
<!-- WebsiteDescription -->
<g id="node7" class="node"><title>WebsiteDescription</title>
<ellipse fill="none" stroke="black" cx="606.807" cy="-18" rx="71.7777" ry="18"/>
<text text-anchor="middle" x="606.807" y="-15.6" font-family="Bitstream Vera Sans" font-size="8.00">Onix::V3_0::WebsiteDescription</text>
</g>
<!-- Website&#45;&gt;WebsiteDescription -->
<g id="edge6" class="edge"><title>Website&#45;&gt;WebsiteDescription</title>
<path fill="none" stroke="black" d="M606.807,-76.6376C606.807,-66.976 606.807,-56.1138 606.807,-46.4454"/>
<polygon fill="black" stroke="black" points="610.307,-46.1642 606.807,-36.1642 603.307,-46.1643 610.307,-46.1642"/>
</g>
</g>
</svg>
