<?xml version="1.0" encoding="UTF-8" standalone="no"?>
<!DOCTYPE svg PUBLIC "-//W3C//DTD SVG 1.1//EN"
 "http://www.w3.org/Graphics/SVG/1.1/DTD/svg11.dtd">
<!-- Generated by graphviz version 2.38.0 (20140413.2041)
 -->
<!-- Title: G Pages: 1 -->
<svg width="1467pt" height="568pt"
 viewBox="0.00 0.00 1466.72 568.00" xmlns="http://www.w3.org/2000/svg" xmlns:xlink="http://www.w3.org/1999/xlink">
<g id="graph0" class="graph" transform="scale(1 1) rotate(0) translate(4 564)">
<title>G</title>
<polygon fill="white" stroke="none" points="-4,4 -4,-564 1462.72,-564 1462.72,4 -4,4"/>
<!-- PublishingDetail -->
<g id="node1" class="node"><title>PublishingDetail</title>
<polygon fill="none" stroke="black" points="681.883,-423.5 681.883,-559.5 799.273,-559.5 799.273,-423.5 681.883,-423.5"/>
<text text-anchor="start" x="689.883" y="-549.1" font-family="Bitstream Vera Sans" font-size="8.00">Onix::V3_0::PublishingDetail</text>
<polyline fill="none" stroke="black" points="681.883,-543.5 799.273,-543.5 "/>
<text text-anchor="start" x="689.883" y="-533.1" font-family="Bitstream Vera Sans" font-size="8.00">country_of_publication</text>
<text text-anchor="start" x="689.883" y="-525.1" font-family="Bitstream Vera Sans" font-size="8.00">publishing_status</text>
<text text-anchor="start" x="689.883" y="-517.1" font-family="Bitstream Vera Sans" font-size="8.00">latest_reprint_number</text>
<text text-anchor="start" x="689.883" y="-509.1" font-family="Bitstream Vera Sans" font-size="8.00">row_sales_rights_type</text>
<polyline fill="none" stroke="black" points="681.883,-503.5 799.273,-503.5 "/>
<text text-anchor="start" x="689.883" y="-493.1" font-family="Bitstream Vera Sans" font-size="8.00">imprints[]</text>
<text text-anchor="start" x="689.883" y="-485.1" font-family="Bitstream Vera Sans" font-size="8.00">publishers[]</text>
<text text-anchor="start" x="689.883" y="-477.1" font-family="Bitstream Vera Sans" font-size="8.00">city_of_publications[]</text>
<text text-anchor="start" x="689.883" y="-469.1" font-family="Bitstream Vera Sans" font-size="8.00">product_contacts[]</text>
<text text-anchor="start" x="689.883" y="-461.1" font-family="Bitstream Vera Sans" font-size="8.00">publishing_status_notes[]</text>
<text text-anchor="start" x="689.883" y="-453.1" font-family="Bitstream Vera Sans" font-size="8.00">publishing_dates[]</text>
<text text-anchor="start" x="689.883" y="-445.1" font-family="Bitstream Vera Sans" font-size="8.00">copyright_statements[]</text>
<text text-anchor="start" x="689.883" y="-437.1" font-family="Bitstream Vera Sans" font-size="8.00">sales_rights[]</text>
<text text-anchor="start" x="689.883" y="-429.1" font-family="Bitstream Vera Sans" font-size="8.00">sales_restrictions[]</text>
</g>
<!-- Imprint -->
<g id="node2" class="node"><title>Imprint</title>
<polygon fill="none" stroke="black" points="78.3418,-326.5 78.3418,-374.5 162.814,-374.5 162.814,-326.5 78.3418,-326.5"/>
<text text-anchor="start" x="86.3418" y="-364.1" font-family="Bitstream Vera Sans" font-size="8.00">Onix::V3_0::Imprint</text>
<polyline fill="none" stroke="black" points="78.3418,-358.5 162.814,-358.5 "/>
<text text-anchor="start" x="86.3418" y="-348.1" font-family="Bitstream Vera Sans" font-size="8.00">imprint_name</text>
<polyline fill="none" stroke="black" points="78.3418,-342.5 162.814,-342.5 "/>
<text text-anchor="start" x="86.3418" y="-332.1" font-family="Bitstream Vera Sans" font-size="8.00">imprint_identifiers[]</text>
</g>
<!-- PublishingDetail&#45;&gt;Imprint -->
<g id="edge1" class="edge"><title>PublishingDetail&#45;&gt;Imprint</title>
<path fill="none" stroke="black" d="M681.529,-478.758C590.168,-460.392 409.158,-423.209 256.578,-387 228.805,-380.409 198.019,-372.43 172.771,-365.707"/>
<polygon fill="black" stroke="black" points="173.594,-362.304 163.029,-363.102 171.786,-369.066 173.594,-362.304"/>
</g>
<!-- Publisher -->
<g id="node3" class="node"><title>Publisher</title>
<polygon fill="none" stroke="black" points="265.891,-314.5 265.891,-386.5 359.266,-386.5 359.266,-314.5 265.891,-314.5"/>
<text text-anchor="start" x="273.891" y="-376.1" font-family="Bitstream Vera Sans" font-size="8.00">Onix::V3_0::Publisher</text>
<polyline fill="none" stroke="black" points="265.891,-370.5 359.266,-370.5 "/>
<text text-anchor="start" x="273.891" y="-360.1" font-family="Bitstream Vera Sans" font-size="8.00">publishing_role</text>
<text text-anchor="start" x="273.891" y="-352.1" font-family="Bitstream Vera Sans" font-size="8.00">publisher_name</text>
<polyline fill="none" stroke="black" points="265.891,-346.5 359.266,-346.5 "/>
<text text-anchor="start" x="273.891" y="-336.1" font-family="Bitstream Vera Sans" font-size="8.00">publisher_identifiers[]</text>
<text text-anchor="start" x="273.891" y="-328.1" font-family="Bitstream Vera Sans" font-size="8.00">fundings[]</text>
<text text-anchor="start" x="273.891" y="-320.1" font-family="Bitstream Vera Sans" font-size="8.00">websites[]</text>
</g>
<!-- PublishingDetail&#45;&gt;Publisher -->
<g id="edge2" class="edge"><title>PublishingDetail&#45;&gt;Publisher</title>
<path fill="none" stroke="black" d="M681.824,-479.93C608.752,-465.544 480.878,-436.269 368.871,-387.228"/>
<polygon fill="black" stroke="black" points="370.023,-383.91 359.463,-383.046 367.179,-390.307 370.023,-383.91"/>
</g>
<!-- CityOfPublication -->
<g id="node4" class="node"><title>CityOfPublication</title>
<ellipse fill="none" stroke="black" cx="444.578" cy="-350.5" rx="67.5021" ry="18"/>
<text text-anchor="middle" x="444.578" y="-348.1" font-family="Bitstream Vera Sans" font-size="8.00">Onix::V3_0::CityOfPublication</text>
</g>
<!-- PublishingDetail&#45;&gt;CityOfPublication -->
<g id="edge3" class="edge"><title>PublishingDetail&#45;&gt;CityOfPublication</title>
<path fill="none" stroke="black" d="M681.744,-462.872C623.653,-435.592 536.341,-394.592 485.446,-370.691"/>
<polygon fill="black" stroke="black" points="486.921,-367.517 476.382,-366.435 483.945,-373.853 486.921,-367.517"/>
</g>
<!-- ProductContact -->
<g id="node5" class="node"><title>ProductContact</title>
<polygon fill="none" stroke="black" points="530.549,-314.5 530.549,-386.5 646.607,-386.5 646.607,-314.5 530.549,-314.5"/>
<text text-anchor="start" x="538.549" y="-376.1" font-family="Bitstream Vera Sans" font-size="8.00">Onix::V3_0::ProductContact</text>
<polyline fill="none" stroke="black" points="530.549,-370.5 646.607,-370.5 "/>
<text text-anchor="start" x="538.549" y="-360.1" font-family="Bitstream Vera Sans" font-size="8.00">product_contact_role</text>
<text text-anchor="start" x="538.549" y="-352.1" font-family="Bitstream Vera Sans" font-size="8.00">product_contact_name</text>
<text text-anchor="start" x="538.549" y="-344.1" font-family="Bitstream Vera Sans" font-size="8.00">contact_name</text>
<text text-anchor="start" x="538.549" y="-336.1" font-family="Bitstream Vera Sans" font-size="8.00">email_address</text>
<polyline fill="none" stroke="black" points="530.549,-330.5 646.607,-330.5 "/>
<text text-anchor="start" x="538.549" y="-320.1" font-family="Bitstream Vera Sans" font-size="8.00">product_contact_identifiers[]</text>
</g>
<!-- PublishingDetail&#45;&gt;ProductContact -->
<g id="edge4" class="edge"><title>PublishingDetail&#45;&gt;ProductContact</title>
<path fill="none" stroke="black" d="M681.811,-436.759C666.16,-422.447 649.48,-407.193 634.619,-393.604"/>
<polygon fill="black" stroke="black" points="636.771,-390.828 627.029,-386.663 632.047,-395.994 636.771,-390.828"/>
</g>
<!-- PublishingStatusNote -->
<g id="node6" class="node"><title>PublishingStatusNote</title>
<ellipse fill="none" stroke="black" cx="740.578" cy="-350.5" rx="76.3946" ry="18"/>
<text text-anchor="middle" x="740.578" y="-348.1" font-family="Bitstream Vera Sans" font-size="8.00">Onix::V3_0::PublishingStatusNote</text>
</g>
<!-- PublishingDetail&#45;&gt;PublishingStatusNote -->
<g id="edge5" class="edge"><title>PublishingDetail&#45;&gt;PublishingStatusNote</title>
<path fill="none" stroke="black" d="M740.578,-423.443C740.578,-407.606 740.578,-391.599 740.578,-378.718"/>
<polygon fill="black" stroke="black" points="744.078,-378.705 740.578,-368.705 737.078,-378.705 744.078,-378.705"/>
</g>
<!-- PublishingDate -->
<g id="node7" class="node"><title>PublishingDate</title>
<polygon fill="none" stroke="black" points="834.66,-318 834.66,-383 948.496,-383 948.496,-318 834.66,-318"/>
<text text-anchor="start" x="842.66" y="-372.6" font-family="Bitstream Vera Sans" font-size="8.00">Onix::V3_0::PublishingDate</text>
<polyline fill="none" stroke="black" points="834.66,-367 948.496,-367 "/>
<text text-anchor="start" x="842.66" y="-356.6" font-family="Bitstream Vera Sans" font-size="8.00">publishing_date_role</text>
<text text-anchor="start" x="842.66" y="-348.6" font-family="Bitstream Vera Sans" font-size="8.00">date_format</text>
<text text-anchor="start" x="842.66" y="-340.6" font-family="Bitstream Vera Sans" font-size="8.00">date</text>
<polyline fill="none" stroke="black" points="834.66,-335 948.496,-335 "/>
</g>
<!-- PublishingDetail&#45;&gt;PublishingDate -->
<g id="edge6" class="edge"><title>PublishingDetail&#45;&gt;PublishingDate</title>
<path fill="none" stroke="black" d="M799.391,-436.361C816.186,-420.901 834.14,-404.373 849.7,-390.05"/>
<polygon fill="black" stroke="black" points="852.144,-392.558 857.131,-383.21 847.403,-387.407 852.144,-392.558"/>
</g>
<!-- CopyrightStatement -->
<g id="node8" class="node"><title>CopyrightStatement</title>
<polygon fill="none" stroke="black" points="966.215,-322.5 966.215,-378.5 1096.94,-378.5 1096.94,-322.5 966.215,-322.5"/>
<text text-anchor="start" x="974.215" y="-368.1" font-family="Bitstream Vera Sans" font-size="8.00">Onix::V3_0::CopyrightStatement</text>
<polyline fill="none" stroke="black" points="966.215,-362.5 1096.94,-362.5 "/>
<text text-anchor="start" x="974.215" y="-352.1" font-family="Bitstream Vera Sans" font-size="8.00">copyright_type</text>
<polyline fill="none" stroke="black" points="966.215,-346.5 1096.94,-346.5 "/>
<text text-anchor="start" x="974.215" y="-336.1" font-family="Bitstream Vera Sans" font-size="8.00">copyright_years[]</text>
<text text-anchor="start" x="974.215" y="-328.1" font-family="Bitstream Vera Sans" font-size="8.00">copyright_owners[]</text>
</g>
<!-- PublishingDetail&#45;&gt;CopyrightStatement -->
<g id="edge7" class="edge"><title>PublishingDetail&#45;&gt;CopyrightStatement</title>
<path fill="none" stroke="black" d="M799.54,-462.422C843.192,-441.623 904.11,-412.576 957.578,-387 960.318,-385.69 963.114,-384.351 965.939,-382.999"/>
<polygon fill="black" stroke="black" points="967.514,-386.125 975.021,-378.648 964.49,-379.812 967.514,-386.125"/>
</g>
<!-- SalesRights -->
<g id="node9" class="node"><title>SalesRights</title>
<polygon fill="none" stroke="black" points="1194.22,-314.5 1194.22,-386.5 1296.93,-386.5 1296.93,-314.5 1194.22,-314.5"/>
<text text-anchor="start" x="1202.22" y="-376.1" font-family="Bitstream Vera Sans" font-size="8.00">Onix::V3_0::SalesRights</text>
<polyline fill="none" stroke="black" points="1194.22,-370.5 1296.93,-370.5 "/>
<text text-anchor="start" x="1202.22" y="-360.1" font-family="Bitstream Vera Sans" font-size="8.00">sales_rights_type</text>
<text text-anchor="start" x="1202.22" y="-352.1" font-family="Bitstream Vera Sans" font-size="8.00">publisher_name</text>
<polyline fill="none" stroke="black" points="1194.22,-346.5 1296.93,-346.5 "/>
<text text-anchor="start" x="1202.22" y="-336.1" font-family="Bitstream Vera Sans" font-size="8.00">territory</text>
<text text-anchor="start" x="1202.22" y="-328.1" font-family="Bitstream Vera Sans" font-size="8.00">sales_restrictions[]</text>
<text text-anchor="start" x="1202.22" y="-320.1" font-family="Bitstream Vera Sans" font-size="8.00">product_identifiers[]</text>
</g>
<!-- PublishingDetail&#45;&gt;SalesRights -->
<g id="edge8" class="edge"><title>PublishingDetail&#45;&gt;SalesRights</title>
<path fill="none" stroke="black" d="M799.305,-478.89C881.068,-462.074 1033.38,-428.378 1159.58,-387 1167.83,-384.294 1176.41,-381.159 1184.81,-377.895"/>
<polygon fill="black" stroke="black" points="1186.2,-381.111 1194.2,-374.169 1183.62,-374.604 1186.2,-381.111"/>
</g>
<!-- SalesRestriction -->
<g id="node10" class="node"><title>SalesRestriction</title>
<polygon fill="none" stroke="black" points="1097.67,-205 1097.67,-277 1215.49,-277 1215.49,-205 1097.67,-205"/>
<text text-anchor="start" x="1105.67" y="-266.6" font-family="Bitstream Vera Sans" font-size="8.00">Onix::V3_0::SalesRestriction</text>
<polyline fill="none" stroke="black" points="1097.67,-261 1215.49,-261 "/>
<text text-anchor="start" x="1105.67" y="-250.6" font-family="Bitstream Vera Sans" font-size="8.00">sales_restriction_type</text>
<text text-anchor="start" x="1105.67" y="-242.6" font-family="Bitstream Vera Sans" font-size="8.00">start_date</text>
<text text-anchor="start" x="1105.67" y="-234.6" font-family="Bitstream Vera Sans" font-size="8.00">end_date</text>
<polyline fill="none" stroke="black" points="1097.67,-229 1215.49,-229 "/>
<text text-anchor="start" x="1105.67" y="-218.6" font-family="Bitstream Vera Sans" font-size="8.00">sales_outlets[]</text>
<text text-anchor="start" x="1105.67" y="-210.6" font-family="Bitstream Vera Sans" font-size="8.00">sales_restriction_notes[]</text>
</g>
<!-- PublishingDetail&#45;&gt;SalesRestriction -->
<g id="edge9" class="edge"><title>PublishingDetail&#45;&gt;SalesRestriction</title>
<path fill="none" stroke="black" d="M799.471,-489.808C879.064,-485.704 1020.75,-466.734 1105.58,-387 1133.21,-361.026 1145.88,-319.203 1151.69,-287.133"/>
<polygon fill="black" stroke="black" points="1155.17,-287.532 1153.34,-277.096 1148.26,-286.394 1155.17,-287.532"/>
</g>
<!-- ImprintIdentifier -->
<g id="node11" class="node"><title>ImprintIdentifier</title>
<polygon fill="none" stroke="black" points="0,-208.5 0,-273.5 115.156,-273.5 115.156,-208.5 0,-208.5"/>
<text text-anchor="start" x="8" y="-263.1" font-family="Bitstream Vera Sans" font-size="8.00">Onix::V3_0::ImprintIdentifier</text>
<polyline fill="none" stroke="black" points="0,-257.5 115.156,-257.5 "/>
<text text-anchor="start" x="8" y="-247.1" font-family="Bitstream Vera Sans" font-size="8.00">imprint_id_type</text>
<text text-anchor="start" x="8" y="-239.1" font-family="Bitstream Vera Sans" font-size="8.00">id_type_name</text>
<text text-anchor="start" x="8" y="-231.1" font-family="Bitstream Vera Sans" font-size="8.00">id_value</text>
<polyline fill="none" stroke="black" points="0,-225.5 115.156,-225.5 "/>
</g>
<!-- Imprint&#45;&gt;ImprintIdentifier -->
<g id="edge10" class="edge"><title>Imprint&#45;&gt;ImprintIdentifier</title>
<path fill="none" stroke="black" d="M107.063,-326.439C99.5778,-313.666 90.0549,-297.417 81.3662,-282.591"/>
<polygon fill="black" stroke="black" points="84.1656,-280.445 76.0897,-273.587 78.1262,-283.984 84.1656,-280.445"/>
</g>
<!-- PublisherIdentifier -->
<g id="node12" class="node"><title>PublisherIdentifier</title>
<polygon fill="none" stroke="black" points="133.549,-208.5 133.549,-273.5 257.607,-273.5 257.607,-208.5 133.549,-208.5"/>
<text text-anchor="start" x="141.549" y="-263.1" font-family="Bitstream Vera Sans" font-size="8.00">Onix::V3_0::PublisherIdentifier</text>
<polyline fill="none" stroke="black" points="133.549,-257.5 257.607,-257.5 "/>
<text text-anchor="start" x="141.549" y="-247.1" font-family="Bitstream Vera Sans" font-size="8.00">publisher_id_type</text>
<text text-anchor="start" x="141.549" y="-239.1" font-family="Bitstream Vera Sans" font-size="8.00">id_type_name</text>
<text text-anchor="start" x="141.549" y="-231.1" font-family="Bitstream Vera Sans" font-size="8.00">id_value</text>
<polyline fill="none" stroke="black" points="133.549,-225.5 257.607,-225.5 "/>
</g>
<!-- Publisher&#45;&gt;PublisherIdentifier -->
<g id="edge11" class="edge"><title>Publisher&#45;&gt;PublisherIdentifier</title>
<path fill="none" stroke="black" d="M274.268,-314.3C262.569,-303.551 249.641,-291.674 237.704,-280.705"/>
<polygon fill="black" stroke="black" points="239.756,-277.838 230.025,-273.649 235.02,-282.993 239.756,-277.838"/>
</g>
<!-- Funding -->
<g id="node13" class="node"><title>Funding</title>
<polygon fill="none" stroke="black" points="275.111,-216.5 275.111,-265.5 364.045,-265.5 364.045,-216.5 275.111,-216.5"/>
<text text-anchor="start" x="283.111" y="-255.1" font-family="Bitstream Vera Sans" font-size="8.00">Onix::V3_0::Funding</text>
<polyline fill="none" stroke="black" points="275.111,-249.5 364.045,-249.5 "/>
<polyline fill="none" stroke="black" points="275.111,-232.5 364.045,-232.5 "/>
<text text-anchor="start" x="283.111" y="-222.1" font-family="Bitstream Vera Sans" font-size="8.00">funding_identifiers[]</text>
</g>
<!-- Publisher&#45;&gt;Funding -->
<g id="edge12" class="edge"><title>Publisher&#45;&gt;Funding</title>
<path fill="none" stroke="black" d="M314.87,-314.3C315.672,-301.987 316.57,-288.193 317.365,-275.98"/>
<polygon fill="black" stroke="black" points="320.875,-275.939 318.033,-265.733 313.89,-275.484 320.875,-275.939"/>
</g>
<!-- Website -->
<g id="node14" class="node"><title>Website</title>
<polygon fill="none" stroke="black" points="396.225,-213 396.225,-269 490.932,-269 490.932,-213 396.225,-213"/>
<text text-anchor="start" x="404.225" y="-258.6" font-family="Bitstream Vera Sans" font-size="8.00">Onix::V3_0::Website</text>
<polyline fill="none" stroke="black" points="396.225,-253 490.932,-253 "/>
<text text-anchor="start" x="404.225" y="-242.6" font-family="Bitstream Vera Sans" font-size="8.00">website_role</text>
<text text-anchor="start" x="404.225" y="-234.6" font-family="Bitstream Vera Sans" font-size="8.00">website_link</text>
<polyline fill="none" stroke="black" points="396.225,-229 490.932,-229 "/>
<text text-anchor="start" x="404.225" y="-218.6" font-family="Bitstream Vera Sans" font-size="8.00">website_descriptions[]</text>
</g>
<!-- Publisher&#45;&gt;Website -->
<g id="edge13" class="edge"><title>Publisher&#45;&gt;Website</title>
<path fill="none" stroke="black" d="M355.472,-314.3C370.583,-301.901 387.523,-288 402.481,-275.724"/>
<polygon fill="black" stroke="black" points="405.053,-278.141 410.564,-269.092 400.613,-272.73 405.053,-278.141"/>
</g>
<!-- ProductContactIdentifier -->
<g id="node17" class="node"><title>ProductContactIdentifier</title>
<polygon fill="none" stroke="black" points="515.654,-208.5 515.654,-273.5 661.502,-273.5 661.502,-208.5 515.654,-208.5"/>
<text text-anchor="start" x="523.654" y="-263.1" font-family="Bitstream Vera Sans" font-size="8.00">Onix::V3_0::ProductContactIdentifier</text>
<polyline fill="none" stroke="black" points="515.654,-257.5 661.502,-257.5 "/>
<text text-anchor="start" x="523.654" y="-247.1" font-family="Bitstream Vera Sans" font-size="8.00">product_contact_id_type</text>
<text text-anchor="start" x="523.654" y="-239.1" font-family="Bitstream Vera Sans" font-size="8.00">id_type_name</text>
<text text-anchor="start" x="523.654" y="-231.1" font-family="Bitstream Vera Sans" font-size="8.00">id_value</text>
<polyline fill="none" stroke="black" points="515.654,-225.5 661.502,-225.5 "/>
</g>
<!-- ProductContact&#45;&gt;ProductContactIdentifier -->
<g id="edge16" class="edge"><title>ProductContact&#45;&gt;ProductContactIdentifier</title>
<path fill="none" stroke="black" d="M588.578,-314.3C588.578,-304.575 588.578,-293.926 588.578,-283.862"/>
<polygon fill="black" stroke="black" points="592.078,-283.649 588.578,-273.649 585.078,-283.649 592.078,-283.649"/>
</g>
<!-- CopyrightYear -->
<g id="node18" class="node"><title>CopyrightYear</title>
<ellipse fill="none" stroke="black" cx="881.578" cy="-241" rx="61.77" ry="18"/>
<text text-anchor="middle" x="881.578" y="-238.6" font-family="Bitstream Vera Sans" font-size="8.00">Onix::V3_0::CopyrightYear</text>
</g>
<!-- CopyrightStatement&#45;&gt;CopyrightYear -->
<g id="edge17" class="edge"><title>CopyrightStatement&#45;&gt;CopyrightYear</title>
<path fill="none" stroke="black" d="M993.727,-322.373C968.528,-304.314 935.844,-280.891 912.268,-263.994"/>
<polygon fill="black" stroke="black" points="914.192,-261.067 904.025,-258.087 910.114,-266.757 914.192,-261.067"/>
</g>
<!-- CopyrightOwner -->
<g id="node19" class="node"><title>CopyrightOwner</title>
<polygon fill="none" stroke="black" points="961.662,-213 961.662,-269 1079.49,-269 1079.49,-213 961.662,-213"/>
<text text-anchor="start" x="969.662" y="-258.6" font-family="Bitstream Vera Sans" font-size="8.00">Onix::V3_0::CopyrightOwner</text>
<polyline fill="none" stroke="black" points="961.662,-253 1079.49,-253 "/>
<text text-anchor="start" x="969.662" y="-242.6" font-family="Bitstream Vera Sans" font-size="8.00">person_name</text>
<text text-anchor="start" x="969.662" y="-234.6" font-family="Bitstream Vera Sans" font-size="8.00">corporate_name</text>
<polyline fill="none" stroke="black" points="961.662,-229 1079.49,-229 "/>
<text text-anchor="start" x="969.662" y="-218.6" font-family="Bitstream Vera Sans" font-size="8.00">copyright_owner_identifiers[]</text>
</g>
<!-- CopyrightStatement&#45;&gt;CopyrightOwner -->
<g id="edge18" class="edge"><title>CopyrightStatement&#45;&gt;CopyrightOwner</title>
<path fill="none" stroke="black" d="M1028.8,-322.373C1027.46,-309.26 1025.83,-293.318 1024.37,-279.101"/>
<polygon fill="black" stroke="black" points="1027.85,-278.71 1023.35,-269.118 1020.89,-279.422 1027.85,-278.71"/>
</g>
<!-- SalesRights&#45;&gt;SalesRestriction -->
<g id="edge21" class="edge"><title>SalesRights&#45;&gt;SalesRestriction</title>
<path fill="none" stroke="black" d="M1216.44,-314.3C1208.75,-305.02 1200.37,-294.898 1192.38,-285.247"/>
<polygon fill="black" stroke="black" points="1194.86,-282.749 1185.79,-277.279 1189.47,-287.213 1194.86,-282.749"/>
</g>
<!-- Territory -->
<g id="node21" class="node"><title>Territory</title>
<polygon fill="none" stroke="black" points="1233.12,-204.5 1233.12,-277.5 1322.04,-277.5 1322.04,-204.5 1233.12,-204.5"/>
<text text-anchor="start" x="1241.12" y="-267.1" font-family="Bitstream Vera Sans" font-size="8.00">Onix::V3_0::Territory</text>
<polyline fill="none" stroke="black" points="1233.12,-261.5 1322.04,-261.5 "/>
<text text-anchor="start" x="1241.12" y="-251.1" font-family="Bitstream Vera Sans" font-size="8.00">countries_included</text>
<text text-anchor="start" x="1241.12" y="-243.1" font-family="Bitstream Vera Sans" font-size="8.00">regions_included</text>
<text text-anchor="start" x="1241.12" y="-235.1" font-family="Bitstream Vera Sans" font-size="8.00">regions_excluded</text>
<text text-anchor="start" x="1241.12" y="-227.1" font-family="Bitstream Vera Sans" font-size="8.00">countries_excluded</text>
<polyline fill="none" stroke="black" points="1233.12,-221.5 1322.04,-221.5 "/>
</g>
<!-- SalesRights&#45;&gt;Territory -->
<g id="edge20" class="edge"><title>SalesRights&#45;&gt;Territory</title>
<path fill="none" stroke="black" d="M1256.06,-314.3C1259.56,-302.544 1263.46,-289.437 1266.97,-277.647"/>
</g>
<!-- ProductIdentifier -->
<g id="node22" class="node"><title>ProductIdentifier</title>
<polygon fill="none" stroke="black" points="1340.44,-208.5 1340.44,-273.5 1458.72,-273.5 1458.72,-208.5 1340.44,-208.5"/>
<text text-anchor="start" x="1348.44" y="-263.1" font-family="Bitstream Vera Sans" font-size="8.00">Onix::V3_0::ProductIdentifier</text>
<polyline fill="none" stroke="black" points="1340.44,-257.5 1458.72,-257.5 "/>
<text text-anchor="start" x="1348.44" y="-247.1" font-family="Bitstream Vera Sans" font-size="8.00">product_id_type</text>
<text text-anchor="start" x="1348.44" y="-239.1" font-family="Bitstream Vera Sans" font-size="8.00">id_type_name</text>
<text text-anchor="start" x="1348.44" y="-231.1" font-family="Bitstream Vera Sans" font-size="8.00">id_value</text>
<polyline fill="none" stroke="black" points="1340.44,-225.5 1458.72,-225.5 "/>
</g>
<!-- SalesRights&#45;&gt;ProductIdentifier -->
<g id="edge22" class="edge"><title>SalesRights&#45;&gt;ProductIdentifier</title>
<path fill="none" stroke="black" d="M1296,-314.3C1311.99,-303.142 1329.72,-290.767 1345.92,-279.456"/>
<polygon fill="black" stroke="black" points="1348.04,-282.243 1354.24,-273.649 1344.04,-276.503 1348.04,-282.243"/>
</g>
<!-- SalesOutlet -->
<g id="node23" class="node"><title>SalesOutlet</title>
<polygon fill="none" stroke="black" points="1105.66,-111 1105.66,-159 1207.49,-159 1207.49,-111 1105.66,-111"/>
<text text-anchor="start" x="1113.66" y="-148.6" font-family="Bitstream Vera Sans" font-size="8.00">Onix::V3_0::SalesOutlet</text>
<polyline fill="none" stroke="black" points="1105.66,-143 1207.49,-143 "/>
<text text-anchor="start" x="1113.66" y="-132.6" font-family="Bitstream Vera Sans" font-size="8.00">sales_outlet_name</text>
<polyline fill="none" stroke="black" points="1105.66,-127 1207.49,-127 "/>
<text text-anchor="start" x="1113.66" y="-116.6" font-family="Bitstream Vera Sans" font-size="8.00">sales_outlet_identifiers[]</text>
</g>
<!-- SalesRestriction&#45;&gt;SalesOutlet -->
<g id="edge23" class="edge"><title>SalesRestriction&#45;&gt;SalesOutlet</title>
<path fill="none" stroke="black" d="M1156.58,-204.79C1156.58,-193.358 1156.58,-180.713 1156.58,-169.416"/>
<polygon fill="black" stroke="black" points="1160.08,-169.081 1156.58,-159.081 1153.08,-169.081 1160.08,-169.081"/>
</g>
<!-- SalesRestrictionNote -->
<g id="node24" class="node"><title>SalesRestrictionNote</title>
<ellipse fill="none" stroke="black" cx="1300.58" cy="-135" rx="75.3931" ry="18"/>
<text text-anchor="middle" x="1300.58" y="-132.6" font-family="Bitstream Vera Sans" font-size="8.00">Onix::V3_0::SalesRestrictionNote</text>
</g>
<!-- SalesRestriction&#45;&gt;SalesRestrictionNote -->
<g id="edge24" class="edge"><title>SalesRestriction&#45;&gt;SalesRestrictionNote</title>
<path fill="none" stroke="black" d="M1205.33,-204.79C1226.7,-189.358 1251.13,-171.715 1269.89,-158.16"/>
<polygon fill="black" stroke="black" points="1272.03,-160.935 1278.09,-152.243 1267.93,-155.26 1272.03,-160.935"/>
</g>
<!-- FundingIdentifier -->
<g id="node15" class="node"><title>FundingIdentifier</title>
<polygon fill="none" stroke="black" points="246.77,-102.5 246.77,-167.5 366.387,-167.5 366.387,-102.5 246.77,-102.5"/>
<text text-anchor="start" x="254.77" y="-157.1" font-family="Bitstream Vera Sans" font-size="8.00">Onix::V3_0::FundingIdentifier</text>
<polyline fill="none" stroke="black" points="246.77,-151.5 366.387,-151.5 "/>
<text text-anchor="start" x="254.77" y="-141.1" font-family="Bitstream Vera Sans" font-size="8.00">funding_id_type</text>
<text text-anchor="start" x="254.77" y="-133.1" font-family="Bitstream Vera Sans" font-size="8.00">id_type_name</text>
<text text-anchor="start" x="254.77" y="-125.1" font-family="Bitstream Vera Sans" font-size="8.00">id_value</text>
<polyline fill="none" stroke="black" points="246.77,-119.5 366.387,-119.5 "/>
</g>
<!-- Funding&#45;&gt;FundingIdentifier -->
<g id="edge14" class="edge"><title>Funding&#45;&gt;FundingIdentifier</title>
<path fill="none" stroke="black" d="M316.628,-216.401C315.21,-205.051 313.465,-191.098 311.831,-178.02"/>
<polygon fill="black" stroke="black" points="315.265,-177.275 310.551,-167.786 308.319,-178.143 315.265,-177.275"/>
</g>
<!-- WebsiteDescription -->
<g id="node16" class="node"><title>WebsiteDescription</title>
<ellipse fill="none" stroke="black" cx="456.578" cy="-135" rx="71.7777" ry="18"/>
<text text-anchor="middle" x="456.578" y="-132.6" font-family="Bitstream Vera Sans" font-size="8.00">Onix::V3_0::WebsiteDescription</text>
</g>
<!-- Website&#45;&gt;WebsiteDescription -->
<g id="edge15" class="edge"><title>Website&#45;&gt;WebsiteDescription</title>
<path fill="none" stroke="black" d="M446.96,-212.947C448.879,-197.592 451.274,-178.434 453.194,-163.076"/>
<polygon fill="black" stroke="black" points="456.668,-163.5 454.435,-153.143 449.722,-162.632 456.668,-163.5"/>
</g>
<!-- CopyrightOwnerIdentifier -->
<g id="node20" class="node"><title>CopyrightOwnerIdentifier</title>
<polygon fill="none" stroke="black" points="939.324,-102.5 939.324,-167.5 1087.83,-167.5 1087.83,-102.5 939.324,-102.5"/>
<text text-anchor="start" x="947.324" y="-157.1" font-family="Bitstream Vera Sans" font-size="8.00">Onix::V3_0::CopyrightOwnerIdentifier</text>
<polyline fill="none" stroke="black" points="939.324,-151.5 1087.83,-151.5 "/>
<text text-anchor="start" x="947.324" y="-141.1" font-family="Bitstream Vera Sans" font-size="8.00">copyright_owner_id_type</text>
<text text-anchor="start" x="947.324" y="-133.1" font-family="Bitstream Vera Sans" font-size="8.00">id_type_name</text>
<text text-anchor="start" x="947.324" y="-125.1" font-family="Bitstream Vera Sans" font-size="8.00">id_value</text>
<polyline fill="none" stroke="black" points="939.324,-119.5 1087.83,-119.5 "/>
</g>
<!-- CopyrightOwner&#45;&gt;CopyrightOwnerIdentifier -->
<g id="edge19" class="edge"><title>CopyrightOwner&#45;&gt;CopyrightOwnerIdentifier</title>
<path fill="none" stroke="black" d="M1018.76,-212.947C1018.04,-202.24 1017.19,-189.685 1016.4,-177.858"/>
<polygon fill="black" stroke="black" points="1019.88,-177.459 1015.71,-167.717 1012.89,-177.929 1019.88,-177.459"/>
</g>
<!-- SalesOutletIdentifier -->
<g id="node25" class="node"><title>SalesOutletIdentifier</title>
<polygon fill="none" stroke="black" points="1090.55,-0.5 1090.55,-65.5 1222.61,-65.5 1222.61,-0.5 1090.55,-0.5"/>
<text text-anchor="start" x="1098.55" y="-55.1" font-family="Bitstream Vera Sans" font-size="8.00">Onix::V3_0::SalesOutletIdentifier</text>
<polyline fill="none" stroke="black" points="1090.55,-49.5 1222.61,-49.5 "/>
<text text-anchor="start" x="1098.55" y="-39.1" font-family="Bitstream Vera Sans" font-size="8.00">sales_outlet_id_type</text>
<text text-anchor="start" x="1098.55" y="-31.1" font-family="Bitstream Vera Sans" font-size="8.00">id_type_name</text>
<text text-anchor="start" x="1098.55" y="-23.1" font-family="Bitstream Vera Sans" font-size="8.00">id_value</text>
<polyline fill="none" stroke="black" points="1090.55,-17.5 1222.61,-17.5 "/>
</g>
<!-- SalesOutlet&#45;&gt;SalesOutletIdentifier -->
<g id="edge25" class="edge"><title>SalesOutlet&#45;&gt;SalesOutletIdentifier</title>
<path fill="none" stroke="black" d="M1156.58,-110.807C1156.58,-100.454 1156.58,-87.9235 1156.58,-76.0139"/>
<polygon fill="black" stroke="black" points="1160.08,-75.778 1156.58,-65.778 1153.08,-75.7781 1160.08,-75.778"/>
</g>
</g>
</svg>
