<?xml version="1.0" encoding="UTF-8" standalone="no"?>
<!DOCTYPE svg PUBLIC "-//W3C//DTD SVG 1.1//EN"
 "http://www.w3.org/Graphics/SVG/1.1/DTD/svg11.dtd">
<!-- Generated by graphviz version 2.38.0 (20140413.2041)
 -->
<!-- Title: G Pages: 1 -->
<svg width="406pt" height="285pt"
 viewBox="0.00 0.00 405.92 285.00" xmlns="http://www.w3.org/2000/svg" xmlns:xlink="http://www.w3.org/1999/xlink">
<g id="graph0" class="graph" transform="scale(1 1) rotate(0) translate(4 281)">
<title>G</title>
<polygon fill="white" stroke="none" points="-4,4 -4,-281 401.918,-281 401.918,4 -4,4"/>
<!-- Publisher -->
<g id="node1" class="node"><title>Publisher</title>
<polygon fill="none" stroke="black" points="139.342,-204.5 139.342,-276.5 232.717,-276.5 232.717,-204.5 139.342,-204.5"/>
<text text-anchor="start" x="147.342" y="-266.1" font-family="Bitstream Vera Sans" font-size="8.00">Onix::V3_0::Publisher</text>
<polyline fill="none" stroke="black" points="139.342,-260.5 232.717,-260.5 "/>
<text text-anchor="start" x="147.342" y="-250.1" font-family="Bitstream Vera Sans" font-size="8.00">publishing_role</text>
<text text-anchor="start" x="147.342" y="-242.1" font-family="Bitstream Vera Sans" font-size="8.00">publisher_name</text>
<polyline fill="none" stroke="black" points="139.342,-236.5 232.717,-236.5 "/>
<text text-anchor="start" x="147.342" y="-226.1" font-family="Bitstream Vera Sans" font-size="8.00">publisher_identifiers[]</text>
<text text-anchor="start" x="147.342" y="-218.1" font-family="Bitstream Vera Sans" font-size="8.00">fundings[]</text>
<text text-anchor="start" x="147.342" y="-210.1" font-family="Bitstream Vera Sans" font-size="8.00">websites[]</text>
</g>
<!-- PublisherIdentifier -->
<g id="node2" class="node"><title>PublisherIdentifier</title>
<polygon fill="none" stroke="black" points="0,-102.5 0,-167.5 124.059,-167.5 124.059,-102.5 0,-102.5"/>
<text text-anchor="start" x="8" y="-157.1" font-family="Bitstream Vera Sans" font-size="8.00">Onix::V3_0::PublisherIdentifier</text>
<polyline fill="none" stroke="black" points="0,-151.5 124.059,-151.5 "/>
<text text-anchor="start" x="8" y="-141.1" font-family="Bitstream Vera Sans" font-size="8.00">publisher_id_type</text>
<text text-anchor="start" x="8" y="-133.1" font-family="Bitstream Vera Sans" font-size="8.00">id_type_name</text>
<text text-anchor="start" x="8" y="-125.1" font-family="Bitstream Vera Sans" font-size="8.00">id_value</text>
<polyline fill="none" stroke="black" points="0,-119.5 124.059,-119.5 "/>
</g>
<!-- Publisher&#45;&gt;PublisherIdentifier -->
<g id="edge1" class="edge"><title>Publisher&#45;&gt;PublisherIdentifier</title>
<path fill="none" stroke="black" d="M144.049,-204.46C132.291,-194.646 119.457,-183.934 107.507,-173.959"/>
<polygon fill="black" stroke="black" points="109.722,-171.249 99.8017,-167.528 105.236,-176.623 109.722,-171.249"/>
</g>
<!-- Funding -->
<g id="node3" class="node"><title>Funding</title>
<polygon fill="none" stroke="black" points="141.562,-110.5 141.562,-159.5 230.496,-159.5 230.496,-110.5 141.562,-110.5"/>
<text text-anchor="start" x="149.562" y="-149.1" font-family="Bitstream Vera Sans" font-size="8.00">Onix::V3_0::Funding</text>
<polyline fill="none" stroke="black" points="141.562,-143.5 230.496,-143.5 "/>
<polyline fill="none" stroke="black" points="141.562,-126.5 230.496,-126.5 "/>
<text text-anchor="start" x="149.562" y="-116.1" font-family="Bitstream Vera Sans" font-size="8.00">funding_identifiers[]</text>
</g>
<!-- Publisher&#45;&gt;Funding -->
<g id="edge2" class="edge"><title>Publisher&#45;&gt;Funding</title>
<path fill="none" stroke="black" d="M186.029,-204.46C186.029,-193.26 186.029,-180.891 186.029,-169.783"/>
<polygon fill="black" stroke="black" points="189.529,-169.599 186.029,-159.599 182.529,-169.599 189.529,-169.599"/>
</g>
<!-- Website -->
<g id="node4" class="node"><title>Website</title>
<polygon fill="none" stroke="black" points="268.676,-107 268.676,-163 363.383,-163 363.383,-107 268.676,-107"/>
<text text-anchor="start" x="276.676" y="-152.6" font-family="Bitstream Vera Sans" font-size="8.00">Onix::V3_0::Website</text>
<polyline fill="none" stroke="black" points="268.676,-147 363.383,-147 "/>
<text text-anchor="start" x="276.676" y="-136.6" font-family="Bitstream Vera Sans" font-size="8.00">website_role</text>
<text text-anchor="start" x="276.676" y="-128.6" font-family="Bitstream Vera Sans" font-size="8.00">website_link</text>
<polyline fill="none" stroke="black" points="268.676,-123 363.383,-123 "/>
<text text-anchor="start" x="276.676" y="-112.6" font-family="Bitstream Vera Sans" font-size="8.00">website_descriptions[]</text>
</g>
<!-- Publisher&#45;&gt;Website -->
<g id="edge3" class="edge"><title>Publisher&#45;&gt;Website</title>
<path fill="none" stroke="black" d="M230.041,-204.46C244.204,-193.184 259.855,-180.723 273.88,-169.557"/>
<polygon fill="black" stroke="black" points="276.283,-172.118 281.926,-163.151 271.923,-166.642 276.283,-172.118"/>
</g>
<!-- FundingIdentifier -->
<g id="node5" class="node"><title>FundingIdentifier</title>
<polygon fill="none" stroke="black" points="116.221,-0.5 116.221,-65.5 235.838,-65.5 235.838,-0.5 116.221,-0.5"/>
<text text-anchor="start" x="124.221" y="-55.1" font-family="Bitstream Vera Sans" font-size="8.00">Onix::V3_0::FundingIdentifier</text>
<polyline fill="none" stroke="black" points="116.221,-49.5 235.838,-49.5 "/>
<text text-anchor="start" x="124.221" y="-39.1" font-family="Bitstream Vera Sans" font-size="8.00">funding_id_type</text>
<text text-anchor="start" x="124.221" y="-31.1" font-family="Bitstream Vera Sans" font-size="8.00">id_type_name</text>
<text text-anchor="start" x="124.221" y="-23.1" font-family="Bitstream Vera Sans" font-size="8.00">id_value</text>
<polyline fill="none" stroke="black" points="116.221,-17.5 235.838,-17.5 "/>
</g>
<!-- Funding&#45;&gt;FundingIdentifier -->
<g id="edge4" class="edge"><title>Funding&#45;&gt;FundingIdentifier</title>
<path fill="none" stroke="black" d="M183.659,-110.301C182.632,-100.027 181.397,-87.6814 180.224,-75.944"/>
<polygon fill="black" stroke="black" points="183.692,-75.4553 179.215,-65.8532 176.727,-76.1519 183.692,-75.4553"/>
</g>
<!-- WebsiteDescription -->
<g id="node6" class="node"><title>WebsiteDescription</title>
<ellipse fill="none" stroke="black" cx="326.029" cy="-33" rx="71.7777" ry="18"/>
<text text-anchor="middle" x="326.029" y="-30.6" font-family="Bitstream Vera Sans" font-size="8.00">Onix::V3_0::WebsiteDescription</text>
</g>
<!-- Website&#45;&gt;WebsiteDescription -->
<g id="edge5" class="edge"><title>Website&#45;&gt;WebsiteDescription</title>
<path fill="none" stroke="black" d="M318.735,-106.939C320.155,-92.7418 321.89,-75.3951 323.311,-61.1808"/>
<polygon fill="black" stroke="black" points="326.814,-61.3243 324.327,-51.0256 319.849,-60.6277 326.814,-61.3243"/>
</g>
</g>
</svg>
