<?xml version="1.0" encoding="UTF-8" standalone="no"?>
<!DOCTYPE svg PUBLIC "-//W3C//DTD SVG 1.1//EN"
 "http://www.w3.org/Graphics/SVG/1.1/DTD/svg11.dtd">
<!-- Generated by graphviz version 2.38.0 (20140413.2041)
 -->
<!-- Title: G Pages: 1 -->
<svg width="2552pt" height="649pt"
 viewBox="0.00 0.00 2551.70 649.00" xmlns="http://www.w3.org/2000/svg" xmlns:xlink="http://www.w3.org/1999/xlink">
<g id="graph0" class="graph" transform="scale(1 1) rotate(0) translate(4 645)">
<title>G</title>
<polygon fill="white" stroke="none" points="-4,4 -4,-645 2547.7,-645 2547.7,4 -4,4"/>
<!-- Reissue -->
<g id="node1" class="node"><title>Reissue</title>
<polygon fill="none" stroke="black" points="1536.54,-576.5 1536.54,-640.5 1633.92,-640.5 1633.92,-576.5 1536.54,-576.5"/>
<text text-anchor="start" x="1544.54" y="-630.1" font-family="Bitstream Vera Sans" font-size="8.00">Onix::V3_0::Reissue</text>
<polyline fill="none" stroke="black" points="1536.54,-624.5 1633.92,-624.5 "/>
<text text-anchor="start" x="1544.54" y="-614.1" font-family="Bitstream Vera Sans" font-size="8.00">reissue_date</text>
<text text-anchor="start" x="1544.54" y="-606.1" font-family="Bitstream Vera Sans" font-size="8.00">reissue_description</text>
<polyline fill="none" stroke="black" points="1536.54,-600.5 1633.92,-600.5 "/>
<text text-anchor="start" x="1544.54" y="-590.1" font-family="Bitstream Vera Sans" font-size="8.00">prices[]</text>
<text text-anchor="start" x="1544.54" y="-582.1" font-family="Bitstream Vera Sans" font-size="8.00">supporting_resources[]</text>
</g>
<!-- Price -->
<g id="node2" class="node"><title>Price</title>
<polygon fill="none" stroke="black" points="1082.87,-299.5 1082.87,-539.5 1201.59,-539.5 1201.59,-299.5 1082.87,-299.5"/>
<text text-anchor="start" x="1090.87" y="-529.1" font-family="Bitstream Vera Sans" font-size="8.00">Onix::V3_0::Price</text>
<polyline fill="none" stroke="black" points="1082.87,-523.5 1201.59,-523.5 "/>
<text text-anchor="start" x="1090.87" y="-513.1" font-family="Bitstream Vera Sans" font-size="8.00">price_type</text>
<text text-anchor="start" x="1090.87" y="-505.1" font-family="Bitstream Vera Sans" font-size="8.00">price_qualifier</text>
<text text-anchor="start" x="1090.87" y="-497.1" font-family="Bitstream Vera Sans" font-size="8.00">price_per</text>
<text text-anchor="start" x="1090.87" y="-489.1" font-family="Bitstream Vera Sans" font-size="8.00">minimum_order_quantity</text>
<text text-anchor="start" x="1090.87" y="-481.1" font-family="Bitstream Vera Sans" font-size="8.00">price_status</text>
<text text-anchor="start" x="1090.87" y="-473.1" font-family="Bitstream Vera Sans" font-size="8.00">price_amount</text>
<text text-anchor="start" x="1090.87" y="-465.1" font-family="Bitstream Vera Sans" font-size="8.00">tax_exempt</text>
<text text-anchor="start" x="1090.87" y="-457.1" font-family="Bitstream Vera Sans" font-size="8.00">unpriced_item_type</text>
<text text-anchor="start" x="1090.87" y="-449.1" font-family="Bitstream Vera Sans" font-size="8.00">currency_code</text>
<text text-anchor="start" x="1090.87" y="-441.1" font-family="Bitstream Vera Sans" font-size="8.00">currency_zone</text>
<text text-anchor="start" x="1090.87" y="-433.1" font-family="Bitstream Vera Sans" font-size="8.00">printed_on_product</text>
<text text-anchor="start" x="1090.87" y="-425.1" font-family="Bitstream Vera Sans" font-size="8.00">position_on_product</text>
<polyline fill="none" stroke="black" points="1082.87,-419.5 1201.59,-419.5 "/>
<text text-anchor="start" x="1090.87" y="-409.1" font-family="Bitstream Vera Sans" font-size="8.00">epub_license</text>
<text text-anchor="start" x="1090.87" y="-401.1" font-family="Bitstream Vera Sans" font-size="8.00">price_coded</text>
<text text-anchor="start" x="1090.87" y="-393.1" font-family="Bitstream Vera Sans" font-size="8.00">territory</text>
<text text-anchor="start" x="1090.87" y="-385.1" font-family="Bitstream Vera Sans" font-size="8.00">price_identifiers[]</text>
<text text-anchor="start" x="1090.87" y="-377.1" font-family="Bitstream Vera Sans" font-size="8.00">epub_technical_protections[]</text>
<text text-anchor="start" x="1090.87" y="-369.1" font-family="Bitstream Vera Sans" font-size="8.00">price_constraints[]</text>
<text text-anchor="start" x="1090.87" y="-361.1" font-family="Bitstream Vera Sans" font-size="8.00">price_type_descriptions[]</text>
<text text-anchor="start" x="1090.87" y="-353.1" font-family="Bitstream Vera Sans" font-size="8.00">price_conditions[]</text>
<text text-anchor="start" x="1090.87" y="-345.1" font-family="Bitstream Vera Sans" font-size="8.00">batch_bonus[]</text>
<text text-anchor="start" x="1090.87" y="-337.1" font-family="Bitstream Vera Sans" font-size="8.00">discount_codeds[]</text>
<text text-anchor="start" x="1090.87" y="-329.1" font-family="Bitstream Vera Sans" font-size="8.00">discounts[]</text>
<text text-anchor="start" x="1090.87" y="-321.1" font-family="Bitstream Vera Sans" font-size="8.00">taxes[]</text>
<text text-anchor="start" x="1090.87" y="-313.1" font-family="Bitstream Vera Sans" font-size="8.00">comparison_product_prices[]</text>
<text text-anchor="start" x="1090.87" y="-305.1" font-family="Bitstream Vera Sans" font-size="8.00">price_dates[]</text>
</g>
<!-- Reissue&#45;&gt;Price -->
<g id="edge1" class="edge"><title>Reissue&#45;&gt;Price</title>
<path fill="none" stroke="black" d="M1536.13,-586.773C1457.04,-553.388 1301.21,-487.609 1211.07,-449.558"/>
<polygon fill="black" stroke="black" points="1212.33,-446.289 1201.75,-445.625 1209.6,-452.738 1212.33,-446.289"/>
</g>
<!-- SupportingResource -->
<g id="node3" class="node"><title>SupportingResource</title>
<polygon fill="none" stroke="black" points="1962.75,-379.5 1962.75,-459.5 2095.71,-459.5 2095.71,-379.5 1962.75,-379.5"/>
<text text-anchor="start" x="1970.75" y="-449.1" font-family="Bitstream Vera Sans" font-size="8.00">Onix::V3_0::SupportingResource</text>
<polyline fill="none" stroke="black" points="1962.75,-443.5 2095.71,-443.5 "/>
<text text-anchor="start" x="1970.75" y="-433.1" font-family="Bitstream Vera Sans" font-size="8.00">resource_content_type</text>
<text text-anchor="start" x="1970.75" y="-425.1" font-family="Bitstream Vera Sans" font-size="8.00">resource_mode</text>
<polyline fill="none" stroke="black" points="1962.75,-419.5 2095.71,-419.5 "/>
<text text-anchor="start" x="1970.75" y="-409.1" font-family="Bitstream Vera Sans" font-size="8.00">territory</text>
<text text-anchor="start" x="1970.75" y="-401.1" font-family="Bitstream Vera Sans" font-size="8.00">content_audiences[]</text>
<text text-anchor="start" x="1970.75" y="-393.1" font-family="Bitstream Vera Sans" font-size="8.00">resource_features[]</text>
<text text-anchor="start" x="1970.75" y="-385.1" font-family="Bitstream Vera Sans" font-size="8.00">resource_versions[]</text>
</g>
<!-- Reissue&#45;&gt;SupportingResource -->
<g id="edge2" class="edge"><title>Reissue&#45;&gt;SupportingResource</title>
<path fill="none" stroke="black" d="M1634.02,-586.953C1711.15,-554.468 1861.85,-490.995 1953.24,-452.505"/>
<polygon fill="black" stroke="black" points="1954.86,-455.622 1962.72,-448.515 1952.14,-449.171 1954.86,-455.622"/>
</g>
<!-- EpubLicense -->
<g id="node4" class="node"><title>EpubLicense</title>
<polygon fill="none" stroke="black" points="95.8673,-190 95.8673,-247 210.598,-247 210.598,-190 95.8673,-190"/>
<text text-anchor="start" x="103.867" y="-236.6" font-family="Bitstream Vera Sans" font-size="8.00">Onix::V3_0::EpubLicense</text>
<polyline fill="none" stroke="black" points="95.8673,-231 210.598,-231 "/>
<polyline fill="none" stroke="black" points="95.8673,-214 210.598,-214 "/>
<text text-anchor="start" x="103.867" y="-203.6" font-family="Bitstream Vera Sans" font-size="8.00">epub_license_names[]</text>
<text text-anchor="start" x="103.867" y="-195.6" font-family="Bitstream Vera Sans" font-size="8.00">epub_license_expressions[]</text>
</g>
<!-- Price&#45;&gt;EpubLicense -->
<g id="edge3" class="edge"><title>Price&#45;&gt;EpubLicense</title>
<path fill="none" stroke="black" d="M1082.75,-416.924C932.645,-411.179 528.476,-384.663 219.233,-263 209.016,-258.981 198.74,-253.225 189.438,-247.212"/>
</g>
<!-- PriceCoded -->
<g id="node5" class="node"><title>PriceCoded</title>
<polygon fill="none" stroke="black" points="228.32,-186 228.32,-251 330.145,-251 330.145,-186 228.32,-186"/>
<text text-anchor="start" x="236.32" y="-240.6" font-family="Bitstream Vera Sans" font-size="8.00">Onix::V3_0::PriceCoded</text>
<polyline fill="none" stroke="black" points="228.32,-235 330.145,-235 "/>
<text text-anchor="start" x="236.32" y="-224.6" font-family="Bitstream Vera Sans" font-size="8.00">price_code_type</text>
<text text-anchor="start" x="236.32" y="-216.6" font-family="Bitstream Vera Sans" font-size="8.00">price_code_type_name</text>
<text text-anchor="start" x="236.32" y="-208.6" font-family="Bitstream Vera Sans" font-size="8.00">price_code</text>
<polyline fill="none" stroke="black" points="228.32,-203 330.145,-203 "/>
</g>
<!-- Price&#45;&gt;PriceCoded -->
<g id="edge4" class="edge"><title>Price&#45;&gt;PriceCoded</title>
<path fill="none" stroke="black" d="M1082.71,-415.75C945.91,-407.59 600.751,-376.445 339.233,-263 331.914,-259.825 324.622,-255.637 317.771,-251.112"/>
</g>
<!-- Territory -->
<g id="node6" class="node"><title>Territory</title>
<polygon fill="none" stroke="black" points="1854.78,-182 1854.78,-255 1943.69,-255 1943.69,-182 1854.78,-182"/>
<text text-anchor="start" x="1862.78" y="-244.6" font-family="Bitstream Vera Sans" font-size="8.00">Onix::V3_0::Territory</text>
<polyline fill="none" stroke="black" points="1854.78,-239 1943.69,-239 "/>
<text text-anchor="start" x="1862.78" y="-228.6" font-family="Bitstream Vera Sans" font-size="8.00">countries_included</text>
<text text-anchor="start" x="1862.78" y="-220.6" font-family="Bitstream Vera Sans" font-size="8.00">regions_included</text>
<text text-anchor="start" x="1862.78" y="-212.6" font-family="Bitstream Vera Sans" font-size="8.00">regions_excluded</text>
<text text-anchor="start" x="1862.78" y="-204.6" font-family="Bitstream Vera Sans" font-size="8.00">countries_excluded</text>
<polyline fill="none" stroke="black" points="1854.78,-199 1943.69,-199 "/>
</g>
<!-- Price&#45;&gt;Territory -->
<g id="edge5" class="edge"><title>Price&#45;&gt;Territory</title>
<path fill="none" stroke="black" d="M1201.84,-414.702C1327.11,-404.76 1624.45,-370.771 1846.23,-263 1850.84,-260.763 1855.39,-258.05 1859.78,-255.084"/>
</g>
<!-- PriceIdentifier -->
<g id="node7" class="node"><title>PriceIdentifier</title>
<polygon fill="none" stroke="black" points="347.766,-186 347.766,-251 456.699,-251 456.699,-186 347.766,-186"/>
<text text-anchor="start" x="355.766" y="-240.6" font-family="Bitstream Vera Sans" font-size="8.00">Onix::V3_0::PriceIdentifier</text>
<polyline fill="none" stroke="black" points="347.766,-235 456.699,-235 "/>
<text text-anchor="start" x="355.766" y="-224.6" font-family="Bitstream Vera Sans" font-size="8.00">price_id_type</text>
<text text-anchor="start" x="355.766" y="-216.6" font-family="Bitstream Vera Sans" font-size="8.00">id_type_name</text>
<text text-anchor="start" x="355.766" y="-208.6" font-family="Bitstream Vera Sans" font-size="8.00">id_value</text>
<polyline fill="none" stroke="black" points="347.766,-203 456.699,-203 "/>
</g>
<!-- Price&#45;&gt;PriceIdentifier -->
<g id="edge6" class="edge"><title>Price&#45;&gt;PriceIdentifier</title>
<path fill="none" stroke="black" d="M1082.82,-412.479C962.03,-398.62 680.98,-358.066 465.233,-263 460.827,-261.059 456.407,-258.796 452.065,-256.342"/>
<polygon fill="black" stroke="black" points="453.667,-253.221 443.292,-251.077 450.065,-259.224 453.667,-253.221"/>
</g>
<!-- EpubTechnicalProtection -->
<g id="node8" class="node"><title>EpubTechnicalProtection</title>
<ellipse fill="none" stroke="black" cx="557.233" cy="-218.5" rx="82.8018" ry="18"/>
<text text-anchor="middle" x="557.233" y="-216.1" font-family="Bitstream Vera Sans" font-size="8.00">Onix::V3_0::EpubTechnicalProtection</text>
</g>
<!-- Price&#45;&gt;EpubTechnicalProtection -->
<g id="edge7" class="edge"><title>Price&#45;&gt;EpubTechnicalProtection</title>
<path fill="none" stroke="black" d="M1082.52,-402.506C988.87,-376.793 802.349,-323.024 649.233,-263 631.77,-256.154 612.969,-247.505 596.942,-239.726"/>
<polygon fill="black" stroke="black" points="598.377,-236.532 587.858,-235.267 595.293,-242.815 598.377,-236.532"/>
</g>
<!-- PriceConstraint -->
<g id="node9" class="node"><title>PriceConstraint</title>
<polygon fill="none" stroke="black" points="657.877,-190.5 657.877,-246.5 772.588,-246.5 772.588,-190.5 657.877,-190.5"/>
<text text-anchor="start" x="665.877" y="-236.1" font-family="Bitstream Vera Sans" font-size="8.00">Onix::V3_0::PriceConstraint</text>
<polyline fill="none" stroke="black" points="657.877,-230.5 772.588,-230.5 "/>
<text text-anchor="start" x="665.877" y="-220.1" font-family="Bitstream Vera Sans" font-size="8.00">price_constraint_type</text>
<text text-anchor="start" x="665.877" y="-212.1" font-family="Bitstream Vera Sans" font-size="8.00">price_constraint_status</text>
<polyline fill="none" stroke="black" points="657.877,-206.5 772.588,-206.5 "/>
<text text-anchor="start" x="665.877" y="-196.1" font-family="Bitstream Vera Sans" font-size="8.00">price_constraint_limits[]</text>
</g>
<!-- Price&#45;&gt;PriceConstraint -->
<g id="edge8" class="edge"><title>Price&#45;&gt;PriceConstraint</title>
<path fill="none" stroke="black" d="M1082.59,-396.536C1009.76,-368.877 883.632,-318.243 781.233,-263 775.146,-259.717 768.899,-256.04 762.79,-252.253"/>
<polygon fill="black" stroke="black" points="764.291,-249.061 753.973,-246.658 760.541,-254.971 764.291,-249.061"/>
</g>
<!-- PriceTypeDescription -->
<g id="node10" class="node"><title>PriceTypeDescription</title>
<ellipse fill="none" stroke="black" cx="866.233" cy="-218.5" rx="75.8873" ry="18"/>
<text text-anchor="middle" x="866.233" y="-216.1" font-family="Bitstream Vera Sans" font-size="8.00">Onix::V3_0::PriceTypeDescription</text>
</g>
<!-- Price&#45;&gt;PriceTypeDescription -->
<g id="edge9" class="edge"><title>Price&#45;&gt;PriceTypeDescription</title>
<path fill="none" stroke="black" d="M1082.68,-375.565C1025.67,-334.453 941.889,-274.05 897.123,-241.773"/>
<polygon fill="black" stroke="black" points="899.13,-238.905 888.971,-235.895 895.036,-244.583 899.13,-238.905"/>
</g>
<!-- PriceCondition -->
<g id="node11" class="node"><title>PriceCondition</title>
<polygon fill="none" stroke="black" points="959.756,-190.5 959.756,-246.5 1072.71,-246.5 1072.71,-190.5 959.756,-190.5"/>
<text text-anchor="start" x="967.756" y="-236.1" font-family="Bitstream Vera Sans" font-size="8.00">Onix::V3_0::PriceCondition</text>
<polyline fill="none" stroke="black" points="959.756,-230.5 1072.71,-230.5 "/>
<text text-anchor="start" x="967.756" y="-220.1" font-family="Bitstream Vera Sans" font-size="8.00">price_condition_type</text>
<polyline fill="none" stroke="black" points="959.756,-214.5 1072.71,-214.5 "/>
<text text-anchor="start" x="967.756" y="-204.1" font-family="Bitstream Vera Sans" font-size="8.00">price_condition_quantities[]</text>
<text text-anchor="start" x="967.756" y="-196.1" font-family="Bitstream Vera Sans" font-size="8.00">product_identifiers[]</text>
</g>
<!-- Price&#45;&gt;PriceCondition -->
<g id="edge10" class="edge"><title>Price&#45;&gt;PriceCondition</title>
<path fill="none" stroke="black" d="M1082.74,-324.536C1067.16,-299.926 1051.29,-274.863 1038.96,-255.394"/>
<polygon fill="black" stroke="black" points="1041.87,-253.441 1033.56,-246.864 1035.95,-257.185 1041.87,-253.441"/>
</g>
<!-- BatchBonus -->
<g id="node12" class="node"><title>BatchBonus</title>
<polygon fill="none" stroke="black" points="1090.65,-190 1090.65,-247 1193.81,-247 1193.81,-190 1090.65,-190"/>
<text text-anchor="start" x="1098.65" y="-236.6" font-family="Bitstream Vera Sans" font-size="8.00">Onix::V3_0::BatchBonus</text>
<polyline fill="none" stroke="black" points="1090.65,-231 1193.81,-231 "/>
<text text-anchor="start" x="1098.65" y="-220.6" font-family="Bitstream Vera Sans" font-size="8.00">batch_quantity</text>
<text text-anchor="start" x="1098.65" y="-212.6" font-family="Bitstream Vera Sans" font-size="8.00">free_quantity</text>
<polyline fill="none" stroke="black" points="1090.65,-207 1193.81,-207 "/>
</g>
<!-- Price&#45;&gt;BatchBonus -->
<g id="edge11" class="edge"><title>Price&#45;&gt;BatchBonus</title>
<path fill="none" stroke="black" d="M1142.23,-299.294C1142.23,-284.185 1142.23,-269.707 1142.23,-257.331"/>
<polygon fill="black" stroke="black" points="1145.73,-257.033 1142.23,-247.033 1138.73,-257.033 1145.73,-257.033"/>
</g>
<!-- DiscountCoded -->
<g id="node13" class="node"><title>DiscountCoded</title>
<polygon fill="none" stroke="black" points="1211.87,-186 1211.87,-251 1326.59,-251 1326.59,-186 1211.87,-186"/>
<text text-anchor="start" x="1219.87" y="-240.6" font-family="Bitstream Vera Sans" font-size="8.00">Onix::V3_0::DiscountCoded</text>
<polyline fill="none" stroke="black" points="1211.87,-235 1326.59,-235 "/>
<text text-anchor="start" x="1219.87" y="-224.6" font-family="Bitstream Vera Sans" font-size="8.00">discount_code_type</text>
<text text-anchor="start" x="1219.87" y="-216.6" font-family="Bitstream Vera Sans" font-size="8.00">discount_code_type_name</text>
<text text-anchor="start" x="1219.87" y="-208.6" font-family="Bitstream Vera Sans" font-size="8.00">discount_code</text>
<polyline fill="none" stroke="black" points="1211.87,-203 1326.59,-203 "/>
</g>
<!-- Price&#45;&gt;DiscountCoded -->
<g id="edge12" class="edge"><title>Price&#45;&gt;DiscountCoded</title>
<path fill="none" stroke="black" d="M1201.64,-325.409C1216.36,-302.355 1231.36,-278.84 1243.49,-259.843"/>
<polygon fill="black" stroke="black" points="1246.59,-261.489 1249.02,-251.176 1240.69,-257.723 1246.59,-261.489"/>
</g>
<!-- Discount -->
<g id="node14" class="node"><title>Discount</title>
<polygon fill="none" stroke="black" points="1344.66,-178 1344.66,-259 1435.81,-259 1435.81,-178 1344.66,-178"/>
<text text-anchor="start" x="1352.66" y="-248.6" font-family="Bitstream Vera Sans" font-size="8.00">Onix::V3_0::Discount</text>
<polyline fill="none" stroke="black" points="1344.66,-243 1435.81,-243 "/>
<text text-anchor="start" x="1352.66" y="-232.6" font-family="Bitstream Vera Sans" font-size="8.00">discount_type</text>
<text text-anchor="start" x="1352.66" y="-224.6" font-family="Bitstream Vera Sans" font-size="8.00">quantity</text>
<text text-anchor="start" x="1352.66" y="-216.6" font-family="Bitstream Vera Sans" font-size="8.00">to_quantity</text>
<text text-anchor="start" x="1352.66" y="-208.6" font-family="Bitstream Vera Sans" font-size="8.00">discount_percent</text>
<text text-anchor="start" x="1352.66" y="-200.6" font-family="Bitstream Vera Sans" font-size="8.00">discount_amount</text>
<polyline fill="none" stroke="black" points="1344.66,-195 1435.81,-195 "/>
</g>
<!-- Price&#45;&gt;Discount -->
<g id="edge13" class="edge"><title>Price&#45;&gt;Discount</title>
<path fill="none" stroke="black" d="M1201.63,-370.835C1242.57,-337.986 1296.54,-294.679 1336.26,-262.812"/>
<polygon fill="black" stroke="black" points="1338.89,-265.182 1344.5,-256.193 1334.51,-259.722 1338.89,-265.182"/>
</g>
<!-- Tax -->
<g id="node15" class="node"><title>Tax</title>
<polygon fill="none" stroke="black" points="1620.65,-174.5 1620.65,-262.5 1723.81,-262.5 1723.81,-174.5 1620.65,-174.5"/>
<text text-anchor="start" x="1628.65" y="-252.1" font-family="Bitstream Vera Sans" font-size="8.00">Onix::V3_0::Tax</text>
<polyline fill="none" stroke="black" points="1620.65,-246.5 1723.81,-246.5 "/>
<text text-anchor="start" x="1628.65" y="-236.1" font-family="Bitstream Vera Sans" font-size="8.00">tax_type</text>
<text text-anchor="start" x="1628.65" y="-228.1" font-family="Bitstream Vera Sans" font-size="8.00">tax_rate_code</text>
<text text-anchor="start" x="1628.65" y="-220.1" font-family="Bitstream Vera Sans" font-size="8.00">tax_rate_percent</text>
<text text-anchor="start" x="1628.65" y="-212.1" font-family="Bitstream Vera Sans" font-size="8.00">taxable_amount</text>
<text text-anchor="start" x="1628.65" y="-204.1" font-family="Bitstream Vera Sans" font-size="8.00">tax_amount</text>
<polyline fill="none" stroke="black" points="1620.65,-198.5 1723.81,-198.5 "/>
<text text-anchor="start" x="1628.65" y="-188.1" font-family="Bitstream Vera Sans" font-size="8.00">product_identifiers[]</text>
<text text-anchor="start" x="1628.65" y="-180.1" font-family="Bitstream Vera Sans" font-size="8.00">price_part_descriptions[]</text>
</g>
<!-- Price&#45;&gt;Tax -->
<g id="edge14" class="edge"><title>Price&#45;&gt;Tax</title>
<path fill="none" stroke="black" d="M1201.87,-404.841C1293.22,-382.591 1471.83,-333.777 1611.23,-263 1611.43,-262.901 1611.62,-262.801 1611.82,-262.7"/>
<polygon fill="black" stroke="black" points="1613.58,-265.728 1620.64,-257.834 1610.2,-259.599 1613.58,-265.728"/>
</g>
<!-- ComparisonProductPrice -->
<g id="node16" class="node"><title>ComparisonProductPrice</title>
<polygon fill="none" stroke="black" points="1453.76,-186.5 1453.76,-250.5 1602.71,-250.5 1602.71,-186.5 1453.76,-186.5"/>
<text text-anchor="start" x="1461.76" y="-240.1" font-family="Bitstream Vera Sans" font-size="8.00">Onix::V3_0::ComparisonProductPrice</text>
<polyline fill="none" stroke="black" points="1453.76,-234.5 1602.71,-234.5 "/>
<text text-anchor="start" x="1461.76" y="-224.1" font-family="Bitstream Vera Sans" font-size="8.00">price_type</text>
<text text-anchor="start" x="1461.76" y="-216.1" font-family="Bitstream Vera Sans" font-size="8.00">price_amount</text>
<text text-anchor="start" x="1461.76" y="-208.1" font-family="Bitstream Vera Sans" font-size="8.00">currency_code</text>
<polyline fill="none" stroke="black" points="1453.76,-202.5 1602.71,-202.5 "/>
<text text-anchor="start" x="1461.76" y="-192.1" font-family="Bitstream Vera Sans" font-size="8.00">product_identifiers[]</text>
</g>
<!-- Price&#45;&gt;ComparisonProductPrice -->
<g id="edge15" class="edge"><title>Price&#45;&gt;ComparisonProductPrice</title>
<path fill="none" stroke="black" d="M1201.82,-388.112C1262.97,-356.876 1360.86,-306.76 1445.23,-263 1450.02,-260.519 1454.95,-257.952 1459.92,-255.362"/>
<polygon fill="black" stroke="black" points="1461.63,-258.42 1468.87,-250.69 1458.39,-252.214 1461.63,-258.42"/>
</g>
<!-- PriceDate -->
<g id="node17" class="node"><title>PriceDate</title>
<polygon fill="none" stroke="black" points="1741.66,-186 1741.66,-251 1836.81,-251 1836.81,-186 1741.66,-186"/>
<text text-anchor="start" x="1749.66" y="-240.6" font-family="Bitstream Vera Sans" font-size="8.00">Onix::V3_0::PriceDate</text>
<polyline fill="none" stroke="black" points="1741.66,-235 1836.81,-235 "/>
<text text-anchor="start" x="1749.66" y="-224.6" font-family="Bitstream Vera Sans" font-size="8.00">price_date_role</text>
<text text-anchor="start" x="1749.66" y="-216.6" font-family="Bitstream Vera Sans" font-size="8.00">date_format</text>
<text text-anchor="start" x="1749.66" y="-208.6" font-family="Bitstream Vera Sans" font-size="8.00">date</text>
<polyline fill="none" stroke="black" points="1741.66,-203 1836.81,-203 "/>
</g>
<!-- Price&#45;&gt;PriceDate -->
<g id="edge16" class="edge"><title>Price&#45;&gt;PriceDate</title>
<path fill="none" stroke="black" d="M1201.62,-410.937C1311.36,-395.25 1551.31,-352.873 1733.23,-263 1736.96,-261.16 1740.67,-259.049 1744.32,-256.77"/>
<polygon fill="black" stroke="black" points="1746.29,-259.662 1752.66,-251.198 1742.4,-253.84 1746.29,-259.662"/>
</g>
<!-- SupportingResource&#45;&gt;Territory -->
<g id="edge25" class="edge"><title>SupportingResource&#45;&gt;Territory</title>
<path fill="none" stroke="black" d="M2003.55,-379.184C1979.94,-343.051 1945.26,-289.955 1922.46,-255.061"/>
</g>
<!-- ContentAudience -->
<g id="node24" class="node"><title>ContentAudience</title>
<ellipse fill="none" stroke="black" cx="2029.23" cy="-218.5" rx="67.5238" ry="18"/>
<text text-anchor="middle" x="2029.23" y="-216.1" font-family="Bitstream Vera Sans" font-size="8.00">Onix::V3_0::ContentAudience</text>
</g>
<!-- SupportingResource&#45;&gt;ContentAudience -->
<g id="edge26" class="edge"><title>SupportingResource&#45;&gt;ContentAudience</title>
<path fill="none" stroke="black" d="M2029.23,-379.184C2029.23,-340.14 2029.23,-281.292 2029.23,-247.002"/>
<polygon fill="black" stroke="black" points="2032.73,-246.787 2029.23,-236.787 2025.73,-246.787 2032.73,-246.787"/>
</g>
<!-- ResourceFeature -->
<g id="node25" class="node"><title>ResourceFeature</title>
<polygon fill="none" stroke="black" points="1993.32,-77 1993.32,-133 2115.15,-133 2115.15,-77 1993.32,-77"/>
<text text-anchor="start" x="2001.32" y="-122.6" font-family="Bitstream Vera Sans" font-size="8.00">Onix::V3_0::ResourceFeature</text>
<polyline fill="none" stroke="black" points="1993.32,-117 2115.15,-117 "/>
<text text-anchor="start" x="2001.32" y="-106.6" font-family="Bitstream Vera Sans" font-size="8.00">resource_feature_type</text>
<text text-anchor="start" x="2001.32" y="-98.6" font-family="Bitstream Vera Sans" font-size="8.00">feature_value</text>
<polyline fill="none" stroke="black" points="1993.32,-93 2115.15,-93 "/>
<text text-anchor="start" x="2001.32" y="-82.6" font-family="Bitstream Vera Sans" font-size="8.00">feature_notes[]</text>
</g>
<!-- SupportingResource&#45;&gt;ResourceFeature -->
<g id="edge27" class="edge"><title>SupportingResource&#45;&gt;ResourceFeature</title>
<path fill="none" stroke="black" d="M2055.07,-379.19C2073.38,-348.855 2096.38,-305.092 2106.23,-263 2115.25,-224.485 2118.92,-211.467 2106.23,-174 2102.29,-162.342 2095.45,-151.111 2088.01,-141.251"/>
<polygon fill="black" stroke="black" points="2090.64,-138.939 2081.67,-133.311 2085.17,-143.308 2090.64,-138.939"/>
</g>
<!-- ResourceVersion -->
<g id="node26" class="node"><title>ResourceVersion</title>
<polygon fill="none" stroke="black" points="2223.76,-186.5 2223.76,-250.5 2344.71,-250.5 2344.71,-186.5 2223.76,-186.5"/>
<text text-anchor="start" x="2231.76" y="-240.1" font-family="Bitstream Vera Sans" font-size="8.00">Onix::V3_0::ResourceVersion</text>
<polyline fill="none" stroke="black" points="2223.76,-234.5 2344.71,-234.5 "/>
<text text-anchor="start" x="2231.76" y="-224.1" font-family="Bitstream Vera Sans" font-size="8.00">resource_form</text>
<polyline fill="none" stroke="black" points="2223.76,-218.5 2344.71,-218.5 "/>
<text text-anchor="start" x="2231.76" y="-208.1" font-family="Bitstream Vera Sans" font-size="8.00">resource_version_features[]</text>
<text text-anchor="start" x="2231.76" y="-200.1" font-family="Bitstream Vera Sans" font-size="8.00">resource_links[]</text>
<text text-anchor="start" x="2231.76" y="-192.1" font-family="Bitstream Vera Sans" font-size="8.00">content_dates[]</text>
</g>
<!-- SupportingResource&#45;&gt;ResourceVersion -->
<g id="edge28" class="edge"><title>SupportingResource&#45;&gt;ResourceVersion</title>
<path fill="none" stroke="black" d="M2079.31,-379.421C2124.78,-343.937 2191.39,-291.953 2236.21,-256.977"/>
<polygon fill="black" stroke="black" points="2238.58,-259.563 2244.31,-250.651 2234.28,-254.044 2238.58,-259.563"/>
</g>
<!-- EpubLicenseName -->
<g id="node18" class="node"><title>EpubLicenseName</title>
<ellipse fill="none" stroke="black" cx="71.2325" cy="-105" rx="71.4658" ry="18"/>
<text text-anchor="middle" x="71.2325" y="-102.6" font-family="Bitstream Vera Sans" font-size="8.00">Onix::V3_0::EpubLicenseName</text>
</g>
<!-- EpubLicense&#45;&gt;EpubLicenseName -->
<g id="edge17" class="edge"><title>EpubLicense&#45;&gt;EpubLicenseName</title>
<path fill="none" stroke="black" d="M132.963,-189.938C119.676,-171.871 102.447,-148.444 89.5687,-130.933"/>
<polygon fill="black" stroke="black" points="92.3765,-128.843 83.6323,-122.861 86.7373,-132.99 92.3765,-128.843"/>
</g>
<!-- EpubLicenseExpression -->
<g id="node19" class="node"><title>EpubLicenseExpression</title>
<polygon fill="none" stroke="black" points="160.074,-72.5 160.074,-137.5 310.391,-137.5 310.391,-72.5 160.074,-72.5"/>
<text text-anchor="start" x="168.074" y="-127.1" font-family="Bitstream Vera Sans" font-size="8.00">Onix::V3_0::EpubLicenseExpression</text>
<polyline fill="none" stroke="black" points="160.074,-121.5 310.391,-121.5 "/>
<text text-anchor="start" x="168.074" y="-111.1" font-family="Bitstream Vera Sans" font-size="8.00">epub_license_expression_type</text>
<text text-anchor="start" x="168.074" y="-103.1" font-family="Bitstream Vera Sans" font-size="8.00">epub_license_expression_type_name</text>
<text text-anchor="start" x="168.074" y="-95.1" font-family="Bitstream Vera Sans" font-size="8.00">epub_license_expression_link</text>
<polyline fill="none" stroke="black" points="160.074,-89.5 310.391,-89.5 "/>
</g>
<!-- EpubLicense&#45;&gt;EpubLicenseExpression -->
<g id="edge18" class="edge"><title>EpubLicense&#45;&gt;EpubLicenseExpression</title>
<path fill="none" stroke="black" d="M173.502,-189.938C183.255,-176.677 195.132,-160.527 205.853,-145.949"/>
<polygon fill="black" stroke="black" points="208.902,-147.711 212.007,-137.581 203.263,-143.563 208.902,-147.711"/>
</g>
<!-- PriceConstraintLimit -->
<g id="node20" class="node"><title>PriceConstraintLimit</title>
<polygon fill="none" stroke="black" points="649.432,-76.5 649.432,-133.5 781.033,-133.5 781.033,-76.5 649.432,-76.5"/>
<text text-anchor="start" x="657.432" y="-123.1" font-family="Bitstream Vera Sans" font-size="8.00">Onix::V3_0::PriceConstraintLimit</text>
<polyline fill="none" stroke="black" points="649.432,-117.5 781.033,-117.5 "/>
<text text-anchor="start" x="657.432" y="-107.1" font-family="Bitstream Vera Sans" font-size="8.00">quantity</text>
<text text-anchor="start" x="657.432" y="-99.1" font-family="Bitstream Vera Sans" font-size="8.00">price_constraint_unit</text>
<polyline fill="none" stroke="black" points="649.432,-93.5 781.033,-93.5 "/>
</g>
<!-- PriceConstraint&#45;&gt;PriceConstraintLimit -->
<g id="edge19" class="edge"><title>PriceConstraint&#45;&gt;PriceConstraintLimit</title>
<path fill="none" stroke="black" d="M715.233,-190.224C715.233,-176.29 715.233,-159.112 715.233,-143.912"/>
<polygon fill="black" stroke="black" points="718.733,-143.769 715.233,-133.769 711.733,-143.769 718.733,-143.769"/>
</g>
<!-- PriceConditionQuantity -->
<g id="node21" class="node"><title>PriceConditionQuantity</title>
<polygon fill="none" stroke="black" points="945.311,-72.5 945.311,-137.5 1087.15,-137.5 1087.15,-72.5 945.311,-72.5"/>
<text text-anchor="start" x="953.311" y="-127.1" font-family="Bitstream Vera Sans" font-size="8.00">Onix::V3_0::PriceConditionQuantity</text>
<polyline fill="none" stroke="black" points="945.311,-121.5 1087.15,-121.5 "/>
<text text-anchor="start" x="953.311" y="-111.1" font-family="Bitstream Vera Sans" font-size="8.00">price_condition_quantity_type</text>
<text text-anchor="start" x="953.311" y="-103.1" font-family="Bitstream Vera Sans" font-size="8.00">quantity</text>
<text text-anchor="start" x="953.311" y="-95.1" font-family="Bitstream Vera Sans" font-size="8.00">quantity_unit</text>
<polyline fill="none" stroke="black" points="945.311,-89.5 1087.15,-89.5 "/>
</g>
<!-- PriceCondition&#45;&gt;PriceConditionQuantity -->
<g id="edge20" class="edge"><title>PriceCondition&#45;&gt;PriceConditionQuantity</title>
<path fill="none" stroke="black" d="M1016.23,-190.224C1016.23,-177.462 1016.23,-161.978 1016.23,-147.785"/>
<polygon fill="black" stroke="black" points="1019.73,-147.736 1016.23,-137.736 1012.73,-147.736 1019.73,-147.736"/>
</g>
<!-- ProductIdentifier -->
<g id="node22" class="node"><title>ProductIdentifier</title>
<polygon fill="none" stroke="black" points="1465.09,-72.5 1465.09,-137.5 1583.37,-137.5 1583.37,-72.5 1465.09,-72.5"/>
<text text-anchor="start" x="1473.09" y="-127.1" font-family="Bitstream Vera Sans" font-size="8.00">Onix::V3_0::ProductIdentifier</text>
<polyline fill="none" stroke="black" points="1465.09,-121.5 1583.37,-121.5 "/>
<text text-anchor="start" x="1473.09" y="-111.1" font-family="Bitstream Vera Sans" font-size="8.00">product_id_type</text>
<text text-anchor="start" x="1473.09" y="-103.1" font-family="Bitstream Vera Sans" font-size="8.00">id_type_name</text>
<text text-anchor="start" x="1473.09" y="-95.1" font-family="Bitstream Vera Sans" font-size="8.00">id_value</text>
<polyline fill="none" stroke="black" points="1465.09,-89.5 1583.37,-89.5 "/>
</g>
<!-- PriceCondition&#45;&gt;ProductIdentifier -->
<g id="edge21" class="edge"><title>PriceCondition&#45;&gt;ProductIdentifier</title>
<path fill="none" stroke="black" d="M1050.78,-190.351C1060.2,-184.096 1070.73,-178.086 1081.23,-174 1206.92,-125.101 1365.48,-111.245 1454.78,-107.396"/>
<polygon fill="black" stroke="black" points="1454.94,-110.892 1464.8,-106.994 1454.66,-103.898 1454.94,-110.892"/>
</g>
<!-- Tax&#45;&gt;ProductIdentifier -->
<g id="edge22" class="edge"><title>Tax&#45;&gt;ProductIdentifier</title>
<path fill="none" stroke="black" d="M1620.47,-178.503C1605.56,-167.269 1589.32,-155.036 1574.5,-143.872"/>
<polygon fill="black" stroke="black" points="1576.53,-141.015 1566.43,-137.793 1572.31,-146.606 1576.53,-141.015"/>
</g>
<!-- PricePartDescription -->
<g id="node23" class="node"><title>PricePartDescription</title>
<ellipse fill="none" stroke="black" cx="1675.23" cy="-105" rx="74.4003" ry="18"/>
<text text-anchor="middle" x="1675.23" y="-102.6" font-family="Bitstream Vera Sans" font-size="8.00">Onix::V3_0::PricePartDescription</text>
</g>
<!-- Tax&#45;&gt;PricePartDescription -->
<g id="edge23" class="edge"><title>Tax&#45;&gt;PricePartDescription</title>
<path fill="none" stroke="black" d="M1673.39,-174.391C1673.76,-160.551 1674.17,-145.614 1674.5,-133.24"/>
<polygon fill="black" stroke="black" points="1678,-133.209 1674.77,-123.119 1671,-133.021 1678,-133.209"/>
</g>
<!-- ComparisonProductPrice&#45;&gt;ProductIdentifier -->
<g id="edge24" class="edge"><title>ComparisonProductPrice&#45;&gt;ProductIdentifier</title>
<path fill="none" stroke="black" d="M1527.12,-186.441C1526.69,-174.442 1526.19,-160.53 1525.73,-147.684"/>
<polygon fill="black" stroke="black" points="1529.22,-147.535 1525.37,-137.667 1522.23,-147.786 1529.22,-147.535"/>
</g>
<!-- FeatureNote -->
<g id="node27" class="node"><title>FeatureNote</title>
<ellipse fill="none" stroke="black" cx="2130.23" cy="-18" rx="58.1465" ry="18"/>
<text text-anchor="middle" x="2130.23" y="-15.6" font-family="Bitstream Vera Sans" font-size="8.00">Onix::V3_0::FeatureNote</text>
</g>
<!-- ResourceFeature&#45;&gt;FeatureNote -->
<g id="edge29" class="edge"><title>ResourceFeature&#45;&gt;FeatureNote</title>
<path fill="none" stroke="black" d="M2078.7,-76.6376C2088.31,-65.8863 2099.25,-53.6484 2108.57,-43.223"/>
<polygon fill="black" stroke="black" points="2111.28,-45.4462 2115.34,-35.6586 2106.06,-40.7804 2111.28,-45.4462"/>
</g>
<!-- ResourceVersionFeature -->
<g id="node28" class="node"><title>ResourceVersionFeature</title>
<polygon fill="none" stroke="black" points="2132.97,-77 2132.97,-133 2281.49,-133 2281.49,-77 2132.97,-77"/>
<text text-anchor="start" x="2140.97" y="-122.6" font-family="Bitstream Vera Sans" font-size="8.00">Onix::V3_0::ResourceVersionFeature</text>
<polyline fill="none" stroke="black" points="2132.97,-117 2281.49,-117 "/>
<text text-anchor="start" x="2140.97" y="-106.6" font-family="Bitstream Vera Sans" font-size="8.00">resource_version_feature_type</text>
<text text-anchor="start" x="2140.97" y="-98.6" font-family="Bitstream Vera Sans" font-size="8.00">feature_value</text>
<polyline fill="none" stroke="black" points="2132.97,-93 2281.49,-93 "/>
<text text-anchor="start" x="2140.97" y="-82.6" font-family="Bitstream Vera Sans" font-size="8.00">feature_notes[]</text>
</g>
<!-- ResourceVersion&#45;&gt;ResourceVersionFeature -->
<g id="edge30" class="edge"><title>ResourceVersion&#45;&gt;ResourceVersionFeature</title>
<path fill="none" stroke="black" d="M2262.78,-186.441C2253.11,-172.436 2241.64,-155.826 2231.64,-141.346"/>
<polygon fill="black" stroke="black" points="2234.51,-139.342 2225.95,-133.102 2228.75,-143.32 2234.51,-139.342"/>
</g>
<!-- ResourceLink -->
<g id="node29" class="node"><title>ResourceLink</title>
<ellipse fill="none" stroke="black" cx="2360.23" cy="-105" rx="60.6089" ry="18"/>
<text text-anchor="middle" x="2360.23" y="-102.6" font-family="Bitstream Vera Sans" font-size="8.00">Onix::V3_0::ResourceLink</text>
</g>
<!-- ResourceVersion&#45;&gt;ResourceLink -->
<g id="edge31" class="edge"><title>ResourceVersion&#45;&gt;ResourceLink</title>
<path fill="none" stroke="black" d="M2305.4,-186.441C2317.26,-169.043 2331.86,-147.624 2343.01,-131.264"/>
<polygon fill="black" stroke="black" points="2346.07,-132.987 2348.81,-122.753 2340.29,-129.045 2346.07,-132.987"/>
</g>
<!-- ContentDate -->
<g id="node30" class="node"><title>ContentDate</title>
<polygon fill="none" stroke="black" points="2438.76,-72.5 2438.76,-137.5 2543.7,-137.5 2543.7,-72.5 2438.76,-72.5"/>
<text text-anchor="start" x="2446.76" y="-127.1" font-family="Bitstream Vera Sans" font-size="8.00">Onix::V3_0::ContentDate</text>
<polyline fill="none" stroke="black" points="2438.76,-121.5 2543.7,-121.5 "/>
<text text-anchor="start" x="2446.76" y="-111.1" font-family="Bitstream Vera Sans" font-size="8.00">content_date_role</text>
<text text-anchor="start" x="2446.76" y="-103.1" font-family="Bitstream Vera Sans" font-size="8.00">date_format</text>
<text text-anchor="start" x="2446.76" y="-95.1" font-family="Bitstream Vera Sans" font-size="8.00">date</text>
<polyline fill="none" stroke="black" points="2438.76,-89.5 2543.7,-89.5 "/>
</g>
<!-- ResourceVersion&#45;&gt;ContentDate -->
<g id="edge32" class="edge"><title>ResourceVersion&#45;&gt;ContentDate</title>
<path fill="none" stroke="black" d="M2341.89,-186.441C2369.2,-171.73 2401.85,-154.146 2429.64,-139.174"/>
<polygon fill="black" stroke="black" points="2431.34,-142.236 2438.49,-134.412 2428.02,-136.073 2431.34,-142.236"/>
</g>
<!-- ResourceVersionFeature&#45;&gt;FeatureNote -->
<g id="edge33" class="edge"><title>ResourceVersionFeature&#45;&gt;FeatureNote</title>
<path fill="none" stroke="black" d="M2182.45,-76.6376C2172.64,-65.809 2161.46,-53.4722 2151.97,-42.9983"/>
<polygon fill="black" stroke="black" points="2154.4,-40.4692 2145.1,-35.4077 2149.22,-45.1688 2154.4,-40.4692"/>
</g>
</g>
</svg>
