<?xml version="1.0" encoding="UTF-8" standalone="no"?>
<!DOCTYPE svg PUBLIC "-//W3C//DTD SVG 1.1//EN"
 "http://www.w3.org/Graphics/SVG/1.1/DTD/svg11.dtd">
<!-- Generated by graphviz version 2.38.0 (20140413.2041)
 -->
<!-- Title: G Pages: 1 -->
<svg width="583pt" height="269pt"
 viewBox="0.00 0.00 583.34 269.00" xmlns="http://www.w3.org/2000/svg" xmlns:xlink="http://www.w3.org/1999/xlink">
<g id="graph0" class="graph" transform="scale(1 1) rotate(0) translate(4 265)">
<title>G</title>
<polygon fill="white" stroke="none" points="-4,4 -4,-265 579.34,-265 579.34,4 -4,4"/>
<!-- RelatedMaterial -->
<g id="node1" class="node"><title>RelatedMaterial</title>
<polygon fill="none" stroke="black" points="80.5898,-203.5 80.5898,-260.5 196.641,-260.5 196.641,-203.5 80.5898,-203.5"/>
<text text-anchor="start" x="88.5898" y="-250.1" font-family="Bitstream Vera Sans" font-size="8.00">Onix::V3_0::RelatedMaterial</text>
<polyline fill="none" stroke="black" points="80.5898,-244.5 196.641,-244.5 "/>
<polyline fill="none" stroke="black" points="80.5898,-227.5 196.641,-227.5 "/>
<text text-anchor="start" x="88.5898" y="-217.1" font-family="Bitstream Vera Sans" font-size="8.00">related_works[]</text>
<text text-anchor="start" x="88.5898" y="-209.1" font-family="Bitstream Vera Sans" font-size="8.00">related_products[]</text>
</g>
<!-- RelatedWork -->
<g id="node2" class="node"><title>RelatedWork</title>
<polygon fill="none" stroke="black" points="11.5547,-110.5 11.5547,-158.5 117.676,-158.5 117.676,-110.5 11.5547,-110.5"/>
<text text-anchor="start" x="19.5547" y="-148.1" font-family="Bitstream Vera Sans" font-size="8.00">Onix::V3_0::RelatedWork</text>
<polyline fill="none" stroke="black" points="11.5547,-142.5 117.676,-142.5 "/>
<text text-anchor="start" x="19.5547" y="-132.1" font-family="Bitstream Vera Sans" font-size="8.00">work_relation_code</text>
<polyline fill="none" stroke="black" points="11.5547,-126.5 117.676,-126.5 "/>
<text text-anchor="start" x="19.5547" y="-116.1" font-family="Bitstream Vera Sans" font-size="8.00">work_identifiers[]</text>
</g>
<!-- RelatedMaterial&#45;&gt;RelatedWork -->
<g id="edge1" class="edge"><title>RelatedMaterial&#45;&gt;RelatedWork</title>
<path fill="none" stroke="black" d="M117.211,-203.377C108.263,-191.83 97.8259,-178.36 88.6185,-166.477"/>
<polygon fill="black" stroke="black" points="91.3658,-164.308 82.474,-158.547 85.8325,-168.596 91.3658,-164.308"/>
</g>
<!-- RelatedProduct -->
<g id="node3" class="node"><title>RelatedProduct</title>
<polygon fill="none" stroke="black" points="222.031,-102.5 222.031,-166.5 337.199,-166.5 337.199,-102.5 222.031,-102.5"/>
<text text-anchor="start" x="230.031" y="-156.1" font-family="Bitstream Vera Sans" font-size="8.00">Onix::V3_0::RelatedProduct</text>
<polyline fill="none" stroke="black" points="222.031,-150.5 337.199,-150.5 "/>
<text text-anchor="start" x="230.031" y="-140.1" font-family="Bitstream Vera Sans" font-size="8.00">product_form</text>
<polyline fill="none" stroke="black" points="222.031,-134.5 337.199,-134.5 "/>
<text text-anchor="start" x="230.031" y="-124.1" font-family="Bitstream Vera Sans" font-size="8.00">product_relation_codes[]</text>
<text text-anchor="start" x="230.031" y="-116.1" font-family="Bitstream Vera Sans" font-size="8.00">product_identifiers[]</text>
<text text-anchor="start" x="230.031" y="-108.1" font-family="Bitstream Vera Sans" font-size="8.00">product_form_details[]</text>
</g>
<!-- RelatedMaterial&#45;&gt;RelatedProduct -->
<g id="edge2" class="edge"><title>RelatedMaterial&#45;&gt;RelatedProduct</title>
<path fill="none" stroke="black" d="M179.398,-203.377C193.741,-193.663 210.092,-182.588 225.367,-172.243"/>
<polygon fill="black" stroke="black" points="227.406,-175.089 233.722,-166.583 223.48,-169.293 227.406,-175.089"/>
</g>
<!-- WorkIdentifier -->
<g id="node4" class="node"><title>WorkIdentifier</title>
<polygon fill="none" stroke="black" points="0,-0.5 0,-65.5 109.23,-65.5 109.23,-0.5 0,-0.5"/>
<text text-anchor="start" x="8" y="-55.1" font-family="Bitstream Vera Sans" font-size="8.00">Onix::V3_0::WorkIdentifier</text>
<polyline fill="none" stroke="black" points="0,-49.5 109.23,-49.5 "/>
<text text-anchor="start" x="8" y="-39.1" font-family="Bitstream Vera Sans" font-size="8.00">work_id_type</text>
<text text-anchor="start" x="8" y="-31.1" font-family="Bitstream Vera Sans" font-size="8.00">id_type_name</text>
<text text-anchor="start" x="8" y="-23.1" font-family="Bitstream Vera Sans" font-size="8.00">id_value</text>
<polyline fill="none" stroke="black" points="0,-17.5 109.23,-17.5 "/>
</g>
<!-- RelatedWork&#45;&gt;WorkIdentifier -->
<g id="edge3" class="edge"><title>RelatedWork&#45;&gt;WorkIdentifier</title>
<path fill="none" stroke="black" d="M62.2959,-110.423C61.2606,-100.121 60.0076,-87.6539 58.8166,-75.8039"/>
<polygon fill="black" stroke="black" points="62.2756,-75.219 57.793,-65.6191 55.3107,-75.919 62.2756,-75.219"/>
</g>
<!-- ProductRelationCode -->
<g id="node5" class="node"><title>ProductRelationCode</title>
<ellipse fill="none" stroke="black" cx="203.615" cy="-33" rx="75.897" ry="18"/>
<text text-anchor="middle" x="203.615" y="-30.6" font-family="Bitstream Vera Sans" font-size="8.00">Onix::V3_0::ProductRelationCode</text>
</g>
<!-- RelatedProduct&#45;&gt;ProductRelationCode -->
<g id="edge4" class="edge"><title>RelatedProduct&#45;&gt;ProductRelationCode</title>
<path fill="none" stroke="black" d="M255.777,-102.291C245.135,-88.3586 232.765,-72.163 222.742,-59.0411"/>
<polygon fill="black" stroke="black" points="225.388,-56.7391 216.537,-50.9167 219.825,-60.9882 225.388,-56.7391"/>
</g>
<!-- ProductIdentifier -->
<g id="node6" class="node"><title>ProductIdentifier</title>
<polygon fill="none" stroke="black" points="297.477,-0.5 297.477,-65.5 415.754,-65.5 415.754,-0.5 297.477,-0.5"/>
<text text-anchor="start" x="305.477" y="-55.1" font-family="Bitstream Vera Sans" font-size="8.00">Onix::V3_0::ProductIdentifier</text>
<polyline fill="none" stroke="black" points="297.477,-49.5 415.754,-49.5 "/>
<text text-anchor="start" x="305.477" y="-39.1" font-family="Bitstream Vera Sans" font-size="8.00">product_id_type</text>
<text text-anchor="start" x="305.477" y="-31.1" font-family="Bitstream Vera Sans" font-size="8.00">id_type_name</text>
<text text-anchor="start" x="305.477" y="-23.1" font-family="Bitstream Vera Sans" font-size="8.00">id_value</text>
<polyline fill="none" stroke="black" points="297.477,-17.5 415.754,-17.5 "/>
</g>
<!-- RelatedProduct&#45;&gt;ProductIdentifier -->
<g id="edge5" class="edge"><title>RelatedProduct&#45;&gt;ProductIdentifier</title>
<path fill="none" stroke="black" d="M303.767,-102.291C310.726,-93.2983 318.415,-83.3629 325.723,-73.9196"/>
<polygon fill="black" stroke="black" points="328.667,-75.8344 332.019,-65.7838 323.131,-71.5502 328.667,-75.8344"/>
</g>
<!-- ProductFormDetail -->
<g id="node7" class="node"><title>ProductFormDetail</title>
<ellipse fill="none" stroke="black" cx="504.615" cy="-33" rx="70.9497" ry="18"/>
<text text-anchor="middle" x="504.615" y="-30.6" font-family="Bitstream Vera Sans" font-size="8.00">Onix::V3_0::ProductFormDetail</text>
</g>
<!-- RelatedProduct&#45;&gt;ProductFormDetail -->
<g id="edge6" class="edge"><title>RelatedProduct&#45;&gt;ProductFormDetail</title>
<path fill="none" stroke="black" d="M337.266,-108.005C375.946,-90.9005 426.078,-68.7307 461.352,-53.1319"/>
<polygon fill="black" stroke="black" points="463.155,-56.1616 470.885,-48.9161 460.324,-49.7596 463.155,-56.1616"/>
</g>
</g>
</svg>
