<?xml version="1.0" encoding="UTF-8" standalone="no"?>
<!DOCTYPE svg PUBLIC "-//W3C//DTD SVG 1.1//EN"
 "http://www.w3.org/Graphics/SVG/1.1/DTD/svg11.dtd">
<!-- Generated by graphviz version 2.38.0 (20140413.2041)
 -->
<!-- Title: G Pages: 1 -->
<svg width="456pt" height="175pt"
 viewBox="0.00 0.00 455.67 175.00" xmlns="http://www.w3.org/2000/svg" xmlns:xlink="http://www.w3.org/1999/xlink">
<g id="graph0" class="graph" transform="scale(1 1) rotate(0) translate(4 171)">
<title>G</title>
<polygon fill="white" stroke="none" points="-4,4 -4,-171 451.673,-171 451.673,4 -4,4"/>
<!-- RelatedProduct -->
<g id="node1" class="node"><title>RelatedProduct</title>
<polygon fill="none" stroke="black" points="171.365,-102.5 171.365,-166.5 286.532,-166.5 286.532,-102.5 171.365,-102.5"/>
<text text-anchor="start" x="179.365" y="-156.1" font-family="Bitstream Vera Sans" font-size="8.00">Onix::V3_0::RelatedProduct</text>
<polyline fill="none" stroke="black" points="171.365,-150.5 286.532,-150.5 "/>
<text text-anchor="start" x="179.365" y="-140.1" font-family="Bitstream Vera Sans" font-size="8.00">product_form</text>
<polyline fill="none" stroke="black" points="171.365,-134.5 286.532,-134.5 "/>
<text text-anchor="start" x="179.365" y="-124.1" font-family="Bitstream Vera Sans" font-size="8.00">product_relation_codes[]</text>
<text text-anchor="start" x="179.365" y="-116.1" font-family="Bitstream Vera Sans" font-size="8.00">product_identifiers[]</text>
<text text-anchor="start" x="179.365" y="-108.1" font-family="Bitstream Vera Sans" font-size="8.00">product_form_details[]</text>
</g>
<!-- ProductRelationCode -->
<g id="node2" class="node"><title>ProductRelationCode</title>
<ellipse fill="none" stroke="black" cx="75.9485" cy="-33" rx="75.897" ry="18"/>
<text text-anchor="middle" x="75.9485" y="-30.6" font-family="Bitstream Vera Sans" font-size="8.00">Onix::V3_0::ProductRelationCode</text>
</g>
<!-- RelatedProduct&#45;&gt;ProductRelationCode -->
<g id="edge1" class="edge"><title>RelatedProduct&#45;&gt;ProductRelationCode</title>
<path fill="none" stroke="black" d="M180.958,-102.291C157.647,-87.1306 130.214,-69.2903 109.234,-55.6466"/>
<polygon fill="black" stroke="black" points="110.96,-52.594 100.669,-50.0762 107.144,-58.4622 110.96,-52.594"/>
</g>
<!-- ProductIdentifier -->
<g id="node3" class="node"><title>ProductIdentifier</title>
<polygon fill="none" stroke="black" points="169.81,-0.5 169.81,-65.5 288.087,-65.5 288.087,-0.5 169.81,-0.5"/>
<text text-anchor="start" x="177.81" y="-55.1" font-family="Bitstream Vera Sans" font-size="8.00">Onix::V3_0::ProductIdentifier</text>
<polyline fill="none" stroke="black" points="169.81,-49.5 288.087,-49.5 "/>
<text text-anchor="start" x="177.81" y="-39.1" font-family="Bitstream Vera Sans" font-size="8.00">product_id_type</text>
<text text-anchor="start" x="177.81" y="-31.1" font-family="Bitstream Vera Sans" font-size="8.00">id_type_name</text>
<text text-anchor="start" x="177.81" y="-23.1" font-family="Bitstream Vera Sans" font-size="8.00">id_value</text>
<polyline fill="none" stroke="black" points="169.81,-17.5 288.087,-17.5 "/>
</g>
<!-- RelatedProduct&#45;&gt;ProductIdentifier -->
<g id="edge2" class="edge"><title>RelatedProduct&#45;&gt;ProductIdentifier</title>
<path fill="none" stroke="black" d="M228.949,-102.291C228.949,-93.9341 228.949,-84.7632 228.949,-75.9296"/>
<polygon fill="black" stroke="black" points="232.449,-75.7838 228.949,-65.7838 225.449,-75.7838 232.449,-75.7838"/>
</g>
<!-- ProductFormDetail -->
<g id="node4" class="node"><title>ProductFormDetail</title>
<ellipse fill="none" stroke="black" cx="376.949" cy="-33" rx="70.9497" ry="18"/>
<text text-anchor="middle" x="376.949" y="-30.6" font-family="Bitstream Vera Sans" font-size="8.00">Onix::V3_0::ProductFormDetail</text>
</g>
<!-- RelatedProduct&#45;&gt;ProductFormDetail -->
<g id="edge3" class="edge"><title>RelatedProduct&#45;&gt;ProductFormDetail</title>
<path fill="none" stroke="black" d="M275.371,-102.291C297.819,-87.1983 324.22,-69.4495 344.478,-55.8295"/>
<polygon fill="black" stroke="black" points="346.69,-58.5602 353.036,-50.0762 342.784,-52.751 346.69,-58.5602"/>
</g>
</g>
</svg>
