<?xml version="1.0" encoding="UTF-8" standalone="no"?>
<!DOCTYPE svg PUBLIC "-//W3C//DTD SVG 1.1//EN"
 "http://www.w3.org/Graphics/SVG/1.1/DTD/svg11.dtd">
<!-- Generated by graphviz version 2.38.0 (20140413.2041)
 -->
<!-- Title: G Pages: 1 -->
<svg width="117pt" height="159pt"
 viewBox="0.00 0.00 117.23 159.00" xmlns="http://www.w3.org/2000/svg" xmlns:xlink="http://www.w3.org/1999/xlink">
<g id="graph0" class="graph" transform="scale(1 1) rotate(0) translate(4 155)">
<title>G</title>
<polygon fill="white" stroke="none" points="-4,4 -4,-155 113.23,-155 113.23,4 -4,4"/>
<!-- RelatedWork -->
<g id="node1" class="node"><title>RelatedWork</title>
<polygon fill="none" stroke="black" points="1.55469,-102.5 1.55469,-150.5 107.676,-150.5 107.676,-102.5 1.55469,-102.5"/>
<text text-anchor="start" x="9.55469" y="-140.1" font-family="Bitstream Vera Sans" font-size="8.00">Onix::V3_0::RelatedWork</text>
<polyline fill="none" stroke="black" points="1.55469,-134.5 107.676,-134.5 "/>
<text text-anchor="start" x="9.55469" y="-124.1" font-family="Bitstream Vera Sans" font-size="8.00">work_relation_code</text>
<polyline fill="none" stroke="black" points="1.55469,-118.5 107.676,-118.5 "/>
<text text-anchor="start" x="9.55469" y="-108.1" font-family="Bitstream Vera Sans" font-size="8.00">work_identifiers[]</text>
</g>
<!-- WorkIdentifier -->
<g id="node2" class="node"><title>WorkIdentifier</title>
<polygon fill="none" stroke="black" points="0,-0.5 0,-65.5 109.23,-65.5 109.23,-0.5 0,-0.5"/>
<text text-anchor="start" x="8" y="-55.1" font-family="Bitstream Vera Sans" font-size="8.00">Onix::V3_0::WorkIdentifier</text>
<polyline fill="none" stroke="black" points="0,-49.5 109.23,-49.5 "/>
<text text-anchor="start" x="8" y="-39.1" font-family="Bitstream Vera Sans" font-size="8.00">work_id_type</text>
<text text-anchor="start" x="8" y="-31.1" font-family="Bitstream Vera Sans" font-size="8.00">id_type_name</text>
<text text-anchor="start" x="8" y="-23.1" font-family="Bitstream Vera Sans" font-size="8.00">id_value</text>
<polyline fill="none" stroke="black" points="0,-17.5 109.23,-17.5 "/>
</g>
<!-- RelatedWork&#45;&gt;WorkIdentifier -->
<g id="edge1" class="edge"><title>RelatedWork&#45;&gt;WorkIdentifier</title>
<path fill="none" stroke="black" d="M54.6152,-102.411C54.6152,-94.3329 54.6152,-84.9943 54.6152,-75.8636"/>
<polygon fill="black" stroke="black" points="58.1153,-75.7214 54.6152,-65.7214 51.1153,-75.7215 58.1153,-75.7214"/>
</g>
</g>
</svg>
