<?xml version="1.0" encoding="UTF-8" standalone="no"?>
<!DOCTYPE svg PUBLIC "-//W3C//DTD SVG 1.1//EN"
 "http://www.w3.org/Graphics/SVG/1.1/DTD/svg11.dtd">
<!-- Generated by graphviz version 2.38.0 (20140413.2041)
 -->
<!-- Title: G Pages: 1 -->
<svg width="769pt" height="262pt"
 viewBox="0.00 0.00 769.09 262.00" xmlns="http://www.w3.org/2000/svg" xmlns:xlink="http://www.w3.org/1999/xlink">
<g id="graph0" class="graph" transform="scale(1 1) rotate(0) translate(4 258)">
<title>G</title>
<polygon fill="white" stroke="none" points="-4,4 -4,-258 765.085,-258 765.085,4 -4,4"/>
<!-- ReligiousText -->
<g id="node1" class="node"><title>ReligiousText</title>
<polygon fill="none" stroke="black" points="398.503,-197.5 398.503,-253.5 506.104,-253.5 506.104,-197.5 398.503,-197.5"/>
<text text-anchor="start" x="406.503" y="-243.1" font-family="Bitstream Vera Sans" font-size="8.00">Onix::V3_0::ReligiousText</text>
<polyline fill="none" stroke="black" points="398.503,-237.5 506.104,-237.5 "/>
<text text-anchor="start" x="406.503" y="-227.1" font-family="Bitstream Vera Sans" font-size="8.00">religious_text_identifier</text>
<polyline fill="none" stroke="black" points="398.503,-221.5 506.104,-221.5 "/>
<text text-anchor="start" x="406.503" y="-211.1" font-family="Bitstream Vera Sans" font-size="8.00">bible</text>
<text text-anchor="start" x="406.503" y="-203.1" font-family="Bitstream Vera Sans" font-size="8.00">religious_text_features[]</text>
</g>
<!-- Bible -->
<g id="node2" class="node"><title>Bible</title>
<polygon fill="none" stroke="black" points="283.718,-72.5 283.718,-160.5 386.889,-160.5 386.889,-72.5 283.718,-72.5"/>
<text text-anchor="start" x="291.718" y="-150.1" font-family="Bitstream Vera Sans" font-size="8.00">Onix::V3_0::Bible</text>
<polyline fill="none" stroke="black" points="283.718,-144.5 386.889,-144.5 "/>
<text text-anchor="start" x="291.718" y="-134.1" font-family="Bitstream Vera Sans" font-size="8.00">study_bible_type</text>
<text text-anchor="start" x="291.718" y="-126.1" font-family="Bitstream Vera Sans" font-size="8.00">bible_text_organization</text>
<text text-anchor="start" x="291.718" y="-118.1" font-family="Bitstream Vera Sans" font-size="8.00">bible_reference_location</text>
<polyline fill="none" stroke="black" points="283.718,-112.5 386.889,-112.5 "/>
<text text-anchor="start" x="291.718" y="-102.1" font-family="Bitstream Vera Sans" font-size="8.00">bible_contents[]</text>
<text text-anchor="start" x="291.718" y="-94.1" font-family="Bitstream Vera Sans" font-size="8.00">bible_versions[]</text>
<text text-anchor="start" x="291.718" y="-86.1" font-family="Bitstream Vera Sans" font-size="8.00">bible_purposes[]</text>
<text text-anchor="start" x="291.718" y="-78.1" font-family="Bitstream Vera Sans" font-size="8.00">bible_text_features[]</text>
</g>
<!-- ReligiousText&#45;&gt;Bible -->
<g id="edge1" class="edge"><title>ReligiousText&#45;&gt;Bible</title>
<path fill="none" stroke="black" d="M422.779,-197.499C410.594,-186.356 396.165,-173.16 382.576,-160.732"/>
</g>
<!-- ReligiousTextFeature -->
<g id="node3" class="node"><title>ReligiousTextFeature</title>
<polygon fill="none" stroke="black" points="498.266,-88.5 498.266,-144.5 642.341,-144.5 642.341,-88.5 498.266,-88.5"/>
<text text-anchor="start" x="506.266" y="-134.1" font-family="Bitstream Vera Sans" font-size="8.00">Onix::V3_0::ReligiousTextFeature</text>
<polyline fill="none" stroke="black" points="498.266,-128.5 642.341,-128.5 "/>
<text text-anchor="start" x="506.266" y="-118.1" font-family="Bitstream Vera Sans" font-size="8.00">religious_text_feature_type</text>
<text text-anchor="start" x="506.266" y="-110.1" font-family="Bitstream Vera Sans" font-size="8.00">religious_text_feature_code</text>
<polyline fill="none" stroke="black" points="498.266,-104.5 642.341,-104.5 "/>
<text text-anchor="start" x="506.266" y="-94.1" font-family="Bitstream Vera Sans" font-size="8.00">religious_text_feature_descriptions[]</text>
</g>
<!-- ReligiousText&#45;&gt;ReligiousTextFeature -->
<g id="edge2" class="edge"><title>ReligiousText&#45;&gt;ReligiousTextFeature</title>
<path fill="none" stroke="black" d="M482.08,-197.499C497.335,-183.666 516.077,-166.671 532.358,-151.908"/>
<polygon fill="black" stroke="black" points="535.069,-154.174 540.126,-144.864 530.367,-148.989 535.069,-154.174"/>
</g>
<!-- BibleContents -->
<g id="node4" class="node"><title>BibleContents</title>
<ellipse fill="none" stroke="black" cx="61.3034" cy="-18" rx="61.1075" ry="18"/>
<text text-anchor="middle" x="61.3034" y="-15.6" font-family="Bitstream Vera Sans" font-size="8.00">Onix::V3_0::BibleContents</text>
</g>
<!-- Bible&#45;&gt;BibleContents -->
<g id="edge3" class="edge"><title>Bible&#45;&gt;BibleContents</title>
<path fill="none" stroke="black" d="M283.444,-97.2356C233.078,-79.4972 157.276,-52.8005 108.541,-35.6368"/>
<polygon fill="black" stroke="black" points="109.466,-32.2519 98.8717,-32.2311 107.141,-38.8544 109.466,-32.2519"/>
</g>
<!-- BibleVersion -->
<g id="node5" class="node"><title>BibleVersion</title>
<ellipse fill="none" stroke="black" cx="199.303" cy="-18" rx="58.1552" ry="18"/>
<text text-anchor="middle" x="199.303" y="-15.6" font-family="Bitstream Vera Sans" font-size="8.00">Onix::V3_0::BibleVersion</text>
</g>
<!-- Bible&#45;&gt;BibleVersion -->
<g id="edge4" class="edge"><title>Bible&#45;&gt;BibleVersion</title>
<path fill="none" stroke="black" d="M283.5,-78.7422C265.385,-65.8891 245.643,-51.8807 229.831,-40.6613"/>
<polygon fill="black" stroke="black" points="231.667,-37.6726 221.487,-34.7402 227.617,-43.3815 231.667,-37.6726"/>
</g>
<!-- BiblePurpose -->
<g id="node6" class="node"><title>BiblePurpose</title>
<ellipse fill="none" stroke="black" cx="335.303" cy="-18" rx="60.1258" ry="18"/>
<text text-anchor="middle" x="335.303" y="-15.6" font-family="Bitstream Vera Sans" font-size="8.00">Onix::V3_0::BiblePurpose</text>
</g>
<!-- Bible&#45;&gt;BiblePurpose -->
<g id="edge5" class="edge"><title>Bible&#45;&gt;BiblePurpose</title>
<path fill="none" stroke="black" d="M335.303,-72.3305C335.303,-63.3979 335.303,-54.2305 335.303,-46.0712"/>
<polygon fill="black" stroke="black" points="338.804,-46.0301 335.303,-36.0301 331.804,-46.0302 338.804,-46.0301"/>
</g>
<!-- BibleTextFeature -->
<g id="node7" class="node"><title>BibleTextFeature</title>
<ellipse fill="none" stroke="black" cx="480.303" cy="-18" rx="67.0186" ry="18"/>
<text text-anchor="middle" x="480.303" y="-15.6" font-family="Bitstream Vera Sans" font-size="8.00">Onix::V3_0::BibleTextFeature</text>
</g>
<!-- Bible&#45;&gt;BibleTextFeature -->
<g id="edge6" class="edge"><title>Bible&#45;&gt;BibleTextFeature</title>
<path fill="none" stroke="black" d="M387.242,-80.9339C407.494,-67.4558 430.08,-52.4247 447.929,-40.5459"/>
<polygon fill="black" stroke="black" points="449.894,-43.4424 456.28,-34.9883 446.015,-37.615 449.894,-43.4424"/>
</g>
<!-- ReligiousTextFeatureDescription -->
<g id="node8" class="node"><title>ReligiousTextFeatureDescription</title>
<ellipse fill="none" stroke="black" cx="663.303" cy="-18" rx="97.5645" ry="18"/>
<text text-anchor="middle" x="663.303" y="-15.6" font-family="Bitstream Vera Sans" font-size="8.00">Onix::V3_0::ReligiousTextFeatureDescription</text>
</g>
<!-- ReligiousTextFeature&#45;&gt;ReligiousTextFeatureDescription -->
<g id="edge7" class="edge"><title>ReligiousTextFeature&#45;&gt;ReligiousTextFeatureDescription</title>
<path fill="none" stroke="black" d="M596.457,-88.3626C610.146,-74.1576 626.767,-56.9116 640.01,-43.1698"/>
<polygon fill="black" stroke="black" points="642.561,-45.5668 646.98,-35.9376 637.521,-40.7093 642.561,-45.5668"/>
</g>
</g>
</svg>
