<?xml version="1.0" encoding="UTF-8" standalone="no"?>
<!DOCTYPE svg PUBLIC "-//W3C//DTD SVG 1.1//EN"
 "http://www.w3.org/Graphics/SVG/1.1/DTD/svg11.dtd">
<!-- Generated by graphviz version 2.38.0 (20140413.2041)
 -->
<!-- Title: G Pages: 1 -->
<svg width="204pt" height="137pt"
 viewBox="0.00 0.00 203.56 137.00" xmlns="http://www.w3.org/2000/svg" xmlns:xlink="http://www.w3.org/1999/xlink">
<g id="graph0" class="graph" transform="scale(1 1) rotate(0) translate(4 133)">
<title>G</title>
<polygon fill="white" stroke="none" points="-4,4 -4,-133 199.564,-133 199.564,4 -4,4"/>
<!-- ReligiousTextFeature -->
<g id="node1" class="node"><title>ReligiousTextFeature</title>
<polygon fill="none" stroke="black" points="25.7449,-72.5 25.7449,-128.5 169.819,-128.5 169.819,-72.5 25.7449,-72.5"/>
<text text-anchor="start" x="33.7449" y="-118.1" font-family="Bitstream Vera Sans" font-size="8.00">Onix::V3_0::ReligiousTextFeature</text>
<polyline fill="none" stroke="black" points="25.7449,-112.5 169.819,-112.5 "/>
<text text-anchor="start" x="33.7449" y="-102.1" font-family="Bitstream Vera Sans" font-size="8.00">religious_text_feature_type</text>
<text text-anchor="start" x="33.7449" y="-94.1" font-family="Bitstream Vera Sans" font-size="8.00">religious_text_feature_code</text>
<polyline fill="none" stroke="black" points="25.7449,-88.5 169.819,-88.5 "/>
<text text-anchor="start" x="33.7449" y="-78.1" font-family="Bitstream Vera Sans" font-size="8.00">religious_text_feature_descriptions[]</text>
</g>
<!-- ReligiousTextFeatureDescription -->
<g id="node2" class="node"><title>ReligiousTextFeatureDescription</title>
<ellipse fill="none" stroke="black" cx="97.782" cy="-18" rx="97.5645" ry="18"/>
<text text-anchor="middle" x="97.782" y="-15.6" font-family="Bitstream Vera Sans" font-size="8.00">Onix::V3_0::ReligiousTextFeatureDescription</text>
</g>
<!-- ReligiousTextFeature&#45;&gt;ReligiousTextFeatureDescription -->
<g id="edge1" class="edge"><title>ReligiousTextFeature&#45;&gt;ReligiousTextFeatureDescription</title>
<path fill="none" stroke="black" d="M97.782,-72.2464C97.782,-63.9078 97.782,-54.7356 97.782,-46.3881"/>
<polygon fill="black" stroke="black" points="101.282,-46.3805 97.782,-36.3806 94.2821,-46.3806 101.282,-46.3805"/>
</g>
</g>
</svg>
