<?xml version="1.0" encoding="UTF-8" standalone="no"?>
<!DOCTYPE svg PUBLIC "-//W3C//DTD SVG 1.1//EN"
 "http://www.w3.org/Graphics/SVG/1.1/DTD/svg11.dtd">
<!-- Generated by graphviz version 2.38.0 (20140413.2041)
 -->
<!-- Title: G Pages: 1 -->
<svg width="419pt" height="247pt"
 viewBox="0.00 0.00 418.73 247.00" xmlns="http://www.w3.org/2000/svg" xmlns:xlink="http://www.w3.org/1999/xlink">
<g id="graph0" class="graph" transform="scale(1 1) rotate(0) translate(4 243)">
<title>G</title>
<polygon fill="white" stroke="none" points="-4,4 -4,-243 414.73,-243 414.73,4 -4,4"/>
<!-- ResourceVersion -->
<g id="node1" class="node"><title>ResourceVersion</title>
<polygon fill="none" stroke="black" points="166.785,-174.5 166.785,-238.5 287.734,-238.5 287.734,-174.5 166.785,-174.5"/>
<text text-anchor="start" x="174.785" y="-228.1" font-family="Bitstream Vera Sans" font-size="8.00">Onix::V3_0::ResourceVersion</text>
<polyline fill="none" stroke="black" points="166.785,-222.5 287.734,-222.5 "/>
<text text-anchor="start" x="174.785" y="-212.1" font-family="Bitstream Vera Sans" font-size="8.00">resource_form</text>
<polyline fill="none" stroke="black" points="166.785,-206.5 287.734,-206.5 "/>
<text text-anchor="start" x="174.785" y="-196.1" font-family="Bitstream Vera Sans" font-size="8.00">resource_version_features[]</text>
<text text-anchor="start" x="174.785" y="-188.1" font-family="Bitstream Vera Sans" font-size="8.00">resource_links[]</text>
<text text-anchor="start" x="174.785" y="-180.1" font-family="Bitstream Vera Sans" font-size="8.00">content_dates[]</text>
</g>
<!-- ResourceVersionFeature -->
<g id="node2" class="node"><title>ResourceVersionFeature</title>
<polygon fill="none" stroke="black" points="0,-77 0,-133 148.52,-133 148.52,-77 0,-77"/>
<text text-anchor="start" x="8" y="-122.6" font-family="Bitstream Vera Sans" font-size="8.00">Onix::V3_0::ResourceVersionFeature</text>
<polyline fill="none" stroke="black" points="0,-117 148.52,-117 "/>
<text text-anchor="start" x="8" y="-106.6" font-family="Bitstream Vera Sans" font-size="8.00">resource_version_feature_type</text>
<text text-anchor="start" x="8" y="-98.6" font-family="Bitstream Vera Sans" font-size="8.00">feature_value</text>
<polyline fill="none" stroke="black" points="0,-93 148.52,-93 "/>
<text text-anchor="start" x="8" y="-82.6" font-family="Bitstream Vera Sans" font-size="8.00">feature_notes[]</text>
</g>
<!-- ResourceVersion&#45;&gt;ResourceVersionFeature -->
<g id="edge1" class="edge"><title>ResourceVersion&#45;&gt;ResourceVersionFeature</title>
<path fill="none" stroke="black" d="M179.269,-174.291C161.797,-162.928 142.009,-150.059 124.358,-138.58"/>
<polygon fill="black" stroke="black" points="126.176,-135.587 115.885,-133.07 122.36,-141.456 126.176,-135.587"/>
</g>
<!-- ResourceLink -->
<g id="node3" class="node"><title>ResourceLink</title>
<ellipse fill="none" stroke="black" cx="227.26" cy="-105" rx="60.6089" ry="18"/>
<text text-anchor="middle" x="227.26" y="-102.6" font-family="Bitstream Vera Sans" font-size="8.00">Onix::V3_0::ResourceLink</text>
</g>
<!-- ResourceVersion&#45;&gt;ResourceLink -->
<g id="edge2" class="edge"><title>ResourceVersion&#45;&gt;ResourceLink</title>
<path fill="none" stroke="black" d="M227.26,-174.291C227.26,-161.243 227.26,-146.21 227.26,-133.575"/>
<polygon fill="black" stroke="black" points="230.76,-133.2 227.26,-123.2 223.76,-133.2 230.76,-133.2"/>
</g>
<!-- ContentDate -->
<g id="node4" class="node"><title>ContentDate</title>
<polygon fill="none" stroke="black" points="305.789,-72.5 305.789,-137.5 410.73,-137.5 410.73,-72.5 305.789,-72.5"/>
<text text-anchor="start" x="313.789" y="-127.1" font-family="Bitstream Vera Sans" font-size="8.00">Onix::V3_0::ContentDate</text>
<polyline fill="none" stroke="black" points="305.789,-121.5 410.73,-121.5 "/>
<text text-anchor="start" x="313.789" y="-111.1" font-family="Bitstream Vera Sans" font-size="8.00">content_date_role</text>
<text text-anchor="start" x="313.789" y="-103.1" font-family="Bitstream Vera Sans" font-size="8.00">date_format</text>
<text text-anchor="start" x="313.789" y="-95.1" font-family="Bitstream Vera Sans" font-size="8.00">date</text>
<polyline fill="none" stroke="black" points="305.789,-89.5 410.73,-89.5 "/>
</g>
<!-- ResourceVersion&#45;&gt;ContentDate -->
<g id="edge3" class="edge"><title>ResourceVersion&#45;&gt;ContentDate</title>
<path fill="none" stroke="black" d="M268.35,-174.291C281.026,-164.662 295.125,-153.953 308.329,-143.924"/>
<polygon fill="black" stroke="black" points="310.567,-146.62 316.414,-137.784 306.333,-141.045 310.567,-146.62"/>
</g>
<!-- FeatureNote -->
<g id="node5" class="node"><title>FeatureNote</title>
<ellipse fill="none" stroke="black" cx="74.2598" cy="-18" rx="58.1465" ry="18"/>
<text text-anchor="middle" x="74.2598" y="-15.6" font-family="Bitstream Vera Sans" font-size="8.00">Onix::V3_0::FeatureNote</text>
</g>
<!-- ResourceVersionFeature&#45;&gt;FeatureNote -->
<g id="edge4" class="edge"><title>ResourceVersionFeature&#45;&gt;FeatureNote</title>
<path fill="none" stroke="black" d="M74.2598,-76.6376C74.2598,-66.976 74.2598,-56.1138 74.2598,-46.4454"/>
<polygon fill="black" stroke="black" points="77.7599,-46.1642 74.2598,-36.1642 70.7599,-46.1643 77.7599,-46.1642"/>
</g>
</g>
</svg>
