<?xml version="1.0" encoding="UTF-8" standalone="no"?>
<!DOCTYPE svg PUBLIC "-//W3C//DTD SVG 1.1//EN"
 "http://www.w3.org/Graphics/SVG/1.1/DTD/svg11.dtd">
<!-- Generated by graphviz version 2.38.0 (20140413.2041)
 -->
<!-- Title: G Pages: 1 -->
<svg width="157pt" height="137pt"
 viewBox="0.00 0.00 156.52 137.00" xmlns="http://www.w3.org/2000/svg" xmlns:xlink="http://www.w3.org/1999/xlink">
<g id="graph0" class="graph" transform="scale(1 1) rotate(0) translate(4 133)">
<title>G</title>
<polygon fill="white" stroke="none" points="-4,4 -4,-133 152.52,-133 152.52,4 -4,4"/>
<!-- ResourceVersionFeature -->
<g id="node1" class="node"><title>ResourceVersionFeature</title>
<polygon fill="none" stroke="black" points="0,-72.5 0,-128.5 148.52,-128.5 148.52,-72.5 0,-72.5"/>
<text text-anchor="start" x="8" y="-118.1" font-family="Bitstream Vera Sans" font-size="8.00">Onix::V3_0::ResourceVersionFeature</text>
<polyline fill="none" stroke="black" points="0,-112.5 148.52,-112.5 "/>
<text text-anchor="start" x="8" y="-102.1" font-family="Bitstream Vera Sans" font-size="8.00">resource_version_feature_type</text>
<text text-anchor="start" x="8" y="-94.1" font-family="Bitstream Vera Sans" font-size="8.00">feature_value</text>
<polyline fill="none" stroke="black" points="0,-88.5 148.52,-88.5 "/>
<text text-anchor="start" x="8" y="-78.1" font-family="Bitstream Vera Sans" font-size="8.00">feature_notes[]</text>
</g>
<!-- FeatureNote -->
<g id="node2" class="node"><title>FeatureNote</title>
<ellipse fill="none" stroke="black" cx="74.2598" cy="-18" rx="58.1465" ry="18"/>
<text text-anchor="middle" x="74.2598" y="-15.6" font-family="Bitstream Vera Sans" font-size="8.00">Onix::V3_0::FeatureNote</text>
</g>
<!-- ResourceVersionFeature&#45;&gt;FeatureNote -->
<g id="edge1" class="edge"><title>ResourceVersionFeature&#45;&gt;FeatureNote</title>
<path fill="none" stroke="black" d="M74.2598,-72.2464C74.2598,-63.9078 74.2598,-54.7356 74.2598,-46.3881"/>
<polygon fill="black" stroke="black" points="77.7599,-46.3805 74.2598,-36.3806 70.7599,-46.3806 77.7599,-46.3805"/>
</g>
</g>
</svg>
