<?xml version="1.0" encoding="UTF-8" standalone="no"?>
<!DOCTYPE svg PUBLIC "-//W3C//DTD SVG 1.1//EN"
 "http://www.w3.org/Graphics/SVG/1.1/DTD/svg11.dtd">
<!-- Generated by graphviz version 2.38.0 (20140413.2041)
 -->
<!-- Title: G Pages: 1 -->
<svg width="134pt" height="145pt"
 viewBox="0.00 0.00 133.84 145.00" xmlns="http://www.w3.org/2000/svg" xmlns:xlink="http://www.w3.org/1999/xlink">
<g id="graph0" class="graph" transform="scale(1 1) rotate(0) translate(4 141)">
<title>G</title>
<polygon fill="white" stroke="none" points="-4,4 -4,-141 129.836,-141 129.836,4 -4,4"/>
<!-- ReturnsConditions -->
<g id="node1" class="node"><title>ReturnsConditions</title>
<polygon fill="none" stroke="black" points="0,-72.5 0,-136.5 125.836,-136.5 125.836,-72.5 0,-72.5"/>
<text text-anchor="start" x="8" y="-126.1" font-family="Bitstream Vera Sans" font-size="8.00">Onix::V3_0::ReturnsConditions</text>
<polyline fill="none" stroke="black" points="0,-120.5 125.836,-120.5 "/>
<text text-anchor="start" x="8" y="-110.1" font-family="Bitstream Vera Sans" font-size="8.00">returns_code_type</text>
<text text-anchor="start" x="8" y="-102.1" font-family="Bitstream Vera Sans" font-size="8.00">returns_code_type_name</text>
<text text-anchor="start" x="8" y="-94.1" font-family="Bitstream Vera Sans" font-size="8.00">returns_code</text>
<polyline fill="none" stroke="black" points="0,-88.5 125.836,-88.5 "/>
<text text-anchor="start" x="8" y="-78.1" font-family="Bitstream Vera Sans" font-size="8.00">returns_notes[]</text>
</g>
<!-- ReturnsNote -->
<g id="node2" class="node"><title>ReturnsNote</title>
<ellipse fill="none" stroke="black" cx="62.918" cy="-18" rx="58.6388" ry="18"/>
<text text-anchor="middle" x="62.918" y="-15.6" font-family="Bitstream Vera Sans" font-size="8.00">Onix::V3_0::ReturnsNote</text>
</g>
<!-- ReturnsConditions&#45;&gt;ReturnsNote -->
<g id="edge1" class="edge"><title>ReturnsConditions&#45;&gt;ReturnsNote</title>
<path fill="none" stroke="black" d="M62.918,-72.0353C62.918,-63.5525 62.918,-54.4481 62.918,-46.2186"/>
<polygon fill="black" stroke="black" points="66.4181,-46.0299 62.918,-36.0299 59.4181,-46.03 66.4181,-46.0299"/>
</g>
</g>
</svg>
