<?xml version="1.0" encoding="UTF-8" standalone="no"?>
<!DOCTYPE svg PUBLIC "-//W3C//DTD SVG 1.1//EN"
 "http://www.w3.org/Graphics/SVG/1.1/DTD/svg11.dtd">
<!-- Generated by graphviz version 2.38.0 (20140413.2041)
 -->
<!-- Title: G Pages: 1 -->
<svg width="121pt" height="137pt"
 viewBox="0.00 0.00 121.17 137.00" xmlns="http://www.w3.org/2000/svg" xmlns:xlink="http://www.w3.org/1999/xlink">
<g id="graph0" class="graph" transform="scale(1 1) rotate(0) translate(4 133)">
<title>G</title>
<polygon fill="white" stroke="none" points="-4,4 -4,-133 117.166,-133 117.166,4 -4,4"/>
<!-- ReviewRating -->
<g id="node1" class="node"><title>ReviewRating</title>
<polygon fill="none" stroke="black" points="1.89364,-72.5 1.89364,-128.5 111.273,-128.5 111.273,-72.5 1.89364,-72.5"/>
<text text-anchor="start" x="9.89364" y="-118.1" font-family="Bitstream Vera Sans" font-size="8.00">Onix::V3_0::ReviewRating</text>
<polyline fill="none" stroke="black" points="1.89364,-112.5 111.273,-112.5 "/>
<text text-anchor="start" x="9.89364" y="-102.1" font-family="Bitstream Vera Sans" font-size="8.00">rating</text>
<text text-anchor="start" x="9.89364" y="-94.1" font-family="Bitstream Vera Sans" font-size="8.00">rating_limit</text>
<polyline fill="none" stroke="black" points="1.89364,-88.5 111.273,-88.5 "/>
<text text-anchor="start" x="9.89364" y="-78.1" font-family="Bitstream Vera Sans" font-size="8.00">rating_units[]</text>
</g>
<!-- RatingUnits -->
<g id="node2" class="node"><title>RatingUnits</title>
<ellipse fill="none" stroke="black" cx="56.5831" cy="-18" rx="56.6663" ry="18"/>
<text text-anchor="middle" x="56.5831" y="-15.6" font-family="Bitstream Vera Sans" font-size="8.00">Onix::V3_0::RatingUnits</text>
</g>
<!-- ReviewRating&#45;&gt;RatingUnits -->
<g id="edge1" class="edge"><title>ReviewRating&#45;&gt;RatingUnits</title>
<path fill="none" stroke="black" d="M56.5831,-72.2464C56.5831,-63.9078 56.5831,-54.7356 56.5831,-46.3881"/>
<polygon fill="black" stroke="black" points="60.0832,-46.3805 56.5831,-36.3806 53.0832,-46.3806 60.0832,-46.3805"/>
</g>
</g>
</svg>
