<?xml version="1.0" encoding="UTF-8" standalone="no"?>
<!DOCTYPE svg PUBLIC "-//W3C//DTD SVG 1.1//EN"
 "http://www.w3.org/Graphics/SVG/1.1/DTD/svg11.dtd">
<!-- Generated by graphviz version 2.38.0 (20140413.2041)
 -->
<!-- Title: G Pages: 1 -->
<svg width="293pt" height="268pt"
 viewBox="0.00 0.00 293.23 268.00" xmlns="http://www.w3.org/2000/svg" xmlns:xlink="http://www.w3.org/1999/xlink">
<g id="graph0" class="graph" transform="scale(1 1) rotate(0) translate(4 264)">
<title>G</title>
<polygon fill="white" stroke="none" points="-4,4 -4,-264 289.228,-264 289.228,4 -4,4"/>
<!-- SalesRestriction -->
<g id="node1" class="node"><title>SalesRestriction</title>
<polygon fill="none" stroke="black" points="79.1191,-187.5 79.1191,-259.5 196.943,-259.5 196.943,-187.5 79.1191,-187.5"/>
<text text-anchor="start" x="87.1191" y="-249.1" font-family="Bitstream Vera Sans" font-size="8.00">Onix::V3_0::SalesRestriction</text>
<polyline fill="none" stroke="black" points="79.1191,-243.5 196.943,-243.5 "/>
<text text-anchor="start" x="87.1191" y="-233.1" font-family="Bitstream Vera Sans" font-size="8.00">sales_restriction_type</text>
<text text-anchor="start" x="87.1191" y="-225.1" font-family="Bitstream Vera Sans" font-size="8.00">start_date</text>
<text text-anchor="start" x="87.1191" y="-217.1" font-family="Bitstream Vera Sans" font-size="8.00">end_date</text>
<polyline fill="none" stroke="black" points="79.1191,-211.5 196.943,-211.5 "/>
<text text-anchor="start" x="87.1191" y="-201.1" font-family="Bitstream Vera Sans" font-size="8.00">sales_outlets[]</text>
<text text-anchor="start" x="87.1191" y="-193.1" font-family="Bitstream Vera Sans" font-size="8.00">sales_restriction_notes[]</text>
</g>
<!-- SalesOutlet -->
<g id="node2" class="node"><title>SalesOutlet</title>
<polygon fill="none" stroke="black" points="15.1172,-102.5 15.1172,-150.5 116.945,-150.5 116.945,-102.5 15.1172,-102.5"/>
<text text-anchor="start" x="23.1172" y="-140.1" font-family="Bitstream Vera Sans" font-size="8.00">Onix::V3_0::SalesOutlet</text>
<polyline fill="none" stroke="black" points="15.1172,-134.5 116.945,-134.5 "/>
<text text-anchor="start" x="23.1172" y="-124.1" font-family="Bitstream Vera Sans" font-size="8.00">sales_outlet_name</text>
<polyline fill="none" stroke="black" points="15.1172,-118.5 116.945,-118.5 "/>
<text text-anchor="start" x="23.1172" y="-108.1" font-family="Bitstream Vera Sans" font-size="8.00">sales_outlet_identifiers[]</text>
</g>
<!-- SalesRestriction&#45;&gt;SalesOutlet -->
<g id="edge1" class="edge"><title>SalesRestriction&#45;&gt;SalesOutlet</title>
<path fill="none" stroke="black" d="M111.426,-187.395C104.31,-178.007 96.6683,-167.924 89.7216,-158.758"/>
<polygon fill="black" stroke="black" points="92.4021,-156.5 83.5725,-150.645 86.8233,-160.728 92.4021,-156.5"/>
</g>
<!-- SalesRestrictionNote -->
<g id="node3" class="node"><title>SalesRestrictionNote</title>
<ellipse fill="none" stroke="black" cx="210.031" cy="-126.5" rx="75.3931" ry="18"/>
<text text-anchor="middle" x="210.031" y="-124.1" font-family="Bitstream Vera Sans" font-size="8.00">Onix::V3_0::SalesRestrictionNote</text>
</g>
<!-- SalesRestriction&#45;&gt;SalesRestrictionNote -->
<g id="edge2" class="edge"><title>SalesRestriction&#45;&gt;SalesRestrictionNote</title>
<path fill="none" stroke="black" d="M164.637,-187.395C173.424,-175.801 183.014,-163.147 191.106,-152.47"/>
<polygon fill="black" stroke="black" points="193.98,-154.473 197.231,-144.389 188.401,-150.245 193.98,-154.473"/>
</g>
<!-- SalesOutletIdentifier -->
<g id="node4" class="node"><title>SalesOutletIdentifier</title>
<polygon fill="none" stroke="black" points="0,-0.5 0,-65.5 132.062,-65.5 132.062,-0.5 0,-0.5"/>
<text text-anchor="start" x="8" y="-55.1" font-family="Bitstream Vera Sans" font-size="8.00">Onix::V3_0::SalesOutletIdentifier</text>
<polyline fill="none" stroke="black" points="0,-49.5 132.062,-49.5 "/>
<text text-anchor="start" x="8" y="-39.1" font-family="Bitstream Vera Sans" font-size="8.00">sales_outlet_id_type</text>
<text text-anchor="start" x="8" y="-31.1" font-family="Bitstream Vera Sans" font-size="8.00">id_type_name</text>
<text text-anchor="start" x="8" y="-23.1" font-family="Bitstream Vera Sans" font-size="8.00">id_value</text>
<polyline fill="none" stroke="black" points="0,-17.5 132.062,-17.5 "/>
</g>
<!-- SalesOutlet&#45;&gt;SalesOutletIdentifier -->
<g id="edge3" class="edge"><title>SalesOutlet&#45;&gt;SalesOutletIdentifier</title>
<path fill="none" stroke="black" d="M66.0312,-102.411C66.0312,-94.3329 66.0312,-84.9943 66.0312,-75.8636"/>
<polygon fill="black" stroke="black" points="69.5313,-75.7214 66.0312,-65.7214 62.5313,-75.7215 69.5313,-75.7214"/>
</g>
</g>
</svg>
