<?xml version="1.0" encoding="UTF-8" standalone="no"?>
<!DOCTYPE svg PUBLIC "-//W3C//DTD SVG 1.1//EN"
 "http://www.w3.org/Graphics/SVG/1.1/DTD/svg11.dtd">
<!-- Generated by graphviz version 2.38.0 (20140413.2041)
 -->
<!-- Title: G Pages: 1 -->
<svg width="140pt" height="159pt"
 viewBox="0.00 0.00 140.06 159.00" xmlns="http://www.w3.org/2000/svg" xmlns:xlink="http://www.w3.org/1999/xlink">
<g id="graph0" class="graph" transform="scale(1 1) rotate(0) translate(4 155)">
<title>G</title>
<polygon fill="white" stroke="none" points="-4,4 -4,-155 136.062,-155 136.062,4 -4,4"/>
<!-- SalesOutlet -->
<g id="node1" class="node"><title>SalesOutlet</title>
<polygon fill="none" stroke="black" points="15.1172,-102.5 15.1172,-150.5 116.945,-150.5 116.945,-102.5 15.1172,-102.5"/>
<text text-anchor="start" x="23.1172" y="-140.1" font-family="Bitstream Vera Sans" font-size="8.00">Onix::V3_0::SalesOutlet</text>
<polyline fill="none" stroke="black" points="15.1172,-134.5 116.945,-134.5 "/>
<text text-anchor="start" x="23.1172" y="-124.1" font-family="Bitstream Vera Sans" font-size="8.00">sales_outlet_name</text>
<polyline fill="none" stroke="black" points="15.1172,-118.5 116.945,-118.5 "/>
<text text-anchor="start" x="23.1172" y="-108.1" font-family="Bitstream Vera Sans" font-size="8.00">sales_outlet_identifiers[]</text>
</g>
<!-- SalesOutletIdentifier -->
<g id="node2" class="node"><title>SalesOutletIdentifier</title>
<polygon fill="none" stroke="black" points="0,-0.5 0,-65.5 132.062,-65.5 132.062,-0.5 0,-0.5"/>
<text text-anchor="start" x="8" y="-55.1" font-family="Bitstream Vera Sans" font-size="8.00">Onix::V3_0::SalesOutletIdentifier</text>
<polyline fill="none" stroke="black" points="0,-49.5 132.062,-49.5 "/>
<text text-anchor="start" x="8" y="-39.1" font-family="Bitstream Vera Sans" font-size="8.00">sales_outlet_id_type</text>
<text text-anchor="start" x="8" y="-31.1" font-family="Bitstream Vera Sans" font-size="8.00">id_type_name</text>
<text text-anchor="start" x="8" y="-23.1" font-family="Bitstream Vera Sans" font-size="8.00">id_value</text>
<polyline fill="none" stroke="black" points="0,-17.5 132.062,-17.5 "/>
</g>
<!-- SalesOutlet&#45;&gt;SalesOutletIdentifier -->
<g id="edge1" class="edge"><title>SalesOutlet&#45;&gt;SalesOutletIdentifier</title>
<path fill="none" stroke="black" d="M66.0312,-102.411C66.0312,-94.3329 66.0312,-84.9943 66.0312,-75.8636"/>
<polygon fill="black" stroke="black" points="69.5313,-75.7214 66.0312,-65.7214 62.5313,-75.7215 69.5313,-75.7214"/>
</g>
</g>
</svg>
