<?xml version="1.0" encoding="UTF-8" standalone="no"?>
<!DOCTYPE svg PUBLIC "-//W3C//DTD SVG 1.1//EN"
 "http://www.w3.org/Graphics/SVG/1.1/DTD/svg11.dtd">
<!-- Generated by graphviz version 2.38.0 (20140413.2041)
 -->
<!-- Title: G Pages: 1 -->
<svg width="369pt" height="378pt"
 viewBox="0.00 0.00 368.60 378.00" xmlns="http://www.w3.org/2000/svg" xmlns:xlink="http://www.w3.org/1999/xlink">
<g id="graph0" class="graph" transform="scale(1 1) rotate(0) translate(4 374)">
<title>G</title>
<polygon fill="white" stroke="none" points="-4,4 -4,-374 364.596,-374 364.596,4 -4,4"/>
<!-- SalesRights -->
<g id="node1" class="node"><title>SalesRights</title>
<polygon fill="none" stroke="black" points="114.102,-297.5 114.102,-369.5 216.812,-369.5 216.812,-297.5 114.102,-297.5"/>
<text text-anchor="start" x="122.102" y="-359.1" font-family="Bitstream Vera Sans" font-size="8.00">Onix::V3_0::SalesRights</text>
<polyline fill="none" stroke="black" points="114.102,-353.5 216.812,-353.5 "/>
<text text-anchor="start" x="122.102" y="-343.1" font-family="Bitstream Vera Sans" font-size="8.00">sales_rights_type</text>
<text text-anchor="start" x="122.102" y="-335.1" font-family="Bitstream Vera Sans" font-size="8.00">publisher_name</text>
<polyline fill="none" stroke="black" points="114.102,-329.5 216.812,-329.5 "/>
<text text-anchor="start" x="122.102" y="-319.1" font-family="Bitstream Vera Sans" font-size="8.00">territory</text>
<text text-anchor="start" x="122.102" y="-311.1" font-family="Bitstream Vera Sans" font-size="8.00">sales_restrictions[]</text>
<text text-anchor="start" x="122.102" y="-303.1" font-family="Bitstream Vera Sans" font-size="8.00">product_identifiers[]</text>
</g>
<!-- Territory -->
<g id="node2" class="node"><title>Territory</title>
<polygon fill="none" stroke="black" points="0,-187.5 0,-260.5 88.9141,-260.5 88.9141,-187.5 0,-187.5"/>
<text text-anchor="start" x="8" y="-250.1" font-family="Bitstream Vera Sans" font-size="8.00">Onix::V3_0::Territory</text>
<polyline fill="none" stroke="black" points="0,-244.5 88.9141,-244.5 "/>
<text text-anchor="start" x="8" y="-234.1" font-family="Bitstream Vera Sans" font-size="8.00">countries_included</text>
<text text-anchor="start" x="8" y="-226.1" font-family="Bitstream Vera Sans" font-size="8.00">regions_included</text>
<text text-anchor="start" x="8" y="-218.1" font-family="Bitstream Vera Sans" font-size="8.00">regions_excluded</text>
<text text-anchor="start" x="8" y="-210.1" font-family="Bitstream Vera Sans" font-size="8.00">countries_excluded</text>
<polyline fill="none" stroke="black" points="0,-204.5 88.9141,-204.5 "/>
</g>
<!-- SalesRights&#45;&gt;Territory -->
<g id="edge1" class="edge"><title>SalesRights&#45;&gt;Territory</title>
<path fill="none" stroke="black" d="M125.837,-297.3C112.604,-285.544 97.8515,-272.437 84.5802,-260.647"/>
</g>
<!-- SalesRestriction -->
<g id="node3" class="node"><title>SalesRestriction</title>
<polygon fill="none" stroke="black" points="106.545,-188 106.545,-260 224.369,-260 224.369,-188 106.545,-188"/>
<text text-anchor="start" x="114.545" y="-249.6" font-family="Bitstream Vera Sans" font-size="8.00">Onix::V3_0::SalesRestriction</text>
<polyline fill="none" stroke="black" points="106.545,-244 224.369,-244 "/>
<text text-anchor="start" x="114.545" y="-233.6" font-family="Bitstream Vera Sans" font-size="8.00">sales_restriction_type</text>
<text text-anchor="start" x="114.545" y="-225.6" font-family="Bitstream Vera Sans" font-size="8.00">start_date</text>
<text text-anchor="start" x="114.545" y="-217.6" font-family="Bitstream Vera Sans" font-size="8.00">end_date</text>
<polyline fill="none" stroke="black" points="106.545,-212 224.369,-212 "/>
<text text-anchor="start" x="114.545" y="-201.6" font-family="Bitstream Vera Sans" font-size="8.00">sales_outlets[]</text>
<text text-anchor="start" x="114.545" y="-193.6" font-family="Bitstream Vera Sans" font-size="8.00">sales_restriction_notes[]</text>
</g>
<!-- SalesRights&#45;&gt;SalesRestriction -->
<g id="edge2" class="edge"><title>SalesRights&#45;&gt;SalesRestriction</title>
<path fill="none" stroke="black" d="M165.457,-297.3C165.457,-288.669 165.457,-279.311 165.457,-270.28"/>
<polygon fill="black" stroke="black" points="168.957,-270.279 165.457,-260.279 161.957,-270.279 168.957,-270.279"/>
</g>
<!-- ProductIdentifier -->
<g id="node4" class="node"><title>ProductIdentifier</title>
<polygon fill="none" stroke="black" points="242.318,-191.5 242.318,-256.5 360.596,-256.5 360.596,-191.5 242.318,-191.5"/>
<text text-anchor="start" x="250.318" y="-246.1" font-family="Bitstream Vera Sans" font-size="8.00">Onix::V3_0::ProductIdentifier</text>
<polyline fill="none" stroke="black" points="242.318,-240.5 360.596,-240.5 "/>
<text text-anchor="start" x="250.318" y="-230.1" font-family="Bitstream Vera Sans" font-size="8.00">product_id_type</text>
<text text-anchor="start" x="250.318" y="-222.1" font-family="Bitstream Vera Sans" font-size="8.00">id_type_name</text>
<text text-anchor="start" x="250.318" y="-214.1" font-family="Bitstream Vera Sans" font-size="8.00">id_value</text>
<polyline fill="none" stroke="black" points="242.318,-208.5 360.596,-208.5 "/>
</g>
<!-- SalesRights&#45;&gt;ProductIdentifier -->
<g id="edge3" class="edge"><title>SalesRights&#45;&gt;ProductIdentifier</title>
<path fill="none" stroke="black" d="M209.989,-297.3C223.847,-286.346 239.187,-274.221 253.282,-263.079"/>
<polygon fill="black" stroke="black" points="255.742,-265.596 261.417,-256.649 251.401,-260.105 255.742,-265.596"/>
</g>
<!-- SalesOutlet -->
<g id="node5" class="node"><title>SalesOutlet</title>
<polygon fill="none" stroke="black" points="42.543,-102.5 42.543,-150.5 144.371,-150.5 144.371,-102.5 42.543,-102.5"/>
<text text-anchor="start" x="50.543" y="-140.1" font-family="Bitstream Vera Sans" font-size="8.00">Onix::V3_0::SalesOutlet</text>
<polyline fill="none" stroke="black" points="42.543,-134.5 144.371,-134.5 "/>
<text text-anchor="start" x="50.543" y="-124.1" font-family="Bitstream Vera Sans" font-size="8.00">sales_outlet_name</text>
<polyline fill="none" stroke="black" points="42.543,-118.5 144.371,-118.5 "/>
<text text-anchor="start" x="50.543" y="-108.1" font-family="Bitstream Vera Sans" font-size="8.00">sales_outlet_identifiers[]</text>
</g>
<!-- SalesRestriction&#45;&gt;SalesOutlet -->
<g id="edge4" class="edge"><title>SalesRestriction&#45;&gt;SalesOutlet</title>
<path fill="none" stroke="black" d="M139.056,-187.982C131.865,-178.444 124.124,-168.176 117.097,-158.856"/>
<polygon fill="black" stroke="black" points="119.697,-156.49 110.882,-150.612 114.107,-160.704 119.697,-156.49"/>
</g>
<!-- SalesRestrictionNote -->
<g id="node6" class="node"><title>SalesRestrictionNote</title>
<ellipse fill="none" stroke="black" cx="237.457" cy="-126.5" rx="75.3931" ry="18"/>
<text text-anchor="middle" x="237.457" y="-124.1" font-family="Bitstream Vera Sans" font-size="8.00">Onix::V3_0::SalesRestrictionNote</text>
</g>
<!-- SalesRestriction&#45;&gt;SalesRestrictionNote -->
<g id="edge5" class="edge"><title>SalesRestriction&#45;&gt;SalesRestrictionNote</title>
<path fill="none" stroke="black" d="M191.858,-187.982C200.726,-176.22 210.431,-163.347 218.6,-152.512"/>
<polygon fill="black" stroke="black" points="221.551,-154.411 224.776,-144.319 215.962,-150.197 221.551,-154.411"/>
</g>
<!-- SalesOutletIdentifier -->
<g id="node7" class="node"><title>SalesOutletIdentifier</title>
<polygon fill="none" stroke="black" points="27.4258,-0.5 27.4258,-65.5 159.488,-65.5 159.488,-0.5 27.4258,-0.5"/>
<text text-anchor="start" x="35.4258" y="-55.1" font-family="Bitstream Vera Sans" font-size="8.00">Onix::V3_0::SalesOutletIdentifier</text>
<polyline fill="none" stroke="black" points="27.4258,-49.5 159.488,-49.5 "/>
<text text-anchor="start" x="35.4258" y="-39.1" font-family="Bitstream Vera Sans" font-size="8.00">sales_outlet_id_type</text>
<text text-anchor="start" x="35.4258" y="-31.1" font-family="Bitstream Vera Sans" font-size="8.00">id_type_name</text>
<text text-anchor="start" x="35.4258" y="-23.1" font-family="Bitstream Vera Sans" font-size="8.00">id_value</text>
<polyline fill="none" stroke="black" points="27.4258,-17.5 159.488,-17.5 "/>
</g>
<!-- SalesOutlet&#45;&gt;SalesOutletIdentifier -->
<g id="edge6" class="edge"><title>SalesOutlet&#45;&gt;SalesOutletIdentifier</title>
<path fill="none" stroke="black" d="M93.457,-102.411C93.457,-94.3329 93.457,-84.9943 93.457,-75.8636"/>
<polygon fill="black" stroke="black" points="96.9571,-75.7214 93.457,-65.7214 89.9571,-75.7215 96.9571,-75.7214"/>
</g>
</g>
</svg>
