<?xml version="1.0" encoding="UTF-8" standalone="no"?>
<!DOCTYPE svg PUBLIC "-//W3C//DTD SVG 1.1//EN"
 "http://www.w3.org/Graphics/SVG/1.1/DTD/svg11.dtd">
<!-- Generated by graphviz version 2.38.0 (20140413.2041)
 -->
<!-- Title: G Pages: 1 -->
<svg width="125pt" height="175pt"
 viewBox="0.00 0.00 124.50 175.00" xmlns="http://www.w3.org/2000/svg" xmlns:xlink="http://www.w3.org/1999/xlink">
<g id="graph0" class="graph" transform="scale(1 1) rotate(0) translate(4 171)">
<title>G</title>
<polygon fill="white" stroke="none" points="-4,4 -4,-171 120.504,-171 120.504,4 -4,4"/>
<!-- Sender -->
<g id="node1" class="node"><title>Sender</title>
<polygon fill="none" stroke="black" points="15.3418,-102.5 15.3418,-166.5 101.162,-166.5 101.162,-102.5 15.3418,-102.5"/>
<text text-anchor="start" x="23.3418" y="-156.1" font-family="Bitstream Vera Sans" font-size="8.00">Onix::V3_0::Sender</text>
<polyline fill="none" stroke="black" points="15.3418,-150.5 101.162,-150.5 "/>
<text text-anchor="start" x="23.3418" y="-140.1" font-family="Bitstream Vera Sans" font-size="8.00">sender_name</text>
<text text-anchor="start" x="23.3418" y="-132.1" font-family="Bitstream Vera Sans" font-size="8.00">contact_name</text>
<text text-anchor="start" x="23.3418" y="-124.1" font-family="Bitstream Vera Sans" font-size="8.00">email_address</text>
<polyline fill="none" stroke="black" points="15.3418,-118.5 101.162,-118.5 "/>
<text text-anchor="start" x="23.3418" y="-108.1" font-family="Bitstream Vera Sans" font-size="8.00">sender_identifiers[]</text>
</g>
<!-- SenderIdentifier -->
<g id="node2" class="node"><title>SenderIdentifier</title>
<polygon fill="none" stroke="black" points="0,-0.5 0,-65.5 116.504,-65.5 116.504,-0.5 0,-0.5"/>
<text text-anchor="start" x="8" y="-55.1" font-family="Bitstream Vera Sans" font-size="8.00">Onix::V3_0::SenderIdentifier</text>
<polyline fill="none" stroke="black" points="0,-49.5 116.504,-49.5 "/>
<text text-anchor="start" x="8" y="-39.1" font-family="Bitstream Vera Sans" font-size="8.00">sender_id_type</text>
<text text-anchor="start" x="8" y="-31.1" font-family="Bitstream Vera Sans" font-size="8.00">id_type_name</text>
<text text-anchor="start" x="8" y="-23.1" font-family="Bitstream Vera Sans" font-size="8.00">id_value</text>
<polyline fill="none" stroke="black" points="0,-17.5 116.504,-17.5 "/>
</g>
<!-- Sender&#45;&gt;SenderIdentifier -->
<g id="edge1" class="edge"><title>Sender&#45;&gt;SenderIdentifier</title>
<path fill="none" stroke="black" d="M58.252,-102.291C58.252,-93.9341 58.252,-84.7632 58.252,-75.9296"/>
<polygon fill="black" stroke="black" points="61.7521,-75.7838 58.252,-65.7838 54.7521,-75.7838 61.7521,-75.7838"/>
</g>
</g>
</svg>
