<?xml version="1.0" encoding="UTF-8" standalone="no"?>
<!DOCTYPE svg PUBLIC "-//W3C//DTD SVG 1.1//EN"
 "http://www.w3.org/Graphics/SVG/1.1/DTD/svg11.dtd">
<!-- Generated by graphviz version 2.38.0 (20140413.2041)
 -->
<!-- Title: G Pages: 1 -->
<svg width="658pt" height="223pt"
 viewBox="0.00 0.00 658.28 223.00" xmlns="http://www.w3.org/2000/svg" xmlns:xlink="http://www.w3.org/1999/xlink">
<g id="graph0" class="graph" transform="scale(1 1) rotate(0) translate(4 219)">
<title>G</title>
<polygon fill="white" stroke="none" points="-4,4 -4,-219 654.275,-219 654.275,4 -4,4"/>
<!-- Stock -->
<g id="node1" class="node"><title>Stock</title>
<polygon fill="none" stroke="black" points="297.561,-102.5 297.561,-214.5 399.393,-214.5 399.393,-102.5 297.561,-102.5"/>
<text text-anchor="start" x="305.561" y="-204.1" font-family="Bitstream Vera Sans" font-size="8.00">Onix::V3_0::Stock</text>
<polyline fill="none" stroke="black" points="297.561,-198.5 399.393,-198.5 "/>
<text text-anchor="start" x="305.561" y="-188.1" font-family="Bitstream Vera Sans" font-size="8.00">on_hand</text>
<text text-anchor="start" x="305.561" y="-180.1" font-family="Bitstream Vera Sans" font-size="8.00">proximity</text>
<text text-anchor="start" x="305.561" y="-172.1" font-family="Bitstream Vera Sans" font-size="8.00">reserved</text>
<text text-anchor="start" x="305.561" y="-164.1" font-family="Bitstream Vera Sans" font-size="8.00">on_order</text>
<text text-anchor="start" x="305.561" y="-156.1" font-family="Bitstream Vera Sans" font-size="8.00">cbo</text>
<polyline fill="none" stroke="black" points="297.561,-150.5 399.393,-150.5 "/>
<text text-anchor="start" x="305.561" y="-140.1" font-family="Bitstream Vera Sans" font-size="8.00">location_identifiers[]</text>
<text text-anchor="start" x="305.561" y="-132.1" font-family="Bitstream Vera Sans" font-size="8.00">location_names[]</text>
<text text-anchor="start" x="305.561" y="-124.1" font-family="Bitstream Vera Sans" font-size="8.00">stock_quantity_codeds[]</text>
<text text-anchor="start" x="305.561" y="-116.1" font-family="Bitstream Vera Sans" font-size="8.00">on_order_details[]</text>
<text text-anchor="start" x="305.561" y="-108.1" font-family="Bitstream Vera Sans" font-size="8.00">velocities[]</text>
</g>
<!-- LocationIdentifier -->
<g id="node2" class="node"><title>LocationIdentifier</title>
<polygon fill="none" stroke="black" points="0,-0.5 0,-65.5 120.953,-65.5 120.953,-0.5 0,-0.5"/>
<text text-anchor="start" x="8" y="-55.1" font-family="Bitstream Vera Sans" font-size="8.00">Onix::V3_0::LocationIdentifier</text>
<polyline fill="none" stroke="black" points="0,-49.5 120.953,-49.5 "/>
<text text-anchor="start" x="8" y="-39.1" font-family="Bitstream Vera Sans" font-size="8.00">location_id_type</text>
<text text-anchor="start" x="8" y="-31.1" font-family="Bitstream Vera Sans" font-size="8.00">id_type_name</text>
<text text-anchor="start" x="8" y="-23.1" font-family="Bitstream Vera Sans" font-size="8.00">id_value</text>
<polyline fill="none" stroke="black" points="0,-17.5 120.953,-17.5 "/>
</g>
<!-- Stock&#45;&gt;LocationIdentifier -->
<g id="edge1" class="edge"><title>Stock&#45;&gt;LocationIdentifier</title>
<path fill="none" stroke="black" d="M297.188,-136.505C252.888,-118.244 187.242,-90.8808 130.477,-66 130.381,-65.9581 130.285,-65.9161 130.19,-65.8742"/>
<polygon fill="black" stroke="black" points="131.692,-62.7116 121.131,-61.8683 128.861,-69.1136 131.692,-62.7116"/>
</g>
<!-- LocationName -->
<g id="node3" class="node"><title>LocationName</title>
<ellipse fill="none" stroke="black" cx="201.477" cy="-33" rx="62.0916" ry="18"/>
<text text-anchor="middle" x="201.477" y="-30.6" font-family="Bitstream Vera Sans" font-size="8.00">Onix::V3_0::LocationName</text>
</g>
<!-- Stock&#45;&gt;LocationName -->
<g id="edge2" class="edge"><title>Stock&#45;&gt;LocationName</title>
<path fill="none" stroke="black" d="M297.476,-114.652C274.402,-95.2673 248.055,-73.1318 228.806,-56.9607"/>
<polygon fill="black" stroke="black" points="230.93,-54.1736 221.022,-50.4208 226.427,-59.5331 230.93,-54.1736"/>
</g>
<!-- StockQuantityCoded -->
<g id="node4" class="node"><title>StockQuantityCoded</title>
<polygon fill="none" stroke="black" points="281.777,-0.5 281.777,-65.5 415.176,-65.5 415.176,-0.5 281.777,-0.5"/>
<text text-anchor="start" x="289.777" y="-55.1" font-family="Bitstream Vera Sans" font-size="8.00">Onix::V3_0::StockQuantityCoded</text>
<polyline fill="none" stroke="black" points="281.777,-49.5 415.176,-49.5 "/>
<text text-anchor="start" x="289.777" y="-39.1" font-family="Bitstream Vera Sans" font-size="8.00">stock_quantity_code_type</text>
<text text-anchor="start" x="289.777" y="-31.1" font-family="Bitstream Vera Sans" font-size="8.00">stock_quantity_code_type_name</text>
<text text-anchor="start" x="289.777" y="-23.1" font-family="Bitstream Vera Sans" font-size="8.00">stock_quantity_code</text>
<polyline fill="none" stroke="black" points="281.777,-17.5 415.176,-17.5 "/>
</g>
<!-- Stock&#45;&gt;StockQuantityCoded -->
<g id="edge3" class="edge"><title>Stock&#45;&gt;StockQuantityCoded</title>
<path fill="none" stroke="black" d="M348.477,-102.252C348.477,-93.3028 348.477,-84.1694 348.477,-75.615"/>
<polygon fill="black" stroke="black" points="351.977,-75.5188 348.477,-65.5188 344.977,-75.5189 351.977,-75.5188"/>
</g>
<!-- OnOrderDetail -->
<g id="node5" class="node"><title>OnOrderDetail</title>
<polygon fill="none" stroke="black" points="432.678,-0.5 432.678,-65.5 544.275,-65.5 544.275,-0.5 432.678,-0.5"/>
<text text-anchor="start" x="440.678" y="-55.1" font-family="Bitstream Vera Sans" font-size="8.00">Onix::V3_0::OnOrderDetail</text>
<polyline fill="none" stroke="black" points="432.678,-49.5 544.275,-49.5 "/>
<text text-anchor="start" x="440.678" y="-39.1" font-family="Bitstream Vera Sans" font-size="8.00">on_order</text>
<text text-anchor="start" x="440.678" y="-31.1" font-family="Bitstream Vera Sans" font-size="8.00">proximity</text>
<text text-anchor="start" x="440.678" y="-23.1" font-family="Bitstream Vera Sans" font-size="8.00">expected_date</text>
<polyline fill="none" stroke="black" points="432.678,-17.5 544.275,-17.5 "/>
</g>
<!-- Stock&#45;&gt;OnOrderDetail -->
<g id="edge4" class="edge"><title>Stock&#45;&gt;OnOrderDetail</title>
<path fill="none" stroke="black" d="M399.416,-112.564C414.324,-99.4129 430.481,-85.1601 444.889,-72.4505"/>
<polygon fill="black" stroke="black" points="447.51,-74.8052 452.694,-65.5651 442.88,-69.5557 447.51,-74.8052"/>
</g>
<!-- Velocity -->
<g id="node6" class="node"><title>Velocity</title>
<polygon fill="none" stroke="black" points="562.678,-0.5 562.678,-65.5 650.275,-65.5 650.275,-0.5 562.678,-0.5"/>
<text text-anchor="start" x="570.678" y="-55.1" font-family="Bitstream Vera Sans" font-size="8.00">Onix::V3_0::Velocity</text>
<polyline fill="none" stroke="black" points="562.678,-49.5 650.275,-49.5 "/>
<text text-anchor="start" x="570.678" y="-39.1" font-family="Bitstream Vera Sans" font-size="8.00">velocity_metric</text>
<text text-anchor="start" x="570.678" y="-31.1" font-family="Bitstream Vera Sans" font-size="8.00">rate</text>
<text text-anchor="start" x="570.678" y="-23.1" font-family="Bitstream Vera Sans" font-size="8.00">proximity</text>
<polyline fill="none" stroke="black" points="562.678,-17.5 650.275,-17.5 "/>
</g>
<!-- Stock&#45;&gt;Velocity -->
<g id="edge5" class="edge"><title>Stock&#45;&gt;Velocity</title>
<path fill="none" stroke="black" d="M399.427,-136.826C441.415,-119.3 502.18,-92.8034 553.477,-66 553.569,-65.9518 553.661,-65.9035 553.754,-65.8551"/>
<polygon fill="black" stroke="black" points="555.343,-68.9749 562.464,-61.1299 552.005,-62.822 555.343,-68.9749"/>
</g>
</g>
</svg>
