<?xml version="1.0" encoding="UTF-8" standalone="no"?>
<!DOCTYPE svg PUBLIC "-//W3C//DTD SVG 1.1//EN"
 "http://www.w3.org/Graphics/SVG/1.1/DTD/svg11.dtd">
<!-- Generated by graphviz version 2.38.0 (20140413.2041)
 -->
<!-- Title: G Pages: 1 -->
<svg width="154pt" height="161pt"
 viewBox="0.00 0.00 154.44 161.00" xmlns="http://www.w3.org/2000/svg" xmlns:xlink="http://www.w3.org/1999/xlink">
<g id="graph0" class="graph" transform="scale(1 1) rotate(0) translate(4 157)">
<title>G</title>
<polygon fill="white" stroke="none" points="-4,4 -4,-157 150.438,-157 150.438,4 -4,4"/>
<!-- Subject -->
<g id="node1" class="node"><title>Subject</title>
<polygon fill="none" stroke="black" points="18.9707,-72.5 18.9707,-152.5 127.467,-152.5 127.467,-72.5 18.9707,-72.5"/>
<text text-anchor="start" x="26.9707" y="-142.1" font-family="Bitstream Vera Sans" font-size="8.00">Onix::V3_0::Subject</text>
<polyline fill="none" stroke="black" points="18.9707,-136.5 127.467,-136.5 "/>
<text text-anchor="start" x="26.9707" y="-126.1" font-family="Bitstream Vera Sans" font-size="8.00">main_subject</text>
<text text-anchor="start" x="26.9707" y="-118.1" font-family="Bitstream Vera Sans" font-size="8.00">subject_scheme_identifier</text>
<text text-anchor="start" x="26.9707" y="-110.1" font-family="Bitstream Vera Sans" font-size="8.00">subject_scheme_name</text>
<text text-anchor="start" x="26.9707" y="-102.1" font-family="Bitstream Vera Sans" font-size="8.00">subject_scheme_version</text>
<text text-anchor="start" x="26.9707" y="-94.1" font-family="Bitstream Vera Sans" font-size="8.00">subject_code</text>
<polyline fill="none" stroke="black" points="18.9707,-88.5 127.467,-88.5 "/>
<text text-anchor="start" x="26.9707" y="-78.1" font-family="Bitstream Vera Sans" font-size="8.00">subject_heading_texts[]</text>
</g>
<!-- SubjectHeadingText -->
<g id="node2" class="node"><title>SubjectHeadingText</title>
<ellipse fill="none" stroke="black" cx="73.2188" cy="-18" rx="73.4382" ry="18"/>
<text text-anchor="middle" x="73.2188" y="-15.6" font-family="Bitstream Vera Sans" font-size="8.00">Onix::V3_0::SubjectHeadingText</text>
</g>
<!-- Subject&#45;&gt;SubjectHeadingText -->
<g id="edge1" class="edge"><title>Subject&#45;&gt;SubjectHeadingText</title>
<path fill="none" stroke="black" d="M73.2188,-72.2717C73.2188,-63.507 73.2188,-54.3978 73.2188,-46.243"/>
<polygon fill="black" stroke="black" points="76.7189,-46.1817 73.2188,-36.1818 69.7189,-46.1818 76.7189,-46.1817"/>
</g>
</g>
</svg>
