<?xml version="1.0" encoding="UTF-8" standalone="no"?>
<!DOCTYPE svg PUBLIC "-//W3C//DTD SVG 1.1//EN"
 "http://www.w3.org/Graphics/SVG/1.1/DTD/svg11.dtd">
<!-- Generated by graphviz version 2.38.0 (20140413.2041)
 -->
<!-- Title: G Pages: 1 -->
<svg width="713pt" height="373pt"
 viewBox="0.00 0.00 712.93 373.00" xmlns="http://www.w3.org/2000/svg" xmlns:xlink="http://www.w3.org/1999/xlink">
<g id="graph0" class="graph" transform="scale(1 1) rotate(0) translate(4 369)">
<title>G</title>
<polygon fill="white" stroke="none" points="-4,4 -4,-369 708.928,-369 708.928,4 -4,4"/>
<!-- SupportingResource -->
<g id="node1" class="node"><title>SupportingResource</title>
<polygon fill="none" stroke="black" points="155.979,-284.5 155.979,-364.5 288.936,-364.5 288.936,-284.5 155.979,-284.5"/>
<text text-anchor="start" x="163.979" y="-354.1" font-family="Bitstream Vera Sans" font-size="8.00">Onix::V3_0::SupportingResource</text>
<polyline fill="none" stroke="black" points="155.979,-348.5 288.936,-348.5 "/>
<text text-anchor="start" x="163.979" y="-338.1" font-family="Bitstream Vera Sans" font-size="8.00">resource_content_type</text>
<text text-anchor="start" x="163.979" y="-330.1" font-family="Bitstream Vera Sans" font-size="8.00">resource_mode</text>
<polyline fill="none" stroke="black" points="155.979,-324.5 288.936,-324.5 "/>
<text text-anchor="start" x="163.979" y="-314.1" font-family="Bitstream Vera Sans" font-size="8.00">territory</text>
<text text-anchor="start" x="163.979" y="-306.1" font-family="Bitstream Vera Sans" font-size="8.00">content_audiences[]</text>
<text text-anchor="start" x="163.979" y="-298.1" font-family="Bitstream Vera Sans" font-size="8.00">resource_features[]</text>
<text text-anchor="start" x="163.979" y="-290.1" font-family="Bitstream Vera Sans" font-size="8.00">resource_versions[]</text>
</g>
<!-- Territory -->
<g id="node2" class="node"><title>Territory</title>
<polygon fill="none" stroke="black" points="0,-174.5 0,-247.5 88.9141,-247.5 88.9141,-174.5 0,-174.5"/>
<text text-anchor="start" x="8" y="-237.1" font-family="Bitstream Vera Sans" font-size="8.00">Onix::V3_0::Territory</text>
<polyline fill="none" stroke="black" points="0,-231.5 88.9141,-231.5 "/>
<text text-anchor="start" x="8" y="-221.1" font-family="Bitstream Vera Sans" font-size="8.00">countries_included</text>
<text text-anchor="start" x="8" y="-213.1" font-family="Bitstream Vera Sans" font-size="8.00">regions_included</text>
<text text-anchor="start" x="8" y="-205.1" font-family="Bitstream Vera Sans" font-size="8.00">regions_excluded</text>
<text text-anchor="start" x="8" y="-197.1" font-family="Bitstream Vera Sans" font-size="8.00">countries_excluded</text>
<polyline fill="none" stroke="black" points="0,-191.5 88.9141,-191.5 "/>
</g>
<!-- SupportingResource&#45;&gt;Territory -->
<g id="edge1" class="edge"><title>SupportingResource&#45;&gt;Territory</title>
<path fill="none" stroke="black" d="M156.205,-284.381C137.115,-272.867 116.347,-260.108 97.457,-248 94.7413,-246.259 91.9607,-244.451 89.1648,-242.613"/>
</g>
<!-- ContentAudience -->
<g id="node3" class="node"><title>ContentAudience</title>
<ellipse fill="none" stroke="black" cx="174.457" cy="-211" rx="67.5238" ry="18"/>
<text text-anchor="middle" x="174.457" y="-208.6" font-family="Bitstream Vera Sans" font-size="8.00">Onix::V3_0::ContentAudience</text>
</g>
<!-- SupportingResource&#45;&gt;ContentAudience -->
<g id="edge2" class="edge"><title>SupportingResource&#45;&gt;ContentAudience</title>
<path fill="none" stroke="black" d="M205.534,-284.189C198.975,-268.953 191.641,-251.917 185.746,-238.222"/>
<polygon fill="black" stroke="black" points="188.908,-236.716 181.739,-228.915 182.478,-239.484 188.908,-236.716"/>
</g>
<!-- ResourceFeature -->
<g id="node4" class="node"><title>ResourceFeature</title>
<polygon fill="none" stroke="black" points="154.541,-77 154.541,-133 276.373,-133 276.373,-77 154.541,-77"/>
<text text-anchor="start" x="162.541" y="-122.6" font-family="Bitstream Vera Sans" font-size="8.00">Onix::V3_0::ResourceFeature</text>
<polyline fill="none" stroke="black" points="154.541,-117 276.373,-117 "/>
<text text-anchor="start" x="162.541" y="-106.6" font-family="Bitstream Vera Sans" font-size="8.00">resource_feature_type</text>
<text text-anchor="start" x="162.541" y="-98.6" font-family="Bitstream Vera Sans" font-size="8.00">feature_value</text>
<polyline fill="none" stroke="black" points="154.541,-93 276.373,-93 "/>
<text text-anchor="start" x="162.541" y="-82.6" font-family="Bitstream Vera Sans" font-size="8.00">feature_notes[]</text>
</g>
<!-- SupportingResource&#45;&gt;ResourceFeature -->
<g id="edge3" class="edge"><title>SupportingResource&#45;&gt;ResourceFeature</title>
<path fill="none" stroke="black" d="M240.622,-284.327C245.073,-272.867 249.204,-260.149 251.457,-248 257.454,-215.662 259.385,-205.919 251.457,-174 248.745,-163.082 243.921,-151.988 238.669,-142.016"/>
<polygon fill="black" stroke="black" points="241.691,-140.249 233.773,-133.21 235.573,-143.65 241.691,-140.249"/>
</g>
<!-- ResourceVersion -->
<g id="node5" class="node"><title>ResourceVersion</title>
<polygon fill="none" stroke="black" points="406.982,-179 406.982,-243 527.932,-243 527.932,-179 406.982,-179"/>
<text text-anchor="start" x="414.982" y="-232.6" font-family="Bitstream Vera Sans" font-size="8.00">Onix::V3_0::ResourceVersion</text>
<polyline fill="none" stroke="black" points="406.982,-227 527.932,-227 "/>
<text text-anchor="start" x="414.982" y="-216.6" font-family="Bitstream Vera Sans" font-size="8.00">resource_form</text>
<polyline fill="none" stroke="black" points="406.982,-211 527.932,-211 "/>
<text text-anchor="start" x="414.982" y="-200.6" font-family="Bitstream Vera Sans" font-size="8.00">resource_version_features[]</text>
<text text-anchor="start" x="414.982" y="-192.6" font-family="Bitstream Vera Sans" font-size="8.00">resource_links[]</text>
<text text-anchor="start" x="414.982" y="-184.6" font-family="Bitstream Vera Sans" font-size="8.00">content_dates[]</text>
</g>
<!-- SupportingResource&#45;&gt;ResourceVersion -->
<g id="edge4" class="edge"><title>SupportingResource&#45;&gt;ResourceVersion</title>
<path fill="none" stroke="black" d="M289.081,-293.179C322.627,-277.913 363.287,-259.408 397.311,-243.924"/>
<polygon fill="black" stroke="black" points="399.068,-246.969 406.72,-239.642 396.168,-240.598 399.068,-246.969"/>
</g>
<!-- FeatureNote -->
<g id="node6" class="node"><title>FeatureNote</title>
<ellipse fill="none" stroke="black" cx="291.457" cy="-18" rx="58.1465" ry="18"/>
<text text-anchor="middle" x="291.457" y="-15.6" font-family="Bitstream Vera Sans" font-size="8.00">Onix::V3_0::FeatureNote</text>
</g>
<!-- ResourceFeature&#45;&gt;FeatureNote -->
<g id="edge5" class="edge"><title>ResourceFeature&#45;&gt;FeatureNote</title>
<path fill="none" stroke="black" d="M239.922,-76.6376C249.535,-65.8863 260.477,-53.6484 269.799,-43.223"/>
<polygon fill="black" stroke="black" points="272.506,-45.4462 276.562,-35.6586 267.288,-40.7804 272.506,-45.4462"/>
</g>
<!-- ResourceVersionFeature -->
<g id="node7" class="node"><title>ResourceVersionFeature</title>
<polygon fill="none" stroke="black" points="294.197,-77 294.197,-133 442.717,-133 442.717,-77 294.197,-77"/>
<text text-anchor="start" x="302.197" y="-122.6" font-family="Bitstream Vera Sans" font-size="8.00">Onix::V3_0::ResourceVersionFeature</text>
<polyline fill="none" stroke="black" points="294.197,-117 442.717,-117 "/>
<text text-anchor="start" x="302.197" y="-106.6" font-family="Bitstream Vera Sans" font-size="8.00">resource_version_feature_type</text>
<text text-anchor="start" x="302.197" y="-98.6" font-family="Bitstream Vera Sans" font-size="8.00">feature_value</text>
<polyline fill="none" stroke="black" points="294.197,-93 442.717,-93 "/>
<text text-anchor="start" x="302.197" y="-82.6" font-family="Bitstream Vera Sans" font-size="8.00">feature_notes[]</text>
</g>
<!-- ResourceVersion&#45;&gt;ResourceVersionFeature -->
<g id="edge6" class="edge"><title>ResourceVersion&#45;&gt;ResourceVersionFeature</title>
<path fill="none" stroke="black" d="M437.754,-178.797C426.34,-166.806 413.244,-153.049 401.532,-140.745"/>
<polygon fill="black" stroke="black" points="403.876,-138.131 394.446,-133.301 398.806,-142.958 403.876,-138.131"/>
</g>
<!-- ResourceLink -->
<g id="node8" class="node"><title>ResourceLink</title>
<ellipse fill="none" stroke="black" cx="521.457" cy="-105" rx="60.6089" ry="18"/>
<text text-anchor="middle" x="521.457" y="-102.6" font-family="Bitstream Vera Sans" font-size="8.00">Onix::V3_0::ResourceLink</text>
</g>
<!-- ResourceVersion&#45;&gt;ResourceLink -->
<g id="edge7" class="edge"><title>ResourceVersion&#45;&gt;ResourceLink</title>
<path fill="none" stroke="black" d="M483.659,-178.797C491.383,-163.921 500.518,-146.327 507.873,-132.162"/>
<polygon fill="black" stroke="black" points="511.139,-133.467 512.641,-122.979 504.927,-130.241 511.139,-133.467"/>
</g>
<!-- ContentDate -->
<g id="node9" class="node"><title>ContentDate</title>
<polygon fill="none" stroke="black" points="599.986,-72.5 599.986,-137.5 704.928,-137.5 704.928,-72.5 599.986,-72.5"/>
<text text-anchor="start" x="607.986" y="-127.1" font-family="Bitstream Vera Sans" font-size="8.00">Onix::V3_0::ContentDate</text>
<polyline fill="none" stroke="black" points="599.986,-121.5 704.928,-121.5 "/>
<text text-anchor="start" x="607.986" y="-111.1" font-family="Bitstream Vera Sans" font-size="8.00">content_date_role</text>
<text text-anchor="start" x="607.986" y="-103.1" font-family="Bitstream Vera Sans" font-size="8.00">date_format</text>
<text text-anchor="start" x="607.986" y="-95.1" font-family="Bitstream Vera Sans" font-size="8.00">date</text>
<polyline fill="none" stroke="black" points="599.986,-89.5 704.928,-89.5 "/>
</g>
<!-- ResourceVersion&#45;&gt;ContentDate -->
<g id="edge8" class="edge"><title>ResourceVersion&#45;&gt;ContentDate</title>
<path fill="none" stroke="black" d="M522.713,-178.937C544.142,-166.891 568.773,-153.044 590.777,-140.674"/>
<polygon fill="black" stroke="black" points="592.705,-143.605 599.707,-135.654 589.275,-137.504 592.705,-143.605"/>
</g>
<!-- ResourceVersionFeature&#45;&gt;FeatureNote -->
<g id="edge9" class="edge"><title>ResourceVersionFeature&#45;&gt;FeatureNote</title>
<path fill="none" stroke="black" d="M343.67,-76.6376C333.86,-65.809 322.685,-53.4722 313.197,-42.9983"/>
<polygon fill="black" stroke="black" points="315.628,-40.4692 306.321,-35.4077 310.44,-45.1688 315.628,-40.4692"/>
</g>
</g>
</svg>
