<?xml version="1.0" encoding="UTF-8" standalone="no"?>
<!DOCTYPE svg PUBLIC "-//W3C//DTD SVG 1.1//EN"
 "http://www.w3.org/Graphics/SVG/1.1/DTD/svg11.dtd">
<!-- Generated by graphviz version 2.38.0 (20140413.2041)
 -->
<!-- Title: G Pages: 1 -->
<svg width="695pt" height="271pt"
 viewBox="0.00 0.00 694.92 271.00" xmlns="http://www.w3.org/2000/svg" xmlns:xlink="http://www.w3.org/1999/xlink">
<g id="graph0" class="graph" transform="scale(1 1) rotate(0) translate(4 267)">
<title>G</title>
<polygon fill="white" stroke="none" points="-4,4 -4,-267 690.918,-267 690.918,4 -4,4"/>
<!-- Supplier -->
<g id="node1" class="node"><title>Supplier</title>
<polygon fill="none" stroke="black" points="307.447,-174.5 307.447,-262.5 398.611,-262.5 398.611,-174.5 307.447,-174.5"/>
<text text-anchor="start" x="315.447" y="-252.1" font-family="Bitstream Vera Sans" font-size="8.00">Onix::V3_0::Supplier</text>
<polyline fill="none" stroke="black" points="307.447,-246.5 398.611,-246.5 "/>
<text text-anchor="start" x="315.447" y="-236.1" font-family="Bitstream Vera Sans" font-size="8.00">supplier_role</text>
<text text-anchor="start" x="315.447" y="-228.1" font-family="Bitstream Vera Sans" font-size="8.00">supplier_name</text>
<polyline fill="none" stroke="black" points="307.447,-222.5 398.611,-222.5 "/>
<text text-anchor="start" x="315.447" y="-212.1" font-family="Bitstream Vera Sans" font-size="8.00">supplier_identifiers[]</text>
<text text-anchor="start" x="315.447" y="-204.1" font-family="Bitstream Vera Sans" font-size="8.00">telephone_numbers[]</text>
<text text-anchor="start" x="315.447" y="-196.1" font-family="Bitstream Vera Sans" font-size="8.00">fax_numbers[]</text>
<text text-anchor="start" x="315.447" y="-188.1" font-family="Bitstream Vera Sans" font-size="8.00">email_addresses[]</text>
<text text-anchor="start" x="315.447" y="-180.1" font-family="Bitstream Vera Sans" font-size="8.00">websites[]</text>
</g>
<!-- SupplierIdentifier -->
<g id="node2" class="node"><title>SupplierIdentifier</title>
<polygon fill="none" stroke="black" points="0,-72.5 0,-137.5 120.059,-137.5 120.059,-72.5 0,-72.5"/>
<text text-anchor="start" x="8" y="-127.1" font-family="Bitstream Vera Sans" font-size="8.00">Onix::V3_0::SupplierIdentifier</text>
<polyline fill="none" stroke="black" points="0,-121.5 120.059,-121.5 "/>
<text text-anchor="start" x="8" y="-111.1" font-family="Bitstream Vera Sans" font-size="8.00">supplier_id_type</text>
<text text-anchor="start" x="8" y="-103.1" font-family="Bitstream Vera Sans" font-size="8.00">id_type_name</text>
<text text-anchor="start" x="8" y="-95.1" font-family="Bitstream Vera Sans" font-size="8.00">id_value</text>
<polyline fill="none" stroke="black" points="0,-89.5 120.059,-89.5 "/>
</g>
<!-- Supplier&#45;&gt;SupplierIdentifier -->
<g id="edge1" class="edge"><title>Supplier&#45;&gt;SupplierIdentifier</title>
<path fill="none" stroke="black" d="M307.084,-202.591C263.52,-188.142 196.162,-164.998 129.495,-138.08"/>
<polygon fill="black" stroke="black" points="130.677,-134.783 120.095,-134.257 128.039,-141.267 130.677,-134.783"/>
</g>
<!-- TelephoneNumber -->
<g id="node3" class="node"><title>TelephoneNumber</title>
<ellipse fill="none" stroke="black" cx="208.029" cy="-105" rx="69.9839" ry="18"/>
<text text-anchor="middle" x="208.029" y="-102.6" font-family="Bitstream Vera Sans" font-size="8.00">Onix::V3_0::TelephoneNumber</text>
</g>
<!-- Supplier&#45;&gt;TelephoneNumber -->
<g id="edge2" class="edge"><title>Supplier&#45;&gt;TelephoneNumber</title>
<path fill="none" stroke="black" d="M307.15,-182.221C284.354,-164.691 257.481,-144.027 237.47,-128.639"/>
<polygon fill="black" stroke="black" points="239.407,-125.714 229.347,-122.392 235.14,-131.263 239.407,-125.714"/>
</g>
<!-- FaxNumber -->
<g id="node4" class="node"><title>FaxNumber</title>
<ellipse fill="none" stroke="black" cx="353.029" cy="-105" rx="56.6551" ry="18"/>
<text text-anchor="middle" x="353.029" y="-102.6" font-family="Bitstream Vera Sans" font-size="8.00">Onix::V3_0::FaxNumber</text>
</g>
<!-- Supplier&#45;&gt;FaxNumber -->
<g id="edge3" class="edge"><title>Supplier&#45;&gt;FaxNumber</title>
<path fill="none" stroke="black" d="M353.029,-174.391C353.029,-160.551 353.029,-145.614 353.029,-133.24"/>
<polygon fill="black" stroke="black" points="356.529,-133.118 353.029,-123.119 349.529,-133.119 356.529,-133.118"/>
</g>
<!-- EmailAddress -->
<g id="node5" class="node"><title>EmailAddress</title>
<ellipse fill="none" stroke="black" cx="489.029" cy="-105" rx="61.0967" ry="18"/>
<text text-anchor="middle" x="489.029" y="-102.6" font-family="Bitstream Vera Sans" font-size="8.00">Onix::V3_0::EmailAddress</text>
</g>
<!-- Supplier&#45;&gt;EmailAddress -->
<g id="edge4" class="edge"><title>Supplier&#45;&gt;EmailAddress</title>
<path fill="none" stroke="black" d="M398.694,-180.062C419.438,-163.054 443.303,-143.489 461.292,-128.741"/>
<polygon fill="black" stroke="black" points="463.597,-131.376 469.111,-122.33 459.159,-125.963 463.597,-131.376"/>
</g>
<!-- Website -->
<g id="node6" class="node"><title>Website</title>
<polygon fill="none" stroke="black" points="567.676,-77 567.676,-133 662.383,-133 662.383,-77 567.676,-77"/>
<text text-anchor="start" x="575.676" y="-122.6" font-family="Bitstream Vera Sans" font-size="8.00">Onix::V3_0::Website</text>
<polyline fill="none" stroke="black" points="567.676,-117 662.383,-117 "/>
<text text-anchor="start" x="575.676" y="-106.6" font-family="Bitstream Vera Sans" font-size="8.00">website_role</text>
<text text-anchor="start" x="575.676" y="-98.6" font-family="Bitstream Vera Sans" font-size="8.00">website_link</text>
<polyline fill="none" stroke="black" points="567.676,-93 662.383,-93 "/>
<text text-anchor="start" x="575.676" y="-82.6" font-family="Bitstream Vera Sans" font-size="8.00">website_descriptions[]</text>
</g>
<!-- Supplier&#45;&gt;Website -->
<g id="edge5" class="edge"><title>Supplier&#45;&gt;Website</title>
<path fill="none" stroke="black" d="M398.863,-202.052C441.167,-187.272 505.365,-163.509 559.029,-138 559.232,-137.904 559.434,-137.807 559.637,-137.71"/>
<polygon fill="black" stroke="black" points="561.491,-140.696 568.869,-133.092 558.359,-134.436 561.491,-140.696"/>
</g>
<!-- WebsiteDescription -->
<g id="node7" class="node"><title>WebsiteDescription</title>
<ellipse fill="none" stroke="black" cx="615.029" cy="-18" rx="71.7777" ry="18"/>
<text text-anchor="middle" x="615.029" y="-15.6" font-family="Bitstream Vera Sans" font-size="8.00">Onix::V3_0::WebsiteDescription</text>
</g>
<!-- Website&#45;&gt;WebsiteDescription -->
<g id="edge6" class="edge"><title>Website&#45;&gt;WebsiteDescription</title>
<path fill="none" stroke="black" d="M615.029,-76.6376C615.029,-66.976 615.029,-56.1138 615.029,-46.4454"/>
<polygon fill="black" stroke="black" points="618.529,-46.1642 615.029,-36.1642 611.529,-46.1643 618.529,-46.1642"/>
</g>
</g>
</svg>
