<?xml version="1.0" encoding="UTF-8" standalone="no"?>
<!DOCTYPE svg PUBLIC "-//W3C//DTD SVG 1.1//EN"
 "http://www.w3.org/Graphics/SVG/1.1/DTD/svg11.dtd">
<!-- Generated by graphviz version 2.38.0 (20140413.2041)
 -->
<!-- Title: G Pages: 1 -->
<svg width="151pt" height="183pt"
 viewBox="0.00 0.00 150.74 183.00" xmlns="http://www.w3.org/2000/svg" xmlns:xlink="http://www.w3.org/1999/xlink">
<g id="graph0" class="graph" transform="scale(1 1) rotate(0) translate(4 179)">
<title>G</title>
<polygon fill="white" stroke="none" points="-4,4 -4,-179 146.738,-179 146.738,4 -4,4"/>
<!-- SupplyContact -->
<g id="node1" class="node"><title>SupplyContact</title>
<polygon fill="none" stroke="black" points="15.1191,-102.5 15.1191,-174.5 127.619,-174.5 127.619,-102.5 15.1191,-102.5"/>
<text text-anchor="start" x="23.1191" y="-164.1" font-family="Bitstream Vera Sans" font-size="8.00">Onix::V3_0::SupplyContact</text>
<polyline fill="none" stroke="black" points="15.1191,-158.5 127.619,-158.5 "/>
<text text-anchor="start" x="23.1191" y="-148.1" font-family="Bitstream Vera Sans" font-size="8.00">supply_contact_role</text>
<text text-anchor="start" x="23.1191" y="-140.1" font-family="Bitstream Vera Sans" font-size="8.00">supply_contact_name</text>
<text text-anchor="start" x="23.1191" y="-132.1" font-family="Bitstream Vera Sans" font-size="8.00">contact_name</text>
<text text-anchor="start" x="23.1191" y="-124.1" font-family="Bitstream Vera Sans" font-size="8.00">email_address</text>
<polyline fill="none" stroke="black" points="15.1191,-118.5 127.619,-118.5 "/>
<text text-anchor="start" x="23.1191" y="-108.1" font-family="Bitstream Vera Sans" font-size="8.00">supply_contact_identifiers[]</text>
</g>
<!-- SupplyContactIdentifier -->
<g id="node2" class="node"><title>SupplyContactIdentifier</title>
<polygon fill="none" stroke="black" points="0,-0.5 0,-65.5 142.738,-65.5 142.738,-0.5 0,-0.5"/>
<text text-anchor="start" x="8" y="-55.1" font-family="Bitstream Vera Sans" font-size="8.00">Onix::V3_0::SupplyContactIdentifier</text>
<polyline fill="none" stroke="black" points="0,-49.5 142.738,-49.5 "/>
<text text-anchor="start" x="8" y="-39.1" font-family="Bitstream Vera Sans" font-size="8.00">supply_contact_id_type</text>
<text text-anchor="start" x="8" y="-31.1" font-family="Bitstream Vera Sans" font-size="8.00">id_type_name</text>
<text text-anchor="start" x="8" y="-23.1" font-family="Bitstream Vera Sans" font-size="8.00">id_value</text>
<polyline fill="none" stroke="black" points="0,-17.5 142.738,-17.5 "/>
</g>
<!-- SupplyContact&#45;&gt;SupplyContactIdentifier -->
<g id="edge1" class="edge"><title>SupplyContact&#45;&gt;SupplyContactIdentifier</title>
<path fill="none" stroke="black" d="M71.3691,-102.46C71.3691,-93.8608 71.3691,-84.5725 71.3691,-75.6948"/>
<polygon fill="black" stroke="black" points="74.8692,-75.5277 71.3691,-65.5278 67.8692,-75.5278 74.8692,-75.5277"/>
</g>
</g>
</svg>
