<?xml version="1.0" encoding="UTF-8" standalone="no"?>
<!DOCTYPE svg PUBLIC "-//W3C//DTD SVG 1.1//EN"
 "http://www.w3.org/Graphics/SVG/1.1/DTD/svg11.dtd">
<!-- Generated by graphviz version 2.38.0 (20140413.2041)
 -->
<!-- Title: G Pages: 1 -->
<svg width="292pt" height="199pt"
 viewBox="0.00 0.00 292.34 199.00" xmlns="http://www.w3.org/2000/svg" xmlns:xlink="http://www.w3.org/1999/xlink">
<g id="graph0" class="graph" transform="scale(1 1) rotate(0) translate(4 195)">
<title>G</title>
<polygon fill="white" stroke="none" points="-4,4 -4,-195 288.339,-195 288.339,4 -4,4"/>
<!-- Tax -->
<g id="node1" class="node"><title>Tax</title>
<polygon fill="none" stroke="black" points="82.5605,-102.5 82.5605,-190.5 185.717,-190.5 185.717,-102.5 82.5605,-102.5"/>
<text text-anchor="start" x="90.5605" y="-180.1" font-family="Bitstream Vera Sans" font-size="8.00">Onix::V3_0::Tax</text>
<polyline fill="none" stroke="black" points="82.5605,-174.5 185.717,-174.5 "/>
<text text-anchor="start" x="90.5605" y="-164.1" font-family="Bitstream Vera Sans" font-size="8.00">tax_type</text>
<text text-anchor="start" x="90.5605" y="-156.1" font-family="Bitstream Vera Sans" font-size="8.00">tax_rate_code</text>
<text text-anchor="start" x="90.5605" y="-148.1" font-family="Bitstream Vera Sans" font-size="8.00">tax_rate_percent</text>
<text text-anchor="start" x="90.5605" y="-140.1" font-family="Bitstream Vera Sans" font-size="8.00">taxable_amount</text>
<text text-anchor="start" x="90.5605" y="-132.1" font-family="Bitstream Vera Sans" font-size="8.00">tax_amount</text>
<polyline fill="none" stroke="black" points="82.5605,-126.5 185.717,-126.5 "/>
<text text-anchor="start" x="90.5605" y="-116.1" font-family="Bitstream Vera Sans" font-size="8.00">product_identifiers[]</text>
<text text-anchor="start" x="90.5605" y="-108.1" font-family="Bitstream Vera Sans" font-size="8.00">price_part_descriptions[]</text>
</g>
<!-- ProductIdentifier -->
<g id="node2" class="node"><title>ProductIdentifier</title>
<polygon fill="none" stroke="black" points="0,-0.5 0,-65.5 118.277,-65.5 118.277,-0.5 0,-0.5"/>
<text text-anchor="start" x="8" y="-55.1" font-family="Bitstream Vera Sans" font-size="8.00">Onix::V3_0::ProductIdentifier</text>
<polyline fill="none" stroke="black" points="0,-49.5 118.277,-49.5 "/>
<text text-anchor="start" x="8" y="-39.1" font-family="Bitstream Vera Sans" font-size="8.00">product_id_type</text>
<text text-anchor="start" x="8" y="-31.1" font-family="Bitstream Vera Sans" font-size="8.00">id_type_name</text>
<text text-anchor="start" x="8" y="-23.1" font-family="Bitstream Vera Sans" font-size="8.00">id_value</text>
<polyline fill="none" stroke="black" points="0,-17.5 118.277,-17.5 "/>
</g>
<!-- Tax&#45;&gt;ProductIdentifier -->
<g id="edge1" class="edge"><title>Tax&#45;&gt;ProductIdentifier</title>
<path fill="none" stroke="black" d="M105.142,-102.391C98.8942,-93.1032 92.3143,-83.3211 86.1463,-74.1513"/>
<polygon fill="black" stroke="black" points="88.8686,-71.9275 80.3831,-65.5834 83.0603,-75.8344 88.8686,-71.9275"/>
</g>
<!-- PricePartDescription -->
<g id="node3" class="node"><title>PricePartDescription</title>
<ellipse fill="none" stroke="black" cx="210.139" cy="-33" rx="74.4003" ry="18"/>
<text text-anchor="middle" x="210.139" y="-30.6" font-family="Bitstream Vera Sans" font-size="8.00">Onix::V3_0::PricePartDescription</text>
</g>
<!-- Tax&#45;&gt;PricePartDescription -->
<g id="edge2" class="edge"><title>Tax&#45;&gt;PricePartDescription</title>
<path fill="none" stroke="black" d="M163.522,-102.391C173.5,-87.7526 184.315,-71.8865 193.013,-59.1248"/>
<polygon fill="black" stroke="black" points="195.921,-61.0733 198.661,-50.8389 190.137,-57.1307 195.921,-61.0733"/>
</g>
</g>
</svg>
