<?xml version="1.0" encoding="UTF-8" standalone="no"?>
<!DOCTYPE svg PUBLIC "-//W3C//DTD SVG 1.1//EN"
 "http://www.w3.org/Graphics/SVG/1.1/DTD/svg11.dtd">
<!-- Generated by graphviz version 2.38.0 (20140413.2041)
 -->
<!-- Title: G Pages: 1 -->
<svg width="240pt" height="175pt"
 viewBox="0.00 0.00 240.16 175.00" xmlns="http://www.w3.org/2000/svg" xmlns:xlink="http://www.w3.org/1999/xlink">
<g id="graph0" class="graph" transform="scale(1 1) rotate(0) translate(4 171)">
<title>G</title>
<polygon fill="white" stroke="none" points="-4,4 -4,-171 236.16,-171 236.16,4 -4,4"/>
<!-- TextItem -->
<g id="node1" class="node"><title>TextItem</title>
<polygon fill="none" stroke="black" points="76.6738,-102.5 76.6738,-166.5 168.264,-166.5 168.264,-102.5 76.6738,-102.5"/>
<text text-anchor="start" x="84.6738" y="-156.1" font-family="Bitstream Vera Sans" font-size="8.00">Onix::V3_0::TextItem</text>
<polyline fill="none" stroke="black" points="76.6738,-150.5 168.264,-150.5 "/>
<text text-anchor="start" x="84.6738" y="-140.1" font-family="Bitstream Vera Sans" font-size="8.00">text_item_type</text>
<text text-anchor="start" x="84.6738" y="-132.1" font-family="Bitstream Vera Sans" font-size="8.00">number_of_pages</text>
<polyline fill="none" stroke="black" points="76.6738,-126.5 168.264,-126.5 "/>
<text text-anchor="start" x="84.6738" y="-116.1" font-family="Bitstream Vera Sans" font-size="8.00">text_item_identifiers[]</text>
<text text-anchor="start" x="84.6738" y="-108.1" font-family="Bitstream Vera Sans" font-size="8.00">page_runs[]</text>
</g>
<!-- TextItemIdentifier -->
<g id="node2" class="node"><title>TextItemIdentifier</title>
<polygon fill="none" stroke="black" points="0,-0.5 0,-65.5 120.938,-65.5 120.938,-0.5 0,-0.5"/>
<text text-anchor="start" x="8" y="-55.1" font-family="Bitstream Vera Sans" font-size="8.00">Onix::V3_0::TextItemIdentifier</text>
<polyline fill="none" stroke="black" points="0,-49.5 120.938,-49.5 "/>
<text text-anchor="start" x="8" y="-39.1" font-family="Bitstream Vera Sans" font-size="8.00">text_item_id_type</text>
<text text-anchor="start" x="8" y="-31.1" font-family="Bitstream Vera Sans" font-size="8.00">id_type_name</text>
<text text-anchor="start" x="8" y="-23.1" font-family="Bitstream Vera Sans" font-size="8.00">id_value</text>
<polyline fill="none" stroke="black" points="0,-17.5 120.938,-17.5 "/>
</g>
<!-- TextItem&#45;&gt;TextItemIdentifier -->
<g id="edge1" class="edge"><title>TextItem&#45;&gt;TextItemIdentifier</title>
<path fill="none" stroke="black" d="M103.022,-102.291C97.5316,-93.4799 91.4774,-83.7639 85.7003,-74.4925"/>
<polygon fill="black" stroke="black" points="88.5328,-72.42 80.2737,-65.7838 82.5918,-76.122 88.5328,-72.42"/>
</g>
<!-- PageRun -->
<g id="node3" class="node"><title>PageRun</title>
<polygon fill="none" stroke="black" points="138.777,-4.5 138.777,-61.5 232.16,-61.5 232.16,-4.5 138.777,-4.5"/>
<text text-anchor="start" x="146.777" y="-51.1" font-family="Bitstream Vera Sans" font-size="8.00">Onix::V3_0::PageRun</text>
<polyline fill="none" stroke="black" points="138.777,-45.5 232.16,-45.5 "/>
<text text-anchor="start" x="146.777" y="-35.1" font-family="Bitstream Vera Sans" font-size="8.00">first_page_number</text>
<text text-anchor="start" x="146.777" y="-27.1" font-family="Bitstream Vera Sans" font-size="8.00">last_page_number</text>
<polyline fill="none" stroke="black" points="138.777,-21.5 232.16,-21.5 "/>
</g>
<!-- TextItem&#45;&gt;PageRun -->
<g id="edge2" class="edge"><title>TextItem&#45;&gt;PageRun</title>
<path fill="none" stroke="black" d="M142.229,-102.291C148.657,-92.1388 155.846,-80.7851 162.488,-70.2945"/>
<polygon fill="black" stroke="black" points="165.518,-72.052 167.911,-61.7308 159.604,-68.3073 165.518,-72.052"/>
</g>
</g>
</svg>
