<?xml version="1.0" encoding="UTF-8" standalone="no"?>
<!DOCTYPE svg PUBLIC "-//W3C//DTD SVG 1.1//EN"
 "http://www.w3.org/Graphics/SVG/1.1/DTD/svg11.dtd">
<!-- Generated by graphviz version 2.38.0 (20140413.2041)
 -->
<!-- Title: G Pages: 1 -->
<svg width="859pt" height="295pt"
 viewBox="0.00 0.00 858.93 295.00" xmlns="http://www.w3.org/2000/svg" xmlns:xlink="http://www.w3.org/1999/xlink">
<g id="graph0" class="graph" transform="scale(1 1) rotate(0) translate(4 291)">
<title>G</title>
<polygon fill="white" stroke="none" points="-4,4 -4,-291 854.928,-291 854.928,4 -4,4"/>
<!-- TextContent -->
<g id="node1" class="node"><title>TextContent</title>
<polygon fill="none" stroke="black" points="377.1,-182.5 377.1,-286.5 479.814,-286.5 479.814,-182.5 377.1,-182.5"/>
<text text-anchor="start" x="385.1" y="-276.1" font-family="Bitstream Vera Sans" font-size="8.00">Onix::V3_0::TextContent</text>
<polyline fill="none" stroke="black" points="377.1,-270.5 479.814,-270.5 "/>
<text text-anchor="start" x="385.1" y="-260.1" font-family="Bitstream Vera Sans" font-size="8.00">text_type</text>
<text text-anchor="start" x="385.1" y="-252.1" font-family="Bitstream Vera Sans" font-size="8.00">text_source_corporate</text>
<polyline fill="none" stroke="black" points="377.1,-246.5 479.814,-246.5 "/>
<text text-anchor="start" x="385.1" y="-236.1" font-family="Bitstream Vera Sans" font-size="8.00">territory</text>
<text text-anchor="start" x="385.1" y="-228.1" font-family="Bitstream Vera Sans" font-size="8.00">review_rating</text>
<text text-anchor="start" x="385.1" y="-220.1" font-family="Bitstream Vera Sans" font-size="8.00">content_audiences[]</text>
<text text-anchor="start" x="385.1" y="-212.1" font-family="Bitstream Vera Sans" font-size="8.00">texts[]</text>
<text text-anchor="start" x="385.1" y="-204.1" font-family="Bitstream Vera Sans" font-size="8.00">text_authors[]</text>
<text text-anchor="start" x="385.1" y="-196.1" font-family="Bitstream Vera Sans" font-size="8.00">source_titles[]</text>
<text text-anchor="start" x="385.1" y="-188.1" font-family="Bitstream Vera Sans" font-size="8.00">content_dates[]</text>
</g>
<!-- Territory -->
<g id="node2" class="node"><title>Territory</title>
<polygon fill="none" stroke="black" points="0,-72.5 0,-145.5 88.9141,-145.5 88.9141,-72.5 0,-72.5"/>
<text text-anchor="start" x="8" y="-135.1" font-family="Bitstream Vera Sans" font-size="8.00">Onix::V3_0::Territory</text>
<polyline fill="none" stroke="black" points="0,-129.5 88.9141,-129.5 "/>
<text text-anchor="start" x="8" y="-119.1" font-family="Bitstream Vera Sans" font-size="8.00">countries_included</text>
<text text-anchor="start" x="8" y="-111.1" font-family="Bitstream Vera Sans" font-size="8.00">regions_included</text>
<text text-anchor="start" x="8" y="-103.1" font-family="Bitstream Vera Sans" font-size="8.00">regions_excluded</text>
<text text-anchor="start" x="8" y="-95.1" font-family="Bitstream Vera Sans" font-size="8.00">countries_excluded</text>
<polyline fill="none" stroke="black" points="0,-89.5 88.9141,-89.5 "/>
</g>
<!-- TextContent&#45;&gt;Territory -->
<g id="edge1" class="edge"><title>TextContent&#45;&gt;Territory</title>
<path fill="none" stroke="black" d="M377.012,-225.468C310.321,-213.824 191.436,-188.822 97.457,-146 94.6229,-144.709 91.7746,-143.269 88.9493,-141.729"/>
</g>
<!-- ReviewRating -->
<g id="node3" class="node"><title>ReviewRating</title>
<polygon fill="none" stroke="black" points="106.768,-81 106.768,-137 216.146,-137 216.146,-81 106.768,-81"/>
<text text-anchor="start" x="114.768" y="-126.6" font-family="Bitstream Vera Sans" font-size="8.00">Onix::V3_0::ReviewRating</text>
<polyline fill="none" stroke="black" points="106.768,-121 216.146,-121 "/>
<text text-anchor="start" x="114.768" y="-110.6" font-family="Bitstream Vera Sans" font-size="8.00">rating</text>
<text text-anchor="start" x="114.768" y="-102.6" font-family="Bitstream Vera Sans" font-size="8.00">rating_limit</text>
<polyline fill="none" stroke="black" points="106.768,-97 216.146,-97 "/>
<text text-anchor="start" x="114.768" y="-86.6" font-family="Bitstream Vera Sans" font-size="8.00">rating_units[]</text>
</g>
<!-- TextContent&#45;&gt;ReviewRating -->
<g id="edge2" class="edge"><title>TextContent&#45;&gt;ReviewRating</title>
<path fill="none" stroke="black" d="M377.003,-213.329C335.307,-196.532 275.336,-171.345 224.457,-146 218.932,-143.248 213.214,-140.23 207.579,-137.15"/>
</g>
<!-- ContentAudience -->
<g id="node4" class="node"><title>ContentAudience</title>
<ellipse fill="none" stroke="black" cx="301.457" cy="-109" rx="67.5238" ry="18"/>
<text text-anchor="middle" x="301.457" y="-106.6" font-family="Bitstream Vera Sans" font-size="8.00">Onix::V3_0::ContentAudience</text>
</g>
<!-- TextContent&#45;&gt;ContentAudience -->
<g id="edge3" class="edge"><title>TextContent&#45;&gt;ContentAudience</title>
<path fill="none" stroke="black" d="M376.801,-183.268C359.302,-166.251 340.56,-148.025 326.145,-134.008"/>
<polygon fill="black" stroke="black" points="328.227,-131.15 318.618,-126.688 323.347,-136.169 328.227,-131.15"/>
</g>
<!-- Text -->
<g id="node5" class="node"><title>Text</title>
<ellipse fill="none" stroke="black" cx="428.457" cy="-109" rx="41.8842" ry="18"/>
<text text-anchor="middle" x="428.457" y="-106.6" font-family="Bitstream Vera Sans" font-size="8.00">Onix::V3_0::Text</text>
</g>
<!-- TextContent&#45;&gt;Text -->
<g id="edge4" class="edge"><title>TextContent&#45;&gt;Text</title>
<path fill="none" stroke="black" d="M428.457,-182.198C428.457,-166.872 428.457,-150.663 428.457,-137.494"/>
<polygon fill="black" stroke="black" points="431.957,-137.233 428.457,-127.233 424.957,-137.233 431.957,-137.233"/>
</g>
<!-- TextAuthor -->
<g id="node6" class="node"><title>TextAuthor</title>
<ellipse fill="none" stroke="black" cx="543.457" cy="-109" rx="54.6956" ry="18"/>
<text text-anchor="middle" x="543.457" y="-106.6" font-family="Bitstream Vera Sans" font-size="8.00">Onix::V3_0::TextAuthor</text>
</g>
<!-- TextContent&#45;&gt;TextAuthor -->
<g id="edge5" class="edge"><title>TextContent&#45;&gt;TextAuthor</title>
<path fill="none" stroke="black" d="M476.228,-182.198C491.807,-165.467 508.368,-147.683 521.155,-133.951"/>
<polygon fill="black" stroke="black" points="523.958,-136.077 528.211,-126.373 518.835,-131.306 523.958,-136.077"/>
</g>
<!-- SourceTitle -->
<g id="node7" class="node"><title>SourceTitle</title>
<ellipse fill="none" stroke="black" cx="672.457" cy="-109" rx="55.845" ry="18"/>
<text text-anchor="middle" x="672.457" y="-106.6" font-family="Bitstream Vera Sans" font-size="8.00">Onix::V3_0::SourceTitle</text>
</g>
<!-- TextContent&#45;&gt;SourceTitle -->
<g id="edge6" class="edge"><title>TextContent&#45;&gt;SourceTitle</title>
<path fill="none" stroke="black" d="M480.116,-209.109C516.061,-191.928 564.968,-168.133 607.457,-146 617.167,-140.942 627.584,-135.281 637.171,-129.972"/>
<polygon fill="black" stroke="black" points="639.025,-132.946 646.058,-125.022 635.619,-126.83 639.025,-132.946"/>
</g>
<!-- ContentDate -->
<g id="node8" class="node"><title>ContentDate</title>
<polygon fill="none" stroke="black" points="745.986,-76.5 745.986,-141.5 850.928,-141.5 850.928,-76.5 745.986,-76.5"/>
<text text-anchor="start" x="753.986" y="-131.1" font-family="Bitstream Vera Sans" font-size="8.00">Onix::V3_0::ContentDate</text>
<polyline fill="none" stroke="black" points="745.986,-125.5 850.928,-125.5 "/>
<text text-anchor="start" x="753.986" y="-115.1" font-family="Bitstream Vera Sans" font-size="8.00">content_date_role</text>
<text text-anchor="start" x="753.986" y="-107.1" font-family="Bitstream Vera Sans" font-size="8.00">date_format</text>
<text text-anchor="start" x="753.986" y="-99.1" font-family="Bitstream Vera Sans" font-size="8.00">date</text>
<polyline fill="none" stroke="black" points="745.986,-93.5 850.928,-93.5 "/>
</g>
<!-- TextContent&#45;&gt;ContentDate -->
<g id="edge7" class="edge"><title>TextContent&#45;&gt;ContentDate</title>
<path fill="none" stroke="black" d="M479.868,-223.201C542.335,-209.729 650.196,-183.362 737.457,-146 737.556,-145.958 737.655,-145.915 737.754,-145.873"/>
<polygon fill="black" stroke="black" points="739.418,-148.959 747.019,-141.577 736.474,-142.608 739.418,-148.959"/>
</g>
<!-- RatingUnits -->
<g id="node9" class="node"><title>RatingUnits</title>
<ellipse fill="none" stroke="black" cx="161.457" cy="-18" rx="56.6663" ry="18"/>
<text text-anchor="middle" x="161.457" y="-15.6" font-family="Bitstream Vera Sans" font-size="8.00">Onix::V3_0::RatingUnits</text>
</g>
<!-- ReviewRating&#45;&gt;RatingUnits -->
<g id="edge8" class="edge"><title>ReviewRating&#45;&gt;RatingUnits</title>
<path fill="none" stroke="black" d="M161.457,-80.8135C161.457,-69.925 161.457,-57.3981 161.457,-46.4804"/>
<polygon fill="black" stroke="black" points="164.957,-46.2194 161.457,-36.2194 157.957,-46.2195 164.957,-46.2194"/>
</g>
</g>
</svg>
