<?xml version="1.0" encoding="UTF-8" standalone="no"?>
<!DOCTYPE svg PUBLIC "-//W3C//DTD SVG 1.1//EN"
 "http://www.w3.org/Graphics/SVG/1.1/DTD/svg11.dtd">
<!-- Generated by graphviz version 2.38.0 (20140413.2041)
 -->
<!-- Title: G Pages: 1 -->
<svg width="112pt" height="215pt"
 viewBox="0.00 0.00 112.19 215.00" xmlns="http://www.w3.org/2000/svg" xmlns:xlink="http://www.w3.org/1999/xlink">
<g id="graph0" class="graph" transform="scale(1 1) rotate(0) translate(4 211)">
<title>G</title>
<polygon fill="white" stroke="none" points="-4,4 -4,-211 108.191,-211 108.191,4 -4,4"/>
<!-- TitleDetail -->
<g id="node1" class="node"><title>TitleDetail</title>
<polygon fill="none" stroke="black" points="4.44727,-150.5 4.44727,-206.5 99.7441,-206.5 99.7441,-150.5 4.44727,-150.5"/>
<text text-anchor="start" x="12.4473" y="-196.1" font-family="Bitstream Vera Sans" font-size="8.00">Onix::V3_0::TitleDetail</text>
<polyline fill="none" stroke="black" points="4.44727,-190.5 99.7441,-190.5 "/>
<text text-anchor="start" x="12.4473" y="-180.1" font-family="Bitstream Vera Sans" font-size="8.00">title_type</text>
<text text-anchor="start" x="12.4473" y="-172.1" font-family="Bitstream Vera Sans" font-size="8.00">title_statement</text>
<polyline fill="none" stroke="black" points="4.44727,-166.5 99.7441,-166.5 "/>
<text text-anchor="start" x="12.4473" y="-156.1" font-family="Bitstream Vera Sans" font-size="8.00">title_elements[]</text>
</g>
<!-- TitleElement -->
<g id="node2" class="node"><title>TitleElement</title>
<polygon fill="none" stroke="black" points="0,-0.5 0,-113.5 104.191,-113.5 104.191,-0.5 0,-0.5"/>
<text text-anchor="start" x="8" y="-103.1" font-family="Bitstream Vera Sans" font-size="8.00">Onix::V3_0::TitleElement</text>
<polyline fill="none" stroke="black" points="0,-97.5 104.191,-97.5 "/>
<text text-anchor="start" x="8" y="-87.1" font-family="Bitstream Vera Sans" font-size="8.00">sequence_number</text>
<text text-anchor="start" x="8" y="-79.1" font-family="Bitstream Vera Sans" font-size="8.00">title_element_level</text>
<text text-anchor="start" x="8" y="-71.1" font-family="Bitstream Vera Sans" font-size="8.00">part_number</text>
<text text-anchor="start" x="8" y="-63.1" font-family="Bitstream Vera Sans" font-size="8.00">year_of_annual</text>
<text text-anchor="start" x="8" y="-55.1" font-family="Bitstream Vera Sans" font-size="8.00">title_prefix</text>
<text text-anchor="start" x="8" y="-47.1" font-family="Bitstream Vera Sans" font-size="8.00">no_prefix</text>
<text text-anchor="start" x="8" y="-39.1" font-family="Bitstream Vera Sans" font-size="8.00">title_without_prefix</text>
<text text-anchor="start" x="8" y="-31.1" font-family="Bitstream Vera Sans" font-size="8.00">title_text</text>
<text text-anchor="start" x="8" y="-23.1" font-family="Bitstream Vera Sans" font-size="8.00">subtitle</text>
<polyline fill="none" stroke="black" points="0,-17.5 104.191,-17.5 "/>
</g>
<!-- TitleDetail&#45;&gt;TitleElement -->
<g id="edge1" class="edge"><title>TitleDetail&#45;&gt;TitleElement</title>
<path fill="none" stroke="black" d="M52.0957,-150.384C52.0957,-142.393 52.0957,-133.28 52.0957,-123.963"/>
<polygon fill="black" stroke="black" points="55.5958,-123.817 52.0957,-113.817 48.5958,-123.817 55.5958,-123.817"/>
</g>
</g>
</svg>
