<?xml version="1.0" encoding="UTF-8" standalone="no"?>
<!DOCTYPE svg PUBLIC "-//W3C//DTD SVG 1.1//EN"
 "http://www.w3.org/Graphics/SVG/1.1/DTD/svg11.dtd">
<!-- Generated by graphviz version 2.38.0 (20140413.2041)
 -->
<!-- Title: G Pages: 1 -->
<svg width="152pt" height="137pt"
 viewBox="0.00 0.00 151.78 137.00" xmlns="http://www.w3.org/2000/svg" xmlns:xlink="http://www.w3.org/1999/xlink">
<g id="graph0" class="graph" transform="scale(1 1) rotate(0) translate(4 133)">
<title>G</title>
<polygon fill="white" stroke="none" points="-4,4 -4,-133 147.778,-133 147.778,4 -4,4"/>
<!-- Website -->
<g id="node1" class="node"><title>Website</title>
<polygon fill="none" stroke="black" points="24.5353,-72.5 24.5353,-128.5 119.242,-128.5 119.242,-72.5 24.5353,-72.5"/>
<text text-anchor="start" x="32.5353" y="-118.1" font-family="Bitstream Vera Sans" font-size="8.00">Onix::V3_0::Website</text>
<polyline fill="none" stroke="black" points="24.5353,-112.5 119.242,-112.5 "/>
<text text-anchor="start" x="32.5353" y="-102.1" font-family="Bitstream Vera Sans" font-size="8.00">website_role</text>
<text text-anchor="start" x="32.5353" y="-94.1" font-family="Bitstream Vera Sans" font-size="8.00">website_link</text>
<polyline fill="none" stroke="black" points="24.5353,-88.5 119.242,-88.5 "/>
<text text-anchor="start" x="32.5353" y="-78.1" font-family="Bitstream Vera Sans" font-size="8.00">website_descriptions[]</text>
</g>
<!-- WebsiteDescription -->
<g id="node2" class="node"><title>WebsiteDescription</title>
<ellipse fill="none" stroke="black" cx="71.8888" cy="-18" rx="71.7777" ry="18"/>
<text text-anchor="middle" x="71.8888" y="-15.6" font-family="Bitstream Vera Sans" font-size="8.00">Onix::V3_0::WebsiteDescription</text>
</g>
<!-- Website&#45;&gt;WebsiteDescription -->
<g id="edge1" class="edge"><title>Website&#45;&gt;WebsiteDescription</title>
<path fill="none" stroke="black" d="M71.8888,-72.2464C71.8888,-63.9078 71.8888,-54.7356 71.8888,-46.3881"/>
<polygon fill="black" stroke="black" points="75.3889,-46.3805 71.8888,-36.3806 68.3889,-46.3806 75.3889,-46.3805"/>
</g>
</g>
</svg>
